<?xml version="1.0" encoding="utf-8"?>
<!-- Generator: Adobe Illustrator 26.0.1, SVG Export Plug-In . SVG Version: 6.00 Build 0)  -->
<svg version="1.1" id="Layer_1" xmlns="http://www.w3.org/2000/svg" xmlns:xlink="http://www.w3.org/1999/xlink" x="0px" y="0px"
	 viewBox="0 0 1174 782.7" style="enable-background:new 0 0 1174 782.7;" xml:space="preserve">
<style type="text/css">
	.st0{fill:#EBEBEB;}
	.st1{fill-rule:evenodd;clip-rule:evenodd;fill:#E0E0E0;}
	.st2{fill:#E0E0E0;}
	.st3{fill:#F5F5F5;}
	.st4{fill:none;}
	.st5{fill:#FFFFFF;}
	.st6{fill:#263238;}
	.st7{fill:#455A64;}
	.st8{fill:#554745;}
	.st9{opacity:0.3;}
	.st10{fill:#FFBF9D;}
	.st11{fill:#FF9A6C;}
</style>
<g id="freepik--background-complete--inject-16">
	<path class="st0" d="M61.9,307.3c2.8-1.7,5.8-3,9-3.9l1.8-8.9l15-0.3L90,303c3.2,0.8,6.2,2,9.1,3.6l7.6-4.9l10.8,10.4l-4.7,7.7
		c1.7,2.8,3,5.8,3.9,9l8.9,1.9l0.3,15l-8.8,2.2c-0.8,3.2-2,6.3-3.6,9.1l4.9,7.6l-10.4,10.7l-7.7-4.7c-2.8,1.7-5.8,3-9,3.9l-1.9,8.9
		l-15,0.3l-2.2-8.8c-3.2-0.8-6.3-2-9.1-3.6l-7.6,4.9l-10.8-10.4l4.7-7.7c-1.7-2.8-3-5.8-3.9-9l-8.9-1.8l-0.3-15l8.8-2.2
		c0.8-3.2,2-6.2,3.6-9.1l-4.9-7.6l10.4-10.8L61.9,307.3L61.9,307.3z M69.9,327.2c-6.2,6.4-5.9,16.6,0.5,22.8
		c6.4,6.2,16.6,5.9,22.8-0.5c6.1-6.4,6-16.5-0.4-22.7C86.4,320.7,76.2,320.8,69.9,327.2C70,327.2,70,327.2,69.9,327.2z"/>
	<path class="st0" d="M84,90.1c2.8-1.7,5.8-3,9-3.9l1.9-8.9l15-0.3l2.2,8.8c3.2,0.8,6.2,2,9.1,3.6l7.6-5L139.5,95l-4.7,7.7
		c1.7,2.8,3,5.8,3.9,9l8.9,1.9l0.3,15l-8.8,2.2c-0.8,3.2-2,6.2-3.6,9l4.9,7.6l-10.4,10.8l-7.7-4.7c-2.8,1.7-5.8,3-9,3.9l-1.9,8.9
		l-15,0.3l-2.1-8.8c-3.2-0.8-6.2-2-9.1-3.6l-7.6,4.9l-10.8-10.4l4.7-7.8c-1.7-2.8-3-5.8-3.9-9l-8.9-1.8l-0.3-15l8.8-2.2
		c0.8-3.1,2-6.1,3.6-9l-4.9-7.6l10.3-10.8L84,90.1z M92,110.1c-6.2,6.4-5.9,16.6,0.5,22.8c6.4,6.2,16.6,5.9,22.8-0.5
		c6.1-6.4,5.9-16.5-0.4-22.7C108.5,103.5,98.3,103.7,92,110.1C92.1,110.1,92.1,110.1,92,110.1z"/>
	<path class="st0" d="M411.4,174.3c3.4-2,7-3.6,10.8-4.7l2.2-10.7l18.1-0.3l2.6,10.6c3.8,0.9,7.5,2.4,11,4.3l9.2-6l13,12.6l-5.7,9.4
		c2,3.4,3.6,7,4.7,10.8l10.7,2.2l0.3,18.1l-10.6,2.6c-0.9,3.8-2.4,7.5-4.3,11l6,9.2l-12.6,13l-9.4-5.7c-3.4,2-7,3.6-10.8,4.7
		l-2.2,10.7l-18.1,0.3l-2.6-10.6c-3.8-0.9-7.5-2.4-11-4.3l-9.1,6l-13-12.6l5.7-9.4c-2.1-3.4-3.6-7-4.7-10.8l-10.7-2.2l-0.3-18.1
		l10.6-2.6c1-3.8,2.4-7.5,4.3-11l-6-9.1l12.6-13L411.4,174.3L411.4,174.3z M421.1,198.4c-7.5,7.7-7.2,20,0.5,27.5
		c7.7,7.5,20,7.2,27.5-0.5c7.5-7.7,7.2-20-0.5-27.5C440.8,190.5,428.5,190.7,421.1,198.4z"/>
	<path class="st0" d="M164.7,56.6c1.4-0.9,2.9-1.5,4.5-2l0.9-4.5l7.6-0.1l1.1,4.5c1.6,0.4,3.2,1,4.6,1.8l3.8-2.5l5.4,5.3l-2.4,3.9
		c0.9,1.4,1.5,2.9,2,4.5l4.5,0.9l0.1,7.6l-4.5,1.1c-0.4,1.6-1,3.2-1.8,4.6l2.5,3.8l-5.3,5.4l-3.9-2.4c-1.4,0.9-2.9,1.5-4.5,2
		l-0.9,4.5l-7.6,0.1l-1-4.5c-1.6-0.4-3.2-1-4.6-1.8l-3.8,2.5l-5.5-5.3l2.5-3.9c-0.9-1.4-1.6-2.9-2.1-4.5l-4.5-1l-0.1-7.6l4.5-1.1
		c0.4-1.6,1-3.2,1.8-4.6l-2.5-3.8l5.3-5.4L164.7,56.6L164.7,56.6z M168.8,66.7c-3.1,3.2-3.1,8.4,0.2,11.5s8.4,3.1,11.5-0.2
		c3.1-3.2,3.1-8.4-0.2-11.5c0,0,0,0,0,0C177,63.4,171.9,63.4,168.8,66.7z"/>
	<path class="st1" d="M966.7,110.7c0,1.6-1.3,2.8-2.8,2.8c-1.6,0-2.8-1.3-2.8-2.8s1.3-2.8,2.8-2.8c0,0,0,0,0,0
		C965.5,107.9,966.7,109.2,966.7,110.7z"/>
	<path class="st1" d="M1040.1,63.7c0,1.6-1.3,2.8-2.8,2.9c-1.6,0-2.8-1.3-2.9-2.8s1.3-2.8,2.8-2.9c0,0,0,0,0,0
		C1038.9,60.9,1040.1,62.2,1040.1,63.7z"/>
	<path class="st2" d="M952.6,637c0,0,0-0.8,0-2.3s0-3.8,0-6.7c0-5.9,0-14.7,0-25.9c0-22.6,0-55.2-0.1-95.7c0-81.1,0-193.5-0.1-319
		v-0.1v-0.1c3.7-7.3,7.6-15.1,11.6-23v0.2v-53.6l0.4,0.4l-372.2-0.2l0.2-0.2c0,17.2,0,30.4,0,39.4c0,4.4,0,7.8,0,10.1
		c0,2.3,0,3.4,0,3.4s0-1.2,0-3.4s0-5.7,0-10.1c0-8.9,0-22.1-0.1-39.4v-0.2h0.2l372.2-0.2h0.4v0.4c0,16.9,0,34.2,0,52v1.6v0.1
		L953,187.5v-0.2c0,125.5-0.1,237.9-0.1,319c0,40.5-0.1,73.2-0.1,95.7c0,11.3,0,20,0,25.9c0,3,0,5.2,0,6.7S952.6,637,952.6,637z"/>
	<path class="st2" d="M1025.7,314.6c0,0,0-0.8,0-2.4s-0.1-4-0.1-7.1c-0.1-6.3-0.3-15.5-0.5-27.3c-0.4-23.7-0.9-57.7-1.6-99.3l0,0
		l0,0c4.1-11,8.5-22.6,13-34.8v0.1c0-24.3,0-51.3,0-79.8l0.4,0.4H932.6H759.7h-0.2l-0.1-0.2l-10.3-21.7l0.3,0.2l-116.7-0.1
		l-32.6-0.1h-8.6h-2.9c0,0,1,0,2.9,0h8.6l32.6-0.1l116.7-0.1h0.2l0.1,0.2l10.4,21.3l-0.3-0.2h172.8h104.7v0.4c0,28.5,0,55.4,0,79.8
		l0,0l0,0l-13,34.7v-0.1c0.5,41.6,1,75.7,1.3,99.3c0.1,11.8,0.2,21,0.3,27.3c0,3.1,0,5.5,0,7.1
		C1025.8,313.8,1025.7,314.6,1025.7,314.6z"/>
	<path class="st2" d="M1005.4,332.8c0,0,0-0.9-0.1-2.7s-0.1-4.5-0.2-7.9c-0.2-7-0.4-17.2-0.7-30.4c-0.6-26.3-1.5-64.3-2.5-110.9l0,0
		l0,0l15.3-35.9v0.1c0.5-19.6,1-40.8,1.5-63.1l0.4,0.4H838.5l-293.2-0.1l0.2-0.1L521.7,106l0,0h-0.1l-79.4-0.6l-21.2-0.2h-5.5h-1.8
		h1.8h5.5h21.2l79.3,0.4h-0.2c7.4-7.4,15.3-15.4,23.8-23.8l0.1-0.1h0.1l293.2-0.1H1019h0.4V82c-0.6,22.2-1.1,43.5-1.6,63.1l0,0l0,0
		c-5.4,12.5-10.5,24.5-15.4,35.9v-0.1c0.9,46.6,1.6,84.6,2.2,110.9c0.2,13.1,0.4,23.4,0.6,30.4c0,3.5,0.1,6.1,0.1,7.9
		C1005.3,331.7,1005.4,332.8,1005.4,332.8z"/>
	<path class="st1" d="M418.5,104.8c0,1.6-1.3,2.8-2.8,2.8c-1.6,0-2.8-1.3-2.8-2.8s1.3-2.8,2.8-2.8l0,0
		C417.3,101.9,418.5,103.2,418.5,104.8C418.5,104.7,418.5,104.7,418.5,104.8z"/>
	<path class="st1" d="M588.7,42.2c0,1.6-1.3,2.8-2.8,2.8c-1.6,0-2.8-1.3-2.8-2.8s1.3-2.8,2.8-2.8l0,0
		C587.4,39.4,588.7,40.6,588.7,42.2z"/>
	<path class="st0" d="M1059.5,631.7h-59.3c17.3-59,21.3-169.6,18.4-242.8h21.8C1039.3,461.8,1044.6,571.8,1059.5,631.7z"/>
	<path class="st0" d="M1141,703.4c-10.2-11.4-25.4-17.1-40.6-15.3c1.4-13,2.7-26.9-2.4-38.9c-5.2-12-19.3-20.5-30.1-14.2
		c4-18.1-3-38.4-17-49.4c-14.2-11-33.8-12-49-2.5c-14.9,9.5-23.7,29-21.3,47.4c-15.5-1-30.4,6.4-39,19.3
		c-8.8,13.6-10.6,30.6-4.8,45.8c-22.2-1.2-43.4,27.8-42.9,51.6l259.9-0.3C1156.1,731.3,1151.5,715.3,1141,703.4z"/>
	<path class="st0" d="M1010.2,280.1l50,17.3c11,11.3,3.6,27.3-5.7,33.5c8.9,4.3,12.6,14.9,8.3,23.8c-2.5,5.2-7.4,8.9-13,9.8
		c4.9,7.3,2.9,17.2-4.4,22.1c-7.3,4.9-17.2,2.9-22.1-4.4c-0.6-1-1.2-2-1.6-3.1c-2.1-5.5-1.1-12-4.1-17.2c-2.8-4.8-8.3-7.1-12.8-10.3
		c-11.2-8-16.3-22.8-14.7-36.5C991.7,301.5,999.8,289.1,1010.2,280.1z"/>
	<path class="st2" d="M1042,291.5c1.9,4.9,2.8,10.2,2.7,15.5c-0.1,2-1.7,3.5-3.7,3.5c-1.1,0-2.2-0.6-2.8-1.5l0,0
		c0.2,6.5,0,13-0.6,19.4c-0.2,2.4-2.4,4.2-4.8,4c-1.3-0.1-2.5-0.8-3.3-1.9c-9.3-13.5-13.3-30-11.4-46.3L1042,291.5z"/>
	<path class="st2" d="M992.4,231.1l-0.3,0.2c-15.8,12.7-24.9,31.8-24.9,52V296l25.2-17.5L992.4,231.1z"/>
	<path class="st2" d="M1064.2,231l0.3,0.2c15.5,12.5,24.6,31.3,24.6,51.3V295l-24.8-17.2V231z"/>
	<path class="st3" d="M1028.3,107c5.7,0,16.2,14.7,25.9,39.3c5.8,14.5,9.2,29.8,10.1,45.3v105.8h-71.8v-96
		c-0.1-9.4,0.8-18.7,2.5-27.9c1.8-9.3,4.3-18.4,7.5-27.2C1011.5,121.6,1022.6,107.1,1028.3,107"/>
	<line class="st4" x1="1064.3" y1="280.6" x2="993.1" y2="280.2"/>
	<path class="st2" d="M993.1,280.2c0,0.1,15.9,0.3,35.6,0.4c19.6,0.1,35.6,0.1,35.6,0c0-0.1-15.9-0.3-35.6-0.4
		C1009,280.1,993.1,280.1,993.1,280.2z"/>
	<line class="st4" x1="1064.6" y1="283.8" x2="993.4" y2="283.4"/>
	<path class="st2" d="M993.4,283.4c0,0.1,15.9,0.3,35.6,0.4c19.6,0.1,35.6,0.1,35.6,0c0-0.1-15.9-0.3-35.6-0.4
		S993.4,283.3,993.4,283.4z"/>
	<line class="st4" x1="1064.5" y1="287.2" x2="993.4" y2="286.8"/>
	<path class="st2" d="M993.4,286.8c0,0.1,15.9,0.3,35.6,0.4c19.6,0.1,35.6,0.1,35.6,0c0-0.1-15.9-0.3-35.6-0.4
		C1009.3,286.7,993.4,286.7,993.4,286.8z"/>
	<line class="st4" x1="1064.5" y1="290.6" x2="993.3" y2="290.2"/>
	<path class="st2" d="M993.3,290.2c0,0.1,15.9,0.3,35.6,0.4c19.6,0.1,35.6,0.1,35.6,0c0-0.1-15.9-0.3-35.6-0.4
		C1009.2,290.1,993.3,290.1,993.3,290.2z"/>
	<line class="st4" x1="1064.4" y1="294" x2="993.3" y2="293.6"/>
	<path class="st2" d="M993.3,293.6c0,0.1,15.9,0.3,35.6,0.4c19.6,0.1,35.6,0.1,35.6,0c0-0.1-15.9-0.3-35.6-0.4
		C1009.2,293.5,993.3,293.5,993.3,293.6z"/>
	<path class="st2" d="M1028.2,231.2c0,0.2,0,0.3,0,0.5c-0.1,0.5-0.1,1-0.1,1.4c0,1.2,0,3,0,5.3c0,4.5,0,10.6,0,17.4
		s0.2,12.9,0.3,17.4c0,2.2,0.1,4,0.1,5.3c0,0.6,0,1.1,0,1.4c0,0.2,0,0.3,0,0.5c0-0.2,0-0.3,0-0.5c0-0.4,0-0.8,0-1.4
		c0-1.3,0-3.1,0-5.3c0-4.5-0.1-10.6-0.1-17.4s-0.1-12.9-0.2-17.4c0-2.2,0-4,0-5.3c0-0.6,0-1.1,0-1.4
		C1028.2,231.5,1028.2,231.4,1028.2,231.2z"/>
	<path class="st2" d="M992.4,231.1c0,0.1,15.9,0.2,35.6,0.2c19.7,0,35.6-0.1,35.6-0.2s-16-0.2-35.6-0.2
		C1008.3,231,992.4,231,992.4,231.1z"/>
	<path class="st2" d="M1022.4,266.1c0,0-0.1-0.2-0.4-0.3c-0.5-0.2-1-0.2-1.5-0.1c-0.8,0.2-1.4,0.7-1.6,1.5c-0.4,1.2,0.3,2.5,1.5,2.9
		c0.7,0.2,1.4,0.1,2-0.2c0.7-0.4,1.1-1.1,1.1-1.9c0-0.5-0.2-1-0.5-1.4C1022.7,266.2,1022.5,266.2,1022.4,266.1
		c0.1,0.1,0.2,0.2,0.4,0.5c0.2,0.4,0.3,0.9,0.3,1.3c0,0.7-0.4,1.3-1,1.6c-0.9,0.6-2.2,0.3-2.7-0.7c-0.3-0.5-0.4-1.1-0.2-1.6
		c0.2-0.6,0.7-1.1,1.3-1.3c0.4-0.1,0.9-0.1,1.4,0C1022.2,266,1022.4,266.1,1022.4,266.1z"/>
	<path class="st2" d="M1022,245.7c0,0-0.1-0.2-0.4-0.3c-0.5-0.2-1-0.2-1.5-0.1c-0.8,0.2-1.4,0.7-1.6,1.5c-0.3,0.9,0,1.9,0.8,2.6
		c0.8,0.6,1.8,0.6,2.7,0.1c1.1-0.7,1.4-2.1,0.7-3.1c0,0-0.1-0.1-0.1-0.1c-0.2-0.3-0.4-0.4-0.4-0.4c0,0,0.1,0.2,0.3,0.4
		c0.2,0.4,0.3,0.8,0.3,1.3c0,0.7-0.4,1.3-1,1.6c-0.9,0.6-2.2,0.3-2.7-0.7c-0.3-0.5-0.4-1.1-0.2-1.6c0.2-0.6,0.7-1.2,1.3-1.3
		c0.4-0.1,0.9-0.1,1.4,0C1021.8,245.6,1022,245.7,1022,245.7z"/>
	<path class="st2" d="M1026.3,340.6c1.8,1.1,2.3,3.5,1.1,5.3c-1.1,1.8-3.5,2.3-5.3,1.1c-1.8-1.1-2.3-3.5-1.1-5.3
		c1.1-1.7,3.3-2.2,5-1.3"/>
	<path class="st5" d="M1012,168.1c-5.9,8.9-3.5,21,5.4,26.9c8.9,5.9,21,3.5,26.9-5.4c5.9-8.9,3.5-21-5.4-26.9
		C1030,156.8,1017.9,159.2,1012,168.1C1012,168.1,1012,168.1,1012,168.1z"/>
	<path class="st2" d="M1012,168.1c1-1.2,2.1-2.4,3.3-3.5c3.2-2.9,7.4-4.6,11.7-4.9c6.5-0.4,12.7,2.5,16.5,7.8
		c2.2,3,3.5,6.6,3.7,10.4c0.4,8.3-4.6,15.8-12.4,18.7c-1.8,0.7-3.7,1.1-5.6,1.1c-1.8,0.1-3.7,0-5.4-0.5c-3.3-0.8-6.3-2.5-8.8-4.9
		c-2.1-2.1-3.8-4.6-4.8-7.4c-1.4-4.1-1.5-8.5-0.1-12.7c0.6-1.5,1.2-2.9,2-4.3c-0.3,0.3-0.5,0.7-0.7,1c-0.3,0.4-0.5,0.8-0.8,1.3
		c-0.3,0.6-0.6,1.2-0.8,1.9c-2.6,7.2-0.8,15.3,4.7,20.7c2.5,2.5,5.7,4.2,9.1,5.1c3.8,0.9,7.8,0.7,11.4-0.6
		c8.2-2.9,13.5-10.9,13-19.6c-0.2-3.9-1.5-7.7-3.9-10.8c-2.1-2.8-4.9-5-8.2-6.4c-7.1-2.9-15.2-1.5-20.8,3.7c-0.5,0.5-1,1-1.4,1.5
		c-0.3,0.4-0.7,0.8-0.9,1.2C1012.4,167.3,1012.2,167.7,1012,168.1z"/>
	<path class="st2" d="M1028.3,107c5.7,0,16.2,14.7,25.9,39.3h-51.7C1011.5,121.6,1022.6,107.1,1028.3,107"/>
	<path class="st2" d="M1028.3,107l-1,0.1c-1,0.3-1.8,0.7-2.7,1.3c-3,2.3-5.6,5.2-7.7,8.4c-5.7,8.2-12.3,21.2-17.7,38.3
		c-2.9,9.4-4.9,19.1-6.2,28.9c-0.6,5.5-1,11-1,16.5c0,5.7,0,11.6,0,17.6c0,24.1,0,50.9,0,79.3v0.5h72.7v-0.4c0-28.4,0-55.2-0.1-79.3
		c0-6,0-11.9,0-17.6c0-2.9,0-5.7,0-8.4c0-2.8-0.3-5.5-0.7-8.2c-1.2-9.8-3.3-19.4-6.3-28.8c-2.6-7.7-5.6-15.1-9.1-22.4
		c-2.6-5.5-5.6-10.8-9-15.9c-2.1-3.2-4.6-6.1-7.6-8.5c-0.6-0.3-1-0.7-1.5-0.9c-0.4-0.2-0.8-0.3-1.2-0.4L1028.3,107c0,0,0.3,0,1,0.2
		c0.4,0.1,0.8,0.3,1.1,0.5c0.5,0.3,1,0.6,1.4,0.9c2.9,2.4,5.4,5.3,7.4,8.5c3.3,5,6.3,10.3,8.8,15.8c3.5,7.3,6.5,14.7,9,22.4
		c3,9.4,5,19,6.2,28.7c0.3,2.6,0.6,5.3,0.6,8.2v8.4c0,5.7,0,11.5,0,17.6c0,24.1,0,50.9,0,79.3l0.4-0.4h-71.9l0.4,0.4
		c0-28.4,0-55.2-0.1-79.3c0-6,0-11.9,0-17.6c0-5.5,0.3-11,1-16.5c1.2-9.7,3.2-19.4,6-28.8c5.3-17.2,11.8-30.2,17.4-38.4
		c2.1-3.2,4.6-6,7.5-8.4c0.8-0.6,1.7-1,2.6-1.3L1028.3,107z"/>
	<path class="st2" d="M1017.5,188.8c1.1-0.7,2.1-1.6,2.9-2.6c1.7-1.6,4-4.1,6.5-6.9l6.3-7c0.9-0.9,1.8-1.9,2.5-3
		c-1.1,0.7-2.1,1.6-2.9,2.6c-1.7,1.6-4,4.1-6.5,6.9l-6.3,7C1019.1,186.7,1018.3,187.7,1017.5,188.8z"/>
	<path class="st2" d="M1023.3,188.8c2.3-1.8,4.4-3.7,6.2-5.9c2.1-2,4-4.2,5.6-6.5c-2.3,1.8-4.4,3.7-6.2,5.9
		C1026.8,184.3,1024.9,186.5,1023.3,188.8z"/>
</g>
<g id="freepik--Floor--inject-16">
	<path class="st6" d="M1134.4,747.6c0,0.2-248.6,0.4-555.2,0.4s-555.3-0.1-555.3-0.4c0-0.3,248.6-0.4,555.3-0.4
		S1134.4,747.4,1134.4,747.6z"/>
</g>
<g id="freepik--OK--inject-16">
	<path class="st6" d="M1011.4,370.2h59.7c8.9,0,16.1,7.2,16.1,16.1V446c0,8.9-7.2,16.1-16.1,16.1h-59.7c-8.9,0-16.1-7.2-16.1-16.1
		v-59.7C995.3,377.4,1002.5,370.2,1011.4,370.2z"/>
	<path class="st7" d="M997.9,370.2h59.7c8.9,0,16.1,7.2,16.1,16.1V446c0,8.9-7.2,16.1-16.1,16.1h-59.7c-8.9,0-16.1-7.2-16.1-16.1
		v-59.7C981.8,377.4,989,370.2,997.9,370.2z"/>
	<polygon class="st5" points="999.6,415.6 1008.4,406.9 1025.2,421.9 1053.3,393.6 1061.5,402.3 1024,438.7 	"/>
</g>
<g id="freepik--Plant--inject-16">
	<path class="st8" d="M1028.4,648.1c4.5,2.2,7.9,6,9.5,10.8c1.5,4.7,2,9.7,1.3,14.6c-1.1,9.5-6.4,19-12.2,26.6
		c-8-7-9.8-19.1-10.4-25.3C1015.8,665,1020.2,646.7,1028.4,648.1"/>
	<path class="st8" d="M1036.2,715.6c-1.1-5.5,0.8-11.2,5.1-14.9c4.3-3.6,9.8-5.3,15.3-4.8c2.6-0.1,5.1,1,6.8,3
		c1.3,2.1,1.3,4.7,0.1,6.8c-1.2,2-2.9,3.7-5,4.9C1051.6,715,1044.1,717.9,1036.2,715.6"/>
	<path class="st6" d="M1026,744.7c0-0.7,0.1-1.3,0.3-1.9c0.3-1.4,0.6-3.1,1-5.3c0.9-5.9,2.7-11.5,5.4-16.8c2.8-5.3,7-9.7,12-12.8
		c1.5-0.9,3.2-1.7,4.9-2.2c0.6-0.2,1.1-0.3,1.4-0.4c0.2,0,0.3,0,0.5,0c-2.3,0.8-4.5,1.8-6.5,3c-4.9,3.2-8.9,7.6-11.7,12.7
		c-2.7,5.2-4.5,10.8-5.5,16.5c-0.5,2.2-0.9,4-1.2,5.2C1026.5,743.5,1026.3,744.1,1026,744.7z"/>
	<path class="st6" d="M1026.3,662.3c0.1,0.3,0.1,0.6,0.1,0.8c0,0.6,0.1,1.4,0.1,2.4c0.1,2.1,0.2,5.2,0.4,9
		c0.2,7.6,0.4,18.1,0.4,29.6s-0.3,22.1-0.6,29.6c-0.2,3.8-0.3,6.9-0.4,9c0,1-0.1,1.8-0.2,2.4c0,0.3,0,0.6-0.1,0.8c0-0.3,0-0.6,0-0.8
		c0-0.6,0-1.5,0-2.4c0-2.2,0.1-5.3,0.2-9c0.2-7.6,0.4-18,0.4-29.6c0-11.6,0-22-0.2-29.6c0-3.7-0.1-6.8-0.1-9c0-1,0-1.8,0-2.4
		C1026.3,662.9,1026.3,662.6,1026.3,662.3z"/>
	<path class="st8" d="M1022.4,721.4c-1.9-11.6-9.4-21.6-20-26.8c-2.7-1.3-6.1-2.1-8.3-0.1c-2.2,2-1.6,5.5-0.6,8.3
		c4.8,11.7,16.1,19.3,28.7,19.4"/>
	<path class="st6" d="M1003.7,703.6c0.6,0.2,1.1,0.4,1.6,0.7c0.7,0.3,1.3,0.6,1.9,1c0.8,0.5,1.6,1,2.4,1.5c1,0.6,1.9,1.4,2.8,2.1
		c1,0.8,2,1.7,3,2.7c2.1,2.2,4,4.6,5.6,7.2c1.6,2.6,2.8,5.5,3.7,8.4c0.4,1.3,0.7,2.6,0.9,3.9c0.2,1.1,0.4,2.3,0.5,3.5
		c0.1,1.1,0.1,2,0.1,2.9c0,0.7,0,1.4,0,2.2c0,0.6-0.1,1.2-0.2,1.8c-0.2,0,0.1-2.6-0.3-6.8c-0.1-1-0.3-2.2-0.6-3.4
		c-0.3-1.3-0.6-2.6-1-3.8c-0.9-2.8-2.2-5.6-3.7-8.2c-1.6-2.6-3.4-5-5.5-7.1c-0.9-1-1.9-1.9-2.9-2.7c-0.9-0.8-1.8-1.5-2.7-2.1
		C1006.1,704.8,1003.7,703.7,1003.7,703.6z"/>
</g>
<g id="freepik--Server--inject-16">
	<rect x="131" y="338.9" class="st2" width="170.5" height="408.8"/>
	<rect x="81.5" y="338.9" class="st3" width="134.8" height="408.8"/>
	<path class="st6" d="M216.4,747.4c-0.2,0-0.4-91.5-0.4-204.5s0.2-204.5,0.4-204.5s0.4,91.5,0.4,204.5S216.7,747.4,216.4,747.4z"/>
	<rect x="240.8" y="385.9" class="st6" width="40.8" height="4.2"/>
	<rect x="240.8" y="397.9" class="st6" width="40.8" height="4.2"/>
	<rect x="240.8" y="410" class="st6" width="40.8" height="4.2"/>
	<rect x="95.4" y="356.3" class="st2" width="107.8" height="378.4"/>
	<rect x="103.1" y="370.3" class="st0" width="89.3" height="13.5"/>
	<rect x="103.1" y="370.3" class="st8" width="13.5" height="13.5"/>
	<rect x="165.8" y="370.3" class="st3" width="29.4" height="13.5"/>
	<rect x="103.1" y="394.3" class="st0" width="89.3" height="13.5"/>
	<rect x="103.1" y="394.3" class="st5" width="13.5" height="13.5"/>
	<rect x="165.8" y="394.3" class="st3" width="29.4" height="13.5"/>
	<rect x="103.1" y="418.4" class="st0" width="89.3" height="13.5"/>
	<rect x="103.1" y="418.4" class="st8" width="13.5" height="13.5"/>
	<rect x="165.8" y="418.4" class="st3" width="29.4" height="13.5"/>
	<rect x="103.1" y="442.5" class="st0" width="89.3" height="13.5"/>
	<rect x="103.1" y="442.5" class="st5" width="13.5" height="13.5"/>
	<rect x="165.8" y="442.5" class="st3" width="29.4" height="13.5"/>
	<rect x="103.1" y="466.6" class="st0" width="89.3" height="13.5"/>
	<rect x="103.1" y="466.6" class="st8" width="13.5" height="13.5"/>
	<rect x="165.8" y="466.6" class="st3" width="29.4" height="13.5"/>
	<rect x="103.1" y="490.7" class="st0" width="89.3" height="13.5"/>
	<rect x="103.1" y="490.7" class="st8" width="13.5" height="13.5"/>
	<rect x="165.8" y="490.7" class="st3" width="29.4" height="13.5"/>
	<rect x="103.1" y="514.8" class="st0" width="89.3" height="13.5"/>
	<rect x="103.1" y="514.8" class="st5" width="13.5" height="13.5"/>
	<rect x="165.8" y="514.8" class="st3" width="29.4" height="13.5"/>
	<rect x="103.1" y="538.9" class="st0" width="89.3" height="13.5"/>
	<rect x="103.1" y="538.9" class="st5" width="13.5" height="13.5"/>
	<rect x="165.8" y="538.9" class="st3" width="29.4" height="13.5"/>
	<rect x="103.1" y="563" class="st0" width="89.3" height="13.5"/>
	<rect x="103.1" y="563" class="st5" width="13.5" height="13.5"/>
	<rect x="165.8" y="563" class="st3" width="29.4" height="13.5"/>
	<rect x="103.1" y="587.1" class="st0" width="89.3" height="13.5"/>
	<rect x="103.1" y="587.1" class="st8" width="13.5" height="13.5"/>
	<rect x="165.8" y="587.1" class="st3" width="29.4" height="13.5"/>
	<rect x="103.1" y="611.2" class="st0" width="89.3" height="13.5"/>
	<rect x="103.1" y="611.2" class="st5" width="13.5" height="13.5"/>
	<rect x="165.8" y="611.2" class="st3" width="29.4" height="13.5"/>
	<rect x="103.1" y="635.3" class="st0" width="89.3" height="13.5"/>
	<rect x="103.1" y="635.3" class="st8" width="13.5" height="13.5"/>
	<rect x="165.8" y="635.3" class="st3" width="29.4" height="13.5"/>
	<rect x="103.1" y="659.4" class="st0" width="89.3" height="13.5"/>
	<rect x="103.1" y="659.4" class="st5" width="13.5" height="13.5"/>
	<rect x="165.8" y="659.4" class="st3" width="29.4" height="13.5"/>
	<rect x="103.1" y="683.5" class="st0" width="89.3" height="13.5"/>
	<rect x="103.1" y="683.5" class="st8" width="13.5" height="13.5"/>
	<rect x="165.8" y="683.5" class="st3" width="29.4" height="13.5"/>
	<rect x="103.1" y="707.6" class="st0" width="89.3" height="13.5"/>
	<rect x="103.1" y="707.6" class="st5" width="13.5" height="13.5"/>
	<rect x="165.8" y="707.6" class="st3" width="29.4" height="13.5"/>
	<path class="st6" d="M301.5,747.7c0-3.6-0.2-169.7-0.4-408.8l0.4,0.4h-220l0,0l0.4-0.4c0,156.9-0.1,300.4-0.1,408.8l-0.3-0.3
		L301.5,747.7l-220,0.3h-0.3v-0.3c0-108.4,0-251.8-0.1-408.8v-0.4h0.5h220h0.4v0.4c0,119.6-0.1,221.8-0.2,294.2
		C301.5,705.2,301.5,745.9,301.5,747.7z"/>
</g>
<g id="freepik--Character--inject-16">
	<path class="st7" d="M879,223.7H292.3c-10.1,0-18.3,8.2-18.3,18.3v414.4c0,10.1,8.2,18.3,18.3,18.3l0,0h225.2l-10.9,72.4h163.3
		l-9.2-72.4H879c10.1,0,18.3-8.2,18.3-18.3V242C897.3,231.9,889.1,223.7,879,223.7z"/>
	<path class="st6" d="M593.5,631.2c8,11.4-4.5,23.9-15.9,15.9c-0.4-0.3-0.7-0.6-1-1c-8-11.4,4.5-23.9,15.9-15.9
		C592.9,630.5,593.2,630.8,593.5,631.2z"/>
	<path class="st6" d="M306.2,239.5h559c8.7,0,15.8,7.1,15.8,15.8c0,0,0,0,0,0v343.6l0,0H290.4l0,0V255.4
		C290.4,246.6,297.5,239.5,306.2,239.5z"/>
	<path class="st6" d="M721.2,674.8c0,0.2-49.2,0.4-109.8,0.4c-60.7,0-109.8-0.2-109.8-0.4s49.2-0.4,109.8-0.4
		C672.1,674.4,721.2,674.5,721.2,674.8z"/>
	<rect x="349.7" y="267.9" class="st7" width="43" height="9.1"/>
	<rect x="349.7" y="308.6" class="st8" width="21.5" height="9.1"/>
	<rect x="365.9" y="329.1" class="st7" width="30.3" height="9.1"/>
	<rect x="401" y="329.1" class="st7" width="17.7" height="9.1"/>
	<rect x="540.7" y="329.1" class="st7" width="36.3" height="9.1"/>
	<rect x="621.8" y="349" class="st7" width="61.4" height="9.1"/>
	<rect x="748.4" y="329.1" class="st7" width="29.5" height="9.1"/>
	<rect x="786.9" y="329.1" class="st7" width="59.3" height="9.1"/>
	<rect x="365.9" y="349" class="st7" width="30.3" height="9.1"/>
	<rect x="347.3" y="368.9" class="st8" width="30.3" height="9.1"/>
	<rect x="363.4" y="388.8" class="st7" width="14.2" height="9.1"/>
	<rect x="415.4" y="430.7" class="st7" width="14.2" height="9.1"/>
	<rect x="610.2" y="506.5" class="st7" width="27.7" height="9.1"/>
	<rect x="724.7" y="506.5" class="st7" width="67.8" height="9.1"/>
	<rect x="506" y="486.6" class="st2" width="27.7" height="9.1"/>
	<rect x="405.8" y="469.5" class="st7" width="27.7" height="9.1"/>
	<rect x="560.8" y="506.5" class="st7" width="43.6" height="9.1"/>
	<rect x="363.4" y="409.1" class="st7" width="23" height="9.1"/>
	<rect x="363.4" y="431.1" class="st7" width="42.6" height="9.1"/>
	<rect x="363.4" y="447.9" class="st7" width="62.4" height="9.1"/>
	<rect x="476.4" y="447.9" class="st7" width="62.4" height="9.1"/>
	<rect x="405.2" y="486.6" class="st7" width="87.6" height="9.1"/>
	<rect x="405.2" y="506.5" class="st7" width="148.1" height="9.1"/>
	<rect x="360.4" y="526.3" class="st7" width="148.1" height="9.1"/>
	<rect x="432.4" y="447.9" class="st7" width="37.4" height="9.1"/>
	<rect x="383.2" y="388.8" class="st7" width="38.6" height="9.1"/>
	<rect x="391.7" y="409.1" class="st7" width="38.6" height="9.1"/>
	<rect x="477.6" y="409.1" class="st7" width="102.2" height="9.1"/>
	<rect x="582.7" y="409.1" class="st7" width="118.1" height="9.1"/>
	<rect x="436.6" y="409.1" class="st7" width="32" height="9.1"/>
	<rect x="427.1" y="388.8" class="st7" width="50.6" height="9.1"/>
	<rect x="483.3" y="388.8" class="st2" width="28.2" height="9.1"/>
	<rect x="401" y="349" class="st7" width="31.6" height="9.1"/>
	<rect x="454.1" y="349" class="st7" width="156" height="9.1"/>
	<rect x="711.5" y="409.1" class="st7" width="73.8" height="9.1"/>
	<rect x="645.1" y="506.5" class="st7" width="73.8" height="9.1"/>
	<rect x="583.2" y="329.1" class="st7" width="153.7" height="9.1"/>
	<rect x="424.2" y="329.1" class="st7" width="106.9" height="9.1"/>
	<rect x="349.7" y="287.2" class="st7" width="72" height="9.1"/>
	<rect x="428.9" y="287.2" class="st7" width="98.6" height="9.1"/>
	<rect x="399.5" y="267.9" class="st2" width="31.7" height="9.1"/>
	<rect x="325.2" y="267.9" class="st7" width="8.8" height="9.1"/>
	<rect x="325.2" y="287.8" class="st7" width="8.8" height="9.1"/>
	<rect x="325.2" y="307.7" class="st7" width="8.8" height="9.1"/>
	<rect x="325.2" y="327.6" class="st7" width="8.8" height="9.1"/>
	<rect x="325.2" y="347.4" class="st7" width="8.8" height="9.1"/>
	<rect x="325.2" y="367.3" class="st7" width="8.8" height="9.1"/>
	<rect x="325.2" y="387.2" class="st7" width="8.8" height="9.1"/>
	<rect x="325.2" y="407.1" class="st7" width="8.8" height="9.1"/>
	<rect x="325.2" y="426.9" class="st7" width="8.8" height="9.1"/>
	<rect x="411.9" y="569.3" class="st2" width="14.2" height="9.1"/>
	<rect x="360.7" y="569.3" class="st8" width="42.6" height="9.1"/>
	<rect x="325.2" y="568.3" class="st7" width="8.8" height="9.1"/>
	<rect x="325.2" y="446.8" class="st7" width="8.8" height="9.1"/>
	<rect x="325.2" y="466.7" class="st7" width="8.8" height="9.1"/>
	<rect x="325.2" y="486.6" class="st7" width="8.8" height="9.1"/>
	<rect x="325.2" y="506.5" class="st7" width="8.8" height="9.1"/>
	<rect x="325.2" y="526.3" class="st7" width="8.8" height="9.1"/>
	<rect x="360.4" y="547.2" class="st7" width="43.2" height="9.1"/>
	<rect x="411.9" y="547.2" class="st7" width="97.7" height="9.1"/>
	<rect x="325.2" y="547.2" class="st7" width="8.8" height="9.1"/>
	<rect x="539.5" y="287.1" class="st2" width="31.7" height="9.1"/>
	<g class="st9">
		<polygon points="608.9,446.2 587.3,446.2 587.3,622.1 845.3,622.1 838.6,450.5 		"/>
	</g>
	<rect x="603.9" y="420.2" class="st2" width="258.2" height="185.3"/>
	<path class="st6" d="M862.8,606.3H603.1V419.4h259.8V606.3z M604.7,604.7h256.5V421H604.7L604.7,604.7z"/>
	<rect x="652.9" y="440" class="st7" width="41.7" height="8.8"/>
	<rect x="652.9" y="479.4" class="st8" width="20.9" height="8.8"/>
	<rect x="668.6" y="499.3" class="st7" width="29.4" height="8.8"/>
	<rect x="702.7" y="499.3" class="st7" width="17.1" height="8.8"/>
	<rect x="668.6" y="518.6" class="st7" width="29.4" height="8.8"/>
	<rect x="650.6" y="537.9" class="st8" width="29.4" height="8.8"/>
	<rect x="666.2" y="557.2" class="st7" width="13.7" height="8.8"/>
	<rect x="666.2" y="576.9" class="st7" width="22.3" height="8.8"/>
	<rect x="685.4" y="557.2" class="st7" width="37.4" height="8.8"/>
	<rect x="693.6" y="576.9" class="st7" width="37.4" height="8.8"/>
	<rect x="777" y="576.9" class="st7" width="44.3" height="8.8"/>
	<rect x="737.2" y="576.9" class="st7" width="31" height="8.8"/>
	<rect x="727.9" y="557.2" class="st7" width="49.1" height="8.8"/>
	<rect x="782.4" y="557.2" class="st5" width="27.3" height="8.8"/>
	<rect x="702.7" y="518.6" class="st7" width="30.6" height="8.8"/>
	<rect x="725.2" y="499.3" class="st7" width="103.7" height="8.8"/>
	<rect x="652.9" y="458.7" class="st7" width="69.8" height="8.8"/>
	<rect x="729.7" y="458.7" class="st7" width="95.6" height="8.8"/>
	<rect x="701.2" y="440" class="st5" width="30.7" height="8.8"/>
	<rect x="629.1" y="440" class="st7" width="8.5" height="8.8"/>
	<rect x="629.1" y="459.2" class="st7" width="8.5" height="8.8"/>
	<rect x="629.1" y="478.5" class="st7" width="8.5" height="8.8"/>
	<rect x="629.1" y="497.8" class="st7" width="8.5" height="8.8"/>
	<rect x="629.1" y="517.1" class="st7" width="8.5" height="8.8"/>
	<rect x="629.1" y="536.4" class="st7" width="8.5" height="8.8"/>
	<rect x="629.1" y="555.6" class="st7" width="8.5" height="8.8"/>
	<rect x="629.1" y="574.9" class="st7" width="8.5" height="8.8"/>
	<g class="st9">
		<path d="M464.8,673.8c3.3-16.3-7.3-65.1-7.3-65.1l-79.3,10.1l-3.3,54.6L464.8,673.8z"/>
	</g>
	<path class="st8" d="M363.9,608.7c0,0,3.5,64.8-11.1,87.2l98.7,2.4c0,0,7.7-37.9,5.9-89.6H363.9z"/>
	<path class="st6" d="M457.2,621.3c0,0.2-20.6,0.4-45.9,0.4c-25.3,0-45.9-0.2-45.9-0.4c0-0.2,20.5-0.4,45.9-0.4
		S457.2,621,457.2,621.3z"/>
	<path class="st6" d="M446.2,643.4c0,0.2-16.4,0.4-36.7,0.4c-20.3,0-36.7-0.2-36.7-0.4c0-0.2,16.4-0.4,36.7-0.4
		C429.8,643,446.2,643.2,446.2,643.4z"/>
	<path class="st6" d="M447.1,655.6c0,0.2-16.4,0.4-36.7,0.4c-20.3,0-36.7-0.2-36.7-0.4c0-0.2,16.4-0.4,36.7-0.4
		S447.1,655.3,447.1,655.6z"/>
	<path class="st6" d="M444.7,667.7c0,0.2-16.4,0.4-36.7,0.4c-20.3,0-36.7-0.2-36.7-0.4s16.4-0.4,36.7-0.4
		C428.3,667.3,444.7,667.4,444.7,667.7z"/>
	<g class="st9">
		<path d="M347.6,609.9c0,0,4.2,48,4.2,65.1h-12.2L347.6,609.9z"/>
	</g>
	<path class="st2" d="M318.4,609.9c0,0,3.5,64.9-11.1,87.2h32.5c0,0,9.3-35.4,7.7-87.2H318.4z"/>
	<path class="st10" d="M772.9,327.9l54.7-62.8l-55-40l43.2-25.4c0,0,67.7,41.2,66.9,65.9c-0.8,22.5-86.2,79.4-86.2,79.4L772.9,327.9
		z"/>
	<path class="st8" d="M730,470.7c-22.8,37.4-71.5,49.2-108.9,26.4c-37.4-22.8-49.2-71.5-26.4-108.9c8.6-14.1,21.4-25.2,36.6-31.7
		l0,0c40.3-17.1,86.8,1.6,103.9,41.9C745.3,422,743.3,448.9,730,470.7z M599.3,391c-21.2,34.8-10.2,80.3,24.6,101.6
		c34.8,21.2,80.3,10.2,101.6-24.6c21.2-34.8,10.2-80.3-24.6-101.6c-20.3-12.4-45.4-14.2-67.3-4.9C619.3,367.5,607.3,377.8,599.3,391
		L599.3,391z"/>
	<g class="st9">
		<path d="M730,470.7c-22.8,37.4-71.5,49.2-108.9,26.4c-37.4-22.8-49.2-71.5-26.4-108.9c8.6-14.1,21.4-25.2,36.6-31.7l0,0
			c40.3-17.1,86.8,1.6,103.9,41.9C745.3,422,743.3,448.9,730,470.7z M599.3,391c-21.2,34.8-10.2,80.3,24.6,101.6
			c34.8,21.2,80.3,10.2,101.6-24.6c21.2-34.8,10.2-80.3-24.6-101.6c-20.3-12.4-45.4-14.2-67.3-4.9
			C619.3,367.5,607.3,377.8,599.3,391L599.3,391z"/>
	</g>
	<path class="st8" d="M726.8,467.2c-22.8,37.4-71.5,49.2-108.9,26.4c-37.4-22.8-49.2-71.5-26.4-108.9c8.6-14.1,21.4-25.2,36.6-31.7
		l0,0c40.3-17.1,86.8,1.6,103.9,41.9C742.1,418.4,740.1,445.3,726.8,467.2z M596.1,387.5c-21.2,34.8-10.2,80.3,24.7,101.5
		c34.8,21.2,80.3,10.2,101.5-24.7c21.2-34.8,10.2-80.3-24.7-101.5c-20.3-12.4-45.4-14.2-67.3-4.9
		C616.1,363.9,604.1,374.3,596.1,387.5L596.1,387.5z"/>
	<path class="st8" d="M842.1,321.5l3.1,4.9c2.8,4.3-0.6,11.3-6.7,14.1L735,403.8l-9.7-14.1l100.8-70.6
		C832.7,314.1,838.5,316,842.1,321.5z"/>
	<path class="st5" d="M662.4,360.1c-0.4,0-0.9,0-1.3,0c-0.8,0-2.1-0.1-3.7,0c-4.6,0.2-9.1,0.9-13.5,2.2c-3,0.9-6,2-8.9,3.3
		c-3.3,1.5-6.5,3.2-9.5,5.1c-3.4,2.1-6.6,4.5-9.6,7.1c-3.2,2.8-6.2,5.9-8.9,9.2c-2.7,3.4-5,6.9-6.9,10.7c-1.8,3.6-3.2,7.3-4.4,11.1
		c-1.9,6.5-2.8,13.2-2.7,20c0.1,4.6,0.6,9.1,1.6,13.5c0.3,1.6,0.7,2.8,0.9,3.6c0.1,0.4,0.2,0.8,0.3,1.3c-0.2-0.4-0.3-0.8-0.5-1.2
		c-0.2-0.8-0.7-2-1.1-3.6c-1.2-4.4-1.8-9-1.9-13.6c-0.2-6.8,0.7-13.7,2.5-20.2c1.1-3.9,2.6-7.6,4.4-11.3c2-3.9,4.3-7.5,7-10.9
		c2.7-3.4,5.7-6.5,9-9.3c3.1-2.7,6.3-5.1,9.8-7.2c3.1-1.9,6.3-3.6,9.7-5.1c2.9-1.2,5.9-2.3,9-3.1c4.4-1.2,9-1.9,13.6-1.9
		c1.3,0,2.5,0,3.8,0.1C661.6,360,662,360,662.4,360.1z"/>
	<path class="st5" d="M724.2,444.8c-0.2,0,1.3-3.6,2.3-9.7c0.1-0.8,0.2-1.6,0.4-2.4s0.1-1.7,0.2-2.6c0.2-1.8,0.2-3.7,0.2-5.8
		c-0.1-8.8-2.2-17.6-6-25.5c-0.9-1.8-1.8-3.6-2.7-5.1c-0.5-0.8-0.9-1.5-1.4-2.2c-0.5-0.7-0.9-1.3-1.4-2c-3.6-5-6.5-7.5-6.4-7.7
		c0.7,0.6,1.4,1.1,2,1.8c0.8,0.7,1.5,1.5,2.2,2.3c1,1,1.8,2.1,2.7,3.3c0.5,0.6,0.9,1.3,1.5,2c0.5,0.7,0.9,1.5,1.4,2.2
		c1,1.6,2,3.3,2.9,5.1c1.9,4,3.4,8.3,4.5,12.6c1,4.4,1.5,8.8,1.6,13.3c0,2.1,0,4-0.3,5.8c-0.1,0.9-0.1,1.8-0.3,2.6
		c-0.1,0.8-0.3,1.6-0.4,2.4c-0.2,1.4-0.6,2.7-0.9,4.1c-0.2,1-0.6,2-0.9,3C725,443.2,724.7,444,724.2,444.8z"/>
	<path class="st5" d="M675.3,388.7c0.2,0.2-10.5,10.2-23.8,22.3c-13.3,12.1-24.2,21.9-24.5,21.7c-0.2-0.2,10.5-10.2,23.8-22.3
		S675.1,388.5,675.3,388.7z"/>
	<path class="st5" d="M695.6,401.6c-0.2,0.3-0.5,0.5-0.8,0.7l-2.3,2l-8.4,7.1c-7.1,6-17,14.3-27.7,23.6c-10.7,9.3-20.4,17.8-27.4,24
		l-8.3,7.3l-2.3,2c-0.3,0.2-0.5,0.5-0.8,0.6c0.2-0.3,0.5-0.5,0.7-0.8l2.2-2.1c1.9-1.8,4.6-4.4,8.2-7.5c6.9-6.3,16.5-14.9,27.2-24.2
		s20.7-17.5,27.9-23.4c3.6-3,6.5-5.3,8.6-6.9l2.4-1.8C695.1,401.9,695.3,401.7,695.6,401.6z"/>
	<g class="st9">
		<path class="st5" d="M596.5,463l108.8-93.9c0,0,10.7,8.2,15.3,15.6l-111.3,95.8C604,475.5,599.6,469.6,596.5,463z"/>
	</g>
	<g class="st9">
		<path class="st5" d="M621.2,489.3l106-92.3c0,0,0.5-0.9,2,5.8l-102.8,89.4C624.5,491.6,622.7,490.7,621.2,489.3z"/>
	</g>
	<path class="st10" d="M772.9,327.9c0,0-31.9,35.1-32.6,36.5c-0.7,1.3-9.3,21.6-7.2,25.7c2.1,4.1,18.1,18.5,18.1,18.5
		s5.7-2.5,0.3-12.1l-5.4-9.6l2.9-9.8c0,0,4.3,12.3,6.8,15s12.4,7.3,14.9,4.9c1.5-1.4,2.5-3.3,2.9-5.3c0,0,6.8,5.4,11.5-3.2
		c0,0,6-0.9,8.6-5.1c2.6-4.2,2.3-12.2,2.3-12.2c-0.9-1.9-3.2-2.7-5.1-1.8c-0.3,0.1-0.5,0.3-0.7,0.5c-2.6,1.9-4.5,4.5-5.7,7.5
		l-2.8-3.7c0.7-5,2.2-9.9,4.3-14.5c1.9-3.7,14.5-11.8,15.9-18.3c1.3-5.5-9.7-9.1-15.3-8.8l0,0c-0.8,0-1.7,0.2-2.5,0.5L772.9,327.9z"
		/>
	<path class="st11" d="M770.1,372.8c0,0.3,0,0.6,0,1c0.1,0.9,0.2,1.7,0.4,2.5c1.5,5.7,5.8,10.2,11.4,11.9c0.8,0.3,1.7,0.4,2.5,0.5
		c0.3,0,0.6,0,0.9,0c0-0.1-1.4-0.2-3.4-0.9c-2.7-0.9-5.1-2.4-7-4.4c-1.9-2-3.4-4.5-4.2-7.2C770.3,374.1,770.2,372.8,770.1,372.8z"/>
	<path class="st11" d="M759.4,371.7c0,0.3,0,0.7,0,1c0,0.4,0.1,0.8,0.1,1.2c0.1,0.5,0.1,1.1,0.3,1.6c0.3,1.3,0.7,2.7,1.2,3.9
		c1.3,3.1,3.2,6,5.6,8.3c1,1,2.1,1.8,3.3,2.6c0.5,0.3,0.9,0.6,1.3,0.8s0.8,0.4,1.1,0.5c0.3,0.2,0.6,0.3,0.9,0.4c0-0.1-1.3-0.7-3.1-2
		c-1.1-0.8-2.1-1.7-3.1-2.6c-1.2-1.2-2.2-2.4-3.2-3.8c-1-1.4-1.9-3-2.7-4.5c-0.4-1.2-0.8-2.4-1-3.7
		C759.6,373.1,759.5,371.7,759.4,371.7z"/>
	<path class="st11" d="M747.2,369.2c0,0-0.3,0.5-0.4,1.3c-0.1,1.1,0,2.2,0.4,3.3c0.3,1.1,1,2.1,1.8,2.8c0.6,0.6,1.1,0.8,1.1,0.8
		c-1.1-1.1-1.9-2.4-2.5-3.8C747.2,372.1,747.1,370.6,747.2,369.2z"/>
	<path class="st11" d="M857.2,261.3c0,0.1-1.7-1-4.8-2.1c-3.9-1.4-8.2-1.8-12.3-1.2c-4.1,0.7-7.9,2.7-10.9,5.6
		c-2.3,2.2-3.5,3.9-3.6,3.8c0.2-0.5,0.4-0.9,0.7-1.2c0.7-1.1,1.6-2.1,2.5-3c3-3.2,6.9-5.3,11.3-6.1c4.3-0.7,8.7-0.2,12.7,1.5
		c1.2,0.5,2.4,1.1,3.5,1.8C856.8,260.9,857.2,261.3,857.2,261.3z"/>
	<path class="st6" d="M691.8,116c0-10.7,0-21.4-1.9-32c-1.9-10.5-5.5-20.9-12.1-29.3c-1-1.3-8.7-9.5-10.2-8.8
		c-1.1,0.5,4.7,8.6,4.4,9.8c-2.3,10.8-0.3,22.2,4,32.4C680.3,97.9,685.6,107.3,691.8,116"/>
	<path class="st10" d="M680.2,76.9c-7.4-25.8-28.6-42.9-54.1-34.8l-2.3,0.9c-23.3,9-35.8,34.3-28.8,58.3
		c6.5,22.3,14.1,46.8,18.7,58.4c9.5,23.9,35,18.4,35,18.4l15.9,36.5l50.5-25.9L680.2,76.9z"/>
	<path class="st11" d="M648.7,178.2c11.1-4.3,20.7-11.6,27.7-21.2c0,0,0.7,22.5-24.1,29.5L648.7,178.2z"/>
	<path class="st6" d="M612.1,122.9c0.7,1.9,2.8,2.8,4.6,2.1c1.9-0.5,2.9-2.5,2.4-4.4c0,0,0-0.1,0-0.1c-0.7-1.8-2.8-2.7-4.6-2.1
		C612.6,119.1,611.5,121,612.1,122.9C612.1,122.9,612.1,122.9,612.1,122.9z"/>
	<path class="st6" d="M604,109.3c0.6,0.3,2.5-2.6,6.2-4c3.7-1.4,7.1-0.6,7.3-1.2c0.1-0.3-0.6-0.9-2.1-1.3c-2-0.5-4.1-0.3-6.1,0.4
		c-1.9,0.7-3.6,2-4.7,3.8C603.8,108.2,603.7,109.1,604,109.3z"/>
	<path class="st6" d="M643.6,111.8c0.7,1.9,2.7,2.8,4.6,2.2c1.9-0.5,2.9-2.5,2.4-4.3c0,0,0-0.1,0-0.1c-0.7-1.9-2.7-2.8-4.6-2.2
		C644.1,108,643.1,109.9,643.6,111.8C643.6,111.8,643.6,111.8,643.6,111.8z"/>
	<path class="st6" d="M640.7,96.9c0.6,0.3,2.5-2.6,6.2-4c3.7-1.4,7.1-0.6,7.3-1.2c0.1-0.3-0.6-0.9-2.1-1.3c-2-0.5-4.1-0.3-6.1,0.4
		c-1.9,0.7-3.6,2.1-4.7,3.8C640.5,95.8,640.4,96.8,640.7,96.9z"/>
	<path class="st6" d="M638.4,130.3c0-0.2-2.5,0.3-6.4,1.2c-1,0.3-1.9,0.4-2.3-0.2c-0.5-0.9-0.6-2-0.4-3c0-2.6,0-5.4,0-8.2
		c0-11.7-0.5-21.2-0.9-21.2c-0.5,0-0.8,9.5-0.8,21.2c0,2.9,0,5.6,0.1,8.3c-0.1,1.4,0.2,2.7,0.9,3.9c0.5,0.6,1.3,0.9,2.1,0.8
		c0.6-0.1,1.1-0.2,1.6-0.4C636.1,131.4,638.4,130.5,638.4,130.3z"/>
	<path class="st6" d="M650.2,128.7c-0.6,0.2,0.9,4.2-1.4,8.3c-2.3,4.2-6.8,5.4-6.5,5.9c0,0.3,1.3,0.4,3.1-0.2
		c2.3-0.9,4.3-2.5,5.6-4.7c1.2-2.1,1.5-4.6,0.9-6.9C651.3,129.4,650.4,128.6,650.2,128.7z"/>
	<path class="st6" d="M635.2,81.8c0.8,0.9,4.3-1,8.8-2.2c4.5-1.1,8.5-1.3,8.7-2.4c0.1-0.5-0.9-1.2-2.7-1.6c-2.3-0.5-4.8-0.4-7.1,0.2
		c-2.3,0.6-4.5,1.7-6.2,3.3C635.3,80.3,634.8,81.4,635.2,81.8z"/>
	<path class="st6" d="M600.8,96.4c1,0.6,3.2-1.3,6.2-2.5c3-1.2,5.9-1.6,6.1-2.7c0.1-0.5-0.6-1.2-2.1-1.6c-3.8-0.7-7.8,0.9-9.9,4.2
		C600.3,95.1,600.3,96.1,600.8,96.4z"/>
	<path class="st10" d="M685.1,95.4c0.3-0.3,14.7-11.2,20.4,5.4s-12,19-12.2,18.5C693.1,118.9,685.1,95.4,685.1,95.4z"/>
	<path class="st11" d="M696.2,111.3c0,0,0.4,0.1,0.9,0.1c0.8,0.1,1.6-0.2,2.2-0.7c1.5-1.3,2-4.5,1.1-7.6c-0.4-1.4-1.2-2.7-2.2-3.9
		c-0.7-0.9-1.8-1.5-3-1.5c-0.7,0.1-1.3,0.7-1.4,1.4c0,0.5,0.2,0.8,0.1,0.9c-0.1,0.1-0.5-0.2-0.6-0.9c-0.1-0.4,0-0.9,0.3-1.3
		c0.3-0.5,0.9-0.9,1.5-1c1.5-0.2,3,0.4,3.9,1.5c1.2,1.2,2.1,2.7,2.6,4.3c1.1,3.4,0.4,7.1-1.7,8.6c-0.8,0.6-1.8,0.7-2.8,0.5
		C696.3,111.7,696.1,111.4,696.2,111.3z"/>
	<path class="st6" d="M596.5,70c-3.3-0.6,1.9-12,7.5-17.3c8.5-7.9,22.8-15.9,33-16.4c12.2-0.6,23.3,1.8,32.3,10
		c8.9,8.5,15.3,19.2,18.7,31c1.3,3.5,1.7,7.3,1.1,11c-1.1,4.5-4.8,8.3-2.9,13.3c0.8,1.8,0.8,3.9,0,5.7c-2,4.3-6.7,2.5-9.5,0
		c-5.9-5.3-8.9-12.9-11.8-20.3c-2-5.2-4.1-10.6-4.3-16.2c-0.1-3,0.3-6.1,0-9.2c-0.1-3.1-1.6-6-4-7.9c-0.6-0.4-1.2-0.7-1.8-0.9
		c-6.1-2.5-13.1-1.6-18.3,2.5c-8.3,6.5-22.6,16.9-27.9,15.1c-7.6-2.6-10-5.1-10-5.1L596.5,70z"/>
	<path class="st8" d="M571.4,224.6c0,0-2.4-6.7,5.7-15.8s72-26.8,72-26.8s23.3,26.3,43.4,8.3c14.7-13,15.2-26.1,15.2-26.1h57.9
		l7.2,59.5l-23.1,0.1L571.4,224.6z"/>
	<path class="st8" d="M755,164.4c0,0,15.1-3,28.9,3.3c23.2,10.5,63.4,44,63.4,44l-48.9,40.2L764.5,224L755,164.4z"/>
	<path class="st6" d="M776,233.6c-0.2-0.1-0.4-0.2-0.6-0.3c-0.4-0.2-1-0.6-1.6-1.1c-2-1.4-4-3-5.8-4.7c-2.7-2.5-5.1-5.3-7.3-8.3
		c-2.7-3.7-4.6-7.9-5.4-12.4c-1.6-9.5-0.2-18.5,2.9-24c1.2-2.2,2.8-4.2,4.8-5.7c0.5-0.4,1.1-0.8,1.7-1.1c0.4-0.2,0.6-0.3,0.6-0.3
		c0,0-0.8,0.6-2.2,1.6c-1.8,1.6-3.3,3.6-4.4,5.7c-2.8,5.5-4.2,14.3-2.5,23.6c0.8,4.4,2.6,8.5,5.2,12.1c2.1,3,4.4,5.8,7,8.3
		c1.8,1.7,3.6,3.4,5.5,4.9C774.7,232.5,775.4,233,776,233.6z"/>
	<path class="st6" d="M764.4,223.9c0,0.2-39.8,0.6-89,0.8c-49.2,0.2-89,0.2-89-0.1s39.8-0.6,89-0.8
		C724.6,223.6,764.4,223.6,764.4,223.9z"/>
	<path class="st10" d="M550.5,215.7c0.1,0.2,0.2,0.5,0.3,0.7c0.4,1.2,0.6,2.4,0.7,3.6c0,0.6,0,1.2,0.1,1.7c0.1,0.3,0.3,0.7,0.5,1
		c0.7,2.3,0.9,4.7,0.6,7.1c-0.3,2.6,0.2,5.3,1.3,7.6c1.4,2.3,4.5,3.6,6.7,2.1c-0.2,1.7,0.9,3.3,2.6,3.8c1.7,0.4,3.4-0.2,4.6-1.4
		c1.1-1.2,1.9-2.7,2.3-4.4c0.1,2,1.7,3.7,3.8,3.7c2-0.1,3.8-1.2,4.8-2.9c0.9-1.7,1.5-3.6,1.6-5.6c0.3-2.5,0.7-5,1.2-7.5
		c0,0,2.5,0.4,3.6,0.5h0.3c1-1.2,1.8-2.6,2.3-4.1c1.6-3.3,2.8-5.3,4-8.2c0.9-2.2,1.5-4.4,0.1-5.8c-3.3-3.4-9.7,3.6-9.7,3.6
		c-0.9-2.4-8.3-2.8-9.8,0.4c-0.6-1.8-0.4-2.8-1.8-4c-1.4-1.2-3.4-1.7-5.3-1.3c-1.9,0.5-3.3,2.2-3.3,4.1c-1.6-2.5-4.6-3.7-7.5-3.1
		c-1.7,0.4-3.2,1.5-4.2,2.9c-0.5,0.7-0.8,1.5-1.1,2.3c-0.1,0.3-0.2,0.6-0.2,1c0,0.1,0.1,0.3,0.1,0.4
		C549.8,214.5,550.2,215.1,550.5,215.7z"/>
	<path class="st10" d="M542.7,211c-1.6-0.2-3.3,0.4-4.5,1.5c-1.2,1.8-1.7,4-1.4,6.2c2.2,0.4,3.4,0.5,5.6,0.9c0.5,0.1,0.9,0,1.3,0.2
		c1,0.7,0.9,3.3,1.3,4.4c0.9,2.1,3.3,3.1,5.4,2.3c2.1-0.9,3.4-2.9,3.5-5.2c0-2.2-0.8-4.4-2.3-6C549.4,212.7,546.1,211.1,542.7,211z"
		/>
	<path class="st11" d="M562.3,209.8c0.4,0,0.4,6.7,0,15s-1.1,14.9-1.5,14.9c-0.4,0-0.4-6.7,0-15S561.9,209.7,562.3,209.8z"/>
	<path class="st11" d="M572.6,211.2c0.4,0,0.9,6.1,0.3,13.6c-0.7,7.5-2.2,13.4-2.6,13.4c-0.4-0.1,0.5-6.1,1.1-13.5
		S572.1,211.2,572.6,211.2z"/>
	<path class="st11" d="M582.7,212.6c0.4,0,0.6,5.1-0.2,11.2c-0.8,6.2-1.7,11-2.1,11c-0.4,0-0.2-5.1,0.6-11.2
		C581.7,217.5,582.2,212.5,582.7,212.6z"/>
	<path class="st11" d="M545.9,212c0-0.2,1.1-0.4,2.6,0.3c2,1,3.4,2.7,4.1,4.8c0.7,2,1.1,4.1,1,6.2c-0.2,1.9-1.5,2.4-1.6,2.2
		c-0.1-0.2,0.6-0.8,0.5-2.2c-0.3-1.9-0.7-3.8-1.4-5.6c-0.6-1.8-1.7-3.3-3.3-4.4C546.8,212.5,545.9,212.3,545.9,212z"/>
</g>
<g id="freepik--Wrench--inject-16">
	<path class="st2" d="M793,728.7c15.5-10.1,23.7-28.3,20.9-46.6l18.5-12.1l2.6-1.6l146.5-96c22,14,51.1,7.5,65.1-14.5
		c4.7-7.3,7.2-15.8,7.4-24.4l-8.6-1.5l-9.3,13l-21.4-4.5l-12-18.3l4.5-21.5l17.8-11.6l-12.1-3.2c-12.8-3.8-19.9-0.7-31.9,7.2
		c-15.5,10.1-23.6,28.3-20.9,46.5l-149,97.7l-4.6,3l-14.1,9.2c-15.6-9.9-35.5-9.7-51,0.3c-12,7.8-28.1,24.1-29.9,37.2l8.5,1.4
		l17.8-11.6l21.5,4.5l12,18.3l-4.5,21.5l-19.2,5.4l1.4,6.2C763.4,738.7,779.9,737.2,793,728.7z"/>
	<g class="st9">
		<path d="M793,728.7c15.5-10.1,23.7-28.3,20.9-46.6l18.5-12.1l2.6-1.6l146.5-96c22,14,51.1,7.5,65.1-14.5
			c4.7-7.3,7.2-15.8,7.4-24.4l-8.6-1.5l-9.3,13l-21.4-4.5l-12-18.3l4.5-21.5l17.8-11.6l-12.1-3.2c-12.8-3.8-19.9-0.7-31.9,7.2
			c-15.5,10.1-23.6,28.3-20.9,46.5l-149,97.7l-4.6,3l-14.1,9.2c-15.6-9.9-35.5-9.7-51,0.3c-12,7.8-28.1,24.1-29.9,37.2l8.5,1.4
			l17.8-11.6l21.5,4.5l12,18.3l-4.5,21.5l-19.2,5.4l1.4,6.2C763.4,738.7,779.9,737.2,793,728.7z"/>
	</g>
	<path class="st2" d="M784.5,727.3c15.5-10.1,23.6-28.3,20.9-46.6l18.5-12.1l2.6-1.6L973,570.8c21.9,14,51.1,7.6,65.1-14.4
		c4.7-7.4,7.2-15.9,7.4-24.6l-17.9,11.6l-21.4-4.5l-12-18.4l4.5-21.4l17.8-11.6c-24-10.1-51.6,1.2-61.7,25.2
		c-3.4,8-4.4,16.8-3.1,25.3l-149,97.7l-4.5,2.9l-14.1,9.3c-22-13.9-51.1-7.4-65,14.6c-4.6,7.3-7.2,15.7-7.3,24.4l17.8-11.6l21.4,4.5
		l12,18.4l-4.5,21.4l-17.8,11.7C754.9,737.3,771.4,735.8,784.5,727.3z"/>
	<path class="st6" d="M784.5,727.3c0,0-0.8,0.6-2.5,1.6c-2.6,1.4-5.3,2.7-8,3.7c-10.9,3.7-22.8,3.3-33.5-1.1l-0.3-0.1l0.3-0.2
		l17.8-11.7l-0.1,0.1c1.4-6.6,2.9-13.8,4.5-21.4v0.2c-3.7-5.7-7.8-11.9-12-18.3l0.2,0.1l-21.5-4.5h0.2l-17.8,11.7l-0.5,0.3V687
		c0.2-16.3,8.8-31.3,22.8-39.7c7.4-4.5,15.8-7,24.5-7c9.1,0,17.9,2.5,25.6,7.4h-0.4l167.8-109.9l-0.2,0.4
		c-1.3-8.8-0.1-17.9,3.4-26.1c7-15.9,22.1-26.8,39.4-28.3c7.7-0.7,15.4,0.5,22.5,3.5l0.7,0.3l-0.6,0.4l-17.8,11.6l0.2-0.3
		c-1.5,7.2-3,14.4-4.5,21.4v-0.3l12,18.3l-0.2-0.2l21.4,4.5h-0.3l17.8-11.6l0.6-0.4v0.7c-0.3,17.8-10.6,33.9-26.5,41.7
		c-7.4,3.7-15.7,5.4-24,4.9c-8-0.5-15.8-3-22.6-7.3h0.4L805.4,680.9v-0.2c1.1,7.7,0.4,15.6-2.3,23c-1.9,5.4-4.8,10.3-8.4,14.7
		c-2.2,2.6-4.7,5-7.5,7.1c-1.9,1.3-2.9,2-2.9,2l2.8-2.1c2.7-2.1,5.2-4.5,7.4-7.1c8.7-10.4,12.5-24.1,10.4-37.5v-0.1h0.1l167.6-110
		l0.2-0.1l0.2,0.1c6.7,4.2,14.3,6.7,22.2,7.2c8.2,0.5,16.3-1.1,23.7-4.8c15.6-7.7,25.7-23.6,26-41l0.6,0.3l-17.8,11.6l-0.1,0.1h-0.2
		l-21.4-4.5h-0.2v-0.1l-12-18.4l-0.1-0.1v-0.2c1.5-7.1,3-14.2,4.5-21.4v-0.2l0.1-0.1l17.8-11.6v0.7c-14.2-6-30.5-4.6-43.4,3.8
		c-7.7,5-13.7,12.1-17.3,20.5c-3.5,8.1-4.7,17-3.4,25.7v0.2l-0.2,0.1L784.2,648.3l-0.2,0.1l-0.2-0.1c-7.6-4.8-16.3-7.3-25.3-7.3
		c-16.9,0.1-32.5,9.3-40.8,24.1c-3.7,6.7-5.7,14.2-5.9,21.9l-0.5-0.2l17.9-11.6l0,0h0.1l21.4,4.5h0.1v0.1l12,18.4v0.1v0.1
		c-1.6,7.6-3.1,14.8-4.5,21.4v0.1l0,0l-17.9,11.6v-0.3c10.6,4.4,22.4,4.9,33.3,1.3c2.8-1,5.5-2.2,8.1-3.6L784.5,727.3z"/>
	<path class="st6" d="M966.4,564.3c0,0-0.4-0.2-1.1-0.7c-0.9-0.7-1.8-1.5-2.6-2.3c-5.5-5.4-9.2-12.3-10.7-19.8
		c-0.2-1.1-0.4-2.3-0.5-3.4c-0.1-0.4-0.1-0.8,0-1.3c0.1,0,0.3,1.8,1,4.6c0.9,3.6,2.2,7.2,4,10.5c1.8,3.3,4,6.3,6.5,9.1
		C965.1,563,966.5,564.2,966.4,564.3z"/>
</g>
<g id="freepik--Settings--inject-16">
	<path class="st8" d="M198.4,125.1h117c8.9,0,16.1,7.2,16.1,16.1v117c0,8.9-7.2,16.1-16.1,16.1h-117c-8.9,0-16.1-7.2-16.1-16.1v-117
		C182.3,132.3,189.5,125.1,198.4,125.1z"/>
	<g class="st9">
		<path d="M198.4,125.1h117c8.9,0,16.1,7.2,16.1,16.1v117c0,8.9-7.2,16.1-16.1,16.1h-117c-8.9,0-16.1-7.2-16.1-16.1v-117
			C182.3,132.3,189.5,125.1,198.4,125.1z"/>
	</g>
	<path class="st8" d="M176.5,125.1h117c8.9,0,16.1,7.2,16.1,16.1v117c0,8.9-7.2,16.1-16.1,16.1h-117c-8.9,0-16.1-7.2-16.1-16.1v-117
		C160.4,132.3,167.6,125.1,176.5,125.1z"/>
	<path class="st5" d="M214,166.4c3.1-1.9,6.4-3.3,9.9-4.3l2-9.8l16.5-0.3l2.4,9.7c3.5,0.9,6.9,2.2,10,3.9l8.3-5.5l11.9,11.4
		l-5.2,8.5c1.9,3.1,3.3,6.4,4.3,9.9l9.8,2l0.3,16.5l-9.7,2.4c-0.9,3.5-2.2,6.9-3.9,10l5.5,8.3l-11.4,11.9l-8.5-5.2
		c-3.1,1.9-6.4,3.3-9.9,4.3l-2,9.8l-16.5,0.3l-2.4-9.6c-3.5-0.9-6.9-2.2-10-3.9l-8.3,5.5l-11.9-11.4l5.2-8.5
		c-1.9-3.1-3.3-6.4-4.3-9.9l-9.8-2l-0.3-16.5l9.7-2.4c0.9-3.5,2.2-6.9,3.9-10l-5.5-8.3l11.4-11.9L214,166.4L214,166.4z M222.8,188.4
		c-6.8,7-6.6,18.2,0.4,25c7,6.8,18.2,6.6,25-0.4c6.8-7,6.6-18.2-0.4-25c0,0,0,0,0,0C240.8,181.2,229.6,181.4,222.8,188.4z"/>
	<g class="st9">
		<polygon class="st5" points="276.1,125.1 160.4,217.5 160.4,235.4 298.3,125.1 		"/>
	</g>
	<g class="st9">
		<path class="st5" d="M160.5,256.4l149.1-115.6v32.5L176.1,274.3l0,0c-8.6,0-15.6-7-15.6-15.6c0,0,0-0.1,0-0.1L160.5,256.4z"/>
	</g>
</g>
</svg>
