<?xml version="1.0" encoding="utf-8"?>
<!-- Generator: Adobe Illustrator 26.0.1, SVG Export Plug-In . SVG Version: 6.00 Build 0)  -->
<svg version="1.1" id="Layer_1" xmlns="http://www.w3.org/2000/svg" xmlns:xlink="http://www.w3.org/1999/xlink" x="0px" y="0px"
	 viewBox="0 0 544.63 226.56" style="enable-background:new 0 0 544.63 226.56;" xml:space="preserve">
<style type="text/css">
	.st0{opacity:0.42;}
	.st1{fill:#F04E25;}
	.st2{font-family:'LoveLight-Regular';}
	.st3{font-size:164.0571px;}
	.st4{fill:#FFFFFF;}
</style>
<g>
	<g>
		<g class="st0">
			<text transform="matrix(0.9591 0 0 1 232.292 139.4466)" class="st1 st2 st3">designs</text>
		</g>
		<g>
			<g id="XMLID_00000083064213623918786660000003540780771630180508_">
				<g>
					<path class="st4" d="M245.96,112.25c0-1.23,1-2.23,2.23-2.23h24.02c12.72,0,18.33,6.31,18.33,13.72c0,4.09-1.56,7.33-4.03,9.46
						c-1.15,0.99-1.05,2.78,0.19,3.65c2.85,1.98,5.29,5.28,5.29,10.21c0,8.65-6.46,15.72-19.62,15.72h-24.19
						c-1.23,0-2.23-1-2.23-2.23V112.25z M269.59,130.36c4.26,0,5.98-2.19,5.98-5.05c0-3.27-2.38-4.88-6.09-4.88h-6.28
						c-1.23,0-2.23,1-2.23,2.23v5.47c0,1.23,1,2.23,2.23,2.23H269.59z M260.96,150.16c0,1.23,1,2.23,2.23,2.23h5.67
						c5.08,0,7.24-2.21,7.24-5.98c0-3.31-2.04-5.66-6.96-5.66h-5.96c-1.23,0-2.23,1-2.23,2.23V150.16z"/>
					<path class="st4" d="M314.59,145.07v15.47c0,1.23-1,2.23-2.23,2.23h-10.55c-1.23,0-2.23-1-2.23-2.23v-48.3
						c0-1.23,1-2.23,2.23-2.23h23.91c12.42,0,18.44,6.65,18.44,14.61c0,5.34-2.29,8.77-4.95,10.81c-1.09,0.83-1.17,2.45-0.14,3.36
						c2.24,1.97,4.05,5.59,4.05,11.96v2.2c0,2.31,0.05,5.1,0.28,7.35c0.14,1.32-0.89,2.47-2.22,2.47h-10.44
						c-1.06,0-1.97-0.74-2.18-1.77c-0.48-2.3-0.61-5.55-0.61-9.75v-1.36c0-4.56-1.09-7.05-7.91-7.05h-3.22
						C315.59,142.84,314.59,143.84,314.59,145.07z M314.59,129.84c0,1.23,1,2.23,2.23,2.23h4.92c5.15,0,7.02-2.14,7.02-5.69
						c0-3.53-2.23-5.59-6.95-5.59h-4.99c-1.23,0-2.23,1-2.23,2.23V129.84z"/>
					<path class="st4" d="M366.44,154.11l-2.11,7.07c-0.28,0.95-1.15,1.59-2.14,1.59h-10.35c-1.51,0-2.58-1.46-2.13-2.9l15.26-48.3
						c0.29-0.93,1.15-1.56,2.13-1.56h16.76c0.96,0,1.82,0.62,2.12,1.53l15.87,48.3c0.47,1.44-0.6,2.93-2.12,2.93h-11.42
						c-0.98,0-1.84-0.63-2.13-1.57l-2.23-7.13c-0.29-0.93-1.15-1.57-2.13-1.57h-13.25C367.59,152.51,366.73,153.16,366.44,154.11z
						 M377.78,141.06c1.49,0,2.56-1.43,2.14-2.86c-2.09-7.12-3.8-13.4-4.85-17.94h-0.21c-1.07,4.98-2.75,11.37-4.59,17.97
						c-0.4,1.42,0.67,2.83,2.15,2.83H377.78z"/>
					<path class="st4" d="M423.86,112.25v48.3c0,1.23-1,2.23-2.23,2.23h-11.04c-1.23,0-2.23-1-2.23-2.23v-48.3
						c0-1.23,1-2.23,2.23-2.23h11.04C422.87,110.02,423.86,111.02,423.86,112.25z"/>
					<path class="st4" d="M434.79,160.55v-48.3c0-1.23,1-2.23,2.23-2.23h14.85c0.86,0,1.65,0.5,2.02,1.28
						c5.51,11.73,13.07,26.89,15.21,33.15h0.26c-0.59-5.48-0.72-14.8-0.72-23.21v-8.99c0-1.23,1-2.23,2.23-2.23h9.63
						c1.23,0,2.23,1,2.23,2.23v48.3c0,1.23-1,2.23-2.23,2.23h-13.98c-0.86,0-1.65-0.5-2.02-1.28c-4.68-9.94-13.53-28.37-15.9-35.03
						h-0.21c0.49,4.96,0.54,15.17,0.54,24.46v9.62c0,1.23-1,2.23-2.23,2.23h-9.68C435.79,162.78,434.79,161.78,434.79,160.55z"/>
				</g>
			</g>
			<g id="XMLID_00000001661402190136752330000000409947933520443289_">
				<path class="st1" d="M51.18,135.19c-0.12-2.76-1.86-4.29-4.66-4.31c-2.54-0.02-5.08,0.01-7.63-0.01
					c-3.05-0.01-4.74-1.68-4.75-4.68c-0.01-2.49,0.01-4.98-0.01-7.47c-0.02-3.23-1.64-4.91-4.89-4.92c-8.17-0.03-16.34-0.03-24.51,0
					C1.55,113.82,0,115.46,0,118.67c-0.01,9.74,0,19.48,0,29.22c0,9.9-0.01,19.81,0.01,29.71c0,2.83,1.7,4.53,4.54,4.57
					c2.54,0.03,5.08,0.02,7.63,0.01c3.15-0.02,4.81-1.63,4.86-4.77c0.04-2.49-0.01-4.98,0.01-7.47c0.03-3.2,1.72-4.87,4.94-4.9
					c2.44-0.02,4.87,0,7.31-0.01c3.23-0.01,4.83-1.63,4.85-4.91c0.01-2.44,0-4.87,0-7.3c0.01-3.15,1.62-4.76,4.81-4.78
					c2.54-0.02,5.09,0.03,7.63-0.01c2.77-0.05,4.5-1.62,4.61-4.38C51.3,140.82,51.3,138,51.18,135.19z M34.12,143.36
					c-0.06,2.74-1.69,4.52-4.4,4.6c-2.76,0.09-5.52,0.08-8.27,0c-2.67-0.07-4.33-1.76-4.39-4.42c-0.06-2.76-0.07-5.52,0.01-8.27
					c0.07-2.63,1.82-4.32,4.45-4.37c2.7-0.05,5.41-0.05,8.11,0c2.69,0.05,4.42,1.81,4.49,4.51c0.04,1.41,0.01,2.81,0.01,4.22
					C34.12,140.88,34.14,142.12,34.12,143.36z"/>
				<path class="st1" d="M178.95,148.02c-4.06,0-8.12-0.01-12.18,0c-2.93,0.01-4.61,1.68-4.64,4.64c-0.03,2.6-0.04,5.2,0,7.8
					c0.04,2.82,1.77,4.52,4.59,4.54c2.6,0.02,5.2-0.02,7.79,0.01c2.96,0.03,4.71,1.79,4.74,4.78c0.02,2.54,0.03,5.09,0,7.63
					c-0.03,2.99-1.78,4.72-4.77,4.74c-2.6,0.02-5.2,0.03-7.79,0c-2.79-0.03-4.55-1.8-4.58-4.59c-0.03-2.6,0-5.2-0.01-7.8
					c-0.02-2.99-1.71-4.71-4.74-4.75c-2.6-0.04-5.2,0.01-7.79-0.01c-2.71-0.02-4.46-1.58-4.48-4.26c-0.06-8.55-0.06-17.11,0-25.66
					c0.02-2.66,1.81-4.21,4.53-4.23c2.6-0.02,5.2,0,7.79-0.01c3.01-0.01,4.68-1.69,4.69-4.74c0.01-2.54-0.01-5.09,0.01-7.63
					c0.02-2.85,1.64-4.59,4.48-4.67c2.7-0.08,5.41-0.08,8.12,0c2.9,0.08,4.52,1.82,4.55,4.78c0.02,2.6-0.02,5.2,0.01,7.8
					c0.03,2.76,1.72,4.44,4.46,4.46c2.65,0.02,5.3,0,7.96,0.02c2.86,0.03,4.54,1.7,4.57,4.53c0.02,2.65,0.02,5.31,0,7.96
					c-0.02,2.92-1.69,4.62-4.64,4.64C187.39,148.05,183.17,148.02,178.95,148.02z"/>
				<path class="st1" d="M136.51,122.49c0,1.41,0.04,2.82-0.01,4.22c-0.09,2.47-1.78,4.14-4.25,4.17c-2.65,0.04-5.3-0.01-7.95,0.01
					c-3.14,0.02-4.77,1.68-4.78,4.83c-0.01,2.54-0.01,5.09,0,7.63c0.02,2.84,1.64,4.55,4.49,4.62c2.6,0.06,5.19-0.01,7.79,0.02
					c3.12,0.03,4.68,1.6,4.7,4.71c0.02,2.65,0.04,5.3-0.01,7.96c-0.04,2.7-1.7,4.34-4.37,4.36c-2.76,0.03-5.52,0.03-8.28,0
					c-2.68-0.03-4.32-1.67-4.36-4.37c-0.03-2.6,0.01-5.2-0.01-7.79c-0.03-3.14-1.69-4.8-4.81-4.82c-2.6-0.02-5.19-0.03-7.79,0.01
					c-2.73,0.04-4.45,1.74-4.49,4.47c-0.04,2.65,0.01,5.3-0.02,7.96c-0.02,2.9-1.65,4.54-4.51,4.56c-2.71,0.02-5.41,0.02-8.12,0
					c-2.68-0.02-4.35-1.65-4.39-4.34c-0.05-2.81-0.05-5.63,0-8.44c0.05-2.5,1.68-4.16,4.18-4.22c2.65-0.07,5.3-0.01,7.95-0.03
					c3.23-0.03,4.85-1.68,4.86-4.93c0.01-2.54,0.02-5.09,0-7.63c-0.03-2.71-1.74-4.47-4.45-4.52c-2.7-0.05-5.41,0-8.12-0.02
					c-2.69-0.02-4.38-1.64-4.43-4.31c-0.05-2.81-0.05-5.63,0-8.44c0.05-2.51,1.6-4.19,4.14-4.29c2.92-0.11,5.85-0.12,8.76,0
					c2.58,0.11,4.09,1.84,4.12,4.47c0.03,2.6-0.01,5.2,0.01,7.79c0.02,3.02,1.74,4.74,4.72,4.76c2.54,0.01,5.09,0.01,7.63,0
					c2.98-0.01,4.71-1.72,4.75-4.73c0.04-2.6-0.01-5.2,0.01-7.79c0.03-2.71,1.57-4.42,4.25-4.51c2.86-0.1,5.74-0.11,8.6,0.01
					c2.6,0.1,4.11,1.81,4.17,4.43C136.54,119.67,136.51,121.08,136.51,122.49C136.51,122.49,136.51,122.49,136.51,122.49z"/>
				<path class="st1" d="M221.87,131.04c0,9.69,0,19.38,0,29.06c0,3.39-1.54,4.91-4.97,4.92c-2.54,0-5.09,0.02-7.63,0
					c-2.61-0.02-4.23-1.54-4.45-4.15c-0.04-0.48-0.03-0.97-0.03-1.46c0-19.05,0-38.1,0-57.15c0-4.07,1.42-5.51,5.42-5.51
					c2.38,0,4.76-0.02,7.14,0c2.82,0.03,4.51,1.73,4.51,4.58C221.88,111.23,221.87,121.14,221.87,131.04z"/>
				<path class="st1" d="M59.75,139.43c0-6.92-0.01-13.85,0-20.77c0-3.19,1.56-4.8,4.74-4.85c2.49-0.04,4.98-0.04,7.46,0
					c3.2,0.04,4.81,1.63,4.82,4.79c0.02,13.9,0.02,27.8,0,41.71c0,3.22-1.58,4.71-4.83,4.72c-2.43,0.01-4.87,0.01-7.3,0
					c-3.35-0.01-4.88-1.51-4.88-4.82C59.74,153.28,59.75,146.35,59.75,139.43z"/>
				<g>
					<path class="st4" d="M59.75,101c0-1.46-0.03-2.92,0.01-4.38c0.07-2.37,1.74-4.06,4.13-4.1c2.92-0.05,5.84-0.05,8.76,0
						c2.3,0.04,4.01,1.67,4.08,3.98c0.09,3.03,0.09,6.06,0,9.09c-0.07,2.24-1.7,3.86-3.95,3.92c-3.03,0.09-6.06,0.09-9.08,0
						c-2.31-0.07-3.87-1.79-3.93-4.12C59.72,103.92,59.75,102.46,59.75,101z"/>
				</g>
			</g>
		</g>
	</g>
</g>
</svg>
