<?xml version="1.0" encoding="utf-8"?>
<!-- Generator: Adobe Illustrator 26.0.1, SVG Export Plug-In . SVG Version: 6.00 Build 0)  -->
<svg version="1.1" id="Layer_1" xmlns="http://www.w3.org/2000/svg" xmlns:xlink="http://www.w3.org/1999/xlink" x="0px" y="0px"
	 viewBox="0 0 1983.96 825.31" style="enable-background:new 0 0 1983.96 825.31;" xml:space="preserve">
<style type="text/css">
	.st0{opacity:0.42;}
	.st1{fill:#F04E25;}
	.st2{fill:#FFFFFF;}
</style>
<g>
	<g>
		<g class="st0">
			<g>
				<path class="st1" d="M987.43,493.47c-21.06,0-31.59-15.9-31.59-47.7c0-15.52,3.27-38.61,9.8-69.28
					c-15.25,31.04-27.42,52.81-36.49,65.3c-19.25,28.02-37.22,42.02-53.92,42.02c-17.07,0-25.6-11.73-25.6-35.2
					c0-35.96,18.33-74.19,55.01-114.7c36.67-40.5,72.61-62.83,107.84-67c7.98-20.06,15.79-39.18,23.42-57.35
					c7.62-18.17,14.88-35.39,21.78-51.67c2.9-6.43,6.27-13.81,10.08-22.14c3.81-8.32,8.07-17.6,12.8-27.82
					c6.17-8.7,15.97-13.06,29.41-13.06c5.08,0,7.63,1.33,7.63,3.97l-1.09,2.27c-2.91,6.06-6.81,13.82-11.71,23.28
					c-4.9,9.47-10.44,20.26-16.61,32.37c-9.8,19.69-19.33,39.09-28.6,58.2c-9.25,19.12-18.06,37.57-26.41,55.36
					c4.35,1.14,6.54,4.54,6.54,10.22c0,7.58-4.55,18.93-13.62,34.07c-8.71,15.15-15.98,24.99-21.78,29.53
					c-3.63,7.19-6.9,15.53-9.8,24.98c-2.91,9.47-5.81,19.69-8.71,30.66c-2.55,10.98-4.45,21.2-5.72,30.66
					c-1.28,9.47-1.91,17.99-1.91,25.55c0,18.55,4.71,27.82,14.16,27.82c10.89,0,24.14-10.22,39.76-30.66
					c5.08-6.43,14.88-21.76,29.41-45.99c1.81-2.27,3.08-3.41,3.81-3.41c1.09,0,1.64,0.57,1.64,1.7l-1.09,3.41
					C1037.89,465.27,1011.75,493.47,987.43,493.47z M877.96,462.81c26.5,0,52.46-30.85,77.88-92.56c-6.9,2.27-12.53,3.41-16.89,3.41
					c-1.45,0-2.18-0.75-2.18-2.27c0-2.27,2.54-4.26,7.63-5.96c5.08-1.7,11.07-5.01,17.97-9.94c1.45-3.78,2.99-8.04,4.63-12.78
					c1.64-4.73,3.18-9.94,4.63-15.62c1.09-3.03,2.36-4.54,3.81-4.54c2.54,0,3.81,1.7,3.81,5.11c0,3.41-1.64,9.65-4.9,18.74l9.8-7.38
					l22.88-59.05c-26.87,6.06-57.37,26.69-91.5,61.89c-34.85,36.72-52.28,68.71-52.28,95.96
					C863.26,454.48,868.16,462.81,877.96,462.81z"/>
				<path class="st1" d="M1111.05,494.61c-25.79,0-38.67-17.41-38.67-52.24c0-5.3,0.27-11.07,0.81-17.32
					c0.55-6.25,1.54-12.96,3-20.16c-1.46-1.14-2.91-2.74-4.36-4.83c-1.45-2.08-2.91-4.63-4.36-7.67c1.45,0.38,2.99,1.05,4.63,1.99
					c1.64,0.95,3.72,1.8,6.27,2.56c3.99-18.92,14.88-37.66,32.67-56.21c19.24-20.44,37.39-30.66,54.46-30.66
					c3.99,0,5.99,0.57,5.99,1.7c0,0.76-2.54,2.65-7.62,5.68c-13.44,7.58-26.14,19.31-38.12,35.21
					c-11.98,16.28-20.7,32.18-26.14,47.7l1.09,1.14c17.43,0,35.58-8.7,54.46-26.12c18.88-17.41,28.32-35.2,28.32-53.38
					c0-5.68-1.46-10.79-4.36-15.33c-2.91-4.54-6.9-6.81-11.98-6.81c-7.27,0-15.44,3.03-24.51,9.09c-9.08,5.68-14.16,8.52-15.25,8.52
					c-0.73,0-1.09-0.19-1.09-0.57c0-4.54,6.35-9.46,19.06-14.76c10.89-4.54,19.42-6.81,25.6-6.81c8.35,0,15.33,2.47,20.97,7.38
					c5.62,4.92,8.44,11.74,8.44,20.44c0,20.07-12.53,39.56-37.58,58.49c-22.51,16.66-44.3,25.93-65.35,27.82
					c-2.91,9.08-4.36,17.8-4.36,26.12c0,31.43,10.89,47.13,32.68,47.13c16.7,0,34.12-7.57,52.28-22.71
					c15.25-12.49,27.95-27.63,38.12-45.43c3.27-5.3,5.99-7.95,8.17-7.95c0.36,0,0.54,0.38,0.54,1.14c0,1.52-1.46,4.92-4.36,10.22
					c-11.26,18.55-27.05,35.59-47.38,51.1C1150.99,486.09,1130.29,494.61,1111.05,494.61z"/>
				<path class="st1" d="M1280.43,490.63c-17.07,0-32.5-7.38-46.29-22.15c-13.44-15.14-20.15-31.6-20.15-49.4
					c0-11.73,2.9-17.6,8.71-17.6c3.63,0,7.26,2.84,10.89,8.52c10.89-26.49,26.32-56.4,46.29-89.72
					c12.71-20.44,27.59-30.66,44.66-30.66c3.62,0,7.9,1.33,12.8,3.97c4.9,2.65,7.35,5.87,7.35,9.65c0,2.65-2.37,3.97-7.08,3.97
					c-0.37,0-0.91,0-1.63,0c-0.73,0-1.64-0.19-2.72-0.57h-4.36c-7.99,0-15.07,2.47-21.24,7.38c-6.18,4.92-9.25,11.55-9.25,19.87
					c0,3.03,0.54,6.25,1.63,9.65l13.07,45.43c2.9,9.09,4.9,17.51,5.99,25.27c1.09,7.76,1.64,14.86,1.64,21.29
					c9.8-1.51,18.15-5.3,25.05-11.36c4.36-3.78,10.16-11.36,17.43-22.71c1.09-1.51,2.18-2.27,3.27-2.27c1.09,0,1.64,0.76,1.64,2.27
					c0,0.38-0.37,1.7-1.09,3.97c-12.35,21.58-27.6,34.26-45.75,38.04c-1.09,13.25-4.9,24.23-11.43,32.93
					C1302.94,485.9,1293.13,490.63,1280.43,490.63z M1268.99,471.89c14.52,0,24.14-7.38,28.87-22.14
					c-29.05,0-51.19-6.25-66.44-18.74c0.72,8.33,5.08,17.42,13.07,27.26C1252.83,467.35,1261,471.89,1268.99,471.89z M1298.4,442.93
					c0.36-1.51,0.54-2.84,0.54-3.97c0-1.14,0-2.46,0-3.97c0-4.91-0.81-11.64-2.45-20.16c-1.64-8.52-3.91-19.02-6.81-31.51
					c-5.45-23.85-7.45-39.75-5.99-47.7c-9.45,10.22-24.87,37.48-46.29,81.77c6.89,3.79,12.8,7.1,17.7,9.94s8.8,5.02,11.71,6.53
					c5.8,2.65,11.34,4.74,16.61,6.25C1288.68,441.61,1293.68,442.56,1298.4,442.93z"/>
				<path class="st1" d="M1393.17,474.73c-18.52,0-27.78-9.65-27.78-28.96c0-14.38,3.62-32.55,10.89-54.51l-9.8,15.9
					c-4.72,8.33-7.99,12.49-9.8,12.49c-0.73,0-1.09-0.57-1.09-1.7c0-3.03,1.09-5.86,3.27-8.52c8.71-12.49,18.33-30.47,28.87-53.94
					c1.09-3.03,2.63-6.81,4.63-11.36c1.99-4.54,4.44-9.65,7.35-15.33c1.82-3.41,6.35-5.11,13.62-5.11c6.17,0,9.25,1.9,9.25,5.68
					c0,4.17-1.82,9.85-5.44,17.04c-3.27,7.58-6.36,11.92-9.26,13.06c-18.88,39.37-28.32,68.33-28.32,86.88
					c0,12.49,3.99,18.74,11.98,18.74c13.07,0,27.41-9.84,43.03-29.53c16.34-19.68,24.32-29.53,23.96-29.53
					c0.72,0,1.09,0.57,1.09,1.7c0,0.38-0.37,1.7-1.09,3.97c-3.27,6.06-7.35,12.21-12.25,18.45c-4.9,6.25-10.44,12.78-16.61,19.59
					C1413.67,466.41,1401.51,474.73,1393.17,474.73z M1425.84,292.46c-7.27,0-10.89-3.97-10.89-11.92c0-3.78,2.26-8.42,6.81-13.91
					c4.54-5.48,8.62-9.17,12.25-11.07c13.07-6.43,20.88-9.65,23.42-9.65c1.09,0,1.63,0.38,1.63,1.14c0,1.14-4.18,6.63-12.53,16.47
					c-0.73,0.76-3.45,6.63-8.17,17.6C1434.37,288.68,1430.2,292.46,1425.84,292.46z"/>
				<path class="st1" d="M1364.3,741.61c-67.17,0-100.76-21.01-100.76-63.03c0-2.65,0.09-5.21,0.27-7.67
					c0.19-2.47,0.46-5.02,0.82-7.66c2.91-14.39,12.72-31.8,29.41-52.24c55.92-68.14,138.16-103.54,246.71-106.18l-17.97-47.13
					c-17.8,15.9-33.96,23.85-48.47,23.85c-13.07,0-19.61-7.38-19.61-22.14c0-27.63,14.89-58.29,44.66-91.99
					c-0.37-3.41-0.64-6.72-0.82-9.94c-0.19-3.21-0.27-6.34-0.27-9.37c0-23.09,4.17-42.96,12.53-59.62
					c10.53-21.2,25.78-31.8,45.75-31.8c2.18,0,4.26,0.1,6.26,0.28c1.99,0.19,3.9,0.48,5.72,0.85c8.35,1.9,14.71,8.9,19.06,21.01
					c3.99,11.36,5.45,21.58,4.36,30.66c21.78-13.63,32.67-30.1,32.67-49.4c0-6.81,0.72-10.22,2.18-10.22
					c3.63,0,5.45,6.63,5.45,19.87c0,25.37-13.8,44.86-41.39,58.49c-2.18,19.69-8.9,41.27-20.15,64.73
					c-11.98,25.37-24.7,43.72-38.12,55.08c3.62,6.06,7.9,13.82,12.8,23.28c4.9,9.47,10.62,20.63,17.16,33.5
					c29.04,0.37,51.37,2.08,66.99,5.11c5.8,1.14,8.71,2.64,8.71,4.54c0,2.64-2.91,3.97-8.71,3.97c-3.27,0-7.45-0.19-12.53-0.57
					c-5.09-0.38-11.08-0.95-17.97-1.7c-13.44-1.14-23.96-1.7-31.59-1.7c12.34,25.74,18.52,48.07,18.52,67
					c0,45.05-27.23,84.04-81.69,116.97C1457.06,727.22,1410.41,741.61,1364.3,741.61z M1363.75,733.09
					c39.58,0,81.34-16.47,125.26-49.4c47.19-35.2,70.8-72.49,70.8-111.86c0-11.74-5.09-30.66-15.25-56.78
					c-28.68,1.51-55.47,5.01-80.33,10.51c-24.86,5.48-48.01,12.96-69.44,22.43c-54.46,24.22-90.22,59.81-107.29,106.75
					c-2.54,6.43-3.81,12.86-3.81,19.31c0,18.54,9.26,33.5,27.78,44.86C1327.08,728.35,1344.51,733.09,1363.75,733.09z
					 M1480.3,462.24c13.43,0,26.32-5.11,38.67-15.33c-6.18-15.9-9.99-26.31-11.44-31.23c-1.82-6.43-3.27-12.3-4.36-17.6
					c-1.09-5.3-2-10.41-2.72-15.33c-20.34,28.02-30.5,49.03-30.5,63.03C1469.95,456.76,1473.4,462.24,1480.3,462.24z
					 M1507.53,361.17c3.62-3.78,7.9-7.57,12.8-11.36c4.9-3.78,10.43-7.57,16.61-11.36l32.13-19.31c0.35-3.03,0.63-6.05,0.81-9.08
					c0.18-3.03,0.27-5.87,0.27-8.52c0-22.33-5.09-33.5-15.25-33.5c-8.71,0-17.62,7.01-26.69,21.01
					c-7.27,10.98-12.62,22.06-16.07,33.22c-3.45,11.17-5.18,22.06-5.18,32.65C1506.98,357.95,1507.17,360.03,1507.53,361.17z
					 M1528.23,438.39c8.71-8.32,17.61-24.42,26.69-48.27c8.35-23.09,12.53-41.26,12.53-54.51c-26.51,12.87-46.29,25.55-59.36,38.04
					c1.45,9.85,3.9,20.16,7.35,30.95C1518.88,415.39,1523.14,426.66,1528.23,438.39z"/>
				<path class="st1" d="M1626.25,495.74c-3.27,0-4.9-2.47-4.9-7.38v-1.14c1.46-5.3,2.99-11.92,4.63-19.87
					c1.64-7.95,3.54-17.22,5.72-27.82c2.18-10.59,4.9-23.94,8.17-40.03c3.27-16.09,7.26-34.73,11.98-55.93l-6.54-16.47
					c-1.82-4.91-3.63-9.65-5.45-14.2c0-2.64,3.08-5.11,9.26-7.38c18.15-7.19,29.77-10.79,34.85-10.79c5.45,0,8.17,1.7,8.17,5.11
					c-0.37-1.14-9.63,23.09-27.78,72.68v5.11c0,10.6-1.64,15.9-4.9,15.9c-0.37,0-0.91-0.57-1.64-1.7
					c-2.91,9.47-5.72,18.45-8.44,26.97c-2.72,8.52-5.17,16.95-7.35,25.27c7.98-13.63,16.24-26.69,24.78-39.18
					c8.53-12.49,17.33-24.22,26.41-35.21c27.23-32.93,49.74-49.4,67.53-49.4c8.35,0,12.53,3.41,12.53,10.22
					c0,2.27-0.55,5.11-1.64,8.52c-2.91,12.87-6.9,29.06-11.98,48.55c-5.09,19.5-11.08,42.12-17.97,67.86
					c21.05-16.27,37.39-33.69,49.02-52.24c1.81-2.27,3.08-3.41,3.81-3.41c1.09,0,1.63,0.76,1.63,2.27c0,0.76-0.54,2.08-1.63,3.97
					c-15.98,29.53-35.4,53-58.28,70.41c-1.46,2.27-3.81,3.41-7.08,3.41c-2.54,0-3.81-1.51-3.81-4.54c0-0.75,0.55-4.26,1.64-10.51
					c1.09-6.24,2.54-15.05,4.35-26.4c1.82-8.32,3.45-16.47,4.9-24.42c1.45-7.95,2.9-16.08,4.36-24.42
					c2.54-18.54,4.17-34.82,4.9-48.83c-7.99,3.79-16.61,9.94-25.87,18.45c-9.26,8.52-19.52,19.22-30.77,32.08
					c-10.17,11.74-18.98,22.81-26.41,33.22c-7.45,10.42-13.53,20.16-18.25,29.24c-5.09,10.22-8.9,21.2-11.44,32.93
					C1631.34,492.71,1629.16,495.74,1626.25,495.74z M1655.12,328.23l4.9-18.74c-1.82,1.52-5.27,3.41-10.35,5.68L1655.12,328.23z"/>
				<path class="st1" d="M1846.83,490.63c-17.07,0-32.5-7.38-46.29-22.15c-13.44-15.14-20.15-31.6-20.15-49.4
					c0-11.73,2.9-17.6,8.71-17.6c3.62,0,7.26,2.84,10.89,8.52c10.89-26.49,26.32-56.4,46.29-89.72
					c12.71-20.44,27.59-30.66,44.66-30.66c3.63,0,7.9,1.33,12.8,3.97c4.9,2.65,7.35,5.87,7.35,9.65c0,2.65-2.37,3.97-7.08,3.97
					c-0.37,0-0.91,0-1.64,0c-0.73,0-1.63-0.19-2.72-0.57h-4.36c-7.99,0-15.07,2.47-21.24,7.38c-6.18,4.92-9.26,11.55-9.26,19.87
					c0,3.03,0.55,6.25,1.64,9.65l13.07,45.43c2.9,9.09,4.9,17.51,5.99,25.27c1.09,7.76,1.63,14.86,1.63,21.29
					c9.8-1.51,18.15-5.3,25.05-11.36c4.36-3.78,10.16-11.36,17.43-22.71c1.09-1.51,2.18-2.27,3.27-2.27s1.63,0.76,1.63,2.27
					c0,0.38-0.36,1.7-1.09,3.97c-12.35,21.58-27.6,34.26-45.75,38.04c-1.09,13.25-4.9,24.23-11.44,32.93
					C1869.33,485.9,1859.53,490.63,1846.83,490.63z M1835.39,471.89c14.51,0,24.14-7.38,28.87-22.14c-29.05,0-51.2-6.25-66.44-18.74
					c0.72,8.33,5.08,17.42,13.07,27.26C1819.23,467.35,1827.4,471.89,1835.39,471.89z M1864.79,442.93
					c0.36-1.51,0.55-2.84,0.55-3.97c0-1.14,0-2.46,0-3.97c0-4.91-0.82-11.64-2.45-20.16c-1.63-8.52-3.9-19.02-6.81-31.51
					c-5.45-23.85-7.44-39.75-5.99-47.7c-9.44,10.22-24.87,37.48-46.29,81.77c6.9,3.79,12.8,7.1,17.7,9.94
					c4.9,2.84,8.8,5.02,11.71,6.53c5.8,2.65,11.34,4.74,16.61,6.25C1855.08,441.61,1860.07,442.56,1864.79,442.93z"/>
			</g>
		</g>
		<g>
			<g id="XMLID_00000016782950227819895700000008599981604562453405_">
				<g>
					<path class="st2" d="M900.76,395.36c0-4.26,3.46-7.72,7.72-7.72h83.15c44.03,0,63.45,21.83,63.45,47.49
						c0,14.15-5.39,25.35-13.95,32.74c-3.98,3.43-3.64,9.63,0.67,12.63c9.86,6.86,18.32,18.28,18.32,35.33
						c0,29.93-22.36,54.42-67.9,54.42h-83.74c-4.26,0-7.72-3.46-7.72-7.72V395.36z M982.55,458.04c14.73,0,20.68-7.58,20.68-17.48
						c0-11.33-8.23-16.88-21.08-16.88h-21.74c-4.26,0-7.72,3.46-7.72,7.72v18.93c0,4.26,3.46,7.72,7.72,7.72H982.55z M952.69,526.57
						c0,4.26,3.46,7.72,7.72,7.72h19.64c17.59,0,25.07-7.65,25.07-20.71c0-11.47-7.07-19.59-24.09-19.59h-20.62
						c-4.26,0-7.72,3.46-7.72,7.72V526.57z"/>
					<path class="st2" d="M1138.3,508.96v53.56c0,4.26-3.46,7.72-7.72,7.72h-36.51c-4.26,0-7.72-3.46-7.72-7.72V395.36
						c0-4.26,3.46-7.72,7.72-7.72h82.76c43,0,63.81,23.02,63.81,50.56c0,18.48-7.92,30.34-17.14,37.41
						c-3.76,2.88-4.04,8.5-0.49,11.62c7.76,6.83,14.02,19.35,14.02,41.4v7.6c0,7.99,0.18,17.66,0.98,25.44
						c0.47,4.57-3.07,8.56-7.67,8.56h-36.13c-3.66,0-6.82-2.56-7.56-6.14c-1.65-7.97-2.13-19.19-2.13-33.73v-4.71
						c0-15.77-3.76-24.41-27.37-24.41h-11.14C1141.76,501.24,1138.3,504.7,1138.3,508.96z M1138.3,456.24
						c0,4.26,3.46,7.72,7.72,7.72h17.04c17.82,0,24.31-7.41,24.31-19.69c0-12.2-7.71-19.33-24.06-19.33h-17.29
						c-4.26,0-7.72,3.46-7.72,7.72V456.24z"/>
					<path class="st2" d="M1317.77,540.24l-7.29,24.48c-0.97,3.27-3.98,5.52-7.4,5.52h-35.83c-5.22,0-8.93-5.07-7.36-10.04
						l52.83-167.16c1.01-3.21,3.99-5.39,7.36-5.39h58.02c3.33,0,6.29,2.14,7.33,5.31l54.92,167.16c1.64,4.99-2.08,10.13-7.33,10.13
						h-39.54c-3.38,0-6.36-2.19-7.37-5.42l-7.7-24.68c-1.01-3.22-3.99-5.42-7.37-5.42h-45.88
						C1321.76,534.72,1318.75,536.97,1317.77,540.24z M1357,495.07c5.15,0,8.86-4.96,7.4-9.9c-7.24-24.63-13.15-46.38-16.8-62.11
						h-0.73c-3.7,17.23-9.51,39.34-15.87,62.21c-1.37,4.92,2.33,9.79,7.43,9.79H1357z"/>
					<path class="st2" d="M1516.51,395.36v167.16c0,4.26-3.46,7.72-7.72,7.72h-38.23c-4.26,0-7.72-3.46-7.72-7.72V395.36
						c0-4.26,3.46-7.72,7.72-7.72h38.23C1513.06,387.64,1516.51,391.09,1516.51,395.36z"/>
					<path class="st2" d="M1554.32,562.52V395.36c0-4.26,3.46-7.72,7.72-7.72h51.41c2.99,0,5.71,1.72,6.98,4.43
						c19.09,40.6,45.23,93.06,52.63,114.75h0.9c-2.03-18.96-2.49-51.21-2.49-80.34v-31.13c0-4.26,3.46-7.72,7.72-7.72h33.33
						c4.26,0,7.72,3.46,7.72,7.72v167.16c0,4.26-3.46,7.72-7.72,7.72h-48.39c-2.99,0-5.71-1.72-6.98-4.42
						c-16.19-34.41-46.81-98.18-55.03-121.25h-0.72c1.7,17.18,1.86,52.52,1.86,84.66v33.29c0,4.26-3.46,7.72-7.72,7.72h-33.5
						C1557.78,570.24,1554.32,566.78,1554.32,562.52z"/>
				</g>
			</g>
			<g id="XMLID_00000183247227882483548510000002065558975450526607_">
				<path class="st1" d="M226.6,474.77c-0.42-9.56-6.45-14.85-16.13-14.92c-8.8-0.06-17.6,0.02-26.4-0.02
					c-10.54-0.03-16.4-5.81-16.44-16.21c-0.04-8.62,0.02-17.23-0.02-25.85c-0.06-11.18-5.68-16.98-16.94-17.03
					c-28.28-0.09-56.55-0.11-84.82,0.01c-11.04,0.06-16.39,5.72-16.39,16.81c-0.02,33.72-0.01,67.43-0.01,101.15
					c0,34.28-0.02,68.56,0.02,102.82c0.01,9.79,5.89,15.69,15.71,15.8c8.79,0.11,17.6,0.06,26.4,0.02
					c10.89-0.06,16.66-5.64,16.81-16.51c0.13-8.62-0.02-17.24,0.04-25.85c0.09-11.06,5.95-16.87,17.09-16.97
					c8.43-0.07,16.86,0.01,25.29-0.02c11.19-0.03,16.73-5.63,16.78-16.99c0.03-8.43-0.01-16.86,0.01-25.28
					c0.04-10.91,5.6-16.46,16.63-16.54c8.8-0.07,17.61,0.09,26.41-0.05c9.6-0.16,15.58-5.62,15.96-15.16
					C227,494.26,227.02,484.49,226.6,474.77z M167.54,503.05c-0.19,9.5-5.84,15.63-15.22,15.91c-9.54,0.3-19.09,0.28-28.62,0.01
					c-9.24-0.26-14.99-6.09-15.21-15.3c-0.22-9.54-0.25-19.09,0.02-28.64c0.25-9.1,6.32-14.96,15.4-15.12
					c9.35-0.16,18.71-0.17,28.06,0c9.29,0.16,15.31,6.27,15.55,15.61c0.13,4.87,0.02,9.73,0.02,14.6
					C167.56,494.44,167.63,498.74,167.54,503.05z"/>
				<path class="st1" d="M668.81,519.18c-14.05,0-28.1-0.04-42.14,0.02c-10.15,0.04-15.95,5.83-16.05,16.05
					c-0.09,8.99-0.12,17.99,0.01,26.98c0.14,9.77,6.13,15.64,15.87,15.71c8.99,0.06,17.98-0.06,26.97,0.03
					c10.26,0.1,16.31,6.21,16.41,16.54c0.08,8.81,0.09,17.61,0,26.42c-0.11,10.33-6.16,16.34-16.5,16.42
					c-8.99,0.07-17.98,0.1-26.97-0.01c-9.66-0.12-15.74-6.22-15.85-15.88c-0.1-8.99,0.01-17.99-0.04-26.98
					c-0.05-10.36-5.92-16.29-16.4-16.43c-8.99-0.12-17.98,0.03-26.97-0.04c-9.37-0.07-15.44-5.47-15.51-14.76
					c-0.21-29.6-0.21-59.21,0.01-88.81c0.07-9.19,6.28-14.58,15.67-14.64c8.99-0.05,17.98,0.01,26.97-0.02
					c10.43-0.04,16.18-5.84,16.23-16.4c0.04-8.81-0.05-17.61,0.03-26.42c0.08-9.87,5.67-15.87,15.5-16.16
					c9.36-0.28,18.73-0.26,28.09-0.02c10.05,0.27,15.66,6.31,15.74,16.56c0.07,8.99-0.06,17.99,0.04,26.98
					c0.1,9.56,5.94,15.37,15.42,15.45c9.18,0.08,18.36-0.01,27.53,0.08c9.89,0.1,15.72,5.87,15.81,15.69
					c0.09,9.18,0.07,18.36,0.01,27.54c-0.07,10.12-5.85,15.99-16.05,16.07C698.03,519.27,683.42,519.18,668.81,519.18z"/>
				<path class="st1" d="M521.93,430.8c0,4.87,0.14,9.75-0.03,14.61c-0.3,8.56-6.14,14.33-14.69,14.44
					c-9.17,0.12-18.35-0.02-27.53,0.04c-10.86,0.07-16.51,5.81-16.55,16.72c-0.03,8.8-0.05,17.61,0.01,26.41
					c0.06,9.84,5.69,15.75,15.56,15.98c8.98,0.21,17.98-0.03,26.96,0.07c10.79,0.11,16.19,5.53,16.28,16.29
					c0.07,9.18,0.12,18.36-0.02,27.54c-0.15,9.35-5.87,15.01-15.13,15.1c-9.55,0.09-19.1,0.09-28.65,0
					c-9.27-0.09-14.96-5.79-15.08-15.14c-0.12-8.99,0.04-17.98-0.05-26.97c-0.11-10.88-5.84-16.61-16.65-16.69
					c-8.99-0.07-17.98-0.11-26.97,0.02c-9.47,0.14-15.39,6.01-15.55,15.46c-0.16,9.18,0.02,18.36-0.06,27.54
					c-0.08,10.03-5.71,15.71-15.61,15.79c-9.36,0.07-18.73,0.08-28.09-0.01c-9.29-0.09-15.05-5.7-15.21-15.02
					c-0.17-9.74-0.19-19.48,0.02-29.22c0.18-8.66,5.82-14.38,14.47-14.62c9.17-0.25,18.35-0.02,27.53-0.1
					c11.19-0.1,16.8-5.82,16.83-17.06c0.03-8.8,0.07-17.61-0.01-26.41c-0.09-9.38-6.02-15.47-15.39-15.64
					c-9.36-0.17-18.73,0.01-28.09-0.06c-9.29-0.07-15.17-5.69-15.34-14.93c-0.18-9.74-0.18-19.48,0-29.22
					c0.16-8.7,5.55-14.5,14.31-14.84c10.1-0.39,20.23-0.4,30.32,0.02c8.94,0.37,14.16,6.37,14.26,15.49
					c0.09,8.99-0.03,17.98,0.04,26.97c0.08,10.44,6.01,16.42,16.32,16.47c8.8,0.05,17.6,0.04,26.4,0
					c10.33-0.05,16.31-5.94,16.45-16.39c0.12-8.99-0.04-17.98,0.05-26.97c0.1-9.37,5.43-15.3,14.7-15.63
					c9.91-0.35,19.86-0.37,29.77,0.03c8.98,0.36,14.23,6.25,14.42,15.32c0.11,4.87,0.02,9.74,0.02,14.61
					C521.94,430.8,521.93,430.8,521.93,430.8z"/>
				<path class="st1" d="M817.38,460.4c0,33.53,0.01,67.06,0,100.59c0,11.75-5.33,17-17.2,17.02c-8.8,0.01-17.6,0.06-26.4-0.02
					c-9.04-0.08-14.65-5.34-15.41-14.35c-0.14-1.68-0.1-3.37-0.1-5.05c-0.01-65.94-0.01-131.88,0-197.82
					c0-14.08,4.93-19.07,18.77-19.07c8.24,0,16.48-0.06,24.72,0.02c9.77,0.09,15.61,5.98,15.62,15.84
					C817.41,391.84,817.38,426.12,817.38,460.4z"/>
				<path class="st1" d="M256.25,489.43c0-23.96-0.02-47.93,0.01-71.89c0.01-11.04,5.41-16.62,16.4-16.79
					c8.61-0.13,17.22-0.12,25.83-0.01c11.07,0.15,16.66,5.63,16.67,16.58c0.06,48.12,0.06,96.23,0,144.35
					c-0.02,11.13-5.48,16.31-16.73,16.35c-8.42,0.02-16.84,0.02-25.27,0c-11.59-0.03-16.89-5.23-16.9-16.69
					C256.23,537.36,256.25,513.39,256.25,489.43z"/>
				<g>
					<path class="st2" d="M256.27,356.41c0-5.06-0.12-10.11,0.03-15.17c0.24-8.22,6.02-14.05,14.3-14.19
						c10.11-0.17,20.22-0.18,30.32,0.01c7.97,0.15,13.88,5.78,14.11,13.77c0.3,10.48,0.3,20.97-0.01,31.45
						c-0.23,7.74-5.89,13.35-13.68,13.57c-10.47,0.3-20.97,0.32-31.44-0.02c-7.99-0.25-13.39-6.2-13.6-14.25
						C256.16,366.53,256.26,361.47,256.27,356.41z"/>
				</g>
			</g>
		</g>
	</g>
</g>
</svg>
