<?xml version="1.0" encoding="utf-8"?>
<!-- Generator: Adobe Illustrator 26.0.1, SVG Export Plug-In . SVG Version: 6.00 Build 0)  -->
<svg version="1.1" id="Layer_1" xmlns="http://www.w3.org/2000/svg" xmlns:xlink="http://www.w3.org/1999/xlink" x="0px" y="0px"
	 viewBox="0 0 500 500" style="enable-background:new 0 0 500 500;" xml:space="preserve">
<style type="text/css">
	.st0{fill:#EBEBEB;}
	.st1{fill:#FFFFFF;}
	.st2{fill:#DBDBDB;}
	.st3{fill:#C7C7C7;}
	.st4{fill:#A6A6A6;}
	.st5{fill:#263238;}
	.st6{fill:#737373;}
	.st7{opacity:0.1;enable-background:new    ;}
	.st8{fill:#F96C46;}
	.st9{fill:#455A64;}
	.st10{fill:#37474F;}
	.st11{fill:#DD4926;}
	.st12{fill:#EB9481;}
	.st13{opacity:5.000000e-02;enable-background:new    ;}
	.st14{fill:#FF9ABB;}
</style>
<g id="freepik--background-complete--inject-6">
	
		<rect x="118.3" y="128.3" transform="matrix(0.1352 -0.9908 0.9908 0.1352 -44.9336 296.2046)" class="st0" width="57.8" height="91.1"/>
	<path class="st1" d="M106,139.1c3.2,4,6.4,7.8,9.6,11.8s6.5,7.7,9.8,11.6c3.4,4,6.8,8,10.3,11.9c0.1,0.1,0.2,0.2,0.3,0.4
		c3,3.5,6.1,7,9.2,10.4l0.4,0.5l0.6-0.4c3.9-2.5,7.8-5.1,11.6-7.6c0.1-0.1,0.3-0.2,0.4-0.3c4.4-2.9,8.8-5.8,13.1-8.7
		c4.2-2.8,8.3-5.6,12.5-8.5s8.3-5.8,12.4-8.8c-4.3,2.5-8.5,5.1-12.8,7.6s-8.5,5.2-12.7,7.9c-4.7,2.9-9.4,5.9-14.1,8.9
		c-7.1,4.5,0,0,0,0c-3.5,2.2-7.1,4.5-10.6,6.8c-2.8-3.1-5.6-6.3-8.4-9.4l0,0c-3.7-4.1-7.5-8.3-11.2-12.4c-3.4-3.7-6.8-7.3-10.2-11
		C112.8,146.2,109.5,142.6,106,139.1z"/>
	<path class="st1" d="M156.3,177.1c0,0,0.1,0.1,0.1,0.1l1.3,1.4c2,2.2,4.1,4.4,6.2,6.5c2.6,2.6,5.2,5.1,7.9,7.6s5.4,4.9,8.2,7.2
		s5.6,4.7,8.5,6.9c-2.4-2.8-5-5.4-7.5-8s-5.2-5.1-7.9-7.6s-5.4-4.9-8.2-7.3c-2.2-1.9-4.5-3.8-6.8-5.5c-0.5-0.4-1.1-0.8-1.6-1.2
		L156.3,177.1z"/>
	<path class="st1" d="M98.7,194.5c3.4-1.3,6.8-2.8,10.1-4.3s6.6-3.2,9.8-4.8s6.5-3.4,9.6-5.2c2.6-1.5,5.1-3,7.7-4.6
		c0.6-0.3,1.1-0.7,1.6-1l0.1-0.1c0,0-0.1,0-0.1,0l-1.9,0.8c-2.7,1.1-5.4,2.3-8,3.5c-3.3,1.5-6.6,3.2-9.8,4.8s-6.5,3.4-9.6,5.2
		S101.7,192.5,98.7,194.5z"/>
	<rect x="59.2" y="65" transform="matrix(0.9693 -0.246 0.246 0.9693 -18.9866 26.7757)" class="st0" width="77" height="48.8"/>
	<path class="st1" d="M54.4,75.2c3.8,2.1,7.5,4.1,11.3,6.2c3.8,2.1,7.5,4,11.3,6c3.9,2.1,7.9,4.1,11.8,6.1l0.4,0.2l10.5,5.3l0.5,0.2
		l0.3-0.5c2.2-3.2,4.5-6.4,6.7-9.7c0.1-0.1,0.2-0.2,0.2-0.3c2.5-3.6,5-7.3,7.5-11c2.4-3.5,4.8-7.1,7.1-10.6s4.7-7.2,7-10.8
		c-2.6,3.3-5.1,6.7-7.6,10s-5,6.8-7.5,10.2c-2.8,3.8-5.5,7.6-8.2,11.5c-4.1,5.8,0,0,0,0c-2,2.9-4.1,5.8-6.2,8.7
		c-3.2-1.6-6.4-3.2-9.5-4.7l0,0c-4.2-2.1-8.5-4.1-12.7-6.2c-3.8-1.8-7.6-3.6-11.4-5.4S58.2,76.8,54.4,75.2z"/>
	<path class="st1" d="M105.8,89c0,0,0.1,0,0.1,0.1l1.4,0.7c2.3,1.1,4.6,2.1,6.9,3.1c2.8,1.2,5.7,2.3,8.6,3.4s5.8,2.1,8.7,3.1
		s5.9,1.9,8.9,2.7c-2.8-1.4-5.6-2.7-8.4-3.9s-5.7-2.3-8.6-3.4s-5.8-2.1-8.7-3.1c-2.3-0.8-4.7-1.5-7.1-2.2c-0.6-0.2-1.1-0.3-1.7-0.4
		L105.8,89z"/>
	<path class="st1" d="M66.2,121c2.3-2.1,4.4-4.3,6.5-6.6s4.2-4.6,6.2-6.9s4-4.7,5.9-7.1c1.6-2,3.1-4,4.6-6l0.9-1.3
		c0,0,0-0.1,0.1-0.1l-0.1,0.1c-0.4,0.4-0.8,0.8-1.2,1.2c-1.8,1.7-3.5,3.5-5.2,5.3c-2.1,2.2-4.2,4.6-6.2,6.9s-4,4.7-5.9,7.1
		S67.9,118.4,66.2,121z"/>
	
		<rect x="364.4" y="265.8" transform="matrix(0.9932 -0.1165 0.1165 0.9932 -31.0692 48.9133)" class="st0" width="77" height="48.8"/>
	<path class="st1" d="M361.8,270.5c3.4,2.6,6.9,5,10.4,7.6s7,5,10.4,7.4s7.3,5.1,10.9,7.6l0.3,0.2c3.2,2.2,6.5,4.4,9.7,6.6l0.5,0.3
		l0.4-0.4c2.7-2.9,5.3-5.8,7.9-8.7c0.1-0.1,0.2-0.2,0.3-0.3c3-3.3,5.9-6.6,8.9-9.9c2.8-3.2,5.6-6.4,8.4-9.6s5.6-6.5,8.3-9.8
		c-3,2.9-5.9,6-8.9,8.9s-5.9,6-8.8,9.1c-3.2,3.4-6.5,6.8-9.7,10.3c-4.8,5.2,0,0,0,0c-2.4,2.6-4.8,5.2-7.2,7.8c-2.9-2-5.9-4-8.8-5.9
		l0,0c-3.9-2.6-7.9-5.2-11.8-7.8c-3.5-2.3-7.1-4.6-10.6-6.8C368.9,274.9,365.4,272.6,361.8,270.5z"/>
	<path class="st1" d="M411,291l0.1,0.1c0.4,0.3,0.9,0.6,1.3,0.9c2.1,1.4,4.2,2.7,6.4,4c2.6,1.6,5.4,3.1,8.1,4.5s5.5,2.9,8.2,4.2
		s5.6,2.7,8.4,3.8c-2.5-1.8-5.2-3.4-7.8-4.9s-5.4-3.1-8.1-4.5s-5.5-2.9-8.2-4.2c-2.2-1.1-4.5-2.1-6.7-3.1c-0.5-0.2-1-0.4-1.6-0.7
		L411,291z"/>
	<path class="st1" d="M367.5,317.4c2.5-1.8,5-3.7,7.3-5.7s4.7-4,7-6s4.6-4.1,6.8-6.3c1.8-1.7,3.6-3.5,5.3-5.4l1.1-1.2
		c0,0,0.1-0.1,0.1-0.1c0,0-0.1,0.1-0.1,0.1l-1.4,1c-2,1.5-3.9,3-5.8,4.6c-2.4,2-4.7,4-7,6s-4.6,4.1-6.8,6.3S369.6,315.1,367.5,317.4
		z"/>
	<path class="st0" d="M378.1,159.6l-13.1,0.3l-6.7,0.1c-2.2,0.1-4.5,0-6.7,0.1h-0.4v-0.4l-0.1-11.2v-0.5h0.5l13.2,0.1
		c4.4,0,8.8,0.1,13.2,0.2h0.3v0.3c0,1.9-0.1,3.8-0.1,5.6L378.1,159.6z M378.1,159.6L378,154c0-1.9-0.1-3.7-0.1-5.5l0.3,0.3
		c-4.4,0.1-8.8,0.2-13.2,0.2l-13.2,0.1l0.5-0.5v11.2l-0.5-0.4c2.2,0,4.4,0,6.5,0.1l6.6,0.1L378.1,159.6z"/>
	<path class="st0" d="M363.4,173.7l-13.1,0.3l-6.7,0.1c-2.2,0-4.5,0-6.7,0.1h-0.4v-0.4l0-11.2V162h0.5l13.2,0.1
		c4.4,0,8.8,0.1,13.2,0.2h0.3v0.3c0,1.9-0.1,3.8-0.1,5.6L363.4,173.7z M363.4,173.7l-0.1-5.6c0-1.9-0.1-3.7-0.1-5.5l0.3,0.3
		c-4.4,0.1-8.8,0.2-13.2,0.2l-13.2,0.1l0.5-0.5l-0.1,11.2l-0.4-0.4c2.2,0,4.4,0,6.5,0.1l6.6,0.1L363.4,173.7z"/>
	<path class="st0" d="M392.9,173.7l-13.1,0.3l-6.7,0.1c-2.2,0-4.5,0-6.7,0.1H366v-0.4l-0.1-11.2V162h0.5l13.2,0.1
		c4.4,0,8.8,0.1,13.2,0.2h0.3v0.3c0,1.9-0.1,3.8-0.1,5.6L392.9,173.7z M392.9,173.7l-0.1-5.6c0-1.9-0.1-3.7-0.1-5.5l0.3,0.3
		c-4.4,0.1-8.8,0.2-13.2,0.2l-13.2,0.1l0.5-0.5l0,11.2l-0.5-0.4c2.2,0,4.4,0,6.5,0.1l6.6,0.1L392.9,173.7z"/>
	<path class="st0" d="M443.4,58.3l-13.1,0.3l-6.7,0.1c-2.2,0-4.5,0-6.7,0.1h-0.5v-0.5l0-11.2v-0.5h0.5l13.2,0.1
		c4.4,0,8.8,0.1,13.2,0.2h0.3v0.3c0,1.9-0.1,3.8-0.1,5.7L443.4,58.3z M443.4,58.3l-0.1-5.7c0-1.9-0.1-3.7-0.1-5.5l0.3,0.3
		c-4.4,0-8.8,0.2-13.2,0.2l-13.2,0.1l0.5-0.5l0,11.2l-0.4-0.5c2.2,0,4.4,0,6.5,0.1L430,58L443.4,58.3z"/>
	<path class="st0" d="M458.1,72.4L445,72.7l-6.7,0.1c-2.2,0-4.5,0-6.7,0.1h-0.5v-0.4l0-11.2v-0.5h0.5l13.2,0.1
		c4.4,0,8.8,0.1,13.2,0.2h0.3v0.3c0,1.9-0.1,3.8-0.1,5.6L458.1,72.4z M458.1,72.4l-0.1-5.7c0-1.9-0.1-3.7-0.1-5.5l0.3,0.3
		c-4.4,0-8.8,0.2-13.2,0.2l-13.2,0.1l0.5-0.5l-0.1,11.2l-0.4-0.4c2.2,0,4.4,0,6.5,0.1l6.6,0.1L458.1,72.4z"/>
	<path class="st0" d="M68.4,58.3l-13.1,0.3l-6.7,0.1c-2.2,0-4.5,0-6.7,0.1h-0.4v-0.5l-0.1-11.2v-0.5h0.5l13.2,0.1
		c4.4,0,8.8,0.1,13.2,0.2h0.3v0.3c0,1.9-0.1,3.8-0.1,5.7L68.4,58.3z M68.4,58.3l-0.1-5.7c0-1.9-0.1-3.7-0.1-5.5l0.3,0.3
		c-4.4,0-8.8,0.2-13.2,0.2l-13.2,0.1l0.5-0.5l-0.1,11.2l-0.5-0.4c2.2,0,4.4,0,6.5,0L55,58L68.4,58.3z"/>
	<path class="st0" d="M431.6,318.5l13.1-0.3l6.7-0.1c2.2,0,4.5,0,6.7-0.1h0.4v0.5l0.1,11.2v0.5h-0.5l-13.2-0.1
		c-4.4,0-8.8-0.1-13.2-0.2h-0.3v-0.3c0-1.9,0.1-3.8,0.1-5.7L431.6,318.5z M431.6,318.5l0.1,5.6c0,1.9,0.1,3.7,0.1,5.5l-0.3-0.3
		c4.4,0,8.8-0.1,13.2-0.2l13.2-0.1l-0.5,0.5l0-11.2l0.5,0.4c-2.2,0-4.4,0-6.5,0l-6.6-0.1L431.6,318.5z"/>
	<path class="st0" d="M41.9,318.5l13.1-0.3l6.7-0.1c2.2,0,4.5,0,6.7-0.1h0.4v0.5v11.2v0.5h-0.5l-13.2-0.1c-4.4,0-8.8-0.1-13.2-0.2
		h-0.3v-0.3c0-1.9,0.1-3.8,0.1-5.7L41.9,318.5z M41.9,318.5l0.1,5.6c0,1.9,0.1,3.7,0.1,5.5l-0.3-0.3c4.4,0,8.8-0.1,13.2-0.2
		l13.2-0.1l-0.5,0.5l0.1-11.2l0.4,0.4c-2.2,0-4.3,0-6.5,0l-6.6-0.1L41.9,318.5z"/>
	<path class="st0" d="M56.7,304.4l13.1-0.3l6.7-0.1c2.2,0,4.5,0,6.7-0.1h0.4v0.5v11.2v0.5h-0.5L69.9,316c-4.4,0-8.8-0.1-13.2-0.2
		h-0.3v-0.3c0-1.9,0.1-3.8,0.1-5.7L56.7,304.4z M56.7,304.4l0.2,5.6c0,1.9,0.1,3.7,0.1,5.5l-0.3-0.3c4.4,0,8.8-0.1,13.2-0.2
		l13.2-0.1l-0.5,0.5v-11.2l0.4,0.4c-2.2,0-4.3,0-6.5,0l-6.5-0.2L56.7,304.4z"/>
	<rect x="323.8" y="128.1" class="st0" width="136.2" height="8.1"/>
	<rect x="441.6" y="136.2" class="st0" width="8.1" height="26.8"/>
	<rect x="441.6" y="136.2" class="st2" width="8.1" height="8.3"/>
	<rect x="334.1" y="136.2" class="st0" width="8.1" height="26.8"/>
	<rect x="334.1" y="136.2" class="st2" width="8.1" height="8.3"/>
	<rect x="412.6" y="76.6" class="st3" width="13" height="51.6"/>
	<rect x="412.6" y="73.8" class="st2" width="13" height="5.7"/>
	<rect x="412.6" y="86.7" class="st2" width="13" height="2.1"/>
	<rect x="411" y="115.7" class="st2" width="14.6" height="5.7"/>
	<rect x="403.5" y="68" class="st2" width="9.1" height="60.1"/>
	<rect x="405.4" y="73.6" class="st0" width="5.4" height="23.1"/>
	
		<rect x="333.5" y="99.3" transform="matrix(0.7112 -0.703 0.703 0.7112 32.0397 285.5712)" class="st3" width="60.1" height="9.1"/>
	
		<rect x="348.8" y="104.1" transform="matrix(0.7112 -0.703 0.703 0.7112 28.9777 284.2425)" class="st2" width="23.1" height="5.4"/>
	<rect x="388.1" y="82.4" class="st4" width="15.4" height="45.7"/>
	<rect x="388.1" y="119" class="st3" width="15.4" height="4.3"/>
	<rect x="388.1" y="114.6" class="st3" width="15.4" height="1.6"/>
	<rect x="425.6" y="85.2" class="st4" width="10.7" height="42.9"/>
	<rect x="425.6" y="119.6" class="st3" width="10.7" height="4"/>
	<rect x="425.6" y="94" class="st3" width="10.7" height="4"/>
	<rect x="425.6" y="100.8" class="st3" width="10.7" height="1.5"/>
</g>
<g id="freepik--Table--inject-6">
	<polygon class="st5" points="40,448.5 92.5,448.3 145,448.2 250,448 355,448.2 407.5,448.3 460,448.5 407.5,448.8 355,448.9 
		250,449 145,448.9 92.5,448.8 	"/>
</g>
<g id="freepik--Plant--inject-6">
	<path class="st5" d="M409.1,360.2c14.6,14.3,17,36.3,13.9,55.7c-0.1,0.4-0.8,0.3-0.8-0.1c0-4.4,0.1-8.8,0.1-13.1
		c-0.1-0.2-0.1-0.4-0.2-0.6c-3.8-2.8-7.3-5.9-9.5-10.2c-2.4-4.8-3.4-10.2-5.2-15.2c-0.2-0.5,0.3-0.3,0.7-0.1
		c8.9,6.5,11.7,13.6,14.2,23c-0.1-4.9-0.6-9.8-1.5-14.6c-1.9-8.9-5.7-17.8-12.1-24.4c-0.1-0.1-0.1-0.3,0-0.4S409,360.1,409.1,360.2
		L409.1,360.2z"/>
	<path class="st6" d="M406.4,361.8c-2.5,0.1-4.1,4.1-6,5.3c-0.8,0.7-2,0.5-2.7-0.3c0,0-0.1-0.1-0.1-0.2c-1.9-2.7,0.7-6,3.2-7.9
		c-1.8,0.7-3.3,2-5.2,2.4c-1,0.3-2-0.2-2.3-1.2c0-0.1,0-0.2-0.1-0.2c-0.9-3.7,3.8-5.3,6.9-5.4c-1.5-1.1-5.9-4-3.6-5.4
		s7.5,2.7,9.2,4.1c2.5,2,5.4,5,5.5,8.2C411.5,364.9,408.3,362.6,406.4,361.8z"/>
	<path class="st7" d="M406.4,361.8c-2.5,0.1-4.1,4.1-6,5.3c-0.8,0.7-2,0.5-2.7-0.3c0,0-0.1-0.1-0.1-0.2c-1.9-2.7,0.7-6,3.2-7.9
		c-1.8,0.7-3.3,2-5.2,2.4c-1,0.3-2-0.2-2.3-1.2c0-0.1,0-0.2-0.1-0.2c-0.9-3.7,3.8-5.3,6.9-5.4c-1.5-1.1-5.9-4-3.6-5.4
		s7.5,2.7,9.2,4.1c2.5,2,5.4,5,5.5,8.2C411.5,364.9,408.3,362.6,406.4,361.8z"/>
	<path class="st8" d="M407.1,362.5c-3.2-1.5-9.4,0.6-9.9-0.6c-1.1-2.5,3.9-4.2,6.5-4.5c-2.4-0.7-7.1-1.7-7-4.1
		c0.2-2.9,7.2-0.4,10.7,2.3c4.5,3.4,4.4,6.7,3.7,7.4C410.2,363.9,407.6,362.7,407.1,362.5z"/>
	<path class="st5" d="M442.3,358.8c-15.1,13.7-18.4,35.7-16,55.1c0.1,0.4,0.7,0.4,0.8-0.1c0.2-4.4,0.2-8.8,0.4-13.1l0.2-0.6
		c3.9-2.6,7.5-5.6,9.9-9.8c2.6-4.7,3.8-10,5.8-15c0.2-0.5-0.3-0.4-0.7-0.1c-9.1,6.2-12.2,13.1-15.1,22.4c0.2-4.9,0.9-9.8,2.1-14.6
		c2.2-8.8,6.4-17.5,13-23.9C442.9,358.9,442.6,358.5,442.3,358.8z"/>
	<path class="st6" d="M445,360.5c2.5,0.2,3.9,4.2,5.8,5.5c0.8,0.7,2,0.6,2.7-0.2c0-0.1,0.1-0.1,0.1-0.2c2-2.6-0.5-6.1-2.9-8
		c1.8,0.8,3.2,2.1,5.1,2.6c0.9,0.3,2-0.1,2.3-1.1c0-0.1,0.1-0.2,0.1-0.3c1-3.6-3.6-5.5-6.7-5.7c1.6-1,6.1-3.7,3.8-5.3
		s-7.6,2.4-9.4,3.7c-2.5,1.9-5.6,4.8-5.9,7.9C439.7,363.4,443,361.2,445,360.5z"/>
	<path class="st7" d="M445,360.5c2.5,0.2,3.9,4.2,5.8,5.5c0.8,0.7,2,0.6,2.7-0.2c0-0.1,0.1-0.1,0.1-0.2c2-2.6-0.5-6.1-2.9-8
		c1.8,0.8,3.2,2.1,5.1,2.6c0.9,0.3,2-0.1,2.3-1.1c0-0.1,0.1-0.2,0.1-0.3c1-3.6-3.6-5.5-6.7-5.7c1.6-1,6.1-3.7,3.8-5.3
		s-7.6,2.4-9.4,3.7c-2.5,1.9-5.6,4.8-5.9,7.9C439.7,363.4,443,361.2,445,360.5z"/>
	<path class="st8" d="M444.2,361.1c3.3-1.3,9.3,1,9.9-0.2c1.2-2.4-3.7-4.3-6.3-4.7c2.5-0.6,7.2-1.5,7.1-3.8
		c-0.1-2.9-7.2-0.7-10.8,1.9c-4.6,3.3-4.7,6.6-4,7.2C441.1,362.5,443.7,361.3,444.2,361.1z"/>
	<path class="st5" d="M426.9,394.9c-1,7.3-2.6,14.6-4.7,21.7c-0.1,0.3-0.3,0.5-0.6,0.4c-0.3-0.1-0.5-0.3-0.4-0.6
		c1-6.7,2.8-13.2,3.8-19.9c1.1-6.8,1.5-13.6,1.2-20.4c-0.6-11.2-3.7-23.2-11-32c-0.2-0.2,0.2-0.5,0.4-0.3
		c14.7,17.1,12.4,38.1,12.3,40c2.1-7.1,4.2-15.2,12.1-22.5c0.3-0.3,0.6-0.2,0.5,0.4c-1.4,13.2-5.1,20-12.7,27.1
		C427.5,390.8,427.2,392.9,426.9,394.9z"/>
	<path class="st6" d="M414.9,346c-2.6-1.2-6.3,2.2-8.9,2.4c-1.2,0.3-2.3-0.4-2.6-1.6c0-0.1,0-0.2,0-0.2c-0.6-3.8,3.8-5.9,7.3-6.6
		c-2.2-0.1-4.4,0.5-6.6-0.1c-1.1-0.1-1.9-1.2-1.8-2.3c0-0.1,0-0.2,0.1-0.3c1-4.2,6.6-3.6,9.9-2.1c-1.1-1.9-4.2-7.1-1-7.4
		s6.5,6.6,7.5,8.9c1.6,3.3,3.1,7.9,1.6,11.2C418.7,351.7,416.5,347.8,414.9,346z"/>
	<path class="st7" d="M414.9,346c-2.6-1.2-6.3,2.2-8.9,2.4c-1.2,0.3-2.3-0.4-2.6-1.6c0-0.1,0-0.2,0-0.2c-0.6-3.8,3.8-5.9,7.3-6.6
		c-2.2-0.1-4.4,0.5-6.6-0.1c-1.1-0.1-1.9-1.2-1.8-2.3c0-0.1,0-0.2,0.1-0.3c1-4.2,6.6-3.6,9.9-2.1c-1.1-1.9-4.2-7.1-1-7.4
		s6.5,6.6,7.5,8.9c1.6,3.3,3.1,7.9,1.6,11.2C418.7,351.7,416.5,347.8,414.9,346z"/>
	<path class="st8" d="M415.4,347c-2.6-3.1-10-4-10-5.6c0.1-3.1,6.1-2.4,9-1.4c-2.2-1.9-6.5-5.4-5.2-7.8c1.6-2.9,7.7,3.2,10,7.8
		c2.9,5.8,1.2,9.2,0.1,9.5C417.8,350.1,415.8,347.5,415.4,347z"/>
	<path class="st6" d="M436.5,398.9l6.5,49.5h-39.4c0.8-4.4,8.1-49.6,8.1-49.6L436.5,398.9z"/>
</g>
<g id="freepik--Device--inject-6">
	<path class="st5" d="M374.7,58.3H202.4c-9.7,0.1-17.5,8-17.4,17.7c0,0,0,0,0,0v354.7c-0.1,9.7,7.7,17.7,17.4,17.8h172.3
		c9.7-0.1,17.5-8,17.5-17.8V76.1C392.2,66.3,384.4,58.4,374.7,58.3C374.7,58.3,374.7,58.3,374.7,58.3z M381.2,419.8
		c0,9.3-7,16.9-15.6,16.9H211.4c-8.6,0-15.6-7.5-15.6-16.9V89.5c0-19,7-20,15.6-20h30.9c1.8,0,3.3,2,3.3,4.6v1.1
		c0,5.9,3.2,5.9,7.2,5.9h71.4c4,0,7.2,0,7.2-5.9v-1c0-2.5,1.5-4.6,3.3-4.6h30.9c8.6,0,15.6,2.5,15.6,20V419.8z"/>
	<path class="st1" d="M381.2,89.5v330.3c0,9.3-7,16.9-15.6,16.9H211.4c-8.6,0-15.6-7.5-15.6-16.9V89.5c0-19,7-20,15.6-20h30.9
		c1.8,0,3.3,2,3.3,4.6v1.1c0,5.9,3.2,5.9,7.2,5.9h71.4c4,0,7.2,0,7.2-5.9v-1c0-2.5,1.5-4.6,3.3-4.6h30.9
		C374.2,69.6,381.2,72.1,381.2,89.5z"/>
	<path class="st8" d="M381.2,89.5v30H195.8v-30c0-19,7-20,15.6-20h30.9c1.8,0,3.3,2,3.3,4.6v1.1c0,5.9,3.2,5.9,7.2,5.9h71.4
		c4,0,7.2,0,7.2-5.9v-1c0-2.5,1.5-4.6,3.3-4.6h30.9C374.2,69.6,381.2,72.1,381.2,89.5z"/>
	<path class="st1" d="M298.2,73.5h-19.5c-0.7,0-1.2-0.5-1.2-1.2l0,0c0-0.7,0.5-1.2,1.2-1.2l0,0h19.5c0.7,0,1.2,0.5,1.2,1.2v0l0,0
		C299.5,72.9,298.9,73.5,298.2,73.5C298.3,73.5,298.3,73.5,298.2,73.5z"/>
	<rect x="207.9" y="97.8" class="st1" width="16.1" height="10.2"/>
	<path class="st6" d="M224,97.8c-0.6,0.6-1.3,1.2-2,1.8l-2,1.8l-2,1.8l-0.1,0.1l-1.9,1.6l-0.1,0.1l-0.1-0.1l-1.8-1.6h-0.1
		c-0.7-0.6-1.4-1.2-2.1-1.8l-2-1.8c-0.6-0.6-1.3-1.2-2-1.8c0.7,0.5,1.4,1.1,2,1.6s1.4,1.1,2,1.7s1.5,1.3,2.3,1.9l0,0l1.7,1.4
		l1.7-1.4l0,0l2.2-1.9l2-1.7L224,97.8z"/>
	<path class="st6" d="M214.3,103.2L214.3,103.2l-0.3,0.2c-0.4,0.3-0.8,0.7-1.2,1s-1,0.8-1.6,1.1s-1.1,0.7-1.6,1.1s-1.1,0.7-1.7,1
		c0.5-0.4,1-0.8,1.5-1.2s1-0.8,1.6-1.1s1.1-0.7,1.6-1.1s0.9-0.6,1.3-0.8C214,103.4,214.2,103.3,214.3,103.2L214.3,103.2z"/>
	<path class="st6" d="M224,107.7c-0.6-0.3-1.1-0.7-1.7-1s-1.1-0.7-1.6-1.1s-1.1-0.7-1.6-1.1s-0.8-0.6-1.2-1l-0.3-0.2l0,0l0,0
		l0.3,0.2c0.5,0.3,0.9,0.5,1.3,0.8c0.6,0.3,1.1,0.7,1.6,1.1s1.1,0.7,1.6,1.1S223.5,107.2,224,107.7z"/>
	<path class="st9" d="M227.4,97.8c0,1.9-1.5,3.4-3.5,3.4c-1.9,0-3.4-1.5-3.4-3.5c0-1.9,1.5-3.4,3.5-3.4c0,0,0,0,0,0
		C225.9,94.4,227.4,95.9,227.4,97.8z"/>
	<path class="st1" d="M225.1,98.5c0,0.2-0.1,0.3-0.3,0.3l0,0v0.4c0,0.2-0.2,0.3-0.3,0.2c-0.1,0-0.2-0.1-0.2-0.2v-0.4h-1.6
		c-0.1,0-0.1,0-0.2-0.1c-0.1-0.1-0.1-0.3,0-0.4c0,0,0,0,0,0l1.7-2.3l0,0l0,0l0,0l0,0h0.1l0,0h0.2l0,0l0,0l0,0l0,0l0,0l0,0l0,0l0,0
		l0,0l0,0l0,0v2l0,0c0.1-0.2,0.4-0.2,0.5,0C225.2,98.1,225.3,98.3,225.1,98.5L225.1,98.5z M224.2,97l-1,1.2h1V97z"/>
	<g id="freepik--u5Zjqx--inject-6">
		<path class="st1" d="M237,76.7l-0.3,0.3l-0.2,0.2c-1.6-1.6-4.2-1.6-5.8,0l-0.2-0.2c-0.1-0.1-0.2-0.2-0.3-0.3l0,0l0,0l0.4-0.3
			c0.3-0.2,0.6-0.4,0.9-0.6c0.4-0.2,0.8-0.3,1.2-0.4c0.2,0,0.4,0,0.6-0.1h0.5h0.4c0.4,0,0.7,0.1,1.1,0.3c0.2,0.1,0.5,0.2,0.7,0.3
			c0.2,0.1,0.5,0.3,0.7,0.5L237,76.7L237,76.7z"/>
		<path class="st1" d="M231.7,78.1l-0.5-0.5c0.5-0.5,1.2-0.9,1.9-1c1.1-0.1,2.1,0.2,2.9,1l-0.5,0.5c-0.5-0.5-1.2-0.8-1.9-0.8
			C232.9,77.3,232.2,77.6,231.7,78.1z"/>
		<path class="st1" d="M235.1,78.6c-0.2,0.2-0.3,0.3-0.5,0.5c-0.3-0.3-0.6-0.4-1-0.4c-0.4,0-0.7,0.1-1,0.4l-0.5-0.5
			C233,77.7,234.3,77.7,235.1,78.6C235.1,78.5,235.1,78.6,235.1,78.6z"/>
		<path class="st1" d="M234.1,79.4c0,0.2-0.2,0.4-0.4,0.4s-0.4-0.2-0.4-0.4s0.2-0.4,0.4-0.4c0,0,0,0,0,0
			C233.9,79,234.1,79.2,234.1,79.4z"/>
	</g>
	<path class="st1" d="M207.9,77.6c0-0.7,0.6-1.2,1.2-1.2c0.7,0,1.2,0.6,1.2,1.2c0,0.7-0.6,1.2-1.2,1.2l0,0
		C208.5,78.8,207.9,78.3,207.9,77.6z"/>
	<path class="st1" d="M211.8,77.6c0-0.7,0.6-1.2,1.2-1.2s1.2,0.6,1.2,1.2c0,0.7-0.6,1.2-1.2,1.2c0,0,0,0,0,0
		C212.3,78.8,211.8,78.3,211.8,77.6z"/>
	<path class="st1" d="M215.6,77.6c0-0.7,0.6-1.2,1.2-1.2c0.7,0,1.2,0.6,1.2,1.2c0,0.7-0.6,1.2-1.2,1.2l0,0
		C216.2,78.8,215.6,78.3,215.6,77.6z"/>
	<path class="st1" d="M219.5,77.6c0-0.7,0.6-1.2,1.2-1.2c0.7,0,1.2,0.6,1.2,1.2c0,0.7-0.6,1.2-1.2,1.2l0,0
		C220.1,78.8,219.5,78.3,219.5,77.6z"/>
	<path class="st1" d="M223.4,77.6c0-0.7,0.6-1.2,1.2-1.2c0.7,0,1.2,0.6,1.2,1.2c0,0.7-0.6,1.2-1.2,1.2l0,0
		C223.9,78.8,223.4,78.3,223.4,77.6z"/>
	<path class="st1" d="M367.3,80.3h-10v-4.6h10V80.3z M357.8,79.8h9v-3.6h-9V79.8z"/>
	<rect x="358.1" y="76.4" class="st1" width="6.5" height="3.1"/>
	<rect x="367.3" y="76.7" class="st1" width="0.9" height="2.5"/>
	<path class="st1" d="M272.6,99.8c0-0.3,0.3-0.6,0.6-0.6c0,0,0,0,0,0c0.3,0,0.6,0.3,0.6,0.6c0,0,0,0,0,0v6.4c0,0.3-0.3,0.6-0.6,0.6
		c0,0,0,0,0,0c-0.3,0-0.6-0.3-0.6-0.6c0,0,0,0,0,0V99.8z"/>
	<path class="st1" d="M277,106.2c0,0.3-0.3,0.6-0.6,0.6c-0.3,0-0.6-0.3-0.6-0.6c0,0,0,0,0,0v-6.3l0,0c0-0.2,0.1-0.4,0.2-0.5
		c0.3-0.2,0.6-0.1,0.8,0.1l3.5,4.9v-4.5c0-0.3,0.3-0.6,0.6-0.6c0.3,0,0.6,0.3,0.6,0.6v6.3c0,0.3-0.3,0.6-0.6,0.6l0,0
		c-0.2,0-0.3-0.1-0.5-0.2v-0.1l-3.5-4.8V106.2z"/>
	<path class="st1" d="M284.2,106.2v-6.4c0-0.3,0.3-0.6,0.6-0.6l0,0h1.5c1.1,0,2.1,0.9,2.1,2.1c0,0.4-0.1,0.9-0.4,1.2
		c1.1,0.7,1.4,2.1,0.8,3.2c-0.4,0.7-1.2,1.1-2,1.1h-1.9l0,0l0,0C284.5,106.8,284.2,106.6,284.2,106.2
		C284.2,106.2,284.2,106.2,284.2,106.2z M285.4,102.1h0.9c0.5,0,0.9-0.4,0.9-0.9c0-0.5-0.4-0.9-0.8-0.9c0,0,0,0,0,0h-0.9V102.1z
		 M285.4,105.6h1.4c0.6-0.1,1.1-0.6,1-1.2c-0.1-0.5-0.5-1-1-1h-1.4V105.6z"/>
	<path class="st1" d="M296.6,100.1c1.5,1.5,1.5,4,0,5.5c-0.7,0.7-1.6,1.1-2.6,1.2c-1,0-2-0.4-2.7-1.2c-1.4-1.6-1.4-4,0-5.5
		c0.7-0.7,1.7-1.1,2.7-1.1C295,99,296,99.4,296.6,100.1z M296.5,102.9c0-0.7-0.3-1.4-0.7-1.9c-0.4-0.5-1.1-0.8-1.7-0.8
		c-0.7,0-1.3,0.3-1.8,0.8c-0.5,0.5-0.7,1.2-0.7,1.9c0,0.7,0.3,1.4,0.7,1.9c0.5,0.5,1.1,0.8,1.8,0.8c0.7,0,1.3-0.3,1.7-0.8
		C296.2,104.3,296.5,103.6,296.5,102.9L296.5,102.9z"/>
	<path class="st1" d="M304.8,100.2l-2.1,2.8l2.1,2.8c0.2,0.3,0.1,0.6-0.1,0.8c-0.1,0.1-0.2,0.1-0.4,0.1c-0.2,0-0.4-0.1-0.5-0.2
		L302,104l-1.8,2.5c-0.1,0.2-0.3,0.2-0.5,0.2c-0.1,0-0.3,0-0.4-0.1c-0.3-0.2-0.3-0.6-0.1-0.8l2.1-2.8l-2.1-2.8
		c-0.2-0.3-0.1-0.6,0.1-0.8c0.2-0.2,0.6-0.2,0.8,0.1c0,0,0,0,0,0.1l1.8,2.5l1.8-2.5c0.2-0.3,0.5-0.3,0.8-0.2c0,0,0,0,0.1,0
		C304.9,99.6,305,99.9,304.8,100.2C304.8,100.2,304.8,100.2,304.8,100.2z"/>
	<path class="st1" d="M355.7,106.7l-1.3,1l-2.3-3.1l-0.9-1.1c0.2-0.1,0.3-0.2,0.5-0.3c0.3-0.2,0.5-0.5,0.6-0.8l0.9,1.2L355.7,106.7z
		"/>
	<path class="st1" d="M353.2,99.5c-1.2-1.5-3.3-1.8-4.8-0.6s-1.8,3.3-0.6,4.8c1,1.3,2.9,1.7,4.3,0.9c0.2-0.1,0.3-0.2,0.5-0.3
		c0.3-0.2,0.5-0.5,0.7-0.7C354.1,102.3,354.1,100.7,353.2,99.5z M351.7,103.2c-0.2,0.1-0.3,0.2-0.5,0.3c-1.1,0.4-2.2-0.1-2.7-1.1
		c-0.4-1.1,0.1-2.2,1.1-2.7c1.1-0.4,2.2,0.1,2.7,1.1c0.2,0.5,0.2,1.1,0,1.6C352.2,102.7,352,103,351.7,103.2z"/>
	<rect x="329.4" y="98.3" class="st1" width="9.1" height="9.1"/>
	<rect x="333.5" y="100" class="st6" width="1" height="5.8"/>
	<rect x="331.1" y="102.4" class="st6" width="5.8" height="1"/>
	<path class="st1" d="M367.3,98.9c0,0.4-0.4,0.8-0.8,0.8s-0.8-0.4-0.8-0.8s0.4-0.8,0.8-0.8S367.3,98.5,367.3,98.9L367.3,98.9z"/>
	<path class="st1" d="M367.3,103c0,0.4-0.4,0.8-0.8,0.8c-0.4,0-0.8-0.4-0.8-0.8c0-0.4,0.4-0.8,0.8-0.8
		C366.9,102.2,367.3,102.6,367.3,103C367.3,103,367.3,103,367.3,103z"/>
	<path class="st1" d="M367.3,107.1c0,0.4-0.4,0.8-0.8,0.8c-0.4,0-0.8-0.4-0.8-0.8c0,0,0,0,0,0c0-0.4,0.4-0.8,0.8-0.8
		C366.9,106.3,367.3,106.7,367.3,107.1z"/>
	<rect x="195.8" y="119.5" class="st0" width="185.4" height="28.6"/>
	<path class="st8" d="M226,139.3c-0.6,0.4-1.2,0.6-1.9,0.8c-3.5,0.8-7-1.3-7.8-4.8s1.3-7,4.8-7.8s7,1.3,7.8,4.8
		C229.6,135,228.4,137.9,226,139.3z"/>
	<path class="st1" d="M224.5,133c0,1.1-0.9,2-2,2s-2-0.9-2-2s0.9-2,2-2S224.5,131.9,224.5,133z"/>
	<path class="st1" d="M226,138.5v0.8c-0.6,0.4-1.2,0.6-1.9,0.8c-1.7,0.4-3.5,0.1-5-0.8v-0.8c0-1.9,1.5-3.4,3.4-3.4
		C224.4,135.1,226,136.6,226,138.5L226,138.5z"/>
	<polygon class="st1" points="263.4,138.1 254.8,138.1 258.3,133.8 254.8,129.5 263.4,129.5 266.9,133.8 	"/>
	<polygon class="st6" points="241.3,129.5 242.7,132.3 245.8,132.8 243.5,135 244.1,138.1 241.3,136.6 238.5,138.1 239,135 
		236.7,132.8 239.9,132.3 	"/>
	<rect x="273" y="132" class="st5" width="50.7" height="3.5"/>
	<rect x="344.7" y="132" class="st9" width="19.9" height="3.5"/>
	<path class="st9" d="M226,168c-0.6,0.4-1.2,0.6-1.9,0.8c-3.5,0.8-7-1.3-7.8-4.8s1.3-7,4.8-7.8s7,1.3,7.8,4.8
		C229.6,163.7,228.4,166.5,226,168z"/>
	<path class="st1" d="M224.5,161.7c0,1.1-0.9,2-2,2s-2-0.9-2-2s0.9-2,2-2S224.5,160.6,224.5,161.7z"/>
	<path class="st1" d="M226,167.1v0.9c-0.6,0.4-1.2,0.6-1.9,0.8c-1.7,0.4-3.5,0.2-5-0.8v-0.8c0-1.9,1.5-3.4,3.4-3.4
		C224.4,163.8,226,165.3,226,167.1L226,167.1z"/>
	<polygon class="st1" points="263.4,166.7 254.8,166.7 258.3,162.4 254.8,158.1 263.4,158.1 266.9,162.4 	"/>
	<path class="st0" d="M263.5,167h-9.2l3.7-4.6l-3.7-4.6h9.2l3.7,4.6L263.5,167z M255.3,166.5h8l3.3-4.1l-3.3-4h-8l3.3,4L255.3,166.5
		z"/>
	<polygon class="st6" points="241.3,158.1 242.7,160.9 245.8,161.4 243.5,163.6 244.1,166.7 241.3,165.2 238.5,166.7 239,163.6 
		236.7,161.4 239.9,160.9 	"/>
	<rect x="273" y="160.7" class="st5" width="50.7" height="3.5"/>
	<rect x="344.7" y="160.7" class="st9" width="19.9" height="3.5"/>
	<rect x="195.8" y="176.7" class="st0" width="185.4" height="28.6"/>
	<path class="st8" d="M226,196.6c-0.6,0.4-1.2,0.6-1.9,0.8c-3.5,0.9-7-1.3-7.9-4.8s1.3-7,4.8-7.9s7,1.3,7.9,4.8
		C229.6,192.2,228.4,195.1,226,196.6z"/>
	<path class="st1" d="M224.5,190.3c0,1.1-0.9,2-2,2s-2-0.9-2-2s0.9-2,2-2S224.5,189.2,224.5,190.3z"/>
	<path class="st1" d="M226,195.8v0.8c-0.6,0.4-1.2,0.6-1.9,0.8c-1.7,0.4-3.5,0.1-5-0.8v-0.8c0-1.9,1.5-3.4,3.4-3.4
		C224.4,192.3,226,193.9,226,195.8L226,195.8z"/>
	<polygon class="st1" points="263.4,195.4 254.8,195.4 258.3,191.1 254.8,186.8 263.4,186.8 266.9,191.1 	"/>
	<polygon class="st1" points="241.3,186.8 242.7,189.6 245.8,190 243.5,192.2 244.1,195.4 241.3,193.9 238.5,195.4 239,192.2 
		236.7,190 239.9,189.6 	"/>
	<rect x="273" y="189.3" class="st2" width="50.7" height="3.5"/>
	<rect x="344.7" y="189.3" class="st3" width="19.9" height="3.5"/>
	<path class="st4" d="M226,225.2c-0.6,0.4-1.2,0.6-1.9,0.8c-3.5,0.9-7-1.3-7.9-4.8s1.3-7,4.8-7.9s7,1.3,7.9,4.8
		C229.6,220.9,228.4,223.7,226,225.2z"/>
	<path class="st1" d="M224.5,218.9c0,1.1-0.9,2-2,2s-2-0.9-2-2s0.9-2,2-2S224.5,217.8,224.5,218.9z"/>
	<path class="st1" d="M226,224.4v0.8c-0.6,0.4-1.2,0.6-1.9,0.8c-1.7,0.4-3.5,0.1-5-0.8v-0.8c0-1.9,1.5-3.4,3.4-3.4
		C224.4,221,226,222.5,226,224.4C226,224.4,226,224.4,226,224.4L226,224.4z"/>
	<polygon class="st1" points="263.4,224 254.8,224 258.3,219.7 254.8,215.4 263.4,215.4 266.9,219.7 	"/>
	<path class="st0" d="M263.5,224.2h-9.2l3.7-4.6l-3.7-4.6h9.2l3.7,4.6L263.5,224.2z M255.3,223.7h8l3.3-4l-3.3-4.1h-8l3.3,4.1
		L255.3,223.7z"/>
	<polygon class="st6" points="241.3,215.4 242.7,218.2 245.8,218.7 243.5,220.9 244.1,224 241.3,222.5 238.5,224 239,220.9 
		236.7,218.7 239.9,218.2 	"/>
	<rect x="273" y="217.9" class="st2" width="50.7" height="3.5"/>
	<rect x="344.7" y="217.9" class="st3" width="19.9" height="3.5"/>
	<rect x="195.8" y="234" class="st0" width="185.4" height="28.6"/>
	<path class="st8" d="M226,253.8c-0.6,0.4-1.2,0.6-1.9,0.8c-3.5,0.9-7-1.3-7.9-4.8s1.3-7,4.8-7.9s7,1.3,7.9,4.8
		C229.6,249.5,228.4,252.4,226,253.8z"/>
	<path class="st1" d="M224.5,247.6c0,1.1-0.9,2-2,2s-2-0.9-2-2s0.9-2,2-2S224.5,246.5,224.5,247.6z"/>
	<path class="st1" d="M226,253v0.8c-0.6,0.4-1.2,0.6-1.9,0.8c-1.7,0.4-3.5,0.1-5-0.8V253c0-1.9,1.5-3.4,3.4-3.4
		C224.4,249.6,226,251.1,226,253L226,253z"/>
	<polygon class="st1" points="263.4,252.6 254.8,252.6 258.3,248.3 254.8,244 263.4,244 266.9,248.3 	"/>
	<polygon class="st6" points="241.3,244 242.7,246.8 245.8,247.3 243.5,249.5 244.1,252.6 241.3,251.1 238.5,252.6 239,249.5 
		236.7,247.3 239.9,246.8 	"/>
	<rect x="273" y="246.6" class="st2" width="50.7" height="3.5"/>
	<rect x="344.7" y="246.6" class="st3" width="19.9" height="3.5"/>
	<path class="st0" d="M381.2,405.8v14c0.1,5.9-2.9,11.4-7.8,14.6H203.6c-4.9-3.2-7.9-8.7-7.8-14.6v-14H381.2z"/>
	<path class="st6" d="M226,425.6c-0.6,0.4-1.2,0.6-1.9,0.8c-3.5,0.9-7-1.3-7.9-4.8s1.3-7,4.8-7.9c3.5-0.9,7,1.3,7.9,4.8
		C229.6,421.3,228.4,424.1,226,425.6z"/>
	<path class="st1" d="M224.5,419.4c0,1.1-0.9,2-2,2s-2-0.9-2-2s0.9-2,2-2S224.5,418.3,224.5,419.4z"/>
	<path class="st1" d="M226,424.8v0.8c-0.6,0.4-1.2,0.6-1.9,0.8c-1.7,0.4-3.5,0.1-5-0.8v-0.8c0-1.9,1.5-3.4,3.4-3.4
		C224.4,421.4,226,422.9,226,424.8L226,424.8z"/>
	<polygon class="st1" points="263.4,424.4 254.8,424.4 258.3,420.1 254.8,415.8 263.4,415.8 266.9,420.1 	"/>
	<polygon class="st6" points="241.3,415.8 242.7,418.6 245.8,419.1 243.5,421.3 244.1,424.4 241.3,422.9 238.5,424.4 239,421.3 
		236.7,419.1 239.9,418.6 	"/>
	<rect x="273" y="418.4" class="st2" width="50.7" height="3.5"/>
	<rect x="344.7" y="418.4" class="st3" width="19.9" height="3.5"/>
	<path class="st5" d="M226,282.5c-3.1,1.9-7.1,0.9-9-2.1c-0.4-0.6-0.6-1.2-0.8-1.9c-0.9-3.5,1.3-7,4.8-7.9s7,1.3,7.9,4.8
		C229.6,278.1,228.4,281,226,282.5z"/>
	<path class="st1" d="M224.5,276.2c0,1.1-0.9,2-2,2s-2-0.9-2-2s0.9-2,2-2S224.5,275.1,224.5,276.2z"/>
	<path class="st1" d="M226,281.7v0.8c-2.1,1.3-4.7,1.3-6.8,0v-0.8c0-1.9,1.5-3.4,3.4-3.4C224.5,278.2,226,279.8,226,281.7
		C226,281.7,226,281.7,226,281.7z"/>
	<polygon class="st1" points="263.4,281.2 254.8,281.2 258.3,276.9 254.8,272.6 263.4,272.6 266.9,276.9 	"/>
	<path class="st0" d="M263.5,281.5h-9.2l3.7-4.5l-3.7-4.5h9.2l3.7,4.5L263.5,281.5z M255.3,281h8l3.3-4l-3.3-4h-8l3.3,4L255.3,281z"
		/>
	<polygon class="st1" points="241.3,272.6 242.7,275.5 245.8,275.9 243.5,278.1 244.1,281.2 241.3,279.8 238.5,281.2 239,278.1 
		236.7,275.9 239.9,275.5 	"/>
	<path class="st0" d="M244.4,281.7l-3.1-1.6l-3.1,1.6l0.6-3.5l-2.5-2.5l3.5-0.5l1.6-3.2l1.6,3.2l3.5,0.5l-2.5,2.5L244.4,281.7z
		 M241.3,279.5l2.5,1.3l-0.5-2.8l2-1.9l-2.8-0.4l-1.2-2.5l-1.3,2.5l-2.8,0.4l2,1.9l-0.5,2.8L241.3,279.5z"/>
	<rect x="273" y="275.2" class="st2" width="50.7" height="3.5"/>
	<rect x="344.7" y="275.2" class="st3" width="19.9" height="3.5"/>
	<rect x="195.8" y="291.3" class="st0" width="185.4" height="28.6"/>
	<path class="st6" d="M226,311.1c-0.6,0.4-1.2,0.6-1.9,0.8c-3.5,0.8-7-1.3-7.9-4.8c-0.8-3.5,1.3-7,4.8-7.9c3.5-0.8,7,1.3,7.8,4.8
		C229.6,306.8,228.4,309.6,226,311.1z"/>
	<path class="st1" d="M224.5,304.8c0,1.1-0.9,2-2,2s-2-0.9-2-2s0.9-2,2-2S224.5,303.7,224.5,304.8z"/>
	<path class="st1" d="M226,310.3v0.8c-0.6,0.4-1.2,0.6-1.9,0.8c-1.7,0.4-3.5,0.1-5-0.8v-0.8c0-1.9,1.5-3.4,3.4-3.4
		C224.4,306.9,226,308.4,226,310.3C226,310.3,226,310.3,226,310.3L226,310.3z"/>
	<polygon class="st1" points="263.4,309.9 254.8,309.9 258.3,305.6 254.8,301.3 263.4,301.3 266.9,305.6 	"/>
	<polygon class="st6" points="241.3,301.3 242.7,304.1 245.8,304.6 243.5,306.8 244.1,309.9 241.3,308.4 238.5,309.9 239,306.8 
		236.7,304.6 239.9,304.1 	"/>
	<rect x="273" y="303.8" class="st5" width="50.7" height="3.5"/>
	<rect x="344.7" y="303.8" class="st9" width="19.9" height="3.5"/>
	<path class="st6" d="M226,339.7c-0.6,0.4-1.2,0.6-1.9,0.8c-3.5,0.8-7-1.3-7.9-4.8c-0.8-3.5,1.3-7,4.8-7.9c3.5-0.8,7,1.3,7.8,4.8
		C229.6,335.4,228.4,338.3,226,339.7z"/>
	<path class="st1" d="M224.5,333.5c0,1.1-0.9,2-2,2s-2-0.9-2-2s0.9-2,2-2S224.5,332.4,224.5,333.5z"/>
	<path class="st1" d="M226,338.9v0.8c-0.6,0.4-1.2,0.6-1.9,0.8c-1.7,0.4-3.5,0.1-5-0.8v-0.8c0-1.9,1.5-3.4,3.4-3.4
		C224.4,335.5,226,337,226,338.9C226,338.9,226,338.9,226,338.9L226,338.9z"/>
	<polygon class="st1" points="263.4,338.5 254.8,338.5 258.3,334.2 254.8,329.9 263.4,329.9 266.9,334.2 	"/>
	<path class="st0" d="M263.5,338.8h-9.2l3.7-4.5l-3.7-4.5h9.2l3.7,4.5L263.5,338.8z M255.3,338.3h8l3.3-4l-3.3-4h-8l3.3,4
		L255.3,338.3z"/>
	<polygon class="st1" points="241.3,329.9 242.7,332.7 245.8,333.2 243.5,335.4 244.1,338.5 241.3,337 238.5,338.5 239,335.4 
		236.7,333.2 239.9,332.7 	"/>
	<path class="st0" d="M244.4,339l-3.1-1.6l-3.1,1.6l0.6-3.5l-2.5-2.5l3.5-0.5l1.6-3.2l1.6,3.2l3.5,0.5l-2.5,2.5L244.4,339z
		 M237.3,333.4l2,1.9l-0.5,2.7l2.5-1.3l2.5,1.3l-0.5-2.7l2-1.9l-2.8-0.4l-1.2-2.5L240,333L237.3,333.4z"/>
	<rect x="273" y="332.5" class="st2" width="50.7" height="3.5"/>
	<rect x="344.7" y="332.5" class="st3" width="19.9" height="3.5"/>
	<rect x="195.8" y="348.5" class="st0" width="185.4" height="28.6"/>
	<path class="st8" d="M226,368.4c-0.6,0.4-1.2,0.6-1.9,0.8c-3.5,0.8-7-1.3-7.8-4.8c-0.8-3.5,1.3-7,4.8-7.8s7,1.3,7.8,4.8
		C229.6,364.1,228.4,366.9,226,368.4z"/>
	<path class="st1" d="M224.5,362.1c0,1.1-0.9,2-2,2s-2-0.9-2-2s0.9-2,2-2S224.5,361,224.5,362.1z"/>
	<path class="st1" d="M226,367.5v0.8c-0.6,0.4-1.2,0.6-1.9,0.8c-1.7,0.4-3.5,0.1-5-0.8v-0.8c0-1.9,1.5-3.4,3.4-3.4
		C224.4,364.1,226,365.7,226,367.5L226,367.5z"/>
	<polygon class="st1" points="263.4,367.1 254.8,367.1 258.3,362.8 254.8,358.5 263.4,358.5 266.9,362.8 	"/>
	<polygon class="st1" points="241.3,358.5 242.7,361.4 245.8,361.8 243.5,364 244.1,367.1 241.3,365.7 238.5,367.1 239,364 
		236.7,361.8 239.9,361.4 	"/>
	<rect x="273" y="361.1" class="st2" width="50.7" height="3.5"/>
	<rect x="344.7" y="361.1" class="st3" width="19.9" height="3.5"/>
	<path class="st4" d="M226,397c-0.6,0.4-1.2,0.6-1.9,0.8c-3.5,0.8-7-1.3-7.8-4.8c-0.8-3.5,1.3-7,4.8-7.8s7,1.3,7.8,4.8
		C229.6,392.7,228.4,395.5,226,397z"/>
	<path class="st1" d="M224.5,390.7c0,1.1-0.9,2-2,2s-2-0.9-2-2s0.9-2,2-2S224.5,389.6,224.5,390.7z"/>
	<path class="st1" d="M226,396.2v0.8c-0.6,0.4-1.2,0.6-1.9,0.8c-1.7,0.4-3.5,0.2-5-0.8v-0.8c0-1.9,1.5-3.4,3.4-3.4
		C224.4,392.8,226,394.3,226,396.2L226,396.2z"/>
	<polygon class="st1" points="263.4,395.8 254.8,395.8 258.3,391.5 254.8,387.2 263.4,387.2 266.9,391.5 	"/>
	<path class="st0" d="M263.5,396h-9.2l3.7-4.5l-3.7-4.5h9.2l3.7,4.5L263.5,396z M255.3,395.5h8l3.3-4l-3.3-4h-8l3.3,4L255.3,395.5z"
		/>
	<polygon class="st1" points="241.3,387.2 242.7,390 245.8,390.5 243.5,392.7 244.1,395.8 241.3,394.3 238.5,395.8 239,392.7 
		236.7,390.5 239.9,390 	"/>
	<path class="st0" d="M244.4,396.2l-3.1-1.6l-3.1,1.6l0.6-3.5l-2.5-2.5l3.5-0.5l1.6-3.2l1.6,3.2l3.5,0.5l-2.5,2.5L244.4,396.2z
		 M241.3,394l2.5,1.3l-0.5-2.7l2-1.9l-2.8-0.4l-1.2-2.5l-1.2,2.5l-2.8,0.4l2,1.9l-0.5,2.7L241.3,394z"/>
	<rect x="273" y="389.7" class="st2" width="50.7" height="3.5"/>
	<rect x="344.7" y="389.7" class="st3" width="19.9" height="3.5"/>
</g>
<g id="freepik--Character--inject-6">
	<path class="st10" d="M224.7,448.7h-81.2c-9.7-34.1-17.5-60-17.5-60h77C203,388.7,212.5,414.4,224.7,448.7z"/>
	<path class="st5" d="M155.4,448.7h-1.7c-4.8-16-9.8-32-14.7-48.1c-0.1-0.2,0.3-0.3,0.3-0.1c1,2.8,2,5.6,3,8.4
		C147.1,422.1,151.4,435.4,155.4,448.7z"/>
	<path class="st10" d="M201.2,388.8c-0.1,1.6-4.4,16.3-6.6,38.4c-0.8,8.1-1.7,15.8-2.7,21.6H84.2c-10.7-32.9,5.2-60,5.2-60
		S201.2,388.7,201.2,388.8z"/>
	<path class="st5" d="M179.7,425.2c0.4,5.5,0.5,11.1,0.4,16.6c-0.2,2.3-0.2,4.6-0.1,6.9h-1.9c-0.4-3.5,0-7.9,0-11.3
		c-0.1-14.3-1.9-28.4-4.1-42.5c0-0.1,0.1-0.3,0.3-0.3c0.1,0,0.2,0.1,0.3,0.2C177.4,404.7,179.1,414.9,179.7,425.2z"/>
	<path class="st5" d="M193.1,432.4c-0.1,2.9-0.9,10.8-3.2,16.4h-1.6c3.1-7.6,2.9-22.5,2.7-26c-0.6-10.2-1.4-19.8-3.2-30.5
		c-0.1-0.3,0.5-0.4,0.6,0C191.4,405.1,193.5,419.1,193.1,432.4z"/>
	<path class="st5" d="M90.8,403c-3.1,13.5-1.6,28,1.4,41.4c0.3,1.5,0.7,2.9,1,4.3h-1.6c-4.4-18.6-5.8-37.9,2-55.9
		c0.1-0.2,0.4,0,0.3,0.2C92.7,396.3,91.6,399.6,90.8,403z"/>
	<path class="st10" d="M269.7,192L252,248.3c-0.7,1.6,0.1,3.1,1.7,3.1l29.5,1.7c1.8,0,3.5-1.1,4.3-2.8l17.7-56.3
		c0.7-1.6-0.1-3.1-1.7-3.1l-29.4-1.7C272.2,189.2,270.5,190.3,269.7,192z"/>
	<path class="st11" d="M273.2,192.2l-17.7,56.3c-0.7,1.6,0.1,3.1,1.7,3.1l29.5,1.7c1.8,0,3.5-1.1,4.3-2.8l17.6-56.3
		c0.7-1.6,0-3-1.7-3.1l-29.5-1.7C275.6,189.4,274,190.5,273.2,192.2z"/>
	<path class="st5" d="M281.1,195.3c-0.1,1.4-1.3,2.4-2.7,2.3s-2.4-1.3-2.3-2.7c0.1-1.4,1.3-2.4,2.7-2.3c0,0,0,0,0,0
		C280.2,192.7,281.2,193.9,281.1,195.3z"/>
	<path class="st12" d="M169.7,273.1c14.3,36.6,48.7,85.2,64.2,86.4c7.4,0.6,20.4,3.2,30.6-4.6c22.3-17.1,42.3-51.3,47.2-71.2
		c1.8-7.1-32.2-25-37.8-19.5c-13,12.9-28.9,38.9-31,38.6c-7.9-1.1-37.2-29-57.6-48.6C160.6,230.4,164,258.5,169.7,273.1z"/>
	<path class="st12" d="M315.1,246.5c-2.7-14.9-5.7-18.2-1.4-32c2.9-9-1.7-14.7-8.7-7.8c-11.4,11.3-11.9,31.2-10.1,38.2L315.1,246.5z
		"/>
	<path class="st12" d="M309.7,289.8c0,0,7.9-19.9,6.5-36c-0.9-11.1-5.7-35.2-35.8-49.7c-7.1-3.4-19.7-3.3-10.1,6.6
		c6.8,7,13.3,9.4,16.5,14.2c0,0-16,2.1-19.2,9.4c-2.8,6.4-5.1,12.9-6.9,19.6c1.1,0.6,2.3,1.2,3.5,1.6c0,0-2.8,6.9,1.8,17.3
		L309.7,289.8z"/>
	<path class="st12" d="M313.6,243.3c-4.2-4.1-13.3-12.6-23.1-16.9c-10.9-4.9-33.3-11.2-36.8-3.1c-2.6,5.9,5.8,9.1,5.8,9.1
		s-9.8-0.7-10.9,5.2c-1,5.4,5.5,7.4,5.5,7.4s-6,0.6-6,5.9c0,6.4,12.6,4.1,18.2,10.7C267.5,263,313.6,243.3,313.6,243.3z"/>
	<path class="st5" d="M287.3,238.7c-4.6-3.2-16.9-7.8-27.6-6.6c-0.2,0-0.4,0.2-0.1,0.2c9.5,1,18.8,3.2,27.7,6.4
		C287.3,238.9,287.3,238.8,287.3,238.7z"/>
	<path class="st5" d="M282,249.6c-4.2-2.4-17.1-6.5-28-4.9c-0.2,0-0.3,0.2-0.1,0.3c9.5,0.5,18.9,2.1,28,4.8c0,0,0.1,0,0.1,0
		C282,249.7,282,249.7,282,249.6z"/>
	<path class="st6" d="M214.5,276.1l-5.5,6.6l-1.1,1.4L186,310.5c0,0-19.8-32.3-23.8-50.7c-2.4-11-0.7-17.6,4.1-18.7
		c0.4-0.1,0.7-0.1,1.1-0.2c3.1-0.3,7.3,1.4,12.3,5.1C193.8,256.4,214.5,276.1,214.5,276.1z"/>
	<path class="st1" d="M213.2,275c-0.5,1.7-1.1,3.3-1.9,4.9l3-3.6l0,0c0,0,0-0.1,0-0.1C214.3,275.9,213.9,275.5,213.2,275z
		 M179.7,246c-1.9,1.2-3.7,2.7-5.3,4.4c-4.8,5-7.5,11.7-7.5,18.6c0,1.9,0.1,3.7,0.4,5.6c0.5,1.1,1,2.3,1.5,3.4
		c-0.1-0.7-0.2-1.5-0.3-2.2c-0.7-4-0.8-8.1-0.2-12.1c0.6-3.2,1.8-6.2,3.6-8.9c2.1-3.4,4.9-6.3,8.3-8.6
		C180,246.1,179.8,246,179.7,246L179.7,246z"/>
	<path class="st5" d="M181.8,299.5c1.2-2.8,13.3-19.5,23.4-30.1c0.1-0.1,0.2-0.1,0.2,0c0.1,0.1,0.1,0.2,0,0.2l0,0
		c-1,1.3-21,28.1-23.4,30.1C181.9,300,181.7,299.7,181.8,299.5z"/>
	<path class="st13" d="M200,293.6l-14,16.9c0,0-19.8-32.3-23.8-50.7c-2.8-12.7-0.1-19.4,6.5-18.9L200,293.6z"/>
	<path class="st6" d="M204,393.2c-2.8,3-121.2,15.6-121.9,14.8c-1.8-2.2,9.1-121.9,57.6-165.7c8.6-7.7,23.6-5.5,30.6-1.6
		c3.5,2,9.6,18.5,15.5,37.8C190.4,293.4,205.7,391.2,204,393.2z"/>
	<path class="st6" d="M204,393.2c-0.6,0.7-7,1.8-16.5,3.2l-1.1,0.1c-4.8,0.7-10.4,1.4-16.4,2.2l-1.3,0.2
		c-17.1,2.1-37.6,4.5-54.3,6.2l-0.5,0c-18,1.9-31.5,3.1-31.8,2.9s-0.2-5.3,0.6-13.1c0-0.3,0.1-0.7,0.1-1
		c1.9-18.2,7.1-51.2,17.8-83.1c0.2-0.5,0.3-1,0.5-1.5c3.2-9.5,7-18.8,11.3-27.9c0.1-0.3,0.2-0.5,0.4-0.8c4.2-8.9,9.3-17.3,15.2-25.2
		c0.2-0.3,0.4-0.5,0.6-0.8c3.3-4.4,7.1-8.5,11.1-12.2c1.1-1,2.4-1.9,3.8-2.6c0.3-0.2,0.6-0.3,0.9-0.4c4.3-1.8,8.9-2.5,13.5-2
		l1.1,0.1c3.9,0.4,7.8,1.5,11.3,3.4c1.4,0.8,3.1,3.8,5.2,8.4c0.1,0.2,0.2,0.4,0.3,0.6c3,7,6.6,17.4,10.1,28.8
		c1.2,4,3.3,14.2,5.6,26.9l0.1,0.9c0.8,4.4,1.6,9.1,2.4,13.9c0.1,0.7,0.2,1.4,0.4,2.1c1.6,9.9,3.3,20.3,4.8,29.9
		c0.1,0.4,0.1,0.8,0.2,1.2c1.2,8.3,2.3,16,3.2,22.4c0.1,0.5,0.1,1,0.2,1.5C203.8,386.6,204.4,392.7,204,393.2z"/>
	<path class="st1" d="M165.5,381.6c-2-2.8-4.6-5.2-7.6-7c-3.2-1.9-6.7-3.1-10.3-3.6c-3.8-0.7-7.8-1-11.4-2.7
		c-3.4-1.5-5.8-4.3-8.2-7.1c-0.6-0.7-1.3-1.5-1.9-2.2c0.8-0.5,1.5-1,2.3-1.5c4.5-2.8,9.4-4.8,13.6-8.1c3.8-2.9,6.4-7,7.4-11.7
		c1-4.6,0.7-9.3-1-13.7c-1.8-4.4-4.7-8.3-8.4-11.2c-7.8-5.9-17.6-8.5-27.3-7.1c-4,0.5-7.9,1.7-11.6,3.4c-0.2,0.5-0.3,1-0.5,1.5
		c1.8-0.9,3.6-1.6,5.5-2.2c9.1-3,19.1-2.3,27.8,2c4.2,2.1,7.8,5.1,10.5,8.9c2.6,3.7,4.1,8.1,4.3,12.7c0.2,4.5-1.1,8.9-3.7,12.6
		c-3,4.1-7.6,6.5-11.9,8.9c-2.7,1.5-5.3,3-7.8,4.7c-1.5-1.5-3.2-2.7-5.2-3.5c-3.2-1.2-6.8-1.2-10-0.1C103,357,98.8,363.8,98,371
		c-0.4,4,0.1,8,1.4,11.8c-2.9,3-6.2,5.7-9.8,7.9c-2.1,1.3-4.4,2.4-6.8,3.1c0,0.3-0.1,0.7-0.1,1c0.4-0.1,0.9-0.2,1.3-0.4
		c6.1-2.1,11.2-6,15.8-10.5c1.3,3.5,3,6.8,5,9.9c2.6,4.1,5.7,7.9,9.1,11.3l0.5,0c-2-2.1-3.8-4.3-5.5-6.6c-3.6-4.6-6.4-9.7-8.4-15.2
		c1.7-1.7,3.4-3.5,5-5.2c3.2-3.4,6.3-7,9.6-10.2c3.1-3,6.5-5.8,10.1-8.2c2.2,2.3,4,4.9,6.3,7c2.8,2.3,6.1,3.8,9.6,4.4
		c3.7,0.8,7.4,1.1,11.1,2.2c3.2,1,6.2,2.7,8.6,5c5.1,4.5,8,11,8,17.7c0,1-0.1,2-0.2,3l1.3-0.2C170.7,392.7,169.1,386.5,165.5,381.6z
		 M119.7,362.3c-3.8,3.1-7.3,6.5-10.6,10.2c-3,3.2-5.9,6.6-9,9.7c-0.5-1.8-0.9-3.6-1.1-5.5c-0.8-7,1.3-15,7.4-19.2
		c2.7-1.9,6.1-2.9,9.4-2.8c3.3,0.2,6.4,1.7,8.7,4.1C122.8,359.9,121.2,361.1,119.7,362.3z M199.1,352.3c-3.5,2.8-6.8,5.8-10.6,8
		c-5.6,3.2-13.2,4.9-18.3-0.2c-4.4-4.2-4.8-11.1-1-15.9c2-2.8,4.5-5.1,6.4-8c1.6-2.4,3-4.9,4.1-7.5c2.5,0.7,5.1,0.7,7.6-0.3
		c3-1.2,5.4-3.3,7-6.1c-0.1-0.7-0.2-1.4-0.4-2.1c-0.8,1.5-1.8,2.9-3,4.2c-2.3,2.4-5.5,3.6-8.7,3.4c-0.7-0.1-1.3-0.2-1.9-0.4
		c0.1-0.3,0.3-0.6,0.4-1c2.8-6.4,5.2-13.2,9.6-18.8c0.4-0.5,0.8-1,1.2-1.4l-0.1-0.9c-4.2,4.3-6.8,9.9-9.2,15.4
		c-0.9,2.1-1.8,4.3-2.8,6.4c-2.2-0.8-4.2-2.1-5.9-3.8c-5.4-5.5-5.8-14.1-5.3-21.4c0.4-4.4,1-8.9,1.2-13.3c0-4.4-0.3-8.8-1-13.1
		c-0.7-4-0.8-8.1-0.2-12.1c0.6-3.2,1.8-6.2,3.6-8.9c1.1-1.8,2.4-3.5,3.9-5c-0.1-0.2-0.2-0.4-0.3-0.6c-0.4,0.4-0.8,0.7-1.1,1.1
		c-4.8,5.1-7.5,11.8-7.4,18.8c0,4.6,0.9,9,1.3,13.6c0.2,4.7,0,9.4-0.7,14c-0.9,8.1-1.8,17,2.5,24.4c2,3.5,5.1,6.1,8.9,7.5
		c-0.5,1-0.9,2-1.5,2.9c-0.9,1.7-1.9,3.4-3.1,4.9c-1.1,1.5-2.3,2.8-3.4,4.2c-2.2,2.5-4.4,5.3-5,8.6c-0.5,2.9-0.1,5.8,1.3,8.4
		c1.3,2.6,3.5,4.7,6.2,5.9c3.2,1.3,6.8,1.3,10.1,0.3c6.3-1.8,11-6.2,15.9-10.2C199.2,353.1,199.1,352.7,199.1,352.3L199.1,352.3z
		 M202.6,377.3c-3.1-2.5-6.5-5-10.6-5.3c-2-0.2-4,0.3-5.7,1.4c-1.5,1.2-2.7,2.8-3.3,4.6c-1.4,4-1.2,8.4,0.4,12.3
		c1,2.3,2.3,4.3,4,6.1l-1.1,0.1c-1.1-1.2-2.1-2.6-2.9-4c-1.1-2.1-1.9-4.3-2.2-6.6c-0.6-4,0-8.6,2.7-11.9c2.9-3.5,7.6-3.9,11.6-2.4
		c2.5,1,4.9,2.4,6.9,4.2C202.5,376.4,202.6,376.9,202.6,377.3L202.6,377.3z M158,238.9c0.4-0.5,0.7-1,1-1.5l-1.1-0.1
		c-2.3,3.6-5.1,6.8-8.2,9.7l-0.6,0.6c-0.6-2.2-1.6-4.3-2.9-6.2c-0.5-0.7-1.1-1.4-1.8-2.1c-0.3,0.1-0.6,0.3-0.9,0.4
		c2.1,2.1,3.6,4.7,4.5,7.6c0.1,0.3,0.2,0.7,0.3,1c-2.7,2.7-5.9,4.9-9.4,6.4c-3.3,1.3-7.3,1.6-10.4-0.2c-0.2,0.2-0.4,0.5-0.6,0.8
		c2.6,1.5,5.6,1.9,8.5,1.3c4.6-0.9,8.5-3.9,11.9-6.9l0.2-0.2c1.4,6.2,0.9,12.7,1.9,19c1.1,7.2,4.6,14.4,2.8,21.8
		c-0.6,2.9-2.1,5.5-4.4,7.3c-2.8,1.9-6.3,2.3-9.5,1.1c-7.1-2.3-11.2-9-17.1-13.1c-3-1.9-6.2-3.6-9.5-5c-0.1,0.3-0.3,0.5-0.4,0.8
		c2,1,4,1.8,5.8,2.9c1.4,0.8,2.8,1.6,4.1,2.6c1.5,1.2,3,2.5,4.3,3.8c2.7,2.6,5.4,5.5,8.7,7.4c3,1.8,6.6,2.9,10.1,2.2
		c3-0.7,5.6-2.6,7.1-5.3c1.5-2.7,2.3-5.8,2.3-8.9c0-4-1.1-8-2.1-11.9c-0.5-2.1-1-4.1-1.3-6.2c-0.3-1.9-0.4-3.7-0.5-5.6
		c-0.1-3.7-0.4-7.4-0.9-11.1c-0.1-0.9-0.3-1.7-0.5-2.5C152.6,245.8,155.5,242.5,158,238.9z"/>
	<path class="st12" d="M128.2,259c-19.5,40.6-45.6,141.4-49.4,156.2c-2.6,10.1,49.9,20.2,51.3,13.3c1.6-8,21.7-126,19.7-168.5
		C148.7,236.7,134.9,245,128.2,259z"/>
	<path class="st12" d="M130.7,423.8c-0.6,7.6-5,23.2-8.7,25.7s-23.9,3.1-34,3.6s-12.3-2.2-12.3-5.7s21.3-5.3,21.3-5.3
		s-28,9.6-35.1,11.4s-23.3,6.7-26,0.9c-1.3-2.6,3.1-5.6,3.1-5.6s-6.8,2.4-8.1-1c-1.5-3.9,3.9-6.3,3.9-6.3s-4.3,1.1-4.5-2.1
		c-0.6-7.1,26.3-12,26.3-12s-20.2,11.2-21.2,5.4c-1.3-8,40.6-19.1,44.9-22.8c3.1-2.8,5.9-5.9,8.5-9.2L130.7,423.8z"/>
	<path class="st5" d="M76,449.2c-0.2-1,0.1-2,0.8-2.8c0.7-0.7,1.5-1.3,2.4-1.7c1.8-0.9,3.7-1.6,5.7-2.2c3.9-1.2,8-2.2,12-3.4
		c-4.2,0.2-8.4,0.9-12.5,2.1c-2.1,0.6-4,1.5-5.9,2.6c-0.9,0.6-1.8,1.4-2.4,2.3C75.6,447,75.5,448.2,76,449.2z"/>
	<path class="st5" d="M39,448.9c2.9-0.9,5.7-1.9,8.6-2.8s5.7-2,8.5-3l8.4-3.1c2.8-1,5.6-2.1,8.4-3.1c-3,0.5-5.9,1.2-8.8,2
		c-2.9,0.8-5.7,1.8-8.6,2.8s-5.6,2.1-8.4,3.4S41.7,447.5,39,448.9z"/>
	<path class="st5" d="M65.7,430.1c-2.7,0.3-5.5,0.8-8.1,1.6c-2.7,0.7-5.3,1.5-7.9,2.5c-2.6,1-5.1,2.1-7.6,3.3
		c-2.5,1.2-4.9,2.6-7.2,4.2c2.6-1,5.1-2.2,7.6-3.2s5.1-2,7.7-3s5.2-1.9,7.7-2.8S63,430.9,65.7,430.1z"/>
	<path class="st5" d="M61.1,423.5c-4.4,0.6-8.8,1.7-12.9,3.4c-4.2,1.6-8.1,3.8-11.7,6.5c4.1-1.7,8.1-3.5,12.2-5.1
		S57,425.1,61.1,423.5z"/>
	<path class="st6" d="M150.8,305.6l-46.8,0.2c0,0,12.7-37.6,24.8-53.2s21.8-13.5,22.9,4.8S150.8,305.6,150.8,305.6z"/>
	<path class="st6" d="M151.7,257.5c0.1,0.8,0.1,1.7,0.1,2.6c0,0.4,0,0.8,0.1,1.2c0.7,18.3-1.1,44.4-1.1,44.4l-12.7,0.1h-1.3
		l-32.8,0.2c0,0,5.4-16,12.5-31.4c0.2-0.5,0.5-1,0.7-1.5c3.6-7.7,7.6-15.2,11.6-20.3C140.9,237.1,150.6,239.2,151.7,257.5z"/>
	<path class="st1" d="M112.8,305.8l9.5-0.1C119.2,305.4,116,305.4,112.8,305.8z M151.3,267.9c-0.3-1.9-0.4-3.7-0.5-5.6
		c-0.1-3.7-0.4-7.4-0.9-11.1c-0.1-0.9-0.3-1.7-0.5-2.5c0.2-0.2,0.4-0.3,0.6-0.5c-0.1-0.4-0.3-0.7-0.4-1c-0.1,0.1-0.3,0.3-0.4,0.4
		c-0.3-1-0.6-1.9-1-2.8c-0.5-0.7-1.2-1.3-2-1.8c0.8,1.4,1.5,2.8,2,4.4c0.1,0.3,0.2,0.7,0.3,1c-2.7,2.7-5.9,4.9-9.4,6.4
		c-3.6,1.5-7.9,1.6-11.1-0.7c-0.2,0.3-0.4,0.5-0.6,0.8c2.7,1.8,6,2.5,9.2,1.8c4.6-0.9,8.5-3.9,11.9-6.9l0.2-0.2
		c1.4,6.2,0.9,12.7,1.9,19c0.4,2.3,1,4.7,1.6,7.1c0-1.3,0-2.7,0-4C151.7,270.3,151.5,269.1,151.3,267.9z M148.8,297.5
		c-2.8,1.9-6.3,2.3-9.5,1.1c-7.1-2.3-11.2-9-17.1-13.1c-2.7-1.8-5.6-3.3-8.6-4.6c-0.1,0.3-0.2,0.5-0.4,0.8c1.7,0.8,3.3,1.6,4.9,2.4
		c1.4,0.8,2.8,1.6,4.1,2.6c1.5,1.2,3,2.5,4.3,3.8c2.7,2.6,5.4,5.5,8.7,7.4c3,1.8,6.6,2.9,10.1,2.2c2.4-0.5,4.5-1.8,6-3.7
		c0-0.6,0.1-1.2,0.1-1.9C150.7,295.7,149.8,296.7,148.8,297.5z"/>
	<path class="st5" d="M110,295c3-0.9,24.6-2.4,39.9-1.3c0.1,0,0.2,0.1,0.2,0.2c0,0.1-0.1,0.2-0.2,0.2c-1.7,0.1-36.7,2-39.9,1.5
		C109.7,295.5,109.7,295.1,110,295z"/>
	<path class="st5" d="M153.8,277.2c0-0.1-0.1-0.1-0.1-0.1c-0.1,0-0.1,0.1-0.1,0.1c-0.4,1.6-0.8,3.2-1,4.8c-0.1,0.4-0.1,0.8-0.2,1.1
		c-0.1-4-0.3-7.9-0.5-11.8c0-0.2-0.3-0.2-0.3,0c0.1,13.6-0.2,26-1.1,33.9l-4.1,0.3c-0.1,0-0.2,0.2-0.2,0.3c0,0.1,0.1,0.2,0.2,0.2
		l5.2,0.2c0.2,0,1.1-11.3,0.9-20.2c0.3-1.3,0.6-2.6,0.8-3.9C153.5,280.5,153.7,278.9,153.8,277.2z"/>
	<path class="st5" d="M110.3,305.9c-2.1,0.1-4.2,0.2-6.3,0.3h-0.4l0.1-0.4c0.8-2.6,1.7-5.1,2.6-7.7s1.8-5.1,2.8-7.6s2-5,3.2-7.5
		s2.3-4.9,3.6-7.3l-3,7.6l-2.9,7.6l-2.9,7.6l-2.9,7.6l-0.3-0.4C106.1,305.6,108.2,305.7,110.3,305.9z"/>
	<path class="st12" d="M167.5,261.5c-7.1,2.4-20.6-7.7-26.3-16.2c-0.4-0.6,0-25.5-0.4-30.4c-0.1-1,31.7,4.8,31.7,4.8
		s-2.1,10.6-1.4,19.2C171.2,239.6,174.4,259.2,167.5,261.5z"/>
	<path class="st5" d="M172.5,219.7L172.5,219.7c0,0.1-0.1,0.8-0.3,1.8c-0.3,1.7-0.7,4.4-0.9,7.6c-0.3,3.3-0.3,6.6-0.1,9.9
		c0,0.2,0,0.5,0.1,0.7v0.1c0.1,0.4,0.1,0.9,0.2,1.6c-1,0.2-2,0.4-3,0.4c-16.9,1.1-24.4-19.1-26.6-26.9l0.5,0.1
		c0.8,0.1,1.9,0.2,3.2,0.4l1,0.1c2.1,0.3,4.6,0.7,7.2,1.1c0.9,0.1,1.7,0.3,2.6,0.4c1.9,0.3,3.8,0.6,5.5,0.9c0.8,0.1,1.5,0.3,2.2,0.4
		s1.6,0.3,2.3,0.4l1,0.2l0.5,0.1l2.6,0.5l1.3,0.2c0.2,0,0.4,0.1,0.5,0.1C172.4,219.7,172.4,219.7,172.5,219.7L172.5,219.7z"/>
	<path class="st12" d="M134.7,178.6c-3,11.1,3.9,42.8,11.9,49.6c11.7,9.9,30.4,10.3,38.7-3.7c8-13.5-1.6-54.6-10.6-60.8
		C161.5,154.8,139.2,162.2,134.7,178.6z"/>
	<path class="st5" d="M139.3,209.6c5.6-1.8,3.1-16.5,3.1-16.5s6.7-4,6.6-17.8c0,0,7.3,12.3,30.8,5.1c0-4.4-1.4-8.7-4-12.2
		c3.1,3.7,5.9,7.7,8.4,11.9c0,0,2.2-21-16.2-25c-7.3-1.6-17.5,0.8-31.9,11.4c0,0-4.7-8.9-6.3-7.3s3.5,9.7,3.5,9.7s-7.3-0.9-8.2,0.8
		c-0.8,1.4,6.2,2,6.2,2s-10,5.2-6,17.1C129.1,199.5,136.5,210.5,139.3,209.6z"/>
	<path class="st5" d="M133.4,171c-6.3,0.9-11,6.4-10.9,12.8c0.1,3.5,1.6,7.1,3.3,10.1c1.9,3.2,4.2,6.2,6.8,8.9
		c0.1,0.1,0.4-0.1,0.2-0.2c-2.3-2.5-4.3-5.4-5.8-8.5c-1.6-2.9-2.7-6-3.2-9.3c-0.8-6.3,3.3-12.1,9.5-13.4c0.1,0,0.1-0.1,0.1-0.2
		C133.6,171,133.5,171,133.4,171z"/>
	<path class="st5" d="M153.8,154.1c-3.9,1.7-7.6,3.8-11,6.4c-3.3,2.3-6.2,5.2-8.6,8.6c-0.1,0.2,0.1,0.4,0.2,0.2
		c5.2-5.6,12.1-9.9,19-13.2c6.4-3.1,14.5-4.6,20.6,0c0,0,0.1,0.1,0.1,0c0,0,0.1-0.1,0-0.1c0,0,0,0,0,0
		C168.6,151,160.4,151.4,153.8,154.1z"/>
	<path class="st12" d="M142.8,204.6c0,0-7.4-10.2-12-7.6s1,17.5,6.5,19.4c2.8,1.2,6.1-0.1,7.4-2.9c0-0.1,0.1-0.1,0.1-0.2
		L142.8,204.6z"/>
	<path class="st5" d="M132.5,201.2c-0.1,0-0.1,0.1,0,0.1c3.9,1.5,5.9,5,7.4,8.7c-1.2-1.4-2.7-2.2-4.6-0.8c-0.1,0.1,0,0.2,0.1,0.2
		c1.4-0.5,2.9,0,3.8,1.1c0.7,0.9,1.3,1.9,1.9,3c0.2,0.3,0.8,0.1,0.7-0.2c0,0,0-0.1,0-0.1C141.7,208.4,137.8,201.6,132.5,201.2z"/>
	<path class="st5" d="M167.7,196.8c0-0.1-0.1,0.1-0.1,0.2c0.4,2.1,0.6,4.6-1.2,5.6c0,0,0,0,0,0.1c0,0,0,0,0,0
		C168.7,202,168.5,198.7,167.7,196.8z"/>
	<path class="st5" d="M165.4,194.9c-3.4,0.4-2.5,7.2,0.7,6.9S168.3,194.6,165.4,194.9z"/>
	<path class="st5" d="M179.8,194.3c0-0.1,0.2,0.1,0.2,0.2c0.2,2.1,0.9,4.5,2.9,5c0.1,0,0.1,0.1,0,0.1
		C180.5,199.6,179.7,196.4,179.8,194.3z"/>
	<path class="st5" d="M181.4,191.8c3.4-0.7,4.6,6.1,1.5,6.8S178.6,192.4,181.4,191.8z"/>
	<path class="st5" d="M162.2,193c0.9-0.4,1.7-0.8,2.5-1.3c1-0.3,1.8-1,2.3-1.8c0.2-0.6,0.1-1.3-0.5-1.7c-1.2-0.6-2.6-0.6-3.7,0.1
		c-1.2,0.5-2.2,1.5-2.7,2.7c-0.3,0.8,0.1,1.7,0.9,2C161.5,193.1,161.9,193.1,162.2,193z"/>
	<path class="st5" d="M183.1,188.1c-0.9-0.1-1.9-0.2-2.8-0.3c-1,0-2-0.3-2.8-0.9c-0.5-0.5-0.5-1.2-0.2-1.8c0.9-1,2.2-1.4,3.5-1.2
		c1.3,0.1,2.6,0.6,3.5,1.6c0.6,0.6,0.5,1.6-0.1,2.2C183.9,187.9,183.5,188.1,183.1,188.1z"/>
	<path class="st5" d="M168.1,215.7c0.6,0.4,1.2,1,2,1c0.8-0.1,1.5-0.4,2.2-0.9c0.1,0,0.1,0,0.1,0.1c-0.5,0.9-1.5,1.5-2.5,1.5
		c-0.9-0.1-1.7-0.8-1.9-1.7C167.9,215.7,168,215.7,168.1,215.7z"/>
	<path class="st5" d="M169.5,209.1c1.3,1.6,3.2,2.5,5.3,2.6c0.9,0,1.8,0,2.6-0.2c0.2,0,0.3-0.1,0.5-0.1l0.5-0.1
		c0.2-0.1,0.4-0.3,0.4-0.5l0,0l-0.1-0.2l0,0v-0.2c-0.2-1.6-0.7-4.1-0.7-4.1c0.6,0.2,3.9,1.2,3.7,0.3c-1.4-7-2.9-14.8-5.8-21.5
		c0-0.1-0.1-0.2-0.2-0.1s-0.2,0.1-0.1,0.2c1.1,6.8,3.3,13.4,4.5,20.2c-1.2-0.4-2.4-0.6-3.6-0.6c-0.2,0.1,1.1,4.8,1.1,5.5
		c0,0,0,0.1,0,0.1c-2.7,0.7-4.9,0.2-7.8-1.3C169.5,208.7,169.3,208.9,169.5,209.1z"/>
	<path class="st5" d="M176.3,210.7c-0.7,1.3-1.8,2.4-3.1,3.1c-0.7,0.4-1.5,0.6-2.3,0.5c-1.8-0.2-2-1.8-1.9-3.1
		c0.1-0.7,0.2-1.5,0.5-2.1C171.5,210.3,173.9,210.9,176.3,210.7z"/>
	<path class="st14" d="M173.2,213.8c-0.7,0.4-1.5,0.6-2.3,0.5c-1.8-0.2-2-1.8-1.9-3.1C170.9,211.1,172.8,212.1,173.2,213.8z"/>
</g>
</svg>
