<?xml version="1.0" encoding="utf-8"?>
<!-- Generator: Adobe Illustrator 26.0.1, SVG Export Plug-In . SVG Version: 6.00 Build 0)  -->
<svg version="1.1" id="Layer_1" xmlns="http://www.w3.org/2000/svg" xmlns:xlink="http://www.w3.org/1999/xlink" x="0px" y="0px"
	 viewBox="0 0 500 500" style="enable-background:new 0 0 500 500;" xml:space="preserve">
<style type="text/css">
	.st0{fill:#FEFEFD;}
	.st1{fill:#132629;}
	.st2{fill:#D3D4CE;}
	.st3{fill:#F0EFEB;}
	.st4{fill:#E3E3DD;}
	.st5{fill:#E2E2DC;}
	.st6{fill:#FE6C47;}
	.st7{fill:#D7D7D1;}
	.st8{fill:#325054;}
	.st9{fill:#3F312C;}
	.st10{fill:#000101;}
	.st11{fill:#A4A5A0;}
	.st12{fill:#C55335;}
	.st13{fill:#132426;}
	.st14{fill:#A8414C;}
	.st15{fill:#DF5A69;}
	.st16{fill:#ABACA7;}
	.st17{fill:#858581;}
	.st18{fill:#B2B2AD;}
	.st19{fill:#989F9E;}
	.st20{fill:#737D7C;}
	.st21{fill:#A5A5A1;}
	.st22{fill:#6F7776;}
	.st23{fill:#A1A29D;}
	.st24{fill:#C2C4BF;}
	.st25{fill:#8B8B87;}
	.st26{fill:#979894;}
	.st27{fill:#8E8E8A;}
	.st28{fill:#858682;}
	.st29{fill:#C65536;}
	.st30{fill:#DFE0DA;}
	.st31{fill:#5C696A;}
	.st32{fill:#4E5C5D;}
	.st33{fill:#E98993;}
	.st34{fill:#192B2E;}
	.st35{fill:#5F6C6D;}
	.st36{fill:#546263;}
	.st37{fill:#576566;}
	.st38{fill:#263739;}
	.st39{fill:#2A3B3D;}
	.st40{fill:#E67A85;}
	.st41{fill:#E4707D;}
	.st42{fill:#808A8A;}
	.st43{fill:#7F8A8A;}
	.st44{fill:#838E8E;}
	.st45{fill:#7D8888;}
	.st46{fill:#ADB3B3;}
	.st47{fill:#335155;}
	.st48{fill:#F0AA91;}
	.st49{fill:#8B9394;}
	.st50{fill:#798382;}
	.st51{fill:#647172;}
	.st52{fill:#515F5F;}
	.st53{fill:#DAAF9E;}
	.st54{fill:#556364;}
	.st55{fill:#909898;}
	.st56{fill:#EDAA93;}
	.st57{fill:#9EA6A6;}
	.st58{fill:#687475;}
	.st59{fill:#3F4E50;}
	.st60{fill:#515F60;}
	.st61{fill:#364648;}
	.st62{fill:#788181;}
	.st63{fill:#808B8B;}
	.st64{fill:#858F8F;}
	.st65{fill:#AEB4B4;}
	.st66{fill:#8F9797;}
	.st67{fill:#AFB5B5;}
	.st68{fill:#677474;}
	.st69{fill:#889292;}
	.st70{fill:#345256;}
	.st71{fill:#213335;}
	.st72{fill:#AB424E;}
	.st73{fill:#192C2E;}
	.st74{fill:#172A2D;}
	.st75{fill:#182A2D;}
	.st76{fill:#16282B;}
	.st77{fill:#E05968;}
	.st78{fill:#E05969;}
	.st79{fill:#6D7979;}
	.st80{fill:#A83B48;}
	.st81{fill:#A73B48;}
	.st82{fill:#010101;}
	.st83{fill:#D2D3CD;}
	.st84{fill:#9DA3A0;}
	.st85{fill:#9FA5A2;}
	.st86{fill:#959C99;}
	.st87{fill:#9BA19E;}
	.st88{fill:#8A918F;}
	.st89{fill:#1A1A19;}
	.st90{fill:#603C33;}
	.st91{fill:#010000;}
	.st92{fill:#CCCDC7;}
	.st93{fill:#EEEDE9;}
	.st94{fill:#EFEEEA;}
	.st95{fill:#161616;}
	.st96{fill:#1F1F1E;}
	.st97{fill:#A83B49;}
	.st98{fill:#FCFCFB;}
	.st99{fill:#A63B48;}
	.st100{fill:#3A312E;}
	.st101{fill:#9BA3A3;}
	.st102{fill:#362726;}
	.st103{fill:#543831;}
	.st104{fill:#44342F;}
	.st105{fill:#2F2928;}
	.st106{fill:#7A8484;}
	.st107{fill:#848E8E;}
	.st108{fill:#8F9798;}
	.st109{fill:#EFAB93;}
	.st110{fill:#606D6D;}
	.st111{fill:#707A79;}
	.st112{fill:#636F6F;}
	.st113{fill:#7C7E7B;}
	.st114{fill:#D5D6D0;}
	.st115{fill:#1F3133;}
	.st116{fill:#CA5E43;}
	.st117{fill:#1A2D2F;}
	.st118{fill:#9FA6A7;}
	.st119{fill:#98A0A1;}
	.st120{fill:#3B4B4D;}
	.st121{fill:#869090;}
	.st122{fill:#A3AAAB;}
	.st123{fill:#99A1A1;}
	.st124{fill:#3E4E4F;}
	.st125{fill:#415052;}
	.st126{fill:#C8583A;}
	.st127{fill:#C65436;}
</style>
<g>
	<path class="st0" d="M319.5,413.5v-1.1c0-0.4,0-0.8,0-1.2c0-29.1,0-58.2,0-87.3c0-0.7,0.1-1.4-0.4-2c0,0-0.1-0.1-0.1-0.1
		c-0.2-0.1-0.4-0.1-0.6-0.1c0.3,0,0.5,0,0.7-0.2c0-0.6,0-1.2,0-1.8c0-45.7,0.1-91.3,0.1-137c0-9.2-6.4-15.6-15.7-15.5
		c-5,0-9.9,0.2-14.9,0c-6.2-0.2-7.9,1.6-7.6,7.6c0.1,3.6-1.7,5.4-5.4,5.4c-6.6,0-13.1,0-19.7,0c-0.4,0.6-0.2,1.3-0.2,1.9
		c0,1.5,0,3,0,4.5c0-2.1,0-4.3-0.1-6.4c-0.1-0.1-0.2-0.2-0.3-0.2h0c-0.7-0.4-1.5-0.3-2.2-0.3c-4.3,0-8.6,0-13,0
		c-2.9,0-4.3-1.5-4.6-4.3c-0.1-0.9,0-1.8-0.1-2.7c-0.2-3.8-2.1-5.7-5.9-5.8c-7.7,0-15.4,0-23.1,0c-1.6,0-3,0.3-4.5,0.9
		c-6.4,2.5-9.9,7.6-9.9,14.5c0,79.3,0,158.7,0,238c0,0.4,0,0.7,0,1.1c0.1,7,6.3,13.5,13.4,14c0.4,0,0.9,0,1.3,0h0.4
		c0.3,0,0.5,0,0.8,0c12.8,0.1,25.7,0,38.5,0h0.6c5.4,0,10.8,0,16.1,0c0.2,0,0.4,0,0.5,0c3.9,0,7.9,0.1,11.9,0.1c0,0,0,0,0,0
		c0.1,0,0.3,0,0.4,0c0.1,0,0.3,0,0.4,0c2,0,4,0.1,6.1,0.1c0.1,0,0.2,0,0.2,0c0.1,0,0.2,0,0.3,0c0.1,0,0.2,0,0.4,0c0.3,0,0.6,0,1,0
		c3,0.1,6.1,0.1,9.1,0.1h0.3c0.2,0,0.4,0,0.6,0h0.2c3.3,0,6.6-0.1,9.9-0.3c0,0,0.1,0,0.1,0c0,0,0.1,0,0.1,0c0.8,0,1.5-0.1,2.2-0.3
		c2.5-0.4,4.8-1.3,6.9-2.9c0.2-0.1,0.3-0.2,0.5-0.4c0.7-0.5,1.5-1,2-1.7c0.1-0.1,0.2-0.3,0.3-0.5c2.1-2.9,3.2-6.2,3.2-9.8
		C319.5,417.6,319.5,415.5,319.5,413.5z M294.1,321.4c0,0,0.1,0,0.1,0c7.8,0,15.6,0,23.4,0c-0.2,0-0.5,0-0.7,0c-7.5,0-15,0-22.5,0
		c-0.1,0-0.2,0-0.2,0c-0.1,0-0.2,0-0.3,0C294,321.5,294.1,321.5,294.1,321.4z M255.5,190.2c0,3.7,0,7.1,0,10.2
		C255.5,197.3,255.5,193.9,255.5,190.2z"/>
	<path class="st0" d="M43.1,238.2L43.1,238.2c0,3.8,0.1,7.5,0.3,11.2c0,0.1,0,0.2,0,0.2c0.1-0.2,0.1-0.4,0.1-0.7c0-0.1,0-0.3,0-0.5
		c0-0.1,0-0.2,0-0.3c0-2.7-0.1-5.3,0-8C43.6,239.3,43.5,238.7,43.1,238.2z M43.5,248.5c0-0.1,0-0.2,0-0.3c0,0.2,0,0.5,0,0.7
		c0,0,0,0.1,0,0.1C43.5,248.8,43.5,248.7,43.5,248.5z M43.5,248.5c0-0.1,0-0.2,0-0.3c0,0.2,0,0.5,0,0.7c0,0,0,0.1,0,0.1
		C43.5,248.8,43.5,248.7,43.5,248.5z M43.5,248.5c0-0.1,0-0.2,0-0.3c0,0.2,0,0.5,0,0.7c0,0,0,0.1,0,0.1
		C43.5,248.8,43.5,248.7,43.5,248.5z M43.5,248.5c0-0.1,0-0.2,0-0.3c0,0.2,0,0.5,0,0.7c0,0,0,0.1,0,0.1
		C43.5,248.8,43.5,248.7,43.5,248.5z M43.5,248.5c0-0.1,0-0.2,0-0.3c0,0.2,0,0.5,0,0.7c0,0,0,0.1,0,0.1
		C43.5,248.8,43.5,248.7,43.5,248.5z M43.5,248.5c0-0.1,0-0.2,0-0.3c0,0.2,0,0.5,0,0.7c0,0,0,0.1,0,0.1
		C43.5,248.8,43.5,248.7,43.5,248.5z M43.5,248.5c0-0.1,0-0.2,0-0.3c0,0.2,0,0.5,0,0.7c0,0,0,0.1,0,0.1
		C43.5,248.8,43.5,248.7,43.5,248.5z M43.5,248.5c0-0.1,0-0.2,0-0.3c0,0.2,0,0.5,0,0.7c0,0,0,0.1,0,0.1
		C43.5,248.8,43.5,248.7,43.5,248.5z M43.5,248.5c0-0.1,0-0.2,0-0.3c0,0.2,0,0.5,0,0.7c0,0,0,0.1,0,0.1
		C43.5,248.8,43.5,248.7,43.5,248.5z M170.3,160.1L170.3,160.1c0-0.1,0-0.2,0-0.2c0.1-1.7,0-3.4-0.2-5.2v-0.1
		c-0.1-1.8-0.3-3.6-0.2-5.4c0-0.5,0-0.9-0.3-1.3c0,0-0.1-0.1-0.1-0.1c0,0,0,0,0,0c-0.4-0.1-0.9-0.1-1.3-0.2c0.4,0,0.8-0.1,1.2-0.2
		c0.1,0,0.1,0,0.2,0c0,0,0,0,0,0c0.4-0.6,0.4-1.2,0.4-1.9c0-1.7,0-3.5,0-5.2v-0.4c-0.2,0-0.3,0-0.5,0c0-9.3-0.1-18.6-0.1-28
		c0.1-0.1,0.2-0.3,0.3-0.4c-0.1-0.4-0.1-0.9-0.1-1.3c0-0.2,0-0.4,0-0.6c0-0.2,0-0.3,0-0.5c0-2.7,0-5.4,0-8.1c0-4.1,0.1-8.1-0.1-12.2
		c0,0,0,0,0,0c0-0.2,0-0.4,0-0.6c-0.1-1.1-0.2-2.3-0.3-3.4c0-3.7-0.1-7.3-0.1-11c-0.3-1.1-0.3-2.3-0.1-3.3c1.9-8.8-5-16.5-12.9-17.6
		c-1.1-0.1-2.1-0.3-3.1,0.3c-5.8,0-11.6,0-17.4,0.1c-3,0-4.8,2-4.9,5c0,1.1,0,2.1,0,3.2c-0.1,3-1.9,4.9-4.9,4.9
		c-12.1,0.1-24.3,0.2-36.4,0.3c-2.7,0-4.7-1.9-4.8-4.6c-0.1-1.1,0-2.2,0-3.4c-0.1-3-1.9-4.8-4.9-4.8c-7.3,0-14.7,0-22,0.1
		c-1.9,0-3.8,0.3-5.6,0.9c-6.3,2.3-9.9,7.7-9.8,14.9c0.4,43,0.7,86,1.1,129.1c0.1,0.1,0.1,0.3,0.1,0.4c0,0,0,0,0,0
		c0.1,0.4,0,0.9,0,1.3c0.1,2.6,0,5.2-0.2,7.8c0,0,0,0,0,0c-0.1,2.3-0.2,4.5-0.1,6.8c0.1,1.5,0,3,0,4.5v0.1c0,0,0,0,0,0.1
		c0.2,0,0.3,0,0.5,0c0,6.3,0,12.7,0.1,19c0.2,22.9,0.4,45.9,0.7,68.8c0.1,6.5,4.9,12.2,11.3,13.7c0.3,0.1,0.5,0.2,0.8,0.3
		c-0.1,0.1-0.1,0.1-0.1,0.2c0,0,0,0,0.1,0c0,0,0.1,0,0.1,0c10.5-0.1,20.9,0.2,31.4-0.1c1.5,0,2-0.7,2-2c0-1.6,0.1-3.2,0.2-4.8
		c0.2-3.3,0.8-6.6,0.7-9.9c0-0.1-0.1-0.2-0.1-0.3c0-0.1,0-0.2,0-0.2c-0.2-1.1,0.1-2.2,0.2-3.3c-0.1-0.3-0.2-0.5-0.2-0.6v0
		c0-0.1-0.1-0.1-0.1-0.2c-0.3-0.6-0.7-0.5-1.7,0.1c-2,1.3-3.9,2.8-6.5,2.6c-0.2,0-0.3,0-0.5,0.1c0,0,0,0,0,0
		c-0.1,0.1-0.2,0.3-0.3,0.4c-0.4,1.3-0.2,2.6-0.2,3.9c0,1-0.5,1.5-1.5,1.5c-6.1,0.1-12.3-0.2-18.4,0.4c-1.2,0.1-1.7-0.5-1.7-1.7
		c0-6.1,0-12.2,0-18.2c0-1.2,0.5-1.7,1.7-1.7c1.3,0,2.7,0.2,4.1-0.2c0.2-0.1,0.3-0.3,0.5-0.4c0,0,0,0,0,0c0.6-0.7-0.3-1.3-0.8-1.8
		c-4.3-4.7-8.5-9.5-12.8-14.2c-4.4-4.9-5.8-13.4-1.8-19.3c0.9-1.4,1.8-2.8,2.7-4.2c2.5-3.9,5.3-7.7,7.9-11.6c0.4-0.5,1-1.1,0.6-1.7
		c0,0,0,0,0,0c-0.1-0.1-0.3-0.3-0.5-0.4c-2.1-0.5-2.1-0.5-2.1-2.7c0-5.6,0-11.1,0-16.7c0-2.4,0.1-2.4,2.5-2.5
		c4.5-0.1,9,0.1,13.5-0.1c0.4-0.1,0.8-0.2,1.1-0.3c0.3-0.1,0.6-0.1,1-0.1c0.2,0,0.3,0,0.5,0c0.8-0.1,1.5-0.6,1.9-1.3
		c1.1-2.2,3.1-3.3,5.2-4.4c3.4-1.7,6.8-3.3,10-5.4c0.1-0.1,0.2-0.1,0.2-0.2c0,0,0,0,0,0c0.9-1.7,2.1-3.1,3.6-4.2
		c0.9-0.6,1.5-1.5,1.6-2.6c0,0,0,0,0-0.1c0-0.1,0-0.2-0.1-0.4c-0.1-0.2-0.1-0.3-0.3-0.4c0,0-0.1,0-0.1,0c0,0-0.1,0-0.1,0
		c-0.9,0-1.9,0-2.8,0c-1.4,0-2.7,0-3.9,0c1.2,0,2.5,0,3.9,0c0.9,0,1.9,0,2.9-0.1c0,0,0.1,0,0.1,0c0,0,0,0,0,0c1-2.9,0-4.6-2.9-4.7
		c0.4,0,0.8,0,1.2,0c0.5,0,0.9-0.1,1.1-0.6c0,0,0,0,0,0c0-0.1,0-0.1-0.1-0.2v0c-0.9-2.9-2.8-5.3-4.2-8c-0.1-0.1-0.2-0.1-0.3-0.2h0
		c-0.1-0.1-0.2-0.1-0.3-0.2h0c-2-1.2-2.8-2.6-1.7-5.6c0,0,0,0,0,0v0c0.1-0.1,0.1-0.3,0.1-0.4c0.1-0.3,0.2-0.7,0.2-1.1
		c0-0.5,0-1.1-0.1-1.6c-0.6-6.5-0.1-12.8,3.8-18.5c0.3-0.4,0.8-0.8,0.4-1.3c0,0,0,0,0,0c0,0-0.1-0.1-0.1-0.1c0.1,0,0.2,0,0.2,0
		c0,0,0,0,0.1,0c0,0,0.1,0,0.1,0c0.4,0,0.7-0.1,1-0.3c2.5-2.2,5.5-2.5,8.7-2.3c1.6,0.1,3.2-0.3,4.6-1c0.4-0.2,1.1-0.3,1.1-0.9v0
		c0-0.1,0-0.2,0-0.4c0,0-0.1,0-0.1,0c0.2,0,0.4,0,0.6,0.1c0.2,0,0.3,0,0.5,0.1c0.1,0,0.2,0,0.3,0.1c1.5-0.2,3.1-0.4,4.6-0.3
		c0.3,0,0.6,0,0.9,0h0c0.3,0,0.6,0,0.9,0c0,0,0,0,0,0c0.6,0,1.2,0,1.8-0.1c-0.4,0-0.7,0.1-1.1,0.1c-0.2,0.1-0.3,0.3-0.3,0.4
		c0,0,0,0.1,0,0.1c0,0.2,0.2,0.4,0.4,0.6c0.7,0.6,1.2,1.5,2,2.1c0.1,0,0.2,0,0.3,0.1c0.2,0.1,0.4,0.2,0.5,0.3c0,0,0,0,0,0
		c0.2,0.1,0.3,0.3,0.5,0.4c0,0,0,0,0,0c0.1,0.2,0.3,0.3,0.5,0.4c0.1,0.1,0.1,0.1,0.2,0.2c0,0,0,0,0,0c0.2,0.1,0.5,0.1,0.7,0
		c0.1,0,0.2-0.1,0.3-0.1c0,0,0.1-0.1,0.1-0.1c0,0,0.1-0.1,0.1-0.1c0.3-0.5,0.5-1,1.1-1.2c0.1,0,0.2,0,0.3,0c0.1,0,0.2,0,0.3,0
		c0.7,0.1,1.3,0.4,1.9,0.9c0.5,0.4,1.1,0.7,1.7,0.7c0,0,0.1,0,0.1,0c0.1,0,0.2,0,0.3-0.1c5.3,0,10.6,0,15.9,0c-5.2,0-10.4,0-15.6,0
		c-0.3,0-0.5,0.1-0.6,0.2c0,0,0,0,0,0c-0.3,0.3,0.2,0.7,0.4,1.1c1.3,2.1,3.6,2.3,5.7,2.7c1.6,0.4,2.6,1,3.5,2.3
		c2.1,3.3,4.4,6.6,7,9.5c0,0,0,0,0,0c0,0,0,0,0.1,0.1c3.5,2.4,6.3,5.6,9,8.7c3.5,3.9,7.6,7.3,10.8,11.5c0.2,0.3,0.6,0.7,1,0.5
		c0.3-0.1,0.4-0.3,0.5-0.6v0c0-0.2,0-0.4,0.1-0.6c0.1-1.2-0.1-2.5,0.1-3.7C170.4,174.3,170.4,167.2,170.3,160.1z M93,187.9
		c0.9-0.1,1.9-0.2,2.9-0.2C94.9,187.8,93.9,187.9,93,187.9z M95,149.9c0.6,0,1.3,0,2,0C96.3,149.9,95.6,149.9,95,149.9z M93.2,145
		c1.1,0,2.3,0,3.4,0h0c2.8,0,5.7,0,8.5,0c-2.7,0-5.5,0-8.2,0H93.2z M106.2,145c1.8,0,3.6-0.1,5.4,0c-0.2,0-0.4,0-0.6,0
		C109.4,145,107.8,145,106.2,145z M130.5,144.7c-0.1,0-0.2,0-0.3,0c-0.5,0-1.1,0-1.6,0C129.2,144.7,129.9,144.7,130.5,144.7z
		 M164.7,147.4c0.6,0,1.4,0,2.2,0C166.1,147.5,165.3,147.6,164.7,147.4z M43.5,248.1c0,0.2,0,0.5,0,0.7c0,0,0,0.1,0,0.1
		c0-0.1,0-0.3,0-0.5C43.5,248.3,43.5,248.2,43.5,248.1z M43.5,248.5c0-0.1,0-0.2,0-0.3c0,0.2,0,0.5,0,0.7c0,0,0,0.1,0,0.1
		C43.5,248.8,43.5,248.7,43.5,248.5z M43.5,248.5c0-0.1,0-0.2,0-0.3c0,0.2,0,0.5,0,0.7c0,0,0,0.1,0,0.1
		C43.5,248.8,43.5,248.7,43.5,248.5z M43.5,248.5c0-0.1,0-0.2,0-0.3c0,0.2,0,0.5,0,0.7c0,0,0,0.1,0,0.1
		C43.5,248.8,43.5,248.7,43.5,248.5z M43.5,248.5c0-0.1,0-0.2,0-0.3c0,0.2,0,0.5,0,0.7c0,0,0,0.1,0,0.1
		C43.5,248.8,43.5,248.7,43.5,248.5z M43.5,248.5c0-0.1,0-0.2,0-0.3c0,0.2,0,0.5,0,0.7c0,0,0,0.1,0,0.1
		C43.5,248.8,43.5,248.7,43.5,248.5z M43.5,248.5c0-0.1,0-0.2,0-0.3c0,0.2,0,0.5,0,0.7c0,0,0,0.1,0,0.1
		C43.5,248.8,43.5,248.7,43.5,248.5z M43.5,248.5c0-0.1,0-0.2,0-0.3c0,0.2,0,0.5,0,0.7c0,0,0,0.1,0,0.1
		C43.5,248.8,43.5,248.7,43.5,248.5z M43.5,248.5c0-0.1,0-0.2,0-0.3c0,0.2,0,0.5,0,0.7c0,0,0,0.1,0,0.1
		C43.5,248.8,43.5,248.7,43.5,248.5z M43.5,248.5c0-0.1,0-0.2,0-0.3c0,0.2,0,0.5,0,0.7c0,0,0,0.1,0,0.1
		C43.5,248.8,43.5,248.7,43.5,248.5z"/>
	<path class="st0" d="M429.1,291.2c0.2-50.8,0.5-101.5,0.7-152.3c0-6.7-4.1-10.8-10.8-10.8c-3.4,0-6.7,0-10.1,0
		c-3.7,0-4.5,0.8-4.5,4.5c0,3.2-1,4.2-4.3,4.2c-6.9,0-13.7-0.2-20.6-0.1c-4.7,0.1-6.3-0.7-5.9-5.5c0.1-2-1.1-3.2-3-3.2
		c-5.4-0.1-10.8,0-16.2,0c-0.6,0-1.3,0.1-1.9,0.3c-4.5,1.3-7.2,5.1-7.2,10.2c-0.1,23.9-0.2,47.8-0.3,71.7c0,0.2-0.1,0.4-0.2,0.5
		c-0.1,0.2-0.2,0.4-0.2,0.6c-0.2,1-0.1,2-0.1,3c0,17.5,0,35,0,52.5c0,0.9,0,1.9-0.1,2.8c-0.6,9-0.3,18.1-0.2,27.1
		c0.1,5.3,4.6,9.6,9.5,9.8c4.2,0.1,8.4,0.2,12.6,0.3c6.3,0.2,12.7,0.1,19,0.1c0.9,0,1.8,0.1,2.6-0.3c0,0,0.1-0.1,0.1-0.1
		c0.4-0.3,0.5-0.7,0.5-1.2c0,0.4,0.1,0.7,0.2,1.1c0,0,0,0.1,0,0.1c0.7,0.5,1.6,0.4,2.4,0.4c9.4,0,18.7,0,28.1,0
		c4.5,0,7.9-2.3,9.6-6.5c0-0.1,0-0.1,0.1-0.2c0.7-1.9,0.6-3.8,0.3-5.7C429.1,293.4,429.1,292.3,429.1,291.2z M388.3,304.5
		c0-0.4,0-0.8,0-1.2c0-0.1,0-0.1,0-0.2c0,0.2,0,0.4,0,0.6C388.3,304,388.3,304.3,388.3,304.5z"/>
	<path class="st1" d="M161.3,320.3c-0.4,1.1-1.4,1-2.2,1.2c-1.1,0.2-1.6,0.9-1.6,2c-0.3,9.2-1.1,18.4-1.8,27.6
		c-0.8,9.6-1.9,19.2-2.9,28.8c-0.6,5.6-0.9,11.2-1.3,16.8c-0.4,6.1-0.9,12.1-1.3,18.2c-0.4,5.7-0.8,11.4-1.2,17.1
		c-0.4,6-0.8,12-1.3,18c-0.3,3.5-0.4,7-0.8,10.4c-0.1,1.1-0.5,2-1.8,2c-0.1,0-0.1,0-0.2,0c-1.8,0.1-3.5,0-5.3,0c-2.4,0-2.5,0-2.9,2
		c0,0.1,0,0.2-0.1,0.4c0,0.1,0,0.1,0,0.2c0,0.2,0,0.5,0,0.7c0,0.4-0.1,0.8-0.4,1.2c0,0-0.1,0-0.1,0c0,0,0,0,0,0
		c-0.2,0-0.3,0-0.4-0.1c0,0-0.1-0.1-0.1-0.1c0-0.1-0.1-0.1-0.1-0.2c-0.3-0.8-0.2-1.7-0.2-2.6c0.1-1.1-0.4-1.5-1.5-1.5
		c-1.7,0-3.5,0-5.2,0c-0.1,0-0.2,0-0.3,0c-0.1,0-0.2,0-0.3,0c-2-0.2-2.4-0.5-2.4-2.5c0-4.3-0.3-8.6,0.3-12.9
		c0.2-1.6,0.1-3.2,0.1-4.8c-0.1-16.6,0.1-33.1,0.3-49.7c0.1-4.8,0.2-9.7-0.6-14.5c-0.7-4.3-0.8-8.6-1-13c0.6,30.9,0.1,61.8,0.3,92.7
		c0,0.8,0,1.7-0.1,2.5c-0.1,1-0.5,1.8-1.6,2.1c-0.1,0-0.3,0.1-0.5,0.1c-0.1,0-0.2,0-0.3,0.1c-1.9,0.3-3.8,0.3-5.7,0.5
		c-1.5,0.1-2,0.8-1.9,2.3c0,0.2,0,0.4,0,0.7c0,0.4,0,0.8-0.1,1.3c0,0,0,0,0,0.1c0,0,0,0.1,0,0.1c0,0.1-0.1,0.2-0.1,0.2
		c-0.1,0.2-0.2,0.3-0.5,0.4c0,0,0,0,0,0c0,0,0,0,0,0c-0.8-0.9-0.5-2.1-0.7-3.2c-0.2-1-0.7-1.5-1.7-1.3c-1.8,0.2-3.7,0.1-5.5,0.9
		c-0.1-0.1-0.2-0.4-0.3-0.4c-2.7-0.2-2.3-2.3-2.4-3.9c-0.4-4.8-0.4-9.6-0.8-14.5c-0.5-6.6-0.8-13.3-1.1-19.9
		c-0.2-4.6-0.5-9.3-0.7-13.9c-0.2-4.9-0.6-9.9-0.7-14.8c-0.2-9.3-2-18.4-3.7-27.5c-1.9-9.5-3.4-19.1-5.1-28.6
		c-1.1-5.8-2.2-11.7-2.1-17.6c0-1.5-1-1.2-1.8-1.2c-10.3,0-20.6,0-30.9,0c0-0.1-0.1-0.1-0.1-0.2c0-0.1,0-0.1,0.1-0.2
		c10.5,0.2,21,0,31.6-0.1c1,0,1.4-0.2,1.4-1.3c0.1-5.2,0.7-10.4,1.2-15.5c0.1-0.1,0.2-0.1,0.3-0.2c0.8-0.5,1.6-0.1,2.5,0
		c6.6,0.9,13.2,1.8,19.9,2.1c8.2,0.4,16.1-1.1,24.1-2.8c5.1-1.1,10.1-2.3,15.2-3.7c0.8-0.2,1.6-0.5,2.4-0.2c0,0,0.1,0.1,0.1,0.1
		c0,0,0,0,0,0c0.6,0.6,0.7,1.4,1,2.2c1.4,4.2,1.7,8.6,1.5,13c0,1.1,0,2.1,0,3.2c0,1.8,0.1,1.8,1.8,1.6c0.6-0.1,1.3-0.3,1.8,0.2
		C161.2,320.2,161.3,320.2,161.3,320.3z"/>
	<path class="st2" d="M215.7,116.9c-1.8,1.1-3.6,2.3-5.4,3.4c-0.9,0.5-1.1,1.2-1.1,2.1c0.1,2.3,0.2,4.6-0.3,6.9
		c-0.2,0.8,0,1.4,0.8,2c1.7,1.2,3.3,2.6,4.9,3.8c0.9,0.6,1.1,1.1,0.6,2.2c-1.6,3.2-3.1,6.5-4.6,9.8v0c-0.2,0.4-0.5,0.6-0.9,0.7
		c0,0,0,0,0,0c-0.4,0.1-0.8,0.1-1.1,0.1c-1.6,0-3.1,0-4.7,0h0c-1.3,0-2.6,0-3.9,0c0,0,0,0,0,0c-9.6,0-19.2,0-28.9,0
		c-0.4,0-0.7,0-1.1-0.1c0,0,0,0,0,0c0,0,0,0-0.1,0c-0.2-0.1-0.4-0.2-0.6-0.4c0,0,0,0,0,0c0-2.5,0.1-5,0.1-7.5c0.2,0,0.3,0,0.5,0v0.4
		c0.1,0,0.2,0.1,0.4,0.1c7.2,1.6,14.6-2.2,17.6-9c3-6.9,0.7-14.9-5.5-19.1c-3.9-2.6-8.1-3.2-12.7-2.4c0,0,0,0,0,0.1c0,0,0,0,0,0
		c-0.1-0.1-0.1-0.2-0.2-0.3c0-0.1-0.1-0.1-0.1-0.2c-0.1-6.7-0.3-13.4-0.2-20.2c0-0.3-0.2-0.8,0.1-1c0.1-0.1,0.2-0.1,0.3-0.1
		c0.3,0.5,0.8,0.6,1.4,0.5c2.5-0.3,5,0,7.4,0.3c0.8,0.1,1.3-0.1,1.8-0.7c1.3-1.8,2.7-3.4,4-5.2c0.5-0.7,0.9-0.8,1.7-0.4
		c3.7,1.8,7.5,3.5,11.2,5.2c0.9,0.4,0.9,0.8,0.7,1.6c-0.5,2.1-0.8,4.2-1.4,6.2c-0.3,1,0,1.5,0.7,2.1c1.8,1.5,3.4,3.2,4.7,5.1
		c0.6,0.8,1.2,1,2.1,0.9c2.1-0.3,4.2-0.5,6.3-0.9c0.9-0.2,1.3,0.1,1.5,0.9c1.4,3.9,2.8,7.8,4.3,11.6
		C216.5,116,216.4,116.5,215.7,116.9z"/>
	<path class="st2" d="M455.3,444.7c-1,13.7-4.7,26.8-10.3,39.3c-0.7,0.3-1.5,0.1-2.3,0.1c-8.1,0-16.3,0-24.4,0
		c-0.3-0.1-0.6-0.3-0.7-0.5c-0.2-0.2-0.3-0.5-0.4-0.8c-5.3-11.9-9.1-24.1-10.2-37.1c-0.2-2.2,0.3-2.8,2.5-2.8c6.3,0,12.5,0,18.8,0
		c2.3,0,2.3-0.1,2.4-2.4c0.1-1.7-0.4-3.4-0.2-5.1c0.1-0.2,0.1-0.4,0.1-0.6l0.2,0.9c0.7-0.5,0.4-1.3,0.4-1.9c0-31,0-62,0-92.9
		c0-1.3,0.1-2.6-0.4-3.8c-0.1-0.1-0.2-0.3-0.2-0.4c0-0.1,0-0.2,0.1-0.3c0-0.1,0-0.2,0-0.3c0-0.4,0-0.7,0-1.1c0-5,0-10.1,0-15.1
		c0-0.8-0.1-1.6,0.2-2.4c0.1-0.2,0.2-0.2,0.3-0.3c0.1,0,0.1,0,0.2,0v9.8c0.1,0,0.3,0,0.4,0.1c0.9-2.4,1.7-4.8,2.6-7.2
		c1.5-4.1,3.2-8,6.6-10.9c2-1.8,4.3-2.9,7.2-3.1c-0.3,1.2-0.5,2.2-0.7,3.2c-0.2,0.4-0.4,0.8-0.6,1.3c-2.8,7.3-7.5,13.1-14.1,17.2
		c-1,0.6-1.3,1.3-1.3,2.4c0.1,13.3,0.1,26.6,0.1,39.9c0,24.1,0,48.1-0.1,72.2c0,1.5,0.4,2.1,1.8,1.7c6.9,0,13.7,0.1,20.6,0.1
		C454.7,443.5,455.4,443.4,455.3,444.7z"/>
	<path class="st3" d="M206.9,33.4c0-0.1-0.1-0.1-0.1-0.2c-1.5-4.1-1.5-4.1-5.8-3.4c-1,0.2-1.5-0.2-2.2-0.8c-2.6-2.3-4-4.9-2.4-8.4
		c0.4-0.8-0.1-1.2-0.8-1.4c-1.3-0.6-2.6-1.2-3.9-1.8c-3.8-1.8-3.8-1.8-6.4,1.6c-0.4,0.5-0.6,1.3-1.6,1.2c-1.7-0.2-3.4-0.4-5.1-0.2
		c-0.6,0.1-0.8-0.4-1-0.8c-1-1.3-1.4-3.5-2.9-3.8c-1.4-0.2-3.1,1-4.6,1.5c-4.2,1.5-4.2,1.5-3.5,6c0.1,0.9-0.2,1.4-0.8,2.1
		c-2.4,2.7-5,4.1-8.6,2.4c-0.8-0.4-1,0.2-1.3,0.8c-1,2.2-2,4.4-3.1,6.6c-0.5,0.9-0.4,1.5,0.5,2c2.8,1.5,3.9,3.6,3.4,6.9
		c-0.2,1.7-0.7,2.7-2.1,3.6c-2.8,1.7-2.8,1.7-1.7,4.7c0.1,0.4,0.4,0.7,0.2,1.2c4-0.1,7.5,1,10.6,3.6c3.7,3.2,5.4,7.2,5.2,12.2
		c-0.1,1.6-0.4,3.3,0.3,4.9v-3.6c1.4,0.3,2.5,1.7,3.5,1.2c1.1-0.5,1.8-1.8,2.4-3c0.8-1.4,1.9-1,3.1-1.1c3.3-0.4,5.5,0.8,6.7,3.9
		c0.3,0.8,0.9,1,1.8,0.7c2.2-0.9,4.5-1.7,6.8-2.5c1-0.3,1.1-0.8,0.9-1.7c-0.2-1.1-0.3-2.2-0.4-3.3c-0.1-1,3.9-5.4,5-5.3
		c0.2,0,0.3,0.1,0.5,0.1c1.6,0.2,3.4,1.4,4.6,0.7c1.2-0.8,1.6-2.8,2.3-4.3c0.1-0.1,0.1-0.2,0.1-0.3c1.8-3.8,1.8-3.8-1.6-6.4
		c-0.1-0.1-0.3-0.2-0.4-0.3c-1-0.8-0.7-6.7,0.3-7.4c1.3-1,3.5-1.4,3.8-2.9C208.6,36.6,207.5,35,206.9,33.4z M180.3,54.4
		c-5.7,0-10.2-4.6-10.2-10.3c0-5.7,4.7-10.4,10.3-10.4c5.6,0,10.3,4.7,10.3,10.3C190.7,49.7,186,54.4,180.3,54.4z"/>
	<path class="st4" d="M262.1,81.8c0-0.1,0-0.1,0-0.2c-1.3-3.7-1.4-3.7-5.2-3.1c-0.9,0.2-1.4-0.1-2.1-0.7c-2.4-2.1-3.7-4.5-2.2-7.6
		c0.4-0.8-0.2-1-0.8-1.3c-2-0.9-4-1.8-5.9-2.8c-0.6-0.3-1.2-0.5-1.5,0.2c-1.5,3.2-4.1,3.7-7.2,3.2c-0.8-0.1-1.4-0.2-1.8-1
		c-0.6-1.1-1.2-2.7-2.2-3.1c-1.1-0.5-2.5,0.7-3.8,1.1c-0.2,0.1-0.4,0.2-0.7,0.2c-3.6,1.3-3.6,1.3-3.2,5c0,0.2,0,0.5,0.1,0.7
		c0.2,0.6-0.1,1.1-0.6,1.5c-1,0.8-1.9,1.7-2.9,2.6c-0.4,0.4-0.8,0.5-1.4,0.4c-1.4-0.2-3.2-1.4-4.2-0.6c-1.1,0.8-1.4,2.6-2.1,4
		c0,0.1-0.1,0.1-0.1,0.2c-1.6,3.4-1.6,3.4,1.4,5.7c0.8,0.6,1.2,1.1,1,2.2c-0.2,1.1-0.2,2.2-0.1,3.4c0,0.7-0.2,1.2-0.8,1.6
		c-1.2,0.8-3.1,1.2-3.3,2.4c-0.2,1.3,0.8,2.7,1.2,4.1c0,0.1,0.1,0.2,0.1,0.3c1.3,3.6,1.3,3.7,5.1,3.1c1.1-0.2,1.7,0,2.4,0.9
		c0.6,0.9,1.4,1.6,2.2,2.3c0.5,0.5,0.7,1,0.6,1.7c-0.2,1.4-1.4,3.1-0.5,4.2c0.8,1,2.6,1.3,3.9,2c0.1,0,0.1,0,0.2,0.1
		c3.4,1.6,3.4,1.6,5.8-1.4c0.5-0.6,0.8-1.4,1.8-1.1c1.3,0.3,2.6,0.3,3.9,0.2c0.7,0,1,0.2,1.4,0.7c0.8,1.2,1.2,3.1,2.6,3.3
		c1.3,0.2,2.8-0.8,4.1-1.3c0.2-0.1,0.3-0.1,0.5-0.2c3.3-1.2,3.4-1.2,2.8-4.7c-0.2-1.2,0.2-1.8,1-2.7c2-2.4,4.3-3.2,7.2-1.9
		c0.6,0.3,1.1,0,1.4-0.7c0.7-1.6,1.3-3.3,2.3-4.8c1.1-1.7,0.7-2.8-1-3.8c-0.8-0.5-2-0.9-2.1-2c-0.1-1.6,0.2-3.3,0.1-5
		c0-0.5,0.5-0.6,0.8-0.9c1.1-0.9,3.1-1.2,3.4-2.6C263.7,84.7,262.6,83.2,262.1,81.8z M238.1,100.7c-5.1,0-9.4-4.4-9.3-9.4
		c0.1-5,4.3-9.2,9.3-9.2c5,0,9.4,4.3,9.4,9.4C247.5,96.5,243.1,100.8,238.1,100.7z"/>
	<path class="st1" d="M30.6,476.1c-0.2-6.6-0.8-13.3-1.4-19.9c-0.1-0.6,0-1.2,0-1.8c0-2.8,0-2.8-2.7-3.2c-0.7-0.1-0.9-0.4-0.9-1.1
		c0-2.7,0-5.4,0-8.2c0-1.2,0.8-1.1,1.6-1.1c4.5,0,9,0,13.5,0c9.3,0,18.6,0,27.8,0c1.5,0,2,0.4,1.9,1.9c-0.1,2.3-0.1,4.6,0,6.9
		c0,1.1-0.3,1.6-1.5,1.6c-2.7,0-2.6,0.1-2.8,2.7c-0.4,5.7-0.9,11.4-1.4,17c-0.1,1.7,0,3.4-0.4,5.1c-0.7,0.7-1.5,0.6-2.3,0.6
		c-9.7,0-19.4,0-29.1,0C32.1,476.7,31.2,476.8,30.6,476.1z"/>
	<path class="st5" d="M368.3,103.2c5,0,9.9,0,14.9,0c0.3-0.6,0.2-1.3,0.2-1.9c0-14.4,0-28.8,0-43.1c0-0.6-0.4-1.4,0.4-1.9
		c1,0.5,0.7,1.4,0.7,2.2c0,13.7,0,27.3,0,41c0,3.2,0,3.2,3.3,3.2c9.4,0,18.8,0,28.2,0c1,0,2,0,3,0.1c1.2,0.3,2.4,0.4,3.5,0.1
		c0.6-0.2,1.3,0,1.9-0.2c-0.7-2.3-1.4-4.6-2.1-6.9c-0.6-3.4-0.4-6.7-0.2-10.1c0.1-1.6,0.2-3.2,0.3-4.8c0-0.7-0.2-1.6,0.8-1.9
		c2.4,7.5,4.8,14.9,7.1,22.4c0.4,1.4,1,1.8,2.4,1.7c1.8-0.1,3.7,0,5.5,0c0.8,0,1,0.2,1,1c-0.1,1.5-0.1,3.1,0,4.6
		c0.1,1.3-0.3,1.8-1.7,1.8c-6.5-0.1-13,0-19.5-0.1c-1.5,0-1.9,0.4-1.8,1.9c0.1,2.1,0,4.3,0.1,6.4c0,1-0.2,1.4-1.3,1.5
		c-4.6,0.1-4.6,0.1-4.6-4.4c0-1.2-0.1-2.4,0-3.5c0.2-1.5-0.5-1.7-1.8-1.7c-22.4,0-44.7,0-67.1,0c-1.4,0-1.8,0.4-1.7,1.8
		c0.1,2.5,0,5.1-0.1,7.6c-1.6,0.4-3.3,0.1-4.9,0.2c-0.9,0-0.8-0.6-0.8-1.2c0-2.3-0.1-4.6,0-6.9c0-1.2-0.4-1.5-1.5-1.5
		c-4.6,0.1-9.2,0-13.8,0.1c-1.4,0-1.8-0.4-1.7-1.8c0.1-1.5,0.1-3,0-4.4c-0.1-1.1,0.4-1.5,1.4-1.6c0.6-0.1,1.2-0.1,1.8-0.1
		c15.2,0,30.4,0,45.6,0.1C366.6,102.7,367.5,102.7,368.3,103.2z"/>
	<path class="st3" d="M269.7,143.9c-0.2,1.1-1.9,1.5-2.9,2.1c-0.5,0.4-0.9,0.8-0.7,1.5c0.1,0.3,0.1,0.7,0,1.1
		c-0.7,2.3,0.3,3.8,2.3,4.9c0.9,0.5,1.1,1.1,0.6,2.1c-0.8,1.5-1.5,3.1-2.2,4.6c-0.3,0.8-0.7,1.2-1.6,0.7c-0.1,0-0.1,0-0.2,0
		c-3.1-1.6-4.7,0.9-6.6,2.5c-0.6,0.5-0.2,1.1-0.1,1.7c0.5,3.1,0.5,3.1-2.5,4.1v0h0c-0.3-0.2-0.5-0.5-0.6-0.7v0
		c-0.2-0.5-0.1-1.1-0.1-1.7c0-4.7,0-9.5,0-14.2c0,0,0,0,0,0c0-0.9,0-1.8,0-2.7c0,0,0,0,0,0v-0.4c0-0.4,0-0.8,0-1.2
		c0-0.4,0-0.7-0.1-1.1c0,0,0,0,0,0c0-0.1-0.1-0.3-0.1-0.4c0.2,0,0.3,0,0.5,0c-1.3-4.1-4.3-6.3-8.3-6.2c-3.7,0.1-6.6,2.6-7.5,6.5
		c0.1,0,0.2-0.1,0.3-0.1c0,0.1-0.1,0.1-0.1,0.2c-0.1,0.1-0.2,0.2-0.3,0.3c-0.4,0.2-0.8,0.3-1.2,0.4h0c-0.7,0.1-1.4,0-2.1,0
		c-1.9,0-3.9,0-5.8,0c-0.2,0-0.5,0-0.7-0.1h0c-0.7-0.2-1.1-0.6-0.9-1.6c0.4-1.5-0.9-2-1.8-2.5c-1.6-0.9-1.9-1.9-0.9-3.5
		c0.7-1,1.2-2.2,1.6-3.3c0.4-1.3,1.2-1.5,2.4-1.2c0.9,0.3,2.1,0.9,2.9,0.4c1.2-0.7,2.3-1.8,3.2-3c0.7-0.9,0.2-2.1-0.1-3.1
		c-0.3-1.3,0.1-1.9,1.4-2.3c1.5-0.4,3-1,4.5-1.6c0.8-0.3,1.4-0.3,1.7,0.5c0,0.1,0.1,0.1,0.1,0.2c1,3.4,3.9,2.6,6.4,2.9
		c0.6,0.1,0.8-0.6,1.2-1c2.1-2.6,2.1-2.6,5.1-1.2c1.2,0.5,2.7,0.8,3.4,1.7c0.8,1-0.2,2.4-0.4,3.7c-0.1,0.7,0,1.1,0.6,1.6
		c0.2,0.2,0.5,0.4,0.6,0.6c1.3,2.2,3.1,2.6,5.4,1.9c0.9-0.3,1.4,0.1,1.6,1c0.2,0.7,0.5,1.4,0.8,2.2
		C269,141.4,269.9,142.7,269.7,143.9z"/>
	<path class="st4" d="M43.6,240.2c-0.1,2.6-0.1,5.3,0,8c0,0.2,0,0.5,0,0.7c0,0,0,0.1,0,0.1c0,0.3,0,0.5-0.1,0.7v0
		c-0.2,0.6-0.6,0.7-1.5,0.3c-1-0.5-1.5,0.3-2,0.9c-2.3,3-2.3,3-5.7,1.4c-1.4-0.6-3.2-1-4-2.1c-0.9-1.2,0.3-2.9,0.5-4.4
		c0.1-0.6-0.1-1-0.5-1.4c-0.9-0.9-1.8-1.8-2.6-2.9c-0.7-1-1.6-0.6-2.4-0.5c-3.4,0.4-3.4,0.4-4.6-2.8c-0.1-0.2-0.1-0.3-0.2-0.5
		c-0.5-1.4-1.6-2.9-1.3-4.1c0.2-1.3,2.2-1.7,3.3-2.6c0.4-0.3,0.8-0.5,0.8-1.1c-0.1-1.5,0-3.1,0.2-4.6c0.2-0.9-0.6-1-1.1-1.4
		c-3-2.3-3-2.3-1.4-5.8c0-0.1,0-0.1,0.1-0.2c0.6-1.3,0.9-3.1,2-3.9c1.1-0.8,2.8,0.3,4.2,0.6c0.7,0.1,1.2-0.1,1.7-0.6
		c0.7-0.8,1.5-1.6,2.3-2.2c0.9-0.6,1.1-1.3,0.9-2.4c-0.6-3.7-0.5-3.7,2.9-5c1.5-0.5,3.1-1.6,4.5-1.4c1.5,0.2,1.8,2.4,2.8,3.6
		c0.2,0.2,0.4,0.4,0.6,0.6c0.3,0.3,0.3,0.6,0.4,0.9c0,0,0,0,0,0c0,0.2,0,0.4,0,0.5c0,3.5,0.1,7,0,10.5c0,0.1,0,0.2-0.1,0.2
		c0,0,0,0.1,0,0.1c0,0,0,0,0,0.1c-0.1,0-0.1,0-0.2,0c-4.8,1.6-7.4,4.6-7.6,8.9c-0.2,4.2,2.7,8.4,7.1,9.4c0.3,0.1,0.5,0.2,0.6,0.3
		v-0.1C43.5,238.7,43.6,239.3,43.6,240.2z"/>
	<path class="st5" d="M313.2,83.4c-0.5-0.4-0.5-1-0.6-1.6c-0.4-2.1,0.2-2.7,2.3-2.7c1.8,0,3.7,0,5.5,0c0.1-0.7-0.5-1-0.8-1.5
		c-1.1-1.8-1.5-3.7-0.6-5.7c0.8-1.7,1.9-2.7,4.1-2.7c15,0,30.1-0.1,45.1-0.2c1.5,0,2.2,0.5,2.5,1.8c0.9,3,0.4,5.7-1.7,8
		c-6.8,0.3-13.6,0-20.4,0.1c5.5,0,11.1,0,16.6,0c0.5,0,1,0,1.2,0.5c0.6,1.3,0.4,2.6,0,3.9c-0.6,0.6-1.4,0.5-2.2,0.5
		c-14.6,0-29.1,0.1-43.7-0.1C318.1,83.8,315.7,83.7,313.2,83.4z"/>
	<path class="st6" d="M39.7,388.3c-3.8,3.1-7.8,2-11.6,0.2c-2.6-1.3-4.7-3.4-6.5-5.6c-4.3-5.2-8-10.8-11.1-16.8
		c-0.6-1.2-1.1-2.5-1.3-3.8c-0.4-3.5,1.5-6,5-6.5c1.4-0.2,2.8-0.2,4.2,0.2c8.2,2.3,15.1,6.7,20.3,13.4c3,3.9,4.5,8.3,3.6,13.3
		c-0.3,1.7-1,3.3-1.8,4.8c-1.1,0.1-1.1-0.9-1.4-1.5c-2.2-4.6-4.8-8.9-8-12.9c-0.9-1.1-2.2-2-2.6-2.9c2.8,3.1,5.6,6.8,7.9,10.8
		c1.2,2.1,2.1,4.2,3.2,6.3C39.9,387.5,40,387.9,39.7,388.3z"/>
	<path class="st6" d="M49.8,384.9c-3.7-1.7-4.6-5.2-4.9-8.7c-1-10,1.1-19.4,5.6-28.3c1.3-2.6,3.1-4.9,6.5-4.7
		c3.5,0.3,5.4,2.6,6.6,5.7c1.5,4,1.6,8.1,1,12.2c-0.8,6-2.3,11.9-4.6,17.6c-1.7,4.4-4.6,6.3-8.9,6.3c-1-1.5-0.1-3,0.1-4.4
		c0.4-2.7,0.8-5.4,1.5-8.1c0.9-4.1,1.6-8.3,2.9-12.3c-1.2,3.8-2,7.7-2.7,11.6c-0.9,3.9-1.4,7.9-2.1,11.9
		C50.7,384.4,50.8,385.1,49.8,384.9z"/>
	<path d="M432.5,436.1c0.4-1.5,1.1-2.7,2.2-3.8C434.1,433.6,433.2,434.7,432.5,436.1z"/>
	<path d="M432.8,365c0.9-0.1,1.1-1.5,2.2-1.2C434.1,363.9,433.9,365.3,432.8,365z"/>
	<path d="M435.9,408.4c-0.7,1.3-1.4,2.7-2,4C434,410.9,434.7,409.5,435.9,408.4z"/>
	<path d="M444,419.6C444,419.6,444,419.6,444,419.6c-0.7-0.3,0-1.1,0-1.6c0,0,0.1-0.1,0.1-0.2c0-0.1,0.1-0.2,0.1-0.3
		c1.2-2.3,2.6-4.4,3.5-6.8c1.5-3.8,2.4-7.8,2.8-11.9c0-0.3,0-0.6,0-0.9c0-0.5-0.1-1-0.6-1.2c-0.5-0.2-0.9,0.2-1.2,0.6
		c-1,1.3-1.9,2.7-2.5,4.3c-2,4.8-3.2,9.8-2.2,15.1c0,0.1,0,0.2,0,0.3c0,0.2,0,0.4-0.1,0.6c-0.3,2.6-1.4,4.8-3.2,6.9
		c-2,2.2-3.8,4.6-5.4,7.1c0-1.2,1-1.9,1.6-2.8c2-2.9,4.6-5.3,6-8.7c0.4-1.1,0.7-2.1,0.6-3.2c-1.1-7.2,0.6-13.7,4.7-19.6
		c0.4-0.7,0.9-1.6,1.9-1.2c0.9,0.4,0.8,1.4,0.8,2.2c-0.5,7.3-2.7,14-6.7,20.1C444.3,418.7,443.8,419,444,419.6z"/>
	<path d="M468.5,402c-0.1,0.7-0.8,0.6-1.3,0.8c-3.1,0.7-6,1.9-8.7,3.4c-3.8,2.1-6.7,5.2-9.4,8.5c0,0,0,0,0,0c0,0-0.1,0.1-0.1,0.1
		c-1.2,1.3-2.5,2.4-3.5,3.8c-0.3,0.5-0.7,1.3-1.4,1c1.6-1.7,3.1-3.3,4.6-5C453.5,407.9,460,403.8,468.5,402z"/>
	<path d="M468.5,401.9L468.5,401.9c-0.9-0.4-1.6-0.7-2.2-1c-4.2-1.8-7.9-4.2-11.3-7.2c-0.8-0.7-1.6-1.4-2.6-1.8
		c-2.3-0.1-4.2,0.9-5.8,2.5c-3.7,3.7-6.9,7.8-9.7,12.2c-0.5-0.7,0-1,0.3-1.3c1.4-2.3,3-4.5,4.8-6.6c1.2-1.5,1.9-3.1,2-5
		c0.6,1.4,0.1,2.7-0.7,3.8c-2,2.5-4,5.1-5.7,7.8c1.8-2.7,3.7-5.2,5.7-7.7c1.4-1.6,2.9-3.1,4.4-4.6c1.2-1.1,2.8-1.4,4.4-1.4h0.2
		c0.1,0,0.1,0,0.2,0c1.1,0.1,1.8,0.8,2.6,1.5c3.5,3.2,7.5,5.8,11.9,7.6c0.1,0,0.2,0.1,0.3,0.1C467.8,401.1,468.5,401.2,468.5,401.9z
		"/>
	<path class="st5" d="M318.8,92.4c-0.1-2.9,0.2-5.8-0.3-8.7c0.5-0.3,1-0.2,1.6-0.2c16.5,0,32.9,0,49.4,0c0.5,0,1.1-0.2,1.5,0.2
		c0.6,2.4,0.4,4.9,0.3,7.4c-0.1,1.5-0.7,2.1-2.1,1.8c-0.3-0.1-0.6,0-0.9,0c-0.7,0.5-1.4,0.5-2.2,0.5c-15,0-30,0.2-45,0
		C320.2,93.5,319.1,93.8,318.8,92.4z"/>
	<path class="st7" d="M318.8,92.4c0.6,0.8,1.4,0.5,2.1,0.5c15.8,0,31.6,0,47.4,0c-0.8,0.6-1,1.4-0.9,2.4c0.1,1.9,0.1,3.7,0,5.6
		c0,0.9,0.1,1.7,0.9,2.2c-16.3,0-32.5,0-48.8,0c-2.3,0-2.3,0-2.3,2.4c0,4.6,0,4.6,4.7,4.6c3.5,0,7.1,0.1,10.6,0
		c1.4,0,1.7,0.4,1.7,1.7c-0.1,2.2,0,4.4,0,6.6c0,1,0.3,1.4,1.3,1.3c1.4-0.1,2.8,0,4.3,0c-1.7,0.7-3.6,0.2-5.3,0.3
		c-0.8,0-0.5-0.8-0.6-1.2c0-2.3-0.1-4.6,0-6.9c0.1-1.2-0.4-1.5-1.5-1.4c-4.7,0.1-9.3,0-14,0.1c-1.2,0-1.8-0.3-1.6-1.6
		c0.1-0.7,0-1.4,0-2.1c0-1.1,0.3-2.3-0.1-3.2c-0.5-1-1.8-0.3-2.7-0.6c-2.4-0.6-4-2.8-3.9-5.4c0.1-2.6,2-4.6,4.6-5
		C316,92.5,317.5,93,318.8,92.4z"/>
	<path class="st6" d="M52.3,414.2c-1.5-6.4,1.2-11.2,7.5-13.2c5.1-1.6,10.3-1.4,15.3,0.3c2.3,0.8,4,2.2,4.7,4.7
		c0.7,2.7-0.7,4.9-3.3,5.4c-1.2,0.3-2.5,0.3-3.7,0.2c-0.9,0-1.8-0.1-2.7-0.1c-3.6-0.1-6.7,0.9-9.2,3.7c-2.7,3.1-5.1,3-8,0.1
		c-0.2-0.2-0.3-0.4-0.2-0.6c1.9-3.6,4.4-6.6,7.8-8c-1.6,0.2-4.8,3.2-6.5,5.7C53.6,413.1,53.5,414.2,52.3,414.2z"/>
	<path class="st8" d="M30.6,476.1c11.2,0,22.5,0,33.7,0c1.3,0,2.6,0.1,3.9,0c0.8,0,1.4,0.2,1.4,1.2c-0.1,0.7,0.4,1.7-0.9,1.7
		c-0.7,0-0.9,0.4-1.1,0.9c-0.6,1.3-1.2,2.7-1.8,4c-0.4,0.2-0.8,0.2-1.2,0.2c-11.1,0-22.2,0-33.4,0c-0.4,0-0.8,0.1-1.2-0.1
		c-0.4-1-1-1.9-1.3-2.9c-0.4-1.6-1.3-2.4-3-2.1c0-0.4,0.1-0.8,0-1.2c-0.2-1.3,0.4-1.7,1.6-1.6C28.3,476.2,29.4,476.1,30.6,476.1z"/>
	<path class="st9" d="M418.1,483.9c-0.2-0.1-0.4-0.2-0.6-0.3c-0.9-0.3-1.8-0.2-2.7-0.2c-30.2,0-60.4,0-90.6,0
		c-0.6,0-1.1,0.1-1.7,0.1c-0.4,0-0.7,0-1.1-0.1c-11.6,0.1-23.2,0.1-34.8,0c-0.2,0-0.3,0.1-0.5,0.1c-0.9,0.1-1.9,0-2.8,0
		c-45.3,0-90.6,0-136,0c-0.8,0-1.5,0-2.3,0c-0.9,0-1.5-0.4-1.8-1.2c-0.1-0.2-0.3-0.4-0.4-0.5c-0.4-0.3-0.9-0.3-1.4-0.4
		c-1.6-0.2-3.3-0.4-4.9-0.6c-0.8-0.1-1.3-0.4-1.2-1.4c0.4-2.6,0.6-5.3,0.9-7.9c0.2-1.4,0.8-1.5,1.9-1c1.2,0.5,2.1,1.2,3.1,2.1
		c0.5,0.4,1.1,1.3,1.7,0.7c0.6-0.6-0.3-1.2-0.8-1.7c-1-1.1-2.1-1.9-3.5-2.4c-1.1-0.4-1.9-1-2.5-2c0,0,0,0,0,0
		c-0.1-0.1-0.2-0.3-0.4-0.4c0,0.1-0.1,0.1-0.1,0.2c-0.8,1.3-2.2,1.5-3.6,1.9c-1.3,0.3-2.4,0.9-3.4,1.8c-0.5,0.4-1.2,1-0.6,1.6
		c0.5,0.6,1.1-0.1,1.5-0.5c1.2-1,2.5-1.6,4-1.8c0.8-0.1,1.3-0.1,1.2,0.9c-0.2,2.7-0.4,5.4-0.7,8.1c-0.1,1.3-0.8,1.5-1.9,1.4
		c-1.9-0.3-3.7-0.4-5.5-1.1c0,0,0,0-0.1,0c-0.1,0-0.2-0.1-0.3-0.1c-1.1,2.3-0.6,3.5,1.8,4c1.9,0.3,3.8,0.5,5.7,0.6
		c-1.9-0.1-3.8-0.2-5.7-0.2c-4.1,0-3.7,0.3-3.7-3.5c0-0.6,0-1.2-0.2-1.8c-0.1-0.3-0.2-0.6-0.6-0.6c0,0,0,0,0,0c0,0-0.1,0-0.1,0
		c-0.5,0.5-0.5,1.2-0.5,1.8c0.1,1.5-0.7,1.9-2,1.9c-1.7,0-3.4-0.1-5,0c-0.1,0-0.1,0-0.2,0c0,0,0,0-0.1,0c-0.6,0-1.3,0-1.9,0
		c-2.2,0-4.4,0-6.4,0.8c0,0.9,0,1.4-0.6,1.8c0,0,0,0,0,0h-0.1c-0.2,0.1-0.6,0.1-1,0.1c-3.7,0-7.4,0-11.2,0c0,0,0,0,0,0H94
		c-8.8,0-17.6,0-26.5,0c0.5,0.5,1.1,0.3,1.7,0.3c23.7,0,47.3,0,70.9,0c48.8,0,97.6,0,146.4,0c0.6,0,1.3-0.2,1.8,0.3
		c0.3,0,0.5,0,0.8-0.1c0.3-0.1,0.6-0.1,0.9-0.1h27.6c0.3,0,0.6,0,0.9,0.1h0c0,0,0,0,0,0c2.6-0.5,5.2-0.3,7.7-0.3
		c38.8,0,77.7,0,116.5,0c0.7,0,1.5,0.3,2.2-0.3C436,483.9,427.1,483.9,418.1,483.9z M137.2,483.6
		C137.1,483.5,137.2,483.6,137.2,483.6L137.2,483.6z M137,483.7c0,0-0.1,0-0.2,0c-0.8-0.1-1.7-0.1-2.6-0.2
		C135.2,483.6,136.1,483.7,137,483.7z"/>
	<path class="st2" d="M474.5,402.7c-0.5,0.9-1.3,0.5-2.1,0.3c-0.4-0.1-0.8-0.1-1.1,0.4c-3.3,6.4-9.5,8.3-15.8,9.7
		c-2.1,0.5-4.3,0.6-6.3,1.6c-0.1,0.1-0.2,0.1-0.3,0.1c-0.1,0-0.2-0.1-0.2-0.1c4.8-6.8,11.3-10.8,19.8-12.6c0.1,0,0.1,0,0.2,0
		c-0.1,0-0.1,0-0.2-0.1c-0.9-0.4-1.6-0.7-2.2-1c-4.2-1.8-7.9-4.2-11.3-7.2c-0.8-0.7-1.6-1.4-2.6-1.8c-0.2-0.1-0.3-0.2-0.3-0.3
		c0-0.1,0-0.2,0-0.3c1.5-0.2,3.1,0,4.6,0.4c4.5,1.2,8.9,2.9,12.9,5.3c1.6,1,2.9,2.2,4.1,3.6C474.1,401.2,475,401.8,474.5,402.7z"/>
	<path class="st2" d="M450,339c-3.6-5.8-4.6-12-2.9-18.7c0.1-0.3,0.1-0.6,0.2-0.8c0.2-0.7,0.5-1.5,1.4-1.4c0.9,0.1,0.9,1,0.9,1.7
		c0.2,5.8,0.4,11.7,0.6,17.5c0,0.4,0.1,0.7,0.3,1.1c0.6-2.2,1.2-4.5,1.9-6.7c0.9-3.3,2.2-6.5,4.3-9.2c2-2.4,4.4-4,7.5-4.6
		c1.2-0.2,1.5,0.2,1.5,1.2c-0.1,2-0.5,3.9-1.4,5.6c-3.5,6.2-8,11.5-14,15.4C449.9,339.9,450.3,339.4,450,339z"/>
	<path class="st2" d="M487.2,365.5c-3.4,10.4-16.3,19-27.3,18.6c2.9-4.9,6.6-9.1,11.4-12.4C476,368.4,481.2,366.2,487.2,365.5z"/>
	<path class="st10" d="M43.2,219.7c-0.1,0-0.1,0-0.2,0c0.1-0.1,0.1-0.1,0.2-0.1c0,0,0,0,0,0c0.1,0,0.3,0,0.4,0.2
		C43.5,219.8,43.3,219.8,43.2,219.7C43.2,219.7,43.2,219.7,43.2,219.7z"/>
	<path class="st10" d="M43.6,240.2c-0.1,2.6-0.1,5.3,0,8c-0.1-2.9-0.1-5.8-0.1-8.7c0-0.5,0-0.9-0.3-1.1v-0.1
		C43.5,238.7,43.6,239.3,43.6,240.2z"/>
	<path class="st10" d="M56.5,321.6c0,0.1,0,0.1,0,0.2c0,0.1,0,0.1,0,0.2c-0.8,0.6-1.5,0.4-2.3,0.1c-2-0.9-4.2-1.5-5.7-3.1
		c-2.4-2.6-5.1-5.3-4.5-9.4c0-0.2,0.1-0.5,0-0.7c-1.9-2.7-0.9-5.6-0.6-8.5c0.1-1.3,0.4-2.5,0.4-3.8c0-5.8,0-11.7,0-17.5
		c0-2.1,0.3-4.2-0.8-6.2c-0.4-0.7-0.2-1.4-0.3-2.1c-0.2-5.6,0.2-11.2,0.7-16.7c0.1-1.5,0.5-3.2-1.4-4c0.7,0.1,1.3,0,1.5-0.5
		c0.1-0.1,0.1-0.3,0.1-0.5c0,0.3,0,0.5-0.1,0.7v0c0.1,1.3,0.2,2.6,0.3,4c0.2,2.2-0.2,4.5-0.2,6.7c0.1,4.8,0.1,9.7,0.3,14.5
		c0.3,7.8,0.3,15.7,0.2,23.6c0,3.8-0.2,7.5,0.2,11.3c0.6,5.7,6.4,11.6,12.2,12.1C56.4,321.7,56.5,321.6,56.5,321.6z"/>
	<path class="st2" d="M458.5,385.6c8-1.8,16-1.6,23.7,1.4c1.4,0.6,2.9,1.2,4,2.2c1.5,1.4,2.1,3.1,1.5,4.6c-0.8,1.9-2.3,2.6-4.2,2.7
		c-1.8,0.1-3.5-0.5-5.1-1.3c-4.8-2.3-9.6-4.7-14.5-7c-2-1-4.2-1.6-6.4-2C457.4,385.3,458.1,385.8,458.5,385.6z"/>
	<path class="st11" d="M454.5,343.1c0.4-0.4,0.7-0.8,1.1-1.1c3.4-2.9,6.5-6.1,9.1-9.8c4.5-6.3,10.8-10.4,18.3-12.5
		c2.5-0.7,5.1-0.9,7.8,0.3c-1.9,1.9-4,3.4-6,4.9c-6.9,5-14.3,9-22.2,12.2c-2.8,1.1-4.7,3.7-6.9,5.7c0,0,0,0.1,0,0.1
		c0,0,0.1,0.1,0.2,0.1c-0.1,0.7-0.5,0.8-1.1,0.8C454.6,343.8,454.3,343.5,454.5,343.1z"/>
	<path class="st2" d="M422.6,103.1c-1.1,0.8-2.1,0.7-3.3,0.1c-0.3-0.6-0.2-1.3-0.2-1.9c0-13.9,0-27.8,0-41.7c0-0.5,0-0.9,0-1.4
		c0-0.8-0.5-1.2-1.2-1.2c-0.6,0-1.2,0-1.8,0c-9.7,0-19.4,0-29.1,0c-1.1,0-2.1,0.1-3.1-0.6c-0.6,0.6-0.3,1.3-0.3,2
		c0,14.3,0,28.6,0,42.9c0,0.7,0.3,1.4-0.4,2c0-0.7,0.1-1.4,0.1-2.1c0-14.4,0-28.8,0-43.3c0-1.4,0.2-1.9,1.8-1.9c12,0.1,24,0.1,36,0
		c1.5,0,1.7,0.5,1.7,1.8c-0.1,5.7,0,11.5,0,17.2c0,1.4,0,2.8,0.5,4.2c-0.1,0.3-0.3,0.5-0.3,0.8c0,4.6-0.6,9.1-0.4,13.7
		c0,0.9,0.2,1.7,0.3,2.6c-0.1,1.6,0.4,3.2,0.2,4.8C423,101.7,423.2,102.5,422.6,103.1z"/>
	<path class="st2" d="M454.5,343.1c0.6,1.2,1,0.1,1.4-0.1c6.6-3.5,13.4-6.6,21.1-7c2.4-0.1,4.8,0.1,7.2,0.8c0.7,0.2,1.5,0.5,1.6,1.4
		c0.1,0.9-0.8,1.1-1.4,1.4c-9.4,4.4-19.2,6.6-29.6,5c-0.4-0.4-1.3,0.3-1.4-0.6C453.8,343.7,454.2,343.4,454.5,343.1z"/>
	<path class="st2" d="M451,356.1c4.1-1.9,7.8-4.6,12.2-5.9c6.7-1.9,14.2-2,20.2,0.2c-1.5,1.8-3.4,2.9-5.4,3.9
		c-5.8,2.9-12.1,3.1-18.4,2.4c-1.6-0.2-3.2-0.5-4.7-0.9c-1.4-0.4-2.7,0.3-3.9,0.6c-0.1-0.1-0.2-0.1-0.1-0.2
		C450.9,356.1,451,356.1,451,356.1z"/>
	<path class="st12" d="M115.4,481.7c-2.8,0.1-5.6,0.3-8.5,0.4c-0.3-5.9-0.6-11.8-0.9-17.7c0.1-0.5,0.2-1,0.9-1
		c1.8-0.1,3.6-0.2,5.5-0.4c0.8-0.1,1.2,0.2,1.2,1.1c0.1,1.3,0.2,2.6,0.4,3.9c0.7,1.2-0.1,1.7-1.1,2c-1.5,0.5-3,0.9-4,2.1
		c0.8-0.9,2-1.5,3.3-1.9c1.7-0.5,2.4-0.1,2.4,1.8c0,2.9,0.6,5.8,0.1,8.3c0,0.6,0.4,0.2,0.2,0.3c-0.1-0.7-0.3-1.5,0.2-2.1
		C116.4,479.2,116.5,479.8,115.4,481.7z"/>
	<path class="st2" d="M444.3,421.2c1.6-0.9,2.8-2,4.2-3.2c6.1-5.6,16.7-6.9,23.9-3c-4.1,3.1-8.7,4.9-13.7,5.8
		c-3.7,0.6-7.4,0.7-11.1-0.2c-1.4-0.3-2.1,0.8-3.3,1.1c-0.1-0.1-0.1-0.2-0.1-0.2C444.2,421.2,444.2,421.2,444.3,421.2z"/>
	<path class="st2" d="M451,356.1c0,0.1,0,0.2,0,0.3c0.4,0.5,0.4,0.5,0.8,0.4c7.1-0.4,13.5,1.9,19.2,6.1c0.4,0.3,0.8,0.6,1.1,0.9
		c0.4,0.4,0.7,0.8,0.6,1.4c-0.2,0.7-0.8,0.8-1.4,0.8c-9,0.6-16.9-1.9-23.7-7.8c-0.1-0.3-0.8,0-0.7-0.7
		C448.2,357.1,449.5,356.4,451,356.1z"/>
	<path class="st2" d="M432.6,302.5c1-1.4,2.1-2.9,3.1-4.3c3.2-3.1,6.7-5.5,10.9-7c1.1-0.4,2.1-0.8,3.3-0.6c1.9,0.3,2.6,1.9,1.5,3.5
		c-0.3,0.4-0.6,0.8-0.9,1.1c-5.5,4.7-11.6,8.2-18.5,10.4c-0.2,0.1-0.3,0-0.5,0c-0.2-0.4,0.1-0.6,0.3-0.8c0.2-0.5,0.3-1.1,0.5-1.6
		C432.2,302.9,432.3,302.6,432.6,302.5z"/>
	<path class="st2" d="M444.2,393.6c0.1-1-0.2-1.8-0.6-2.7c-3.8-8.7-3.2-17.4,0.8-25.9c0.1-0.2,0.2-0.3,0.3-0.4
		c1.5,1.8,2.6,5.3,2.8,8.5c0.4,5.1-0.5,10-1.9,14.9c-0.6,2-1.1,4-1,6.1C444.2,394.1,444,394,444.2,393.6z"/>
	<path class="st13" d="M52.3,414.2c1-0.8,1.5-2,2.2-2.9c2.2-2.7,4.8-4.7,7.6-5.1c-4.4,2.1-7.4,5.1-9.2,9.2
		c-2.6,4.1-3.6,8.6-4.6,13.3c-0.7,3.2-0.8,6.5-1.4,9.8c0-0.5,0-1.1,0-1.6c0-5.6-0.1-11.2,0-16.9c0.2-7.1-1.4-13.8-3.2-20.5
		c-1-3.8-2.4-7.5-4-11.1c-3.1-7.3-7.2-13.9-13.1-20c1.3,0.4,1.7,1.1,2.3,1.7c4.4,4.7,7.8,10,10.6,15.8c0.3,0.6,0.3,1.3,1,1.5
		c-0.1,1.1,0.5,1.9,0.9,2.8c2.5,6.1,5,15.7,5.7,22.2c0.9-2.7,0.6-5.3,0.9-7.9c0.6-5.9,1.2-11.8,2.1-17.6c0.1-0.7,0.1-1.3-0.2-1.9
		c0.7-0.2,0.6-0.8,0.7-1.3c0.7-4,1.4-7.9,2.2-11.9c0.7,0,0.5,0.4,0.4,0.7c-0.6,3.6-1.1,7.2-1.6,10.8c-0.1,0.6-0.1,1.3-0.2,1.9
		c-0.5,3.5-1,7.1-1.4,10.6c-0.5,4.1-0.9,8.3-1.4,12.4c-0.3,2.9-0.7,5.9-0.7,8.8c0,4.3-0.7,8.6-0.3,12.9
		C48,424.4,50.1,419.3,52.3,414.2z"/>
	<path class="st2" d="M434.3,295.7c-1.2,1.4-1.7,3.1-2.8,5.1c0-1.3,0-2.1,0-2.9c0.5-3.6,0.6-7.3,1.8-10.8c1.3-4,3.4-7.5,6.9-10
		c0.5-0.4,1.1-1,1.7-0.8c0.6,0.3,0.3,1.2,0.3,1.8c0,3.3-1.1,6.3-2.7,9.1C437.8,290,436,292.8,434.3,295.7z"/>
	<path class="st14" d="M344.8,210.5c-0.1,0.1-0.1,0.1-0.2,0.2c-0.7,0.5-1.5,0.4-2.3,0.4c-2.9,0-5.8,0-8.7,0c-1.4,0-2.1,0.6-2,2
		c0,0.7,0,1.4,0,2.1c0,34.3,0,68.7,0,103c0,1.2,0.2,2.4-0.4,3.5c-4,0.8-8,0.8-12.1,0c0,0,0,0-0.1,0c-7.7-0.1-15.3-0.1-23-0.2
		c-0.6,0-1.1,0-1.7-0.1c0,0-0.1,0-0.1,0c-0.3,0-0.7-0.1-1-0.2H319c3.1,0,6.3-0.1,9.4,0c1.7,0.1,2-0.5,2-2.1
		c0.1-35.5,0.2-70.9,0.3-106.4c0-0.4,0-0.7,0-1.1c-0.2-1.3,0.4-1.6,1.6-1.6c4.2,0.1,8.4,0,12.6,0
		C345.1,210.3,345.1,210.4,344.8,210.5z"/>
	<path class="st15" d="M255.9,169.1c-0.5,3.6-0.1,7.2-0.2,10.8v21.6h-0.4V180c-0.1-0.1-0.1-0.2-0.2-0.2h0c-0.4-0.8-0.3-1.6-0.3-2.4
		c-0.1-2.5,0.3-5.1-0.3-7.6c0,0,0,0,0-0.1c0.6-3.7,0.2-7.4,0.3-11.1c0-2,0.1-4,0-6c0-0.2,0-0.3,0-0.5c0.1-0.1,0.2-0.1,0.4-0.1
		c0.1-0.7,0.1-1.4,0.2-2c0,0,0,0,0,0v-0.4c0-0.4,0-0.8,0-1.2c-0.2-0.4-0.6-0.6-1.5-0.6c-2.4,0.1-4.7,0-7.1,0
		c-2.4,0.1-4.8-0.3-7.2,0.2c0.1,0.1,0.2,0.3,0.2,0.4c-0.1,0-0.2,0-0.3,0c0,0-0.1,0-0.1,0c-3.5-0.2-7.1,0-10.6-0.1h-0.1
		c-6.1,0.1-12.1,0-18.2,0c-0.1,0-0.3,0-0.4,0c-1.7,0-3.4-0.1-5.1,0c0,0,0,0,0,0c-0.4,0-0.8,0-1.2,0.1c-1.2-0.1-2.4,0-3.6,0H200
		c-9,0-18,0-26.9,0c-0.9,0-1.7,0.1-2.6-0.1c0,0,0,0,0,0c-0.1,0-0.2,0-0.3-0.1c-0.2-0.1-0.3-0.1-0.5-0.2c-0.1,0-0.1-0.1-0.2-0.1h-5.3
		v-0.2c1.7-0.1,3.5-0.2,5.2-0.2h0.2c7.4,0,14.9,0,22.3,0c5.5,0,11.1,0,16.6,0c0.7,0,1.4,0.1,2.1-0.2c2,0.4,4.1,0.2,6.2,0.2
		c3.5,0.1,7.1,0,10.6,0c0.9,0,1.4-0.3,1.6-1.1c0.2,0.4-0.1,1.1,0.8,1.1c3.3-0.1,6.6,0.3,9.9-0.2c0.1,0,0.2-0.1,0.3-0.1
		c0,0.1-0.1,0.1-0.1,0.2c0.1,0,0.2,0.1,0.3,0.1c4.8,0,9.6,0,14.4,0c0.2,0,0.4,0,0.6-0.1c0-0.1-0.1-0.3-0.1-0.4c0.2,0,0.3,0,0.5,0
		c0.4,0.6,0.2,1.3,0.2,1.9c0,6.2,0,12.5,0,18.7C255.7,167.9,255.6,168.5,255.9,169.1L255.9,169.1z"/>
	<path class="st16" d="M458.5,385.6C458.4,385.6,458.4,385.6,458.5,385.6c-0.4,0.2-0.7,0.4-1,0.6c-2.9,1-4.9,3.3-7.6,5.2
		c0.9-0.1,1.6-0.1,2.2-0.1c0.1,0.1,0.1,0.2,0.2,0.3c0.1,0.1,0.1,0.2,0.2,0.3c-2.3-0.1-4.2,0.9-5.8,2.5c-3.7,3.7-6.9,7.8-9.7,12.2
		c-0.5-0.7,0-1,0.3-1.3c1.4-2.3,3-4.5,4.8-6.6c1.2-1.5,1.9-3.1,2-5c0.1,0,0.2-0.1,0.2-0.1c0.1,0.1,0.2,0.3,0.4,0.4
		c-0.1,0.6-0.1,1.1-0.2,1.9c4.5-4.6,9.2-8.5,14.7-11.6C459.3,385.1,458.1,384.9,458.5,385.6z"/>
	<path class="st17" d="M371,83.8c-17.5,0-35,0-52.5,0c-1.8-0.4-3.6,0.2-5.4-0.3c2.4-0.3,4.8,0,7.3,0c15.3,0,30.7,0,46,0
		C368,83.7,369.6,83,371,83.8z"/>
	<path class="st18" d="M449.2,414.7c-1.6,1.9-3.2,3.7-4.8,5.6c-0.2,0.2-0.9,0.5-0.2,0.9c0,0.1,0,0.2,0,0.4c-3.3,2.3-5.3,5.7-7.8,8.7
		c-0.4,0.4-0.7,0.9-1.1,1.3c0-1.2,1-1.9,1.6-2.8c2-2.9,4.6-5.3,6-8.7c0.4-1.1,0.7-2.1,0.6-3.2c0.2,0,0.3,0.1,0.4,0.1
		c0.2,0.1,0.2,0.4,0.2,0.6c0,0.2,0,0.4,0,0.6c0,0,0,0,0,0.1c0.1,0.5-0.5,0.8-0.2,1.4c0,0,0,0,0,0c0,0,0,0,0,0c1.6-1.7,3.1-3.3,4.6-5
		c0.1,0,0.2,0,0.3,0C449.1,414.7,449.2,414.7,449.2,414.7z"/>
	<path class="st9" d="M29.9,483.9c11.9,0,23.9,0,35.8,0c0.5,0,1,0,1.4,0c-0.5,0.5-1.1,0.3-1.7,0.3c-11.3,0-22.6,0-33.9,0
		C31,484.2,30.4,484.4,29.9,483.9z"/>
	<path class="st19" d="M169.7,111.3c-0.1,0.2-0.2,0.3-0.3,0.4c-0.3-0.4-0.2-0.8-0.2-1.2c0-8.3-0.1-16.7-0.1-25
		c0-0.3,0.1-0.6,0.1-0.9c0.4,1.1-0.1,2.3,0.6,3.3c-0.2,0.2-0.3,0.4-0.3,0.7c0,0,0,0,0,0c0,0.4,0,0.8,0,1.2c-0.1,3.7,0,7.3,0.1,11
		c0.1,2.9,0.2,5.9,0.2,8.8c0,0,0,0,0,0.1C170,110.3,170,110.8,169.7,111.3z"/>
	<path class="st20" d="M43.6,201.9c0,6,0,11.9,0,17.9c-0.1,0-0.3,0-0.5,0c0,0,0,0,0,0c-0.1,0-0.1,0-0.2,0c0-4.1,0-8.3,0-12.4
		c0.7-1.7,0.1-3.5,0.3-5.2c0.1-1.1-0.2-2.2,0.1-3.3c0.1,0.1,0.1,0.3,0.1,0.4c0,0,0,0,0,0C43.7,200.1,43.6,201,43.6,201.9z"/>
	<path class="st21" d="M453.5,344c0.5,0.2,0.9,0.4,1.4,0.6c-1.1-0.1-1.9,0.3-2.6,1.1c-3.3,3.2-6.7,6.3-10,9.5
		c-0.3,0.3-0.6,0.9-1.4,0.9c1.8-2.7,4.8-4.3,6.2-7.2l0.1,0.1c0.4,0.8,0.6,0,0.8-0.1C449.8,347.3,451.5,345.5,453.5,344z"/>
	<path class="st22" d="M289.2,484.6c0.5-0.4,1-0.3,1.5-0.3c8.8,0,17.5,0,26.3,0c0.5,0,1.1-0.1,1.5,0.3
		C308.7,484.6,298.9,484.6,289.2,484.6z"/>
	<path class="st23" d="M447.4,358.2c-0.8-0.2-1.5,0.2-2.2,0.5c-3.5,1.5-7.1,2.7-10.3,5c-0.9,0.1-1.1,1.5-2.2,1.2
		c1.5-2.1,3.7-3,5.9-4c2.7-1.2,5.3-2.5,8.1-3.4c0.2,0.2,0.3,0.3,0.5,0.5C447.3,358.1,447.4,358.2,447.4,358.2z"/>
	<path class="st24" d="M430,297.5c0,1.8,1,3.3,1.1,5.3c-1-1-1.9-1.8-2.7-2.7c0.5-1.8,0.6-3.7,0.7-5.5
		C429.4,295.5,429.7,296.5,430,297.5z"/>
	<path class="st25" d="M366.5,79.5c-0.6-0.5-1.4-0.3-2.1-0.3c-5.4,0-10.9,0-16.3-0.3c7,0,13.9,0,20.9,0
		C368.3,79.5,367.1,78.5,366.5,79.5z"/>
	<path class="st21" d="M450,339c0.4,0.3,0.2,0.8,0.3,1.2c-0.7,2.5-1.3,5-2.4,7.3c-0.2,0.5-0.3,1.1-0.8,1.5c0,0-0.1-0.1-0.1-0.1
		c0.9-2.9,1.8-5.7,2.6-8.6C449.8,339.9,449.9,339.5,450,339z"/>
	<path class="st26" d="M431.8,304.8c-0.1,0.3-0.2,0.5-0.3,0.8c0,3.8,0,7.6-0.1,11.4l-0.1,0l-0.1,0c0-4.1,0-8.1,0.1-12.2
		C431.3,303.8,431.6,305.2,431.8,304.8z"/>
	<path class="st27" d="M440.9,356.6c-1.2,1.2-2.3,2.5-3.5,3.7c-0.1-0.1-0.2-0.2-0.3-0.3c1.1-1.3,2.3-2.5,3.4-3.8
		C440.6,356.4,440.7,356.5,440.9,356.6z"/>
	<path class="st28" d="M434.7,432.2c-0.2,1.6-1.3,2.6-2.2,3.8C432.9,434.6,433.6,433.3,434.7,432.2z"/>
	<path class="st6" d="M221.6,282.9c0-0.5-0.1-1.1-0.1-1.6c0.1-15.7,0.1-31.5,0.1-47.2c0-1.4,0.2-2,1.9-2c22.1,0.2,44.3,0.3,66.4,0.4
		c1.3,0,1.7,0.3,1.7,1.7c-0.1,16.5-0.2,32.9-0.3,49.4c0,0.5,0.6,1.6-0.8,1.5c-0.9-0.3-1.5-1-2.1-1.6c-5.2-6.2-10.6-12.3-15.8-18.5
		c-0.3-0.3-0.5-0.6-0.8-0.9c-1.3-1.3-1.4-1.3-2.7-0.1c-2.5,2.5-5,5.1-7.4,7.7c-1.5,1.6-1.8,1.5-3.1-0.2c-4.2-5.6-8.2-11.3-12.4-16.9
		c-1.2-1.6-1.3-1.6-2.5,0c-6.8,9-13.6,18-20.4,27C222.9,282.1,222.7,283.1,221.6,282.9z"/>
	<path class="st29" d="M221.6,282.9c3.1-3.4,5.6-7.2,8.4-10.9c4.8-6.2,9.5-12.5,14.1-18.7c0.8-1.1,1.2-0.9,1.9,0
		c4.4,6,8.9,12,13.2,18.1c0.8,1.1,1.1,1,1.9,0.1c2.7-2.9,5.5-5.7,8.2-8.6c0.9-0.9,1.4-0.9,2.2,0c3.2,3.7,6.4,7.4,9.6,11.1
		c3.1,3.6,6.2,7.2,9.3,10.9c-0.9,0-1.8,0.1-2.7,0.1c-22,0.1-44.1-0.2-66.1-0.4c-0.3,0-0.6,0-1.1,0C221,284,221.3,283.5,221.6,282.9z
		"/>
	<path class="st2" d="M314.1,450.4c0,0.1,0,0.2,0,0.4v0.1c0.2,0,0.3,0,0.5-0.1C314.4,450.7,314.3,450.6,314.1,450.4z M330.6,412
		c-3.4,0-6.9-0.1-10.3,0.1c-0.3,0.1-0.6,0.1-0.8,0.2c-0.2,0.1-0.3,0.3-0.3,0.6c0,0.3,0.1,0.4,0.3,0.5c0.2,0.2,0.6,0.2,0.9,0.2
		c0.7,0.1,1.4,0.1,2.1,0.1c1.3-0.1,1.7,0.4,1.6,1.8c-0.3,4.4-0.7,8.8-1.1,13.2c-0.1,1.3-0.6,1.8-1.9,1.8c-1.7,0-3.5,0.2-5.1-0.6
		c-0.2-0.1-0.3-0.2-0.5-0.3c-0.3,0.9-1.5,0.9-1.9,1.7c-0.1,0.4-0.4,0.7-0.8,0.9c-1.7,1.2-3.6,2.1-5.6,2.5c-0.2,0-0.4,0.1-0.6,0.2
		c-0.4,0.2-0.5,0.4-0.2,0.7c0,0,0,0,0.1,0.1c0,0,0.1-0.1,0.1-0.1c2.4,0,4.8,0,7.3,0c1,0,1.3,0.3,1.3,1.3c-0.2,4.7-0.3,9.3-0.4,14
		c0.1,3.7,0.1,3.7-3.5,3.7c-1.4,0-2.8-0.1-4.2,0c-1.3,0.1-2-0.3-1.8-1.7c0.1-1.1,0-2.2,0-3.3c-0.1-4.6-0.2-9.1-0.3-13.7
		c0.1,0.1,0.2,0.1,0.2,0.1c0,0,0-0.1,0-0.1c0,0,0,0,0,0c-0.2-0.3-0.4-0.5-0.6-0.5c0,0-0.1,0-0.1,0c-0.2,0-0.3,0.2-0.5,0.4
		c0,0,0,0.1,0,0.1c0,0.1-0.1,0.2-0.1,0.2c0.1-0.1,0.2-0.1,0.3-0.2c0.5,4.5,0.3,8.9,0.5,13.4c0,0.7-0.4,0.9-0.8,1.2
		c-1.1,0.7-2.2,1.4-2.7,2.5c-1,2.2-2.9,1.7-4.7,1.8c-0.6,0-0.7-0.3-0.8-0.9c-0.4-6-0.9-12-1.3-18c0.1,0.1,0.2,0.1,0.2,0.2
		c0-0.1,0-0.1-0.1-0.2c0-0.1,0-0.1,0-0.2c0,0,0,0,0,0c-0.4-0.5-0.8-0.5-1.1,0c0,0-0.1,0.1-0.1,0.2v0.2c0.1-0.1,0.1-0.1,0.2-0.2
		c0.7,3.9,0.7,7.9,1.1,11.8c0.2,2,0.3,4,0.4,6c0.1,0.8-0.1,1.2-1,1.1c-2.3,0-4.6,0-6.9,0c-0.6,0-1,0-1.1-0.8
		c-0.9-6.1-2.1-12.1-2.7-18.1c0.1,0.1,0.2,0.2,0.3,0.2c0-0.1,0-0.2,0-0.2c0,0,0-0.1,0-0.1c-0.1-0.1-0.1-0.2-0.2-0.2
		c-0.3-0.3-0.6-0.3-0.9,0c-0.1,0.1-0.1,0.1-0.2,0.2c0,0,0,0.1,0,0.1c0,0,0,0.1,0,0.1c0.1,0,0.2-0.1,0.2-0.1
		c0.9,5.8,1.9,11.6,2.8,17.5c0.2,1,0.1,1.4-1.2,1.5c-4.5,0-4.5,0.1-5.2-4.3c-0.8-4.9-1.8-9.7-2.3-14.6c0.1,0,0.2,0.1,0.3,0.1
		c0,0,0-0.1,0-0.1c0,0,0,0,0,0c-0.1-0.2-0.2-0.4-0.4-0.4c-0.1-0.1-0.2-0.1-0.4,0c-0.1,0-0.1,0.1-0.2,0.1c0,0.2,0,0.5,0,0.7
		c2.3,13.8,4.7,27.7,7,41.5c0.4,2.5,1.4,4.5,3.5,5.8c0.2,0.1,0.3,0.2,0.5,0.3c0,0,0,0,0,0h0c0.3,0,0.7,0.1,1,0.2c0,0,0,0,0,0
		c0.2,0,0.4,0,0.6,0c10.4,0,20.8,0,31.2,0c0.7,0,1.3,0,1.9-0.3c0.4,0,0.8-0.1,1.1-0.2c1.2-0.5,1.8-1.7,2.4-2.9
		c0.9-1.7,1-3.6,1.2-5.5c1.6-13.8,3.2-27.6,4.8-41.4c0.7-6.2,1.5-12.5,2.2-18.7C333.5,412.6,333,412,330.6,412z M316.9,435.5
		c1,0.1,2,0,3,0c3.1,0,3.1,0,2.9,3c-0.4,4.9-0.9,9.9-1.3,14.8c-0.1,0.9-0.4,1.2-1.3,1.2c-2.9,0-5-2-4.9-4.9c0-2,0-4,0-6h0.4
		c0-2.3,0-4.6,0-6.9C315.7,435.8,315.9,435.4,316.9,435.5z M314.6,466.6c0-2.2,0.3-4.3,0.4-6.5c0-0.7,0.3-1.1,1.1-1
		c1.2,0.2,2.8-0.7,3.5,1.1c1.3,1.7,0.8,3.4,0.5,5.2c0,1.3-0.1,2.7,0,4c0.1,1.6-0.1,3.2-0.7,4.7c-0.3,0.5-0.7,1.1-1,1.6
		c-0.8,0-1.5,0-2.3,0.1c-1.6,0.2-2-0.6-1.7-2C314.9,471.4,314.7,469,314.6,466.6z M306.6,459.1c2.2,0,4.4,0,6.6,0
		c1,0,1.2,0.5,1.2,1.3c0,4.8-0.6,9.5-0.4,14.3c0,0.7-0.3,1.1-1.1,1.1c-2,0-4,0-6,0c-0.9,0-1-0.5-1.1-1.2c-0.4-2.9-0.3-5.8-0.3-8.2
		c0-2.3,0-4.1,0-5.9C305.4,459.5,305.6,459,306.6,459.1z M295.9,459.5c0.2-0.9,1.1-0.3,1.6-0.4c1.9,0,3.9,0,5.8,0
		c1,0,1.4,0.3,1.3,1.3c-0.3,4.6,0.5,9.2,0.4,13.8c0,1.2-0.3,1.7-1.6,1.6c-1.6-0.1-3.2-0.1-4.8,0c-1,0.1-1.4-0.4-1.6-1.3
		c-0.5-1.7-0.3-3.4-0.4-5.1c-0.1-2.7-1.1-5.5-0.2-8.2C295.5,461,295.8,460,295.9,459.5z M287.6,459.1c2.2,0,4.5,0,6.7,0
		c1.2,0,1.1,0.7,1.2,1.5c0,0.7,0.2,1.4-0.3,2c0.5,0.6,0.7,1.3,0.7,1.9c0.1,3.1,0.3,6.2,0.7,9.3c0.2,1.4-0.2,2.1-1.8,1.9
		c-1-0.1-2-0.1-3,0c-1.8,0.2-2.8-0.2-2.9-2.3c-0.1-2.4-1.1-4.8-0.8-7.3c-1-2.1-0.9-4.4-1.3-6.6C286.6,459,287.2,459.1,287.6,459.1z
		 M282.3,471.8c-0.6-3.8-1.2-7.6-1.9-11.3c-0.2-1.1,0-1.4,1.2-1.4c4.5,0,4.5-0.1,5.2,4.3c0.3,1.8,0.5,3.4-0.5,5.2
		c-1.4,2.4-0.3,4.8,1.2,7.1C282.9,475.8,282.9,475.8,282.3,471.8z M326.7,460.3c-0.6,4.9-1.2,9.7-1.7,14.6c-0.1,0.6-0.3,0.8-0.8,0.8
		c-3.7,0.5-4.1,0.1-3.7-3.6c0.4-3.4,0.6-6.8,0.9-10.2c0.2-2.8,0.2-2.8,3-2.8c0.4,0,0.8,0,1.2,0C326.5,459,326.8,459.3,326.7,460.3z
		 M329.2,438.5c-0.6,5-1.2,10-1.7,15c-0.1,0.8-0.3,1.1-1.1,1.1c-4.5,0.2-4.4,0.3-4-4.2c0.4-4.2,0.9-8.5,1-12.7
		c0.1-1.9,0.8-2.3,2.4-2.1c0.3,0,0.6,0,0.9,0C329.5,435.5,329.6,435.5,329.2,438.5z M332,415.6c-0.5,4.5-1.2,8.9-1.6,13.4
		c-0.1,1.7-0.7,2.3-2.3,2c-0.3-0.1-0.7,0-1.1,0c-2.9,0-3,0-2.8-2.9c0.3-4.5,0.8-9.1,1.1-13.6c0.1-0.9,0.4-1.3,1.3-1.2
		c1.1,0.1,2.1,0,3.2,0C332.3,413.3,332.3,413.3,332,415.6z M314.1,450.8L314.1,450.8c0.2,0.1,0.3,0.1,0.5,0
		c-0.2-0.1-0.3-0.2-0.5-0.3C314.1,450.6,314.1,450.7,314.1,450.8z M305.6,449.3C305.6,449.3,305.6,449.2,305.6,449.3
		c-0.2,0-0.3,0-0.5,0.1c0.2,0.1,0.3,0.2,0.5,0.2C305.6,449.5,305.6,449.4,305.6,449.3z"/>
	<path class="st6" d="M255.6,329.1c-5,0-10.1,0.1-15.1,0c-4.1-0.1-7-3-7.4-7.2c-0.3-3.6,2.2-7.1,5.9-8c0.5-0.1,0.9-0.2,1.4-0.2
		c10.1,0,20.2-0.1,30.3,0c5.9,0.1,9.3,6.6,6.2,11.6c-1.4,2.3-3.5,3.7-6.3,3.7C265.7,329.2,260.7,329.1,255.6,329.1z"/>
	<path class="st29" d="M220.4,374.9c-3.4,0-6.7,0-10.1,0c-1.1,0-1.4-0.3-1.4-1.4c0-6.7,0-13.4,0-20.1c0-1.1,0.4-1.4,1.4-1.4
		c6.7,0,13.4,0,20.1,0c1.1,0,1.4,0.3,1.4,1.4c0,6.7,0,13.4,0,20.1c0,1.1-0.4,1.4-1.5,1.4C227,374.8,223.7,374.9,220.4,374.9z"/>
	<path class="st29" d="M208.9,400.5c0-3.3,0-6.6,0-9.9c0-1.1,0.2-1.6,1.4-1.6c6.7,0.1,13.4,0,20.1,0c1.1,0,1.4,0.3,1.4,1.4
		c0,6.7,0,13.4,0,20.1c0,1.1-0.4,1.4-1.5,1.4c-6.7,0-13.4,0-20.1,0c-1.1,0-1.4-0.3-1.4-1.4C208.9,407.1,208.9,403.8,208.9,400.5z"/>
	<ellipse class="st30" cx="255.3" cy="336.9" rx="76.5" ry="0.2"/>
	<path class="st31" d="M297.9,295c-28.1,0.4-56.3,0.4-84.4,0C241.6,294.6,269.8,294.6,297.9,295z"/>
	<path class="st32" d="M314,431.6c0,0.2-0.3,0.3-0.5,0.5c-1.8,1.4-3.9,2.4-6.1,2.9c-0.4,0.1-0.9,0-0.8,0.6c0,0-0.1,0.1-0.1,0.1
		c-0.4,0.4-0.9,0.5-1.4,0.2v0c-0.1,0-0.2-0.1-0.2-0.1c-0.3-0.6-0.5-0.5-0.8,0c-0.1,0.1-0.2,0.2-0.3,0.2c0-0.1,0-0.2,0.1-0.2
		c-3.1,0-6.3,0-9.4,0c0,0.1,0,0.1,0.1,0.2c-0.1-0.1-0.2-0.1-0.2-0.2c0-0.1-0.1-0.1-0.1-0.2c-0.2-0.3-0.4-0.2-0.6,0
		c0,0-0.1,0.1-0.1,0.2c-0.1,0.1-0.1,0.1-0.2,0.2v-0.2h-9.8c0,0.1,0,0.2,0,0.2c-0.1-0.1-0.2-0.1-0.3-0.2c-0.1-0.1-0.2-0.3-0.3-0.3
		c-0.1-0.1-0.2-0.1-0.3,0c-0.1,0-0.2,0.2-0.3,0.3c-0.1,0-0.2,0.1-0.2,0.1c0,0,0-0.1,0-0.1c-1.8,0-3.6,0-5.4,0c0,0,0,0.1,0,0.1
		c-0.1,0-0.2-0.1-0.3-0.1c-0.1-0.4-0.4-0.3-0.7-0.4c-0.1,0-0.1-0.1-0.2-0.1c0,0,0,0,0,0c-0.6-0.3-1.3-0.1-1.9-0.1c-3.3,0-6.7,0-10,0
		c-0.2,0-0.4,0-0.5,0c-5.4,0-10.8,0-16.1,0h-0.6c-12.7,0-25.5,0-38.2,0c-0.4,0-0.8,0-1.2,0.1c-0.1,0-0.2,0-0.4,0
		c-0.5,0-0.9-0.1-1.4-0.4c30.2,0,60.5,0.1,90.7,0.1c2.7,0,5.4-0.1,8.2-0.1c3.6,0,6.7-1.1,9.4-3.4C313.8,431.4,314,431.5,314,431.6z"
		/>
	<path class="st33" d="M278.2,219.6c-15.1,0-30.2,0-45.3,0c0-0.1,0-0.2,0-0.4c15.1,0,30.2,0,45.3,0
		C278.2,219.3,278.2,219.5,278.2,219.6z"/>
	<path class="st34" d="M221.6,300.7c25.3-0.1,50.5-0.1,75.8,0.1c0.3,0,0.6,0,0.9,0.2c-2.5,0-5.1,0-7.6,0c-22.5,0.2-45,0.2-67.4,0
		c-0.5,0-1.1,0-1.6-0.1c-0.1-0.1-0.2-0.1-0.1-0.2C221.5,300.8,221.6,300.7,221.6,300.7z"/>
	<path class="st35" d="M299.6,403.6c-18.8,0-37.5,0-56.3,0C262.1,403,280.9,403,299.6,403.6z"/>
	<path class="st36" d="M243.6,361.7c18.8-0.5,37.6-0.5,56.4,0C281.3,361.7,262.5,361.7,243.6,361.7z"/>
	<path class="st36" d="M243.6,398.6c18.8-0.5,37.6-0.5,56.3,0C281.2,398.6,262.4,398.6,243.6,398.6z"/>
	<path class="st37" d="M299.7,366.6c-18.7,0-37.3,0-56,0C262.3,366.2,281,366.2,299.7,366.6z"/>
	<path class="st38" d="M243.3,408.1c10.5-0.2,21-0.2,31.5,0C264.3,408.4,253.8,408.4,243.3,408.1z"/>
	<path class="st39" d="M243.3,371.2c10.5-0.2,21-0.2,31.5,0C264.3,371.4,253.8,371.4,243.3,371.2z"/>
	<path class="st40" d="M273.7,354.4c-10.3,0.4-20.5,0.4-30.8,0C253.2,354.4,263.5,354.4,273.7,354.4z"/>
	<path class="st41" d="M243,391.3c10.3,0,20.5,0,30.8,0C263.5,391.7,253.2,391.7,243,391.3z"/>
	<path class="st15" d="M255.5,204.3c0.9,0.2,1.6,0.6,1.6,1.7c0,1-0.6,1.6-1.7,1.6c-1,0-1.5-0.6-1.6-1.6
		C253.8,205,254.5,204.5,255.5,204.3z"/>
	<path class="st42" d="M209.4,192.8c2.1,1.6,3,4.4,2.3,6.8c-0.3,1.1-1.3,0.5-1.9,0.6c-0.5,0.1-1.3,0.2-1.3-0.7
		c0-0.7-0.2-1.5,0.2-2.3c0.3,0.5,0.2,1,0.2,1.4c-0.1,1.1,0.4,1.3,1.3,1.3c1,0,1.2-0.4,1.2-1.2C211.4,195.6,211.4,195.6,209.4,192.8z
		"/>
	<path class="st35" d="M221.6,300.7c0,0.1,0,0.2,0,0.3c-3.3,0.2-6.6,0-9.9-0.1C215.1,300.7,218.3,300.6,221.6,300.7z"/>
	<path class="st43" d="M306.4,195.5c-3,0-6.1,0-9.1,0c0-0.1,0-0.1,0-0.2c3.1,0,6.1,0,9.2,0C306.4,195.4,306.4,195.4,306.4,195.5z"/>
	<ellipse class="st44" cx="301.9" cy="192.6" rx="6.5" ry="0.1"/>
	<ellipse class="st45" cx="301.9" cy="198.2" rx="6.5" ry="0.1"/>
	<path class="st46" d="M204.2,199.9c2.7,0.4,1.4-1.8,1.9-2.8C206.8,199.8,206.5,200.2,204.2,199.9z"/>
	<path class="st6" d="M169.9,182.6c-0.1,2.9,0.7,5.4,2.2,7.9c1.9,3,1.8,6.1-0.7,8.9c-0.5,0.6-0.9,1.2-1.4,1.9
		c-0.3,1.1-1.1,1.9-1.9,2.7c-5.8,5.5-10.8,11.7-16.1,17.7c-1.8,2-3.4,4.1-5.4,5.9c-1,1-1.6,2.1-1.8,3.5c-1,8-1.9,16.1-3,24.1
		c-0.1,0.7,0,1.4,0.2,2.1c0.1,0.3,0.2,0.5,0.2,0.8c0.5,1.5,1,3,1.5,4.5c0.1,0.2,0.1,0.3,0.2,0.5c3.5,10.3,6.9,20.7,10.3,31
		c0.4,1.3,1,2.5,1.4,3.8c0.2,0.9,0.6,1.9-0.9,2.1c-7.2,1.8-14.4,3.5-21.7,5.2c-11.2,2.6-22.5,2.3-33.8,0.7c-2.9-0.4-5.8-0.8-8.8-1.2
		c-1-1.2,0.1-2.4,0-3.6c0-1.4,0.7-2.3,1.8-3.1c2.5-1.8,4.9-3.8,7.3-5.9c0.7-0.6,1.7-1.4,1-2.3c-0.6-0.8-1.6,0.1-2.3,0.5
		c-0.8,0.4-1.4,1.4-2.5,1c0-0.9,0.5-1.6,0.8-2.4c3.6-4.9,6.9-10,9.9-15.3c1.9-2,2.7-4.5,3.5-7.1c0.1-0.3,0.2-0.7,0.2-1
		c0-1-0.2-2-1.2-2.3c-1.1-0.3-1.6,0.6-2,1.4c-1.8,3.7-3.2,7.5-4.8,11.2c-2,4.8-4.1,9.7-6.2,14.5c-0.2,0.4-0.3,0.9-0.8,1.1
		c-1,0-1.4-0.7-1.7-1.5c-0.5-1.3-0.8-2.6-0.7-4c0.6-4.7,1.6-9.3,2.3-13.9c0.2-1,0.4-2.1,0.3-3.2c0-0.2-0.1-0.4-0.1-0.5
		c-1-4.2-2.2-8.3-3.4-12.5c-1.4-5-2.7-9.9-4-14.9c-0.5-1.8-0.7-1.9-1.9-0.5c-2.7,3-5.4,5.9-8,9c-1.7,1.8-3.3,3.7-5.1,5.4
		c-1.3,1.2-1.2,2.1-0.4,3.5c2.6,4.5,5.2,9,7.7,13.6c2.5,4.5,5.2,9,7.7,13.6c0.7,1.2,0.7,2.2-0.4,3.1c-2.6,3.1-5.3,6.1-7.9,9.2
		c-0.6,0.8-1.2,1.6-2.3,1.9c-0.8-0.1-1.4-0.7-1.8-1.3c-3-3.4-6-6.8-9-10.1c-0.2-0.3-0.4-0.5-0.4-0.9c-3.7-4.5-7.7-8.7-11.6-13.1
		c-2-2.3-4.1-4.5-5.3-7.5c-2-5.2-1.9-10.2,1.1-15.1c3.4-5.4,7.1-10.6,10.7-15.9c0.3-0.4,0.6-0.9,0.8-1.4c0.6-2.1,2.2-3.6,3.4-5.3
		c3.5-5.2,7.2-10.2,10.8-15.3c0.7-1,0.7-1.6-0.2-2.3c1.9,0.2,3.1-0.6,3.9-2.2c0.7-1.5,2-2.3,3.5-3.1c3.9-1.9,7.6-3.9,11.4-5.9
		c0.4,0.1,0.5,0.5,0.5,0.8c0.1,1.6,0.6,3.1,1.2,4.6c1,2.6,0.6,5-0.5,7.4c-0.8,1.8-2,3.4-2.7,5.2c-1,2.6-1.2,5.1,0.8,7.3
		c1.2,1.6,2.9,2.3,4.8,2.9c1,0.3,2,0.5,2.9,0.8c2.4,0.8,4.3,2.2,5.3,4.6c0.8,1.7,1.3,3.5,2.2,5.2c2,3.8,5.3,5.1,9.2,3.2
		c1.9-0.9,3.7-1.4,5.8-1.1c1.7,0.3,3.3-0.6,4.3-2.1c2.3-3.3,3.9-7,4.5-11.1c0.4-2.6-0.7-4.9-1.7-7.1c-1.2-2.6-2.8-5.1-3.3-8
		c-0.1-0.7-0.2-1.4-0.2-2.1c0.5-2.3,0-4.4-0.9-6.5c-0.7-1.5-0.4-2.1,1.2-2.7c2.6-1,5.3-1.7,8.1-1.4c3.1,0.5,5.7-0.6,8-2.7
		c2-1.9,4.4-3.4,6.6-5c3.5-2.9,7.3-2.7,11.3-1.4c0.1,0,0.1,0.1,0.1,0.1c0.4,0,0-0.1,0-0.2c0.1-0.6,0.4-1.3-0.3-1.6
		c-1.6-0.8-3.3-1.9-5.3-1.5c-2,0.4-3.5,1.5-4.6,3.2c-0.3,0.4-0.6,0.9-1.2,1c-1.7-1-1.8-3-2.8-4.4c-0.1-0.2-0.2-0.3-0.3-0.5
		c-2.3-4.4-2.6-4.6-7.8-3.9c-2.1,0.3-4.2,0.5-6.3,0c-0.2-0.1-0.3-0.3-0.3-0.5c0.2-0.4,0.5-0.6,0.9-0.7c2.9-0.4,5.7-0.1,8.6-0.2
		c2-0.1,2.1-0.2,1.3-2c-1.1-2.2-2.2-4.4-3.3-6.6c-0.4-0.7-0.8-1.5-0.4-2.3c2.6-2,5.3-3.8,8.3-5.3c0.9-0.3,1.4,0.4,1.9,1
		c6.3,6.6,12.8,12.9,18.9,19.9C170.1,185,169.6,183.7,169.9,182.6z"/>
	<path class="st1" d="M136.4,200.5c-3.1-0.4-5.9,0.6-8.8,1.6c-1,0.3-1,0.8-0.6,1.5c1.2,2.3,1.7,4.6,1.1,7.1c-1,3.9,0.1,7.2,2.5,10.4
		c3.9,5,2.7,11.7-2.5,15.1c-0.5,0.4-1.1,0.7-1.7,0.9c-2.5,0.9-2.8,0.8-3.7-1.7c-0.1-0.3-0.2-0.6-0.4-0.8c-0.4,0.5-0.4,1.1-0.6,1.6
		c-1.4,3.4-5.1,5.1-8.5,3.7c-1-0.4-1.6-1-1.5-2.1c0.3-2.8-1.4-4.6-3-6.5c-2-2.5-4.4-3.6-7.7-3.5c-2.5,0.1-5.3,0-7.3-2
		c-2.2-2.1-2.2-4.7-1.2-7.3c0.7-1.7,1.7-3.4,2.6-5c1.5-2.7,1.9-5.5,0.5-8.5c-0.7-1.5-1.1-3.1-1-4.8c0.4-1.6,1.4-2.6,2.6-3.6
		c1-0.8,2.1-1.5,2.6-2.7c0.2-0.6,0.3-1.3,0.5-1.9c0.5-1.5,0.7-2.9-0.7-4c-0.4-0.3-0.2-0.9-0.6-1.2c-1.7-2.4-3-4.9-4.2-7.5
		c-1.6-2.2-2-4.7-2.1-7.4c-0.9-5.6-0.5-11,1.3-16.3c0.7-2,2-3.6,3.2-5.4c0.1-0.2,0.3-0.2,0.4-0.4c2.7-2.4,5.8-3.4,9.5-2.9
		c2.1,0.3,3.9-0.7,5.8-1.4c0.3-0.5,1-0.4,1.4-0.7c1.4-0.3,2.8-0.4,4.2-0.3c0.9,0.3,2-0.1,2.5,1c1.1,0.5,1.8,1.5,2.5,2.5
		c0.6,0.4,1,1.1,1.7,1.4c0.4,0,0.7,0,1.1,0c0.4-0.3,0.9-0.4,1.4-0.1c0.2,1-0.6,0.8-1.1,0.9c-0.6,0.1-1.3-0.1-1.7,0.5
		c-0.6,1.3,0,2.4,0.8,3.4c1.8,2,2.3,4.4,1.6,6.8c-1,3.4-0.8,6.8-0.9,10.2c-0.3,2.7-0.5,5.4-1.1,8c0,0.8-0.5,1.6-0.2,2.4
		c0.4,0.6,1.1,0.4,1.6,0.4c1.7,0,3.4,0,5.1,0c0.6,0,1.3-0.1,1.8,0.5l-0.1,0.1l0.1,0.1c-0.5,0.7-1.2,0.6-1.9,0.6c-1.9,0-3.8,0-5.7,0
		c-1.7,0-2.9,1-3.3,2.6c-0.2,0.6,0.1,0.9,0.7,0.9c0.4,0,0.8,0,1.2,0c1.6,0.3,3.3-0.5,4.8,0.6c0.1,0.4-0.2,0.6-0.5,0.6
		c-1.9,0.3-3.8,0.2-5.5,0.1c0.2,0.2,0.7,0.3,1.2,0.6c2.6,1.4,4,3.4,3.8,6.4c-0.1,1.4,0.4,1.8,1.7,1.7c1.8-0.1,3.5,0.1,5,1.3
		C136.1,198.7,136.8,199.4,136.4,200.5z"/>
	<path class="st3" d="M150.9,100.8c2.8,0.7,4.6,2.4,5.7,5c0.1,2,0.3,4.1,0.2,6.1c0,0.6,0.2,1.2-0.2,1.7c-0.4,3.3-2.6,5.2-5.6,6
		c-1.9,0.5-3.8,0.4-5.8,0.3c-0.7-0.3-1.4-0.1-2.1-0.1c-5.5,0-11,0-16.5,0c-6.7,0-13.3,0.1-20,0.3c-7.1,0-14.2,0-21.3,0
		c-0.6,0-1.3-0.1-1.9,0.1c-3.2,0.2-6.4,0-9.6,0.1c-3.1,0.1-6.1-0.1-9.2,0.2c-3.1,0.3-6-0.1-8.7-1.8c-0.3-0.7-1.2-1.1-1.2-2
		c-0.7-0.3-0.7-1.1-0.9-1.7c-1.1-5-0.8-9.6,3.3-12.3c1.5-0.8,3.1-1.2,4.7-1.2c7.5,0,14.9,0,22.4-0.2c6.9-0.1,13.9,0.2,20.8-0.2
		c4.7,0,9.5,0,14.2,0c0.6,0,1.3,0.1,1.9-0.1c9.3-0.1,18.5,0,27.8,0C149.6,100.9,150.3,101.1,150.9,100.8z"/>
	<path class="st6" d="M81,185.1c0,3.2,0,6.4,0,9.6c0,1.2-0.2,1.6-1.5,1.6c-6.6,0-13.1,0-19.7,0.1c-1.1,0-1.5-0.3-1.5-1.5
		c0-6.6,0-13.1-0.1-19.7c0-1.2,0.4-1.5,1.5-1.5c6.7,0,13.4-0.1,20-0.2c1,0,1.2,0.4,1.2,1.2c0,3.4,0,6.9,0,10.3
		C81,185.1,81,185.1,81,185.1z"/>
	<path class="st6" d="M69.5,158.7c-3.3,0-6.6,0-9.9,0c-1.1,0-1.6-0.3-1.6-1.5c0-6.6,0-13.2-0.1-19.9c0-1,0.3-1.3,1.3-1.3
		c6.7,0,13.5-0.1,20.2-0.2c0.9,0,1.2,0.3,1.2,1.2c0,6.7,0,13.5,0.1,20.2c0,1-0.3,1.3-1.3,1.3c-3.3,0-6.6,0-9.9,0
		C69.5,158.7,69.5,158.7,69.5,158.7z"/>
	<path d="M169.5,139.7c0.1,0.2,0.3,0.3,0.5,0.4v-0.4C169.8,139.7,169.6,139.7,169.5,139.7z M169.8,109.7
		C169.8,109.7,169.8,109.7,169.8,109.7C169.8,109.7,169.8,109.7,169.8,109.7c-0.1,0.1-0.2,0.2-0.2,0.3c-0.2,0.6,0,1.2-0.2,1.8
		c0.1-0.1,0.2-0.3,0.3-0.4C170,110.8,170,110.3,169.8,109.7z"/>
	<path class="st2" d="M66.2,287.2c3.3,3.3,6.3,6.9,9.4,10.3c0.6,0.7,1.2,1.3,1.9,1.9c1.7,1.1,3.4,2.2,4.7,3.9c0,1.7-0.1,3.3,0,5
		c0,1.1-0.4,1.4-1.4,1.4c-1.8-0.1-3.5,0-5.3,0c-4.8,0-9.6-0.1-14.3,0.3c-1.2,0.1-1.7-0.3-1.7-1.6c0.1-6.5,0.1-13,0-19.5
		c0-1.4,0.5-1.7,1.7-1.7C62.7,287.2,64.5,287.2,66.2,287.2z"/>
	<path class="st47" d="M75.9,211.4c0.6,0,1.2,0.1,1.8,0.1c0,0.2,0.1,0.4,0,0.5c-5.2,7.4-10.5,14.8-15.8,22.2
		c-3.2-0.2-3.2-0.2-3.2-3.5c0-5.9,0-11.8-0.1-17.7c0-1.2,0.3-1.6,1.5-1.6C65.3,211.5,70.6,211.4,75.9,211.4z"/>
	<path class="st48" d="M124.4,150c1-1,2.4,0.1,3.5-0.6c-0.5-0.7-0.4-1.3,0.3-1.8c1.6-0.2,2.3,1.4,3.6,1.8c0.2,0.1,0.4,0.1,0.4,0.4
		c1.7,2.5,4.3,3.2,7.1,3.4c0.7,0.1,1.3,0.3,1.7,0.9c2.4,3.9,5.3,7.5,7.9,11.3c-2.4,2.1-5.3,3.5-7.8,5.3c-5-0.4-8.4-3.6-11.7-6.7
		c-1.9-1.8-1.6-4.5-1.6-6.9c0-1.1,1.1-1,1.9-0.6c0.9,0.5,1.4,1.5,1.8,2.4c0.3,0.7,0.5,1.4,1.1,2c0.4,0.4,0.9,0.7,1.4,0.4
		c0.6-0.3,0.6-0.8,0.5-1.4c-0.1-0.9-0.5-1.7-1-2.4c-1.5-1.9-2.9-3.9-4.4-5.8c-0.6-0.8-1.4-1.2-2.5-1.1
		C125.8,150.6,125,150.8,124.4,150z"/>
	<path class="st48" d="M82.1,303.2c-1.7-1.1-3.4-2.2-4.7-3.9c3.2-3.1,5.9-6.7,8.9-10c0.4-0.4,0.6-0.9,1.1-1.1
		c0.8,0.2,1.2,0.9,1.8,1.5c1-1.8,2.3-3.2,4.2-4c-0.1,1.5,0.5,2.8,0.8,4.2c0.2,0.6,0.6,1.1,1.3,1.2c0.1-0.2,0.3-0.2,0.4,0
		c1.2-0.3,2-1.2,3-1.8c0.8-0.4,1.8-0.7,2.4,0c0.7,0.7,0,1.6-0.5,2.2c-2.2,2.3-4.7,4.1-7.1,6c-1.3,1-2.8,1.8-3.1,3.6
		c0-1-0.4-1.1-1.1-0.5c-1.2,1-2.5,1.7-3.8,2.4C84.5,303.7,83.3,303.8,82.1,303.2z"/>
	<path class="st49" d="M106.5,119.9c3.6-0.5,7.2-0.3,10.8-0.3c8.6,0,17.3,0,25.9,0c0.6,0,1.3-0.2,1.9,0.2
		c-12.2,0.1-24.3,0.3-36.5,0.4c-0.7,0-1.4-0.1-2.1-0.1c-0.1-0.1-0.1-0.1-0.1-0.2C106.5,120,106.5,119.9,106.5,119.9z"/>
	<path class="st50" d="M55.8,118.6c0.2,0,0.5-0.2,0.6-0.1c2.7,2,5.8,1.7,8.8,1.6c5.9-0.2,11.9-0.3,17.8-0.1c0.2,0.1,0.3,0.2,0.3,0.3
		c-0.5,0.3-1,0.2-1.5,0.2c-6.8,0.1-13.7,0.1-20.5,0.2C59.3,120.7,57.4,120.1,55.8,118.6z"/>
	<path class="st51" d="M121.1,145.5c-0.8-0.3-1.7-0.7-2.5-1c10.3-0.1,20.6-0.2,30.9,0.3c-4.4,0-8.7,0-13.1,0
		c-4.6,0-9.2,0.1-13.8,0.3C122.1,145.1,121.5,144.8,121.1,145.5z"/>
	<path class="st52" d="M84.2,101.4c-7.3,0.3-14.6,0.4-21.9,0.4c-1.9,0-3.7,0.3-5.4,1.3c-0.2-0.2-0.2-0.3,0-0.5
		c1.1-0.7,2.3-1.1,3.5-1.2c2.3-0.3,4.6,0.1,6.9-0.2c5,0,10,0,15,0c0.6,0,1.3,0,1.9,0.1c0.1,0.1,0.1,0.1,0.1,0.2
		C84.3,101.4,84.2,101.4,84.2,101.4z"/>
	<path class="st40" d="M93.3,138.1c9.6-0.6,19.4-0.3,29.2,0C112.6,138.1,102.9,138.1,93.3,138.1z"/>
	<path class="st53" d="M99.1,186.7c2.6,2.8,2.7,4,0.8,7.1c0-0.4-0.1-0.7-0.1-1.1c-0.2-0.1-0.2-0.3,0-0.5c-0.8-5,0.3-4.1-4.4-4.2
		c-1.2,0-2.5,0-3.7-0.1c2-0.3,3.9-0.6,5.9-0.6C98.1,187.4,98.9,187.8,99.1,186.7z"/>
	<path class="st54" d="M150.9,100.8c-0.1,0.4-0.4,0.3-0.7,0.3c-9.7,0-19.4,0-29.1,0c-0.7,0.1-1.5,0.5-2.1-0.3
		C129.7,100.8,140.3,100.8,150.9,100.8z"/>
	<path class="st55" d="M119,100.8c0.6,0.5,1.4,0.1,2.1,0.3c-1.3,0.5-2.6,0.3-3.8,0.3c-4.1,0-8.2,0-12.2,0c-0.5-0.3-1.2,0.1-1.7-0.3
		c1.6-0.5,3.3-0.2,4.9-0.3C111.8,100.8,115.4,100.8,119,100.8z"/>
	<path class="st56" d="M92.8,171.8c0.7,2.5,1.4,4.9,2.1,7.4c-2.5-1-3.5-2.9-2.8-5.5C92.3,173,92.5,172.4,92.8,171.8z"/>
	<path class="st57" d="M62.5,83.3c1.1,0.2,0.7,1.1,0.7,1.7c0,1,0.1,1.5,1.3,1.5c1.3,0,1.2-0.7,1.2-1.6c0-3.3-2.2-6.4-4.9-7.1
		c0.5-0.7,1.1-0.4,1.5-0.1c2.5,2,4.7,4,4.1,7.8c-0.2,1.5-0.9,1.3-1.9,1.4c-1,0-1.9,0-1.8-1.4c0-0.6,0.3-1.3-0.3-1.8
		c-0.1-0.1-0.1-0.2-0.1-0.2C62.5,83.4,62.5,83.3,62.5,83.3z"/>
	<path class="st15" d="M161.4,147.4c-0.2,0.9-0.6,1.6-1.7,1.6c-1,0-1.6-0.6-1.6-1.6c0-1,0.6-1.5,1.5-1.6
		C160.7,145.7,161.2,146.4,161.4,147.4z"/>
	<path class="st58" d="M56.9,102.6c0,0.2,0,0.3,0,0.5c-3.2,2.9-4.4,7.6-2.9,11.8c0.2,0.6,0.4,1.1,0.6,1.7c-1.4-0.6-1.4-1.9-1.5-3.1
		C52.6,109.3,52.7,105.3,56.9,102.6z"/>
	<path class="st59" d="M83.5,120.3c-0.1-0.1-0.2-0.2-0.3-0.3c7.8,0,15.6,0,23.4,0c0,0.1,0,0.2,0,0.3
		C98.8,120.3,91.2,120.3,83.5,120.3z"/>
	<path class="st60" d="M114.4,144.8c-0.4,0.4-0.8,0.8-1.4,0.7c-0.5-0.7-1.2-0.3-1.8-0.3c-6.1,0-12.3,0-18.4-0.4
		C100,144.8,107.2,144.8,114.4,144.8z"/>
	<path class="st61" d="M103.3,101.1c0.6,0.1,1.2,0.2,1.7,0.3c-7,0-13.9,0-20.9,0c0-0.1,0-0.2,0-0.3C90.6,101.1,97,101.1,103.3,101.1
		z"/>
	<path class="st62" d="M170.1,160c-0.1,0-0.2,0.1-0.3,0.1c-0.1-4.2-0.2-8.3-0.3-12.5c0.2,0,0.4,0,0.6,0c0.5,0.5,0.6,1.1,0.6,1.8
		c0,3,0,6,0,9C170.7,159,170.6,159.6,170.1,160z"/>
	<path class="st36" d="M132.2,149.9c-0.1-0.1-0.3-0.3-0.4-0.4c5.6,0,11.1,0,16.7,0c0,0.1,0,0.3,0,0.4
		C143,149.9,137.6,149.9,132.2,149.9z"/>
	<path class="st63" d="M156.2,80.1c-3.1,0-6.1,0-9.2,0c0-0.1,0-0.1,0-0.2c3.1,0,6.1,0,9.2,0C156.2,79.9,156.2,80,156.2,80.1z"/>
	<ellipse class="st63" cx="151.6" cy="77.1" rx="6.5" ry="0.1"/>
	<path class="st64" d="M156.3,82.7c-3,0.3-6.1,0.4-9.1,0C150.2,82.7,153.2,82.7,156.3,82.7z"/>
	<path class="st65" d="M62.5,83.3c0,0.1,0,0.2,0,0.4c-1.1-0.1-1.9,0.1-1.7,1.5c0.2,1.8-0.7,2-2.5,1.5c1.8,0.1,2.3-0.5,2.2-1.9
		C60.3,83.3,61.2,82.9,62.5,83.3z"/>
	<path class="st66" d="M156.5,113.6c0-2.4,0.3-4.8-0.3-7.1c-0.1-0.3,0-0.6,0.3-0.7c0.6,2.2,0.4,4.4,0.4,6.6
		C157,112.8,157.1,113.3,156.5,113.6z"/>
	<path class="st67" d="M59.4,79.7c-2.2,1.4-1.9,3.7-2,5.8C57.2,83.3,56.5,80.9,59.4,79.7z"/>
	<path class="st68" d="M99.8,192.3c0,0.2,0,0.3,0,0.5c-2.6,0-5.1,0-7.7,0c0-0.2,0-0.3,0-0.5C94.6,192.3,97.2,192.3,99.8,192.3z"/>
	<path class="st0" d="M128.2,147.6c-0.3,0.6-0.3,1.2-0.3,1.8c-0.5,0-0.9,0-1.4-0.1C126.3,148.1,126.8,147.5,128.2,147.6z"/>
	<path class="st3" d="M67.3,101.2c-2.3,0.4-4.6,0.1-6.9,0.2C62.7,100.8,65,101.2,67.3,101.2z"/>
	<path class="st69" d="M97.7,149.8c-0.1,0.1-0.3,0.2-0.4,0.4c-1.8,0-3.7,0-5.5,0c0-0.1,0-0.2,0-0.4
		C93.7,149.8,95.7,149.8,97.7,149.8z"/>
	<path class="st0" d="M125.4,149.4c-1.4,0.5-1.5-0.6-1.7-1.4C124.9,147.7,125,148.7,125.4,149.4z"/>
	<path class="st6" d="M388.1,253.2c8.6,0,17.3,0,25.9,0c1.4,0,1.9,0.3,1.9,1.8c-0.1,11.7-0.1,23.4,0,35.1c0,1.4-0.4,1.7-1.8,1.7
		c-17.3,0-34.7,0-52,0c-1.5,0-1.8-0.5-1.8-1.9c0.1-11.7,0.1-23.3,0-35c0-1.5,0.4-1.9,1.9-1.9C370.9,253.2,379.5,253.2,388.1,253.2z"
		/>
	<path class="st47" d="M359.4,200.9c0.1-1.7,0.2-3.3,0.2-5c0.1-11.4,0.1-22.7,0.1-34.1c0-1.4,0.3-1.8,1.8-1.8
		c17.3,0.1,34.5,0.2,51.8,0.3c1.4,0,1.6,0.4,1.6,1.7c-0.1,12.8-0.1,25.6-0.2,38.3c0,0.7,0.4,1.7-1,1.5c-2.6-2.2-4.5-5-6.7-7.5
		c-2.5-2.8-4.9-5.8-7.4-8.6c-1.3-1.5-1.6-1.5-2.9,0c-1.6,1.9-3.3,3.7-5.1,5.4c-1.3,1.3-1.7,1.3-2.8-0.2c-3.1-4.2-6.2-8.4-9.2-12.6
		c-1.3-1.8-1.3-1.8-2.6-0.1c-5.4,7.2-10.9,14.3-16.3,21.5C360.4,200.3,360.2,201,359.4,200.9z"/>
	<path class="st1" d="M359.4,200.9c5.9-7.8,11.7-15.6,17.6-23.4c1.1-1.5,1.3-1.5,2.4,0c3.3,4.5,6.6,8.9,9.7,13.4
		c0.7,1.1,1.2,1,2,0.1c1.9-2.1,3.9-4.1,5.8-6.2c0.9-1,1.5-1.1,2.4,0c3.4,4,6.8,7.9,10.2,11.9c1.4,1.7,3.1,3.2,4.2,5.2
		c-12.1,0-24.1-0.1-36.2-0.1c-5.7,0-11.5-0.1-17.2-0.2C360.1,201.6,358.8,202.3,359.4,200.9z"/>
	<path class="st70" d="M387.3,212.7c-6.6,0-13.1,0-19.7,0c-0.9,0-1.7,0.1-1.6-1.3c0-1.2,0.4-1.6,1.6-1.6c13.2,0,26.4,0,39.5,0
		c1.2,0,1.6,0.2,1.6,1.5c0,1.3-0.6,1.4-1.6,1.4C400.5,212.7,393.9,212.7,387.3,212.7z"/>
	<path class="st71" d="M359.2,151c19.2-0.2,38.4-0.2,57.7,0C397.6,151.6,378.4,151.6,359.2,151z"/>
	<path class="st72" d="M401.5,320.6c-0.2,1.1-1.2,0.8-1.8,0.8c-2.4,0.1-4.8,0-7.3,0c-3.3,0-3.3,0-3.3,3.3c0,1.1,0,2.1,0,3.2
		c0,0.7,0,1.4-0.7,1.9c-1-0.9-0.6-2.1-0.8-3.2c-0.2-1-0.3-2-0.2-3c0.1-1.4-0.3-2.3-1.9-2.3c-0.5,0-1.3,0.1-1.3-0.8
		c1.2-0.4,2.9,0.6,3.6-0.5c0.6-1,0.2-2.5,0.2-3.8c0-3.2,0-6.5,0-9.7v-0.2c0.6-1.1,0.2-2.3,0.5-3.7c0,0.2,0,0.4,0,0.6
		c0,0.2,0,0.3,0,0.4c0.1,0.9,0.1,1.8,0.2,2.6v0c0,4.2,0,8.5,0,12.7c0,1.2,0.4,1.5,1.5,1.5C393.8,320.5,397.7,320.6,401.5,320.6z"/>
	<path class="st73" d="M416.1,221c-19.2,0.2-38.3,0.2-57.5,0C377.8,220.5,397,220.5,416.1,221z"/>
	<path class="st74" d="M358.7,244.5c19.1-0.5,38.3-0.5,57.4,0C397,244.5,377.8,244.5,358.7,244.5z"/>
	<path class="st75" d="M412.6,236.7c-18,0-36,0-53.9,0c18-0.5,36-0.5,54-0.2c0.1,0.1,0.2,0.1,0.1,0.2
		C412.7,236.7,412.7,236.7,412.6,236.7z"/>
	<path class="st76" d="M411.6,228.9c-17.6,0-35.3,0-52.9,0c17.6-0.5,35.3-0.5,52.9-0.3c0.1,0.1,0.2,0.1,0.1,0.2
		C411.7,228.9,411.6,228.9,411.6,228.9z"/>
	<path class="st77" d="M356.3,210.5c-0.1,1-0.7,1.5-1.6,1.5c-1.1,0-1.7-0.7-1.6-1.7c0.1-1,0.8-1.6,1.8-1.5
		C355.8,208.9,356.2,209.5,356.3,210.5z"/>
	<path class="st78" d="M389.8,297.1c-0.1,0.9-0.7,1.4-1.5,1.5c-0.9,0-1.6-0.5-1.6-1.5c0-0.9,0.7-1.4,1.5-1.4
		C389.1,295.7,389.6,296.2,389.8,297.1z"/>
	<path class="st58" d="M411.6,228.9c0-0.1,0-0.2,0-0.3c1.8-0.2,3.5,0,5.3,0.3C415.1,228.9,413.3,228.9,411.6,228.9z"/>
	<path class="st79" d="M412.6,236.7c0-0.1,0-0.2,0-0.2c1.4-0.2,2.9-0.1,4.8,0.1C415.5,236.8,414.1,236.9,412.6,236.7z"/>
	<path class="st0" d="M143.5,262.7c-0.6-1.5-1.2-2.9-1.5-4.5c1.4-0.4,7.2-0.4,8.6-0.1c-2.9-0.4-5.9,0.1-8.9-0.3
		c-0.8-1.5-0.3-3-0.1-4.5c0.9-7.8,1.9-15.6,2.8-23.4c0.1-0.6,0.3-1,0.7-1.4c6.4-6.6,12.1-13.7,18.3-20.4c2.1-2.3,4.3-4.5,6.5-6.7
		c0.1,12.5,0.3,25,0.4,37.5c0.2,21.9,0.2,43.8,0.5,65.7c0.1,7.5-2.9,12.7-9.7,15.7c-1.3,0.1-3,1.2-3.9,0.5c-0.9-0.7-0.2-2.6-0.2-3.9
		c0.1-5.7-0.4-11.3-2.4-16.7c1.2-0.4,0.7-1.2,0.5-2c-3.1-9.1-6.1-18.2-9.2-27.3c-0.8-2.5-1.7-5-2.5-7.6c1.4-0.6,2.9-0.1,4.3-0.3
		c0.7-0.1,1.4,0.1,2.1-0.2c0.2-0.2-0.2-0.3,0-0.1c0.1,0.1,0.1,0.2-0.1,0.2C147.8,262.8,145.7,263.1,143.5,262.7z"/>
	<path class="st12" d="M126.4,478.9c0.6-5.7,1.2-11.3,1.9-17c2.2,0,4.3,0,6.5,0c0.7,0,1.2,0,1,1.1c-0.2,1.1-0.1,2.3-0.2,3.5
		c-0.1,1.7-1,2.1-2.7,2.3c-2,0.2-3.9,1.2-4.9,3.2c1.6-1.6,3.6-2.5,5.9-2.8c0.7-0.1,1.4-0.3,1.3,1c-0.4,3.2-0.6,6.3-0.9,9.5
		c-0.1,0.9-0.4,1.3-1.3,1.1c-2-0.3-4-0.5-6-0.7C126.4,479.9,126.5,479.4,126.4,478.9z"/>
	<path class="st29" d="M144.5,465.5c-0.6,5.4-1.2,10.9-1.7,16.3c-2.5,0.1-4.9-0.6-7.4-0.7c-0.9-0.1-0.8-0.7-0.7-1.3
		c0.3-3.2,0.8-6.3,1.1-9.5c0.1-1.3,1-0.9,1.7-0.7c2.1,0.7,3.7,2,5.2,3.5c-1.1-2-2.8-3.3-5-4c-1.2-0.4-1.9-0.8-1.6-2.2
		c0-0.4,0.1-0.7,0.1-1.1c0.1-0.8,0.4-1.6,1.3-1.5C139.8,464.5,142.2,464.5,144.5,465.5z"/>
	<path class="st80" d="M144.5,465.5c-1.9,0-3.7-0.3-5.6-0.6c-1-0.2-2.3-0.5-2.8,1c0.1-1,0.2-2.1,0.3-3.1c0.1-0.9,0.7-0.8,1.3-0.8
		c2.4,0,4.8,0,7.2,0C144.9,463.1,145,464.3,144.5,465.5z"/>
	<path class="st81" d="M122.8,461.9c0,1.2,0,2.3,0,3.5c-1.9,0.2-3.9,0.4-5.8,0.5c-1,0-1.7,0.3-2.1,1.2c-0.2,0.2-0.3,0.2-0.5,0
		c0-4.8,0-4.8,4.7-4.9C120.3,462.2,121.6,462,122.8,461.9z"/>
	<path class="st9" d="M114.4,467.2c0.1,0,0.2,0.1,0.3,0.1c0.6,1.2,1.5,1.8,2.8,2.1c1.4,0.3,2.6,1.1,3.7,2c0.4,0.3,0.8,0.7,0.5,1.2
		c-0.3,0.5-0.9,0.2-1.3,0c-1.1-0.6-2.1-1.3-3.3-1.6c-1.7-0.4-2.1,0-1.9,1.7c0.1,1.4,0.4,2.8,0.3,4.2c0,0.6,0,1.3-0.4,1.9
		c0,0.8-0.1,1.6-0.1,2.4c-0.1,0-0.1,0-0.2,0c-0.2-3-0.3-6-0.5-9c-0.1-2-0.3-2.1-2.2-1.5c-1.7,0.6-3,1.7-4.3,2.9
		c0.9-2,2.7-3.1,4.7-3.6c1.1-0.3,1.7-0.7,1.6-1.9C114.2,467.7,114.3,467.4,114.4,467.2z"/>
	<path class="st82" d="M430.2,433.5c-0.7-1.9-2-3.6-2.5-5.5c0-0.1,0-0.2-0.1-0.3c-0.1-0.2-0.1-0.5-0.2-0.7c0.1-1.2,0.2-2.5,0.2-3.7
		c0.4-16.1,0.1-32.1,0.5-48.2c0.2-10.4,0-20.8,0.2-31.2c0-0.7,0-1.4,0.1-2.1c0.1-0.2,0.1-0.4,0.2-0.6c0.3-1.4,0.1-2.8,0.1-4.2
		c0-0.1,0-0.1,0-0.2c0-0.3,0-0.7,0.1-1c0.1-0.3,0.1-0.8,0.4-0.9c-0.1,2.5-0.2,4.6-0.3,6.8c0,8.1,0,16.2-0.1,24.3
		c-0.2,19.2-0.4,38.5-0.6,57.7c0,1.3-0.1,2.6-0.5,3.8C428.3,429.6,429.8,431.3,430.2,433.5z"/>
	<path class="st82" d="M430.8,336.9c-0.1-0.1-0.2-0.3-0.2-0.4c-0.3-0.5-0.6-1-1-1.7c0,0,0,0,0,0c0.4,0,0.7,0.4,0.8,0.8
		c0.1,0.2,0.2,0.4,0.2,0.6C430.7,336.4,430.7,336.7,430.8,336.9z"/>
	<path class="st83" d="M430.8,336.9c-0.1-0.1-0.2-0.3-0.2-0.4c-0.3-0.5-0.6-1-1-1.7c0-0.1-0.1-0.1-0.1-0.2c0,0.1,0,0.2,0,0.2
		c-0.1,2.5-0.2,4.6-0.3,6.8c-0.1-0.1-0.3-0.3-0.3-0.4c-0.3-0.5-0.2-1.2-0.2-1.7c0.1-5.4-0.2-10.8,0.2-16.3c0.2-3-0.7-5.8-3.1-8
		c-0.5-0.5-1.2-0.8-1.2-1.7c0.9-0.5,0.5-1.4,0.6-2c0.3-1.9,0.8-3.7,1.8-5.5c2,3.6,3.2,7.3,3.6,11.3c0.2,2.1,0.4,4.3-0.3,6.3
		c-1.3,3.8-0.6,7.5,0.5,11.2c0,0,0,0.1,0,0.1c0.1,0.4-0.1,1,0.5,1.2C431.1,336.5,431.1,336.7,430.8,336.9z"/>
	<path class="st84" d="M48.1,457c-1.3,0.4-1.7,1.7-2.5,2.6c-0.6,0.6-1.1,1.4-1.7,2.1c-1.5,1.9-1.5,1.9-2.9-0.3
		c0-0.2,0.1-0.3,0.2-0.2c0.4,0.4,0.8,0.9,1.2,1.4c1.5-1.9,3-3.8,4.5-5.7c0.6-0.8,1.1-0.7,1.5,0.1C48.5,457.1,48.3,457.1,48.1,457z"
		/>
	<path class="st85" d="M48.1,457c0.2,0,0.3,0,0.5-0.1c1.6,1.8,3.1,3.6,4.7,5.5c0.4-0.5,0.8-0.9,1.2-1.4c0.2,0,0.3,0,0.2,0.2
		c-0.1,0.3-0.3,0.5-0.4,0.8c-0.6,1.2-1.2,1.3-2,0.1C51,460.4,49.5,458.7,48.1,457z"/>
	<path class="st86" d="M39.3,458.8c-0.8-0.5-0.8-2.2-2.4-1.7c1-1.2,1.1-1.2,2.6,1.4C39.6,458.8,39.5,458.8,39.3,458.8z"/>
	<path class="st84" d="M41.1,461.3c-0.6-0.8-1.2-1.7-1.8-2.5c0.1-0.1,0.2-0.1,0.2-0.2c0.7,0.7,1.3,1.6,1.8,2.5
		C41.3,461.2,41.2,461.2,41.1,461.3z"/>
	<path class="st87" d="M54.6,461.1c0.5-0.9,1-1.7,2.1-2.7c-0.5,1.4-1.2,2.2-1.8,2.9C54.7,461.2,54.7,461.2,54.6,461.1z"/>
	<path class="st88" d="M34.7,459.5c0.5-0.6,1.1-1.3,1.6-1.9C36.3,458.6,35.6,459.1,34.7,459.5z"/>
	<path class="st0" d="M383.9,56.4c11.3,0,22.7,0,34,0c1.3,0,1.8,0.3,1.8,1.8c-0.1,14.4,0,28.8,0,43.3c0,0.7,0,1.3-0.4,1.9
		c-11.2,0-22.5,0-33.7,0.1c-1.3,0-1.6-0.5-1.7-1.5c-0.1-0.5-0.1-1.1-0.1-1.6c0-13.7,0-27.5,0-41.2C383.9,58.1,383.9,57.3,383.9,56.4
		z"/>
	<path class="st89" d="M422.6,103.1c0.3-2.3-0.3-4.7,0.3-6.9c0.7,2.3,1.4,4.6,2.1,6.9C424.2,103.3,423.4,103.3,422.6,103.1z"/>
	<path class="st82" d="M239.7,146.9c0.1,0,0.2-0.1,0.3-0.1c0,0.1-0.1,0.1-0.1,0.2C239.8,147,239.7,147,239.7,146.9z"/>
	<path class="st82" d="M255.5,146.6c-0.1,0.2-0.2,0.4-0.4,0.4c0-0.1-0.1-0.3-0.1-0.4C255.2,146.7,255.3,146.7,255.5,146.6z"/>
	<path class="st13" d="M26.4,368.2c-0.6-0.5-1.2-1.1-2.1-1.9C25.5,366.7,26,367.4,26.4,368.2z"/>
	<path class="st90" d="M53,372.5c-0.1-0.2-0.2-0.5-0.4-0.7c0.7-4,1.7-7.9,3.2-11.7C54.9,364.2,53.9,368.3,53,372.5z"/>
	<path class="st2" d="M451,398.1c-0.5,7.3-2.7,14-6.7,20.1c0,0,0,0,0-0.1c0-0.1-0.1-0.2-0.1-0.3c0-0.1-0.1-0.2-0.1-0.2
		c-0.1-0.3-0.2-0.5-0.3-0.8c-1.1-7.2,0.6-13.7,4.7-19.6c0.4-0.7,0.9-1.6,1.9-1.2C451.1,396.3,451,397.3,451,398.1z"/>
	<path class="st16" d="M435.9,408.4c-0.7,1.3-1.4,2.7-2,4C434,410.9,434.7,409.5,435.9,408.4z"/>
	<path class="st5" d="M360.5,102.5c-1.7,0-3.4,0-5.1,0c-2.6,0-4.1-1.8-4.1-4.5c0-2.6,1.6-4.3,4.1-4.3c3.5,0,7,0,10.5,0
		c0.9,0,1.4,0.2,1.4,1.2c-0.1,2.1,0,4.3,0,6.4c0,0.9-0.3,1.3-1.2,1.2C364.1,102.5,362.3,102.5,360.5,102.5z"/>
	<path class="st5" d="M322.5,98.1c-0.1,0.8,0.2,1.7-0.2,2.6c-0.2,0.5-0.4,1-1.1,1c-0.5,0-0.9-0.4-1.1-0.8c-0.8-1.9-0.6-3.8-0.3-5.7
		c0.1-0.6,0.7-1.3,1.6-1.2c0.8,0.1,1.1,0.8,1.1,1.6C322.5,96.4,322.5,97.2,322.5,98.1z"/>
	<path class="st0" d="M429.1,324.8c-0.3,4-0.3,8-0.3,12c0,1.6,0.1,3.2,0.2,4.9c0,8.1,0,16.2-0.1,24.3c-0.2,19.2-0.4,38.5-0.6,57.7
		c0,1.3-0.1,2.6-0.5,3.8c-0.1,0.2-0.1,0.4-0.2,0.6c-0.1,0.3-0.2,0.7-0.5,0.9c-2,3.6-5.1,5.3-9.2,5.3c-21.2-0.2-42.5-0.4-63.7-0.5
		c-5.7,0-10.6-4.3-10.5-11c0.4-33.6,0.7-67.2,1-100.8c0.1-5.8,4-9.9,9.7-10c5.1-0.1,10.3,0,15.4,0.1c1.9,0,3,1.1,3.1,3
		c0,0.5,0,1.1,0,1.6c0,3,1.1,4,4.1,4.1c2.3,0,4.6,0,6.9,0h0c0.2,0,0.3,0.1,0.5,0.1c3.4,0.2,3.3,0.2,3.4,3.5c0,1.7,0.2,3.4,0.5,5.1
		c0-2,0-4,0-6c0-2.6,0-2.6,2.7-2.6c2.9,0,5.8,0,8.7,0c0.6,0,1.2,0.2,1.7-0.2c1.6-0.5,2.3-1.7,2.4-3.3c0-0.6,0-1.3,0-1.9
		c0.1-2,1.3-3.2,3.2-3.2c4.1,0,8.3,0,12.4,0c1.7,0,3.4,0.4,4.9,1.4C428.3,316.3,429.4,320,429.1,324.8z"/>
	<path d="M432.6,302.5c-0.1,0.2-0.2,0.5-0.4,0.7c-1-0.1-0.8-0.8-0.8-1.6C431.9,302,432.3,302.2,432.6,302.5z"/>
	<path class="st29" d="M115.2,478.6c-0.1-2.3-0.2-4.6-0.4-6.9c-0.2-1.7,0.6-1.8,2-1.6c1.8,0.4,3.3,1.4,4.9,2.2c-1.4-1.5-3-2.6-5-2.8
		c-1.6-0.2-2.1-0.9-1.9-2.3c-0.2-1.4,0.4-1.9,1.9-1.9c1.4,0.1,2.9-0.2,4.4-0.3c0.6,0,1.3-0.1,1.9,0.3c0.2,4,0.3,8,0.5,12.1
		c0,0.1-0.1,0.2-0.1,0.3c-0.1,3.9-0.1,3.9-4,3.9c-1.3,0-2.6,0-3.9-0.1c0-0.6,0-1.3,0.2-1.9C115.9,479.3,115.9,478.7,115.2,478.6z"/>
	<path class="st2" d="M170.1,160c0-4.1,0-8.2-0.1-12.4c9.8,0,19.5,0,29.3,0c0.3,0,0.7,0.2,1,0.3c-1.6,2-3.5,3.7-5.6,5.2
		c-0.6,0.5-0.9,0.9-0.7,1.8c0.4,2.1,0.5,4.2,0.9,6.3c0.2,1-0.1,1.5-1.1,1.8c-3.8,1.3-7.5,2.7-11.3,4.1c-0.9,0.3-1.3,0.2-1.8-0.6
		c-1.2-2-2.2-4.4-3.9-5.8C175,159.2,172.4,160.6,170.1,160z"/>
	<path class="st3" d="M255.3,167.8c0,0.2,0,0.4,0,0.6v0c0,0.4-0.1,0.8-0.5,1.2c-0.1,0-0.2,0.1-0.3,0.1c-2.8,1-2.9,0.9-4.6-1.7
		c-0.5-0.8-1-1.3-1.9-1.1c-0.2,0-0.4,0-0.5,0c-2.5-0.7-4.1,0.3-5.3,2.5c-0.4,0.7-0.9,0.9-1.7,0.5c-1.6-0.8-3.2-1.6-4.8-2.2
		c-1-0.4-1.2-1-0.8-1.8c1.6-3.1-0.8-4.7-2.4-6.5c-0.7-0.7-1.6-0.2-2.3-0.1c-1.7,0.4-3,0.3-3.3-1.9c0-0.4-0.3-0.8-0.4-1.2
		c-0.4-1.2-1.3-2.5-1.1-3.6c0.2-1.1,1.8-1.5,2.8-2.2c1-0.6,0.6-1.5,0.6-2.3c0-0.2,0-0.3,0-0.5c0.4,0,0.7,0,1.1,0h0
		c2.9,0,5.7-0.2,8.5,0.1h0c0.4,0,0.7,0.1,1.1,0.1c0.1,0.1,0.2,0.3,0.2,0.4c-0.1,0-0.2,0-0.3,0c-0.1,1.8,0.5,3.4,1.5,4.9
		c3.2,4.7,10.6,4.8,13.8-0.7c0-0.2,0-0.3,0-0.5c0.1-0.1,0.2-0.1,0.4-0.1c0.1,0.2,0.1,0.4,0.2,0.7c0,0,0,0,0,0c0.2,1.3,0,2.7,0.1,4.1
		C255.3,160.3,255.3,164,255.3,167.8z"/>
	<path class="st91" d="M239.4,147.9c0.1,0.1,0.2,0.3,0.2,0.4c-0.1,0-0.2,0-0.3,0C239.4,148.1,239.4,148,239.4,147.9z"/>
	<path class="st91" d="M255,151.8c-0.1,0.2-0.2,0.4-0.3,0.6c0-0.2,0-0.3,0-0.5C254.8,151.9,254.9,151.9,255,151.8z"/>
	<path class="st91" d="M255.3,149.2c0,0.2,0,0.4-0.1,0.6v-0.4c0-0.4,0-0.8,0-1.2C255.3,148.5,255.3,148.8,255.3,149.2z"/>
	<path class="st92" d="M210.2,147.7c-0.3,1.2-0.9,1.6-2.1,1.2c-1.5-0.5-3.1-0.7-4.6-1C205.7,147.4,208,147.7,210.2,147.7z"/>
	<path class="st29" d="M255.7,248.2c0-3.2,2.3-5.4,5.5-5.4c2.9,0,5.5,2.5,5.5,5.4c0,3.1-2.6,5.7-5.6,5.6
		C258.1,253.7,255.7,251.2,255.7,248.2z"/>
	<path d="M283.3,435.6c0,0.1,0,0.2,0,0.2c-0.1-0.1-0.2-0.1-0.3-0.2H283.3z"/>
	<path d="M293.3,435.6c-0.1,0.1-0.1,0.1-0.2,0.2v-0.2H293.3z"/>
	<path d="M303.7,435.6c0,0.1-0.1,0.2-0.1,0.2c0.1-0.1,0.2-0.1,0.3-0.2H303.7z M294.3,435.7h-0.2c0.1,0.1,0.2,0.1,0.2,0.2
		C294.4,435.8,294.4,435.7,294.3,435.7z"/>
	<path d="M305.6,449.3c0,0.1,0,0.2,0,0.3c-0.2,0-0.4-0.1-0.5-0.2C305.2,449.3,305.4,449.3,305.6,449.3
		C305.6,449.2,305.6,449.3,305.6,449.3z"/>
	<path d="M306.5,435.5C306.5,435.6,306.5,435.6,306.5,435.5c-0.5,0.5-1,0.6-1.5,0.3v0c-0.1,0-0.2-0.1-0.2-0.1c0.1,0,0.1,0,0.2,0
		c0.5,0,0.9-0.1,1.4-0.1C306.4,435.6,306.5,435.6,306.5,435.5z"/>
	<path d="M314.6,450.8c-0.2,0.1-0.3,0.1-0.5,0.1v-0.1c0-0.1,0-0.2,0-0.4C314.3,450.6,314.4,450.7,314.6,450.8z"/>
	<path d="M276.6,435.7c0,0,0,0.1,0,0.1c-0.1,0-0.2-0.1-0.3-0.1H276.6z"/>
	<path d="M282.3,435.7c-0.1,0-0.2,0.1-0.2,0.1c0,0,0-0.1,0-0.1H282.3z"/>
	<path class="st93" d="M318.3,475.7c0.3-0.5,0.7-1.1,1-1.6C319.6,475,318.9,475.3,318.3,475.7z"/>
	<path class="st94" d="M305.6,449.6c-0.2,0-0.4-0.1-0.5-0.2c0.2-0.1,0.3-0.1,0.5-0.2c0,0,0,0.1,0,0.1
		C305.6,449.4,305.6,449.5,305.6,449.6z"/>
	<path class="st94" d="M314.6,450.8c-0.2,0.1-0.3,0.1-0.5,0.1v-0.1c0-0.1,0-0.2,0-0.4C314.3,450.6,314.4,450.7,314.6,450.8z"/>
	<path class="st95" d="M321,459.6c-0.5,1.9,0.3,4-0.9,5.7c0.4-1.8,0.8-3.6-0.5-5.2c0-0.5-0.2-1.1,0.7-1
		C320.6,459.1,321.1,459.2,321,459.6z"/>
	<path class="st96" d="M318.3,475.7c0.3-0.5,0.7-1.1,1-1.6C319.9,475.5,319.8,475.7,318.3,475.7z"/>
	<path class="st0" d="M93.4,285.7c-0.4,0.3-0.2,0.9-0.8,1.1c-1.8,0.4-2.1,2.2-3.2,3.4c-0.8-0.6-1.4-1.2-1.9-2c1.1-0.8,1-1.7,0.3-2.8
		c-2.6-4.5-5.1-9-7.7-13.5c1-0.8,1.2-1.8,1.2-3c0-5.5,0-11.1,0-16.6c0-2.3,0-2.3-2.3-2.7c-0.4-0.1-0.8-0.2-1.1-0.5
		c0.7-1.5,2.1-2.5,3.2-3.8c2.1-2.4,4.3-4.8,6.6-7.3c0.8,0.9,0.8,2,1,2.9c2.4,8.7,4.8,17.4,7.2,26.1c0.1,0.3,0.1,0.6,0.1,0.9
		c-1.1,0.6-2.3,0-3.4,0.4c-0.2,0.1,0.2,0.2,0,0c1.2-0.4,2.3-0.3,3.5,0c0.5,1.9-0.3,3.7-0.6,5.5C94.8,277.8,94,281.8,93.4,285.7z"/>
	<path class="st0" d="M124.4,150c3.3-0.7,5.2,1.1,6.8,3.7c0.8,1.3,1.8,2.3,2.7,3.5c0.7,0.9,1.1,2,1.1,3.1c0,1.4-1,2-2.3,1.4
		c-0.7-0.4-1.2-1.1-1.5-1.9c-0.2-0.6-0.4-1.2-0.7-1.8c-0.4-0.8-1-1.9-2.1-1.5c-1,0.4-0.3,1.4-0.3,2.2c-0.2,3.6,1.9,5.7,4.6,7.5
		c2.4,1.7,4.6,3.7,7.9,3.7c0.4,0,0.4,0.3,0.4,0.6c-0.8,0.6-0.1,1.2,0.2,1.7c1.3,2.8,2.7,5.5,4.1,8.2c0.5,1.1,0.5,1.6-0.9,1.6
		c-3.4-0.1-6.7,0-10.1,0c-3,0.3-6,0.1-9,0.1c-0.4,0-0.9,0-0.7-0.7c0.2-0.8,0.3-1.6,0.5-2.4c0.2-0.3,0.3-0.6,0.6-0.9
		c2-2,2.2-3.6,1-6.1c-0.2-0.4-0.3-0.8-0.6-1.1c0.3-3.4-0.2-6.9,0.9-10.3c0.8-2.3,0.2-4.7-1.8-6.5C124,153.1,123.9,151.6,124.4,150z"
		/>
	<path class="st0" d="M136.4,200.5c-0.6-2-2.1-2.7-3.9-3.1c-0.5-0.1-0.9-0.1-1.4-0.1c-1-0.1-2.2,0.4-2.9-0.2c-0.7-0.6,0.1-1.7,0-2.7
		c-0.2-2.2-1.1-3.8-3-4.9c-0.8-0.5-1.6-0.9-2.4-1.8c2.2,0,4.5,0,6.7,0c0.7-0.6,1.4-0.4,2.2-0.4c2.9,0,5.8,0,8.7,0
		c2,0,3.9-0.6,5.8-0.4c0.8,0.1,1.5,0,2.2,0.5c0.8,1.5,1.6,2.9,2.5,4.4c0.3,0.3,0.2,0.6,0.1,0.9c-2.7,2.1-5.6,3.9-8.1,6.2
		C140.9,200.7,138.8,200.8,136.4,200.5z"/>
	<path class="st97" d="M93.7,225.8c3.4,1.6,7.1,1.6,10.7,1.7c1.1,0,1.8,0.3,2.5,1.2c1.1,1.5,2.4,2.7,3.6,4.1
		c1.3,1.5,2.1,3.2,1.6,5.2c-0.2,0.9,0.3,1.2,0.9,1.4c3.4,1.5,7.4-0.3,8.3-3.9c0.2-0.7,0.3-1.4,0.5-2.2c1,0.7,1.3,1.7,1.5,2.7
		c0.2,1.4,0.9,1.3,1.9,1.1c6.4-1.7,9.3-9.3,5.6-14.9c-0.7-1.1-1.6-2-2.3-3.1c-1.5-2.6-1.9-5.4-0.4-8.2c0.1,2.5,0.7,4.8,2.1,6.9
		c4.1,6.3,4,12.6,0.3,19c-1.2,2.1-2.3,4.3-5,4.9c-0.3,0.1-0.7,0.3-1,0.2c-2.4-0.8-4.5,0.3-6.6,1.2c-3.6,1.6-7.1,0.2-8.9-3.4
		c-0.8-1.5-1.4-3.1-2-4.7c-1.2-3.2-3.5-4.8-6.7-5.6C97.8,228.7,95.3,228.1,93.7,225.8z"/>
	<path class="st97" d="M77.8,249.1c3.9,0,3.9,0,3.9,3.9c0,5.7,0,11.5,0.1,17.2c0,1.4-0.5,1.9-1.8,1.8c-2.8-4.9-5.5-9.8-8.3-14.6
		c-0.5-0.9-0.6-1.4,0.2-2.1C74,253.4,75.5,250.9,77.8,249.1z"/>
	<path class="st98" d="M124.6,187.4c-0.9-0.1-2.1,0.5-2.7-0.4c-0.5-0.8,0.8-1.4,1-2.3c0.5-1.8,1.8-2.1,3.5-2c2.4,0.1,4.9,0,7.3,0
		c3.5,0.3,7-0.2,10.4-0.3c1.5,0,2.3,0.4,2.8,1.8c0.4,1,0.9,1.9,1.3,2.9c-2.4,0.5-4.8,0.3-7.2,0.4c-4.9,0.2-9.9,0.1-14.8-0.1
		C125.8,187.2,125.2,187.1,124.6,187.4z"/>
	<path class="st97" d="M95.9,291.1c-0.1,0-0.3,0-0.4,0c1.9-5.8,4.6-11.2,6.9-16.9c1.3-3.2,2.7-6.4,4.1-9.6c0.5-1.2,1.1-2.7,2.9-2.2
		c1,0.2,1.7,2.4,1.2,3.9c-0.9,2.6-1.2,5.4-3.6,7.2c-3.1,5-6.4,9.9-9.5,14.8c-0.2,0.2-0.3,0.5-0.4,0.8
		C96.6,289.8,96.3,290.4,95.9,291.1z"/>
	<path class="st99" d="M156.6,187.3c2.4-0.5,4.2,0.7,6.1,1.8c0.8,0.5,0.3,1.2-0.3,1.7c-2.1-0.3-4.1-0.9-6.2-0.7
		c-1,0.1-2,0.2-2.9,0.7c-0.3,0.2-0.7,0.3-0.9,0c-0.3-0.4,0-0.7,0.2-0.9c1.1-1.1,2.4-2.1,4.1-2.3c0,0,0.1-0.1,0.1-0.2
		C156.7,187.4,156.6,187.4,156.6,187.3z"/>
	<path class="st100" d="M107.4,295.2c9.6-4.1,18.5-9.3,27-16.2C131.5,283.3,113.2,294.3,107.4,295.2z"/>
	<path class="st101" d="M124.6,187.4c0.6-0.4,1.3-0.2,1.9-0.2c7.3-0.1,14.5-0.1,21.8-0.1c0,0.1,0.1,0.2,0.1,0.4
		c-6.3,0.2-12.6,0.7-18.9,0.3C127.9,187.6,126.3,187.5,124.6,187.4z"/>
	<path class="st102" d="M156.6,187.3c0.2,0,0.5,0.1,1.1,0.2c-2.3,0.6-4,1.4-5.3,3.2c3.3-1.4,6.6-1.4,9.9,0.1
		c0.4,0.2,0.7,0.3,1.1,0.5c-4.3-0.9-8.6-2.1-12.4,1.3c0-0.3,0-0.6-0.1-0.9C152.3,189.6,153.8,187.6,156.6,187.3z"/>
	<path class="st103" d="M85.5,232.2c-2.5-5.9-4.1-12.1-4.4-18.5C82.2,219.9,83.7,226.1,85.5,232.2z"/>
	<path class="st104" d="M141.8,206.5c1.9,6.4,2.3,13,1.9,19.6C143.3,219.5,142.9,213,141.8,206.5z"/>
	<path class="st105" d="M97,289.1c0.7-2.1,2.2-3.9,3.4-5.8c2.1-3.3,4.1-6.8,6.6-9.8c0.1,0.4-0.1,0.7-0.3,1
		c-3.1,4.7-6.1,9.4-9.2,14.2C97.4,288.8,97.1,289,97,289.1z"/>
	<path class="st98" d="M124.6,181.6c0.4,0.7,1.1,0.5,1.7,0.5c2.6,0,5.3,0,7.9,0.1c-0.1,0.1-0.3,0.2-0.4,0.3c-2.8,0-5.7,0-8.5,0
		C124.9,182.4,123.9,182.7,124.6,181.6z"/>
	<path class="st106" d="M141.8,257.7c3,0,6,0,9,0c0,0.1,0,0.3,0,0.4c-2.9,0-5.8,0-8.7,0C142,258,141.9,257.9,141.8,257.7z"/>
	<path class="st107" d="M143.5,262.7c2.2,0,4.5,0,6.7,0c0,0.2,0,0.3,0,0.5c-2.2,0-4.4,0-6.6,0C143.6,263,143.5,262.8,143.5,262.7z"
		/>
	<path class="st108" d="M96,268.4c-1.2,0-2.4,0-3.6,0c0-0.1,0-0.3,0-0.4c1.2,0,2.3,0,3.5,0C95.9,268.1,95.9,268.2,96,268.4z"/>
	<path class="st12" d="M118.6,176.6c-2.7-7.8-9.3-8.9-15.7-2.9c0.6-3.2,1.9-5.6,5-6.6c3.3-1.1,6.2-0.3,8.7,2.1
		C118.6,171,119.5,173.3,118.6,176.6z"/>
	<path class="st109" d="M126.1,171.1c2.8,2.3,2.3,6-1,8.1C125.4,176.5,125.8,173.8,126.1,171.1z"/>
	<path class="st110" d="M145.2,112.9c-1.9-1.6-2.3-3.3-1.2-5c1-1.6,2.7-2,5-1c-2.4-0.3-4.2-0.2-4.9,2.1c-0.5,1.6,0.2,2.7,1.4,3.6
		C145.6,112.8,145.6,113.1,145.2,112.9z"/>
	<path class="st111" d="M145.2,112.9c0.1-0.1,0.3-0.2,0.4-0.3c1.2,0.6,2.3,0.3,3.9-0.1C147.9,113.7,146.6,113.7,145.2,112.9z"/>
	<path class="st112" d="M152.2,115.3c-1-0.5-1.8-1.3-2.3-2.4C150.9,113.5,151.6,114.3,152.2,115.3z"/>
	<path class="st113" d="M430.2,433.5c-1.1-0.6-1-2-1.6-2.8c-0.5-0.6-0.3-1.6-1.4-1.8c0.1-0.4,0.2-0.8,0.4-1.2
		c0.1-0.1,0.2-0.2,0.3-0.3C428.3,429.6,429.8,431.3,430.2,433.5z"/>
	<path class="st0" d="M388.1,280.5c-4.4,0-8-3.5-8-7.9c-0.1-4.4,3.6-8.1,8.1-8.1c4.5,0,8.1,3.7,8.1,8.2
		C396.2,277,392.6,280.5,388.1,280.5z"/>
	<path class="st1" d="M386.7,172.9c0-2.6,1.7-4.3,4.3-4.3c2.3,0,4.3,2,4.3,4.3c0,2.3-2,4.3-4.4,4.3
		C388.2,177.1,386.7,175.5,386.7,172.9z"/>
	<path class="st2" d="M405.6,86.2c5.3,0.8,6.7,5.1,8.1,9.2c0.9,2.8,0.8,2.9-2.2,2.9c-7,0-14,0.5-21.1,0.3c-2-0.1-2,0-1.2-1.9
		c0.5-1.3,1.1-2.6,1.5-4c1.1-3.3,3.1-5.7,6.7-6.2c0.9,0,0.8,0.8,0.9,1.3c0.4,1.4,1.1,2.4,2.6,2.5c1.3,0.1,2.2-0.9,2.7-2.6
		C403.9,86.6,403.9,85.3,405.6,86.2z"/>
	<path class="st2" d="M397.4,85.9c-0.3,0-0.6,0-0.9,0c-1.3-0.1-3.2,0-3.5-1.1c-0.4-1.7-1.5-3.8,0.4-5.5c0.6-0.5,0.7-1.2,0.6-2.1
		c-0.4-2.3-0.4-4.7,1.8-6.1c3.4-2.2,7.1-2.1,9.4,0c1.4,1.2,2.4,2.8,4.4,3.2c0.9,0.2,0.7,1.2,0.6,1.8c-0.1,1,0.1,1.9,1.2,2.4
		c0.9,0.4,1,1.2,1,2.1c0,2.1-0.5,3.6-2.9,4c-1.3,0.2-2.6,0.9-3.8,1.3c-1.3,0.3-1.7-0.6-1.8-1.5c-0.3-2-1.6-3.8-0.9-6
		c0.2-0.7-0.5-1.4-1.3-1.4c-1.7-0.2-2.8-1.2-3.8-2.3c-1-1-1.5-0.9-1.9,0.5c-0.6,2.4-0.6,4.9,0.1,7.3c0.3,1,1.1,1.7,1.8,2.3
		C398.5,85.4,398.4,85.6,397.4,85.9z"/>
	<path class="st3" d="M397.4,85.9c0.4-0.1,1-0.4,0.3-0.7c-1.7-0.8-2.3-2.3-2.6-4c-0.4-2.2-0.2-4.5,0.2-6.6c0.2-0.7,0.8-1.3,1.4-1.5
		c0.7-0.3,0.7,0.6,1,0.9c1.2,1.1,2.1,2.4,4.1,2.4c1.3,0,1.9,1.3,1.5,2.7c-0.3,1.2-0.5,2.3,0.5,3.3c0.5,0.4,0.3,1.1,0.3,1.7
		c0,1,0.4,1.7,1.4,1.9c0,0.1,0,0.2,0,0.3c-0.7,0-1.3-0.1-1.5,1c-0.3,2.5-1.4,3.6-3.1,3.6c-1.8,0-2.8-1.1-3.2-3.5
		c-0.1-0.3-0.1-0.6-0.4-0.8C397.4,86.3,397.4,86.1,397.4,85.9z"/>
	<path class="st6" d="M386.4,388.8c-10.8,0-21.5,0-32.3,0c-1.5,0-1.9-0.4-1.9-1.9c0.1-14.7,0.1-29.3,0.1-44c0-1.4,0.3-1.8,1.7-1.8
		c21.8,0.1,43.5,0.2,65.3,0.2c1.3,0,1.6,0.4,1.6,1.6c-0.1,14.8-0.1,29.6,0,44.4c0,1.5-0.5,1.7-1.8,1.7c-10.9,0-21.8,0-32.7,0
		C386.4,389,386.4,388.9,386.4,388.8z"/>
	<path class="st114" d="M378.9,392c13.5,0,27.1,0,40.6,0c0.6,0,1.5-0.2,1.5,0.7c-0.1,0.9-1,0.6-1.6,0.7c-13.6,0-27.2,0-40.8,0
		C378.3,392.8,378.5,392.4,378.9,392z"/>
	<path class="st36" d="M419.3,412c-21.6,0.1-43.3,0.5-64.9-0.4C376.1,411.5,397.7,411.2,419.3,412z"/>
	<path class="st115" d="M357.3,418.3c18.6-0.1,37.2-0.1,55.8,0.3c-18.6,0.4-37.2,0.3-55.8,0c-0.1-0.1-0.2-0.1-0.1-0.2
		C357.2,418.3,357.2,418.3,357.3,418.3z"/>
	<path class="st116" d="M378.9,392c0.1,0.5,0,0.9-0.3,1.4c-1.2,0.9-2.2-0.2-3.4-0.2c-5.6,0.1-11.1,0-16.7-0.1c-1.5,0-3,0-4.4,0
		c-0.6,0-1.8,0.4-1.8-0.6c0-1.2,1.2-0.7,1.8-0.7c6.7,0,13.4,0,20,0c1,0,2.1,0.2,3.1-0.5C377.9,391,378.4,391.6,378.9,392z"/>
	<path class="st117" d="M359.1,405.2c19.9-0.6,39.7-0.2,59.6,0.1C398.8,405.5,378.9,405.5,359.1,405.2z"/>
	<path class="st78" d="M388.1,336.6c-0.8-0.1-1.4-0.5-1.4-1.5c0-0.9,0.7-1.4,1.5-1.4c0.9,0,1.6,0.6,1.5,1.6
		C389.7,336.1,389,336.5,388.1,336.6z"/>
	<path class="st118" d="M382.5,397.3c-1-0.5-2.7,0.6-2.6-1.1c0.1-1.6,1.6-0.3,2.4-0.7c0.6-0.3,1,0.2,1,0.8
		C383.4,397,383.1,397.5,382.5,397.3z"/>
	<path class="st119" d="M366.5,394.8c0.6-0.6,1.1-0.5,1.6,0.1c0.6,0.7,0.6,1.5,0,2.2c-0.5,0.6-1,0.7-1.6,0.1
		C366.4,396.4,366.4,395.6,366.5,394.8z"/>
	<path class="st120" d="M366.5,394.8c0.4,0.8,0.4,1.6,0,2.4C364.7,396,364.7,396,366.5,394.8z"/>
	<path class="st121" d="M379.3,396.4c0.1,0.6-0.2,0.9-0.8,0.9c-0.6,0-0.7-0.4-0.7-0.9c0-0.6,0.2-0.9,0.8-0.8
		C379.2,395.5,379.4,395.9,379.3,396.4z"/>
	<path class="st122" d="M373.2,397.2c-1.7,0-1.7,0-1.8-1.7c0.6-0.3,0.9,0.5,1.4,0.3C373.3,396.2,373.5,396.7,373.2,397.2z"/>
	<path class="st123" d="M373.2,397.2c-0.3-0.4-0.4-0.9-0.4-1.4c0.6-0.5,1.2-0.7,1.5,0.2C374.5,396.8,374.3,397.5,373.2,397.2z"/>
	<path class="st61" d="M361.1,396c-0.5,0.4-0.9,0.9-1.3,0.6c-0.4-0.3-0.2-0.9-0.1-1.3C360.3,395.3,360.6,395.7,361.1,396z"/>
	<path class="st124" d="M354.4,397.3c-0.5-1.1-0.5-1.8,0-2.7C354.9,395.5,354.9,396.2,354.4,397.3z"/>
	<path class="st125" d="M353,394.9c0.5,0.6,0.5,1.3,0.2,2.1C352.3,396.3,352.7,395.6,353,394.9z"/>
	<path class="st43" d="M357.3,418.3c0,0.1,0,0.2,0,0.2c-1.1,0.2-2.2,0.1-3.6-0.1C355.1,418.2,356.2,418.1,357.3,418.3z"/>
	<path class="st126" d="M392.5,272.5c-1.9,1.1-3.6,2.1-5.4,3.1c-0.7,0.4-1,0.1-1-0.6c0-1.7,0-3.4,0-5.1c0-0.9,0.4-0.8,1-0.5
		C388.8,270.4,390.6,271.4,392.5,272.5z"/>
	<path class="st0" d="M386.5,375c-5.5,0-9.8-4.4-9.8-10c0-5.5,4.5-10,10-9.9c5.4,0.1,9.9,4.6,9.9,10C396.5,370.6,392,375,386.5,375z
		"/>
	<path class="st127" d="M391.9,365.1c-2.4,1.4-4.5,2.6-6.6,3.8c-0.7,0.4-1.2,0.5-1.2-0.6c0-2.5,0-4.9,0-7.7
		C386.8,362.1,389.2,363.5,391.9,365.1z"/>
</g>
</svg>
