<?xml version="1.0" encoding="utf-8"?>
<!-- Generator: Adobe Illustrator 26.0.1, SVG Export Plug-In . SVG Version: 6.00 Build 0)  -->
<svg version="1.1" id="Layer_1" xmlns="http://www.w3.org/2000/svg" xmlns:xlink="http://www.w3.org/1999/xlink" x="0px" y="0px"
	 viewBox="0 0 500 500" style="enable-background:new 0 0 500 500;" xml:space="preserve">
<style type="text/css">
	.st0{fill:#F5F5F5;}
	.st1{fill:#E0E0E0;}
	.st2{fill:#6E686F;}
	.st3{opacity:0.3;}
	.st4{fill:#FFFFFF;}
	.st5{opacity:0.1;}
	.st6{fill:#F96C46;}
	.st7{opacity:0.1;enable-background:new    ;}
	.st8{opacity:0.65;fill:#FFFFFF;enable-background:new    ;}
	.st9{opacity:0.5;fill:#FFFFFF;enable-background:new    ;}
	.st10{fill:#C63210;}
	.st11{opacity:0.15;fill:#FFFFFF;enable-background:new    ;}
	.st12{opacity:0.85;fill:#FFFFFF;enable-background:new    ;}
	.st13{fill:#455A64;}
	.st14{opacity:0.75;}
	.st15{opacity:0.2;enable-background:new    ;}
	.st16{fill:#37474F;}
	.st17{opacity:0.4;enable-background:new    ;}
	.st18{fill:#263238;}
	.st19{opacity:0.35;enable-background:new    ;}
	.st20{opacity:0.2;}
	.st21{opacity:0.15;enable-background:new    ;}
	.st22{fill:#F48E76;}
	.st23{fill:#AF2809;}
	.st24{fill:#A55B49;}
	.st25{fill:#FAFAFA;}
	.st26{opacity:0.3;enable-background:new    ;}
	.st27{opacity:0.3;fill:#FFFFFF;enable-background:new    ;}
</style>
<g id="freepik--Floor--inject-11">
	<ellipse id="freepik--floor--inject-11" class="st0" cx="250" cy="340.9" rx="239.6" ry="138.4"/>
</g>
<g id="freepik--Shadows--inject-11">
	<path id="freepik--Shadow--inject-11" class="st1" d="M238.4,430.8l-9.8-5.7c-0.4-0.1-0.6-0.6-0.5-1c0.1-0.2,0.3-0.4,0.5-0.5
		L412,317.8c0.8-0.4,1.8-0.4,2.6,0l9.8,5.7c0.7,0.4,0.7,1.1,0,1.5L241,430.8C240.2,431.2,239.2,431.2,238.4,430.8z"/>
	<path id="freepik--shadow--inject-11" class="st1" d="M212.5,331.1L138.2,374c-2,1-4.4,1-6.5,0l-74.2-42.9c-1.8-1-1.8-2.7,0-3.7
		l74.3-42.9c2-1,4.4-1,6.4,0l74.2,42.9C214.3,328.4,214.3,330.1,212.5,331.1z"/>
</g>
<g id="freepik--Plant--inject-11">
	<g id="freepik--Plants--inject-11">
		<path class="st2" d="M417.9,265.3c0,0-2.1-17,3.1-31.9s14.6-25.6,25-28.9s21.2,4.3,11.5,13.7s-28.2,21-31.5,48.1L417.9,265.3z"/>
		<g class="st3">
			<path d="M417.9,265.3c0,0-2.1-17,3.1-31.9s14.6-25.6,25-28.9s21.2,4.3,11.5,13.7s-28.2,21-31.5,48.1L417.9,265.3z"/>
		</g>
		<path class="st4" d="M420,260.3h-0.1c-0.3,0-0.5-0.3-0.5-0.7c0,0,0,0,0,0c4.6-30.1,23.1-46.6,32.2-51.2c0.3-0.1,0.6,0.1,0.7,0.4
			c0,0.2,0,0.4-0.2,0.6c-9,4.4-27.1,20.7-31.6,50.3C420.5,260,420.3,260.3,420,260.3z"/>
		<path class="st2" d="M472,252.8c-1.9,4.6-10,4.1-10.1,9.9c0,1.5,0.7,3,0.8,4.5c0.5,4.7-3.4,7.8-7.6,8.4s-9.2-1.8-13.2,0.7
			c-2.9,1.8-3.7,5.6-5.2,8.7c-3.1,6.1-9.4,9.9-16.2,9.7c-2-0.1-3.7-0.8-3.4-3c0.3-0.7,0.3-1.5,0.2-2.3c-0.2-1.1-0.7-2.2-1.1-3.2
			c-1.5-4.8-2.8-9.7-5.5-14s-0.7-10.6,3-13.6c3.4-2.8,8.4-3.6,11.1-7.1c1.4-1.7,2-3.9,3.2-5.7c2.4-3.8,6.7-5.9,11.1-5.7
			c3.2,0.2,6.1,1.6,9.2,2.4c2.7,0.5,5.4,0.6,8.2,0.3c4.9-0.3,11-0.3,14.2,4.2C472.2,248.6,472.6,250.8,472,252.8z"/>
		<g class="st5">
			<path class="st6" d="M472,252.8c-1.9,4.6-10,4.1-10.1,9.9c0,1.5,0.7,3,0.8,4.5c0.5,4.7-3.4,7.8-7.6,8.4s-9.2-1.8-13.2,0.7
				c-2.9,1.8-3.7,5.6-5.2,8.7c-3.1,6.1-9.4,9.9-16.2,9.7c-2-0.1-3.7-0.8-3.4-3c0.3-0.7,0.3-1.5,0.2-2.3c-0.2-1.1-0.7-2.2-1.1-3.2
				c-1.5-4.8-2.8-9.7-5.5-14s-0.7-10.6,3-13.6c3.4-2.8,8.4-3.6,11.1-7.1c1.4-1.7,2-3.9,3.2-5.7c2.4-3.8,6.7-5.9,11.1-5.7
				c3.2,0.2,6.1,1.6,9.2,2.4c2.7,0.5,5.4,0.6,8.2,0.3c4.9-0.3,11-0.3,14.2,4.2C472.2,248.6,472.6,250.8,472,252.8z"/>
		</g>
		<path class="st4" d="M418.9,284.6L418.9,284.6c-0.3-0.1-0.5-0.3-0.4-0.6c0,0,0,0,0,0c7.2-31.6,40-37.3,47.7-37
			c0.3-0.1,0.6,0.1,0.6,0.4c0.1,0.3-0.1,0.6-0.4,0.6c-0.1,0-0.2,0-0.3,0c-7.6-0.3-39.6,5.3-46.7,36.2
			C419.4,284.5,419.1,284.7,418.9,284.6z"/>
		<path class="st4" d="M454.9,267.4c-0.1,0-0.2-0.1-0.3-0.1c-6.3-5.1-14.6-7.1-22.6-5.5c-0.3,0-0.5-0.1-0.6-0.4
			c-0.1-0.3,0.1-0.5,0.4-0.6c0,0,0,0,0,0c8.3-1.7,16.9,0.4,23.5,5.8c0.2,0.2,0.2,0.5,0,0.7c0,0,0,0,0,0
			C455.2,267.4,455.1,267.4,454.9,267.4z"/>
	</g>
</g>
<g id="freepik--Server--inject-11">
	<g id="freepik--server--inject-11">
		<polygon class="st2" points="207.2,299.4 135.1,341 62.9,299.4 135.1,257.7 		"/>
		<polygon class="st7" points="207.2,299.4 135.1,341 62.9,299.4 135.1,257.7 		"/>
		<polygon class="st7" points="135.1,341 135.1,335.8 67.4,296.8 62.9,299.4 		"/>
		<path class="st2" d="M135.1,341v28.5c1.7,0,3.3-0.4,4.8-1.1l0,0l31.2-18l33.2-19.2c1.7-1.1,2.8-3,2.9-5v-26.8L135.1,341z"/>
		<path class="st8" d="M135.1,341v28.5c1.7,0,3.3-0.4,4.8-1.1l0,0l31.2-18l33.2-19.2c1.7-1.1,2.8-3,2.9-5v-26.8L135.1,341z"/>
		<path class="st2" d="M62.9,299.4v26.8c0.1,2,1.2,3.9,2.9,5l28.7,16.6l35.8,20.6c1.5,0.8,3.1,1.2,4.8,1.1V341L62.9,299.4z"/>
		<path class="st9" d="M62.9,299.4v26.8c0.1,2,1.2,3.9,2.9,5l28.7,16.6l35.8,20.6c1.5,0.8,3.1,1.2,4.8,1.1V341L62.9,299.4z"/>
		<polygon class="st2" points="207.2,268.1 135.1,309.8 62.9,268.1 135.1,226.5 		"/>
		<polygon class="st7" points="207.2,268.1 135.1,309.8 62.9,268.1 135.1,226.5 		"/>
		<polygon class="st7" points="135.1,309.8 135.1,304.6 67.4,265.5 62.9,268.1 		"/>
		<polygon class="st2" points="207.2,288.9 135,330.6 135.1,309.8 207.2,268.1 		"/>
		<polygon class="st8" points="207.2,288.9 135,330.6 135.1,309.8 207.2,268.1 		"/>
		<polygon class="st2" points="135,330.6 62.9,288.9 62.9,268.1 135.1,309.8 		"/>
		<polygon class="st9" points="135,330.6 62.9,288.9 62.9,268.1 135.1,309.8 		"/>
		<polygon class="st6" points="198.1,299.4 198.1,294.1 135,330.6 135.1,335.8 		"/>
		<polygon class="st2" points="67.4,291.5 67.4,296.8 135.1,335.8 135,330.6 		"/>
		<polygon class="st10" points="67.4,291.5 67.4,296.8 135.1,335.8 135,330.6 		"/>
		<polygon class="st2" points="207.2,236.9 135.1,278.5 62.9,236.9 135.1,195.3 		"/>
		<polygon class="st7" points="207.2,236.9 135.1,278.5 62.9,236.9 135.1,195.3 		"/>
		<polygon class="st7" points="135.1,278.5 135.1,273.3 67.4,234.3 62.9,236.9 		"/>
		<polygon class="st2" points="207.2,257.7 135,299.4 135.1,278.5 207.2,236.9 		"/>
		<polygon class="st8" points="207.2,257.7 135,299.4 135.1,278.5 207.2,236.9 		"/>
		<polygon class="st2" points="135,299.4 62.9,257.7 62.9,236.9 135.1,278.5 		"/>
		<polygon class="st9" points="135,299.4 62.9,257.7 62.9,236.9 135.1,278.5 		"/>
		<polygon class="st6" points="198.1,268.1 198.1,262.9 135,299.4 135.1,304.6 		"/>
		<polygon class="st10" points="67.4,260.3 67.4,265.5 135.1,304.6 135,299.4 		"/>
		<polygon class="st6" points="198.1,236.9 198.1,231.7 135,268.1 135.1,273.3 		"/>
		<polygon class="st10" points="67.4,229.1 67.4,234.3 135.1,273.3 135,268.1 		"/>
		<polygon class="st2" points="207.2,205.7 135.1,247.3 62.9,205.7 135.1,164 		"/>
		<polygon class="st11" points="207.2,205.7 135.1,247.3 62.9,205.7 135.1,164 		"/>
		<polygon class="st7" points="207.2,205.7 135.1,247.3 62.9,205.7 135.1,164 		"/>
		<polygon class="st7" points="135.1,242.1 135.1,247.3 62.9,205.7 67.4,203.1 		"/>
		<polygon class="st2" points="207.2,226.5 135,268.1 135.1,247.3 207.2,205.7 		"/>
		<polygon class="st8" points="207.2,226.5 135,268.1 135.1,247.3 207.2,205.7 		"/>
		<polygon class="st2" points="135,268.1 62.9,226.5 62.9,205.7 135.1,247.3 		"/>
		<polygon class="st9" points="135,268.1 62.9,226.5 62.9,205.7 135.1,247.3 		"/>
		<polygon class="st6" points="198.1,205.7 198.1,200.5 135,236.9 135.1,242.1 		"/>
		<polygon class="st10" points="67.4,197.9 67.4,203.1 135.1,242.1 135,236.9 		"/>
		<polygon class="st2" points="207.2,174.4 135.1,216 62.9,174.4 135.1,132.7 		"/>
		<polygon class="st11" points="207.2,174.4 135.1,216 62.9,174.4 135.1,132.7 		"/>
		<polygon class="st7" points="207.2,174.4 135.1,216 62.9,174.4 135.1,132.7 		"/>
		<polygon class="st7" points="135.1,210.8 135.1,216 62.9,174.4 67.4,171.8 		"/>
		<polygon class="st2" points="207.2,195.2 135,236.8 135.1,216 207.2,174.4 		"/>
		<polygon class="st8" points="207.2,195.2 135,236.8 135.1,216 207.2,174.4 		"/>
		<polygon class="st2" points="135,236.8 62.9,195.2 62.9,174.4 135.1,216 		"/>
		<polygon class="st9" points="135,236.8 62.9,195.2 62.9,174.4 135.1,216 		"/>
		<path class="st2" d="M65.8,141.5l66.4-38.3c1.8-0.9,4-0.9,5.8,0l66.3,38.3c1.7,1.1,2.8,3,2.9,5V164L135,205.6l0,0L62.9,164v-17.5
			C63,144.5,64.1,142.6,65.8,141.5z"/>
		<path class="st9" d="M65.8,141.5l66.4-38.3c1.8-0.9,4-0.9,5.8,0l66.3,38.3c1.7,1.1,2.8,3,2.9,5V164L135,205.6l0,0L62.9,164v-17.5
			C63,144.5,64.1,142.6,65.8,141.5z"/>
		<path class="st2" d="M135,183.8v21.8l72.2-41.6v-17.5c-0.1-1.8-1-3.5-2.4-4.6c1,0.9,0.9,2.2-0.5,3l-66.4,38.3
			C137,183.6,136,183.8,135,183.8z"/>
		<path class="st8" d="M135,183.8v21.8l72.2-41.6v-17.5c-0.1-1.8-1-3.5-2.4-4.6c1,0.9,0.9,2.2-0.5,3l-66.4,38.3
			C137,183.6,136,183.8,135,183.8z"/>
		<path class="st2" d="M204.3,144.8l-66.4,38.3c-1.8,0.9-4,0.9-5.8,0l-66.3-38.3c-1.6-0.9-1.6-2.4,0-3.3l66.4-38.3
			c1.8-0.9,4-0.9,5.8,0l66.3,38.3C205.9,142.4,205.9,143.9,204.3,144.8z"/>
		<path class="st12" d="M204.3,144.8l-66.4,38.3c-1.8,0.9-4,0.9-5.8,0l-66.3-38.3c-1.6-0.9-1.6-2.4,0-3.3l66.4-38.3
			c1.8-0.9,4-0.9,5.8,0l66.3,38.3C205.9,142.4,205.9,143.9,204.3,144.8z"/>
		<polygon class="st6" points="198.1,174.4 198.1,169.2 135,205.6 135.1,210.8 		"/>
		<polygon class="st10" points="67.4,166.6 67.4,171.8 135.1,210.8 135,205.6 		"/>
		<path class="st13" d="M78.6,332.5c0.6,0.4,1,1,1,1.7c0,0.6-0.4,0.9-1,0.6c-0.6-0.4-1-1-1-1.7C77.6,332.5,78.1,332.2,78.6,332.5z"
			/>
		<path class="st13" d="M87,337.4c0.6,0.4,1,1,1,1.7c0,0.6-0.4,0.9-1,0.6c-0.6-0.4-1-1-1-1.7C86,337.3,86.4,337,87,337.4z"/>
		<path class="st13" d="M95.2,342.1c0.6,0.4,1,1,1,1.7c0,0.6-0.4,0.9-1,0.6c-0.6-0.4-1-1-1-1.7C94.2,342,94.6,341.8,95.2,342.1z"/>
		<path class="st13" d="M103.4,346.9c0.6,0.4,1,1,1,1.7c0,0.6-0.4,0.9-1,0.6c-0.6-0.4-1-1-1-1.7
			C102.4,346.8,102.9,346.6,103.4,346.9z"/>
		<g class="st14">
			<path class="st4" d="M68.9,308l8.5,4.9c1.4,0.9,2.3,2.5,2.4,4.2v4.9c0,1.5-1.1,2.1-2.4,1.4l-8.5-4.9c-1.4-0.9-2.3-2.5-2.4-4.2
				v-4.9C66.5,307.8,67.6,307.2,68.9,308z"/>
		</g>
		<path class="st2" d="M71.2,313.5l1.1-0.6l0,0c0.5-0.2,1-0.2,1.5,0.1c1.2,0.8,2,2.1,2.1,3.6c0.1,0.5-0.2,1-0.6,1.4l0,0l-1,0.6
			l-0.2-0.3c-0.2-0.1-0.4-0.1-0.6-0.2c-1.2-0.8-2-2.1-2.1-3.6c0-0.2,0-0.4,0.1-0.5L71.2,313.5z"/>
		<path class="st15" d="M71.2,313.5l1.1-0.6l0,0c0.5-0.2,1-0.2,1.5,0.1c1.2,0.8,2,2.1,2.1,3.6c0.1,0.5-0.2,1-0.6,1.4l0,0l-1,0.6
			l-0.2-0.3c-0.2-0.1-0.4-0.1-0.6-0.2c-1.2-0.8-2-2.1-2.1-3.6c0-0.2,0-0.4,0.1-0.5L71.2,313.5z"/>
		<path class="st2" d="M72.7,313.6c1.2,0.8,2,2.1,2.1,3.6c0,1.3-0.9,1.9-2.1,1.2c-1.2-0.8-2-2.2-2.1-3.6
			C70.6,313.4,71.5,312.9,72.7,313.6z"/>
		<g class="st14">
			<path class="st4" d="M68.9,276.7l8.5,4.9c1.4,0.9,2.3,2.5,2.4,4.2v4.9c0,1.5-1.1,2.1-2.4,1.4l-8.5-4.9c-1.4-0.9-2.3-2.4-2.4-4.1
				v-4.9C66.5,276.6,67.6,276,68.9,276.7z"/>
		</g>
		<path class="st2" d="M71.2,282.2l1.1-0.6l0,0c0.5-0.2,1-0.2,1.5,0.1c1.2,0.8,2,2.1,2.1,3.6c0.1,0.5-0.2,1-0.6,1.4l0,0l-1,0.6
			L74,287c-0.2,0-0.4-0.1-0.6-0.2c-1.2-0.8-2-2.1-2.1-3.6c0-0.2,0-0.4,0.1-0.5L71.2,282.2z"/>
		<path class="st15" d="M71.2,282.2l1.1-0.6l0,0c0.5-0.2,1-0.2,1.5,0.1c1.2,0.8,2,2.1,2.1,3.6c0.1,0.5-0.2,1-0.6,1.4l0,0l-1,0.6
			L74,287c-0.2,0-0.4-0.1-0.6-0.2c-1.2-0.8-2-2.1-2.1-3.6c0-0.2,0-0.4,0.1-0.5L71.2,282.2z"/>
		<path class="st2" d="M72.7,282.3c1.2,0.8,2,2.1,2.1,3.6c0,1.3-0.9,1.9-2.1,1.2c-1.2-0.8-2-2.2-2.1-3.6
			C70.6,282.2,71.5,281.6,72.7,282.3z"/>
		<g class="st14">
			<path class="st4" d="M68.9,245.5l8.5,4.9c1.4,0.9,2.3,2.5,2.4,4.2v4.9c0,1.5-1.1,2.2-2.4,1.4l-8.5-4.9c-1.4-0.9-2.3-2.5-2.4-4.2
				v-4.9C66.5,245.3,67.6,244.7,68.9,245.5z"/>
		</g>
		<path class="st2" d="M71.2,251l1.1-0.6l0,0c0.5-0.2,1-0.2,1.5,0.1c1.2,0.8,2,2.2,2.1,3.6c0.1,0.5-0.2,1-0.6,1.4l0,0l-1,0.6
			l-0.2-0.3c-0.2,0-0.4-0.1-0.6-0.2c-1.2-0.8-2-2.1-2.1-3.6c0-0.2,0-0.4,0.1-0.5L71.2,251z"/>
		<path class="st15" d="M71.2,251l1.1-0.6l0,0c0.5-0.2,1-0.2,1.5,0.1c1.2,0.8,2,2.2,2.1,3.6c0.1,0.5-0.2,1-0.6,1.4l0,0l-1,0.6
			l-0.2-0.3c-0.2,0-0.4-0.1-0.6-0.2c-1.2-0.8-2-2.1-2.1-3.6c0-0.2,0-0.4,0.1-0.5L71.2,251z"/>
		<path class="st2" d="M72.7,251.1c1.2,0.8,2,2.2,2.1,3.6c0,1.3-0.9,1.9-2.1,1.2c-1.2-0.8-2-2.2-2.1-3.6
			C70.6,251,71.5,250.4,72.7,251.1z"/>
		<g class="st14">
			<path class="st4" d="M68.9,214.3l8.5,4.9c1.4,0.9,2.3,2.5,2.4,4.2v4.9c0,1.5-1.1,2.1-2.4,1.4l-8.5-4.9c-1.4-0.9-2.3-2.5-2.4-4.2
				v-4.9C66.5,214.1,67.6,213.5,68.9,214.3z"/>
		</g>
		<path class="st2" d="M71.2,219.8l1.1-0.6l0,0c0.5-0.2,1-0.2,1.5,0.1c1.2,0.8,2,2.2,2.1,3.6c0.1,0.5-0.2,1-0.6,1.4l0,0l-1,0.6
			l-0.2-0.3c-0.2,0-0.4-0.1-0.6-0.2c-1.2-0.8-2-2.1-2.1-3.6c0-0.2,0-0.4,0.1-0.5L71.2,219.8z"/>
		<path class="st15" d="M71.2,219.8l1.1-0.6l0,0c0.5-0.2,1-0.2,1.5,0.1c1.2,0.8,2,2.2,2.1,3.6c0.1,0.5-0.2,1-0.6,1.4l0,0l-1,0.6
			l-0.2-0.3c-0.2,0-0.4-0.1-0.6-0.2c-1.2-0.8-2-2.1-2.1-3.6c0-0.2,0-0.4,0.1-0.5L71.2,219.8z"/>
		<path class="st2" d="M72.7,219.9c1.2,0.8,2,2.1,2.1,3.6c0,1.3-0.9,1.9-2.1,1.2c-1.2-0.8-2-2.1-2.1-3.6
			C70.6,219.8,71.5,219.2,72.7,219.9z"/>
		<g class="st14">
			<path class="st4" d="M68.9,183l8.5,4.9c1.4,0.9,2.3,2.5,2.4,4.2v4.9c0,1.5-1.1,2.2-2.4,1.4l-8.5-4.9c-1.4-0.9-2.3-2.5-2.4-4.2
				v-4.9C66.5,182.9,67.6,182.2,68.9,183z"/>
		</g>
		<path class="st2" d="M71.2,188.5l1.1-0.6l0,0c0.5-0.2,1-0.2,1.5,0.1c1.2,0.8,2,2.2,2.1,3.6c0.1,0.5-0.2,1-0.6,1.4l0,0l-1,0.6
			l-0.2-0.3c-0.2,0-0.4-0.1-0.6-0.2c-1.2-0.8-2-2.1-2.1-3.6c0-0.2,0-0.4,0.1-0.5L71.2,188.5z"/>
		<path class="st15" d="M71.2,188.5l1.1-0.6l0,0c0.5-0.2,1-0.2,1.5,0.1c1.2,0.8,2,2.2,2.1,3.6c0.1,0.5-0.2,1-0.6,1.4l0,0l-1,0.6
			l-0.2-0.3c-0.2,0-0.4-0.1-0.6-0.2c-1.2-0.8-2-2.1-2.1-3.6c0-0.2,0-0.4,0.1-0.5L71.2,188.5z"/>
		<path class="st2" d="M72.7,188.6c1.2,0.8,2,2.2,2.1,3.6c0,1.3-0.9,1.9-2.1,1.2c-1.2-0.8-2-2.1-2.1-3.6
			C70.6,188.5,71.5,187.9,72.7,188.6z"/>
		<g class="st14">
			<path class="st4" d="M68.9,151.8l8.5,4.9c1.4,0.9,2.3,2.5,2.4,4.2v4.9c0,1.5-1.1,2.1-2.4,1.4l-8.5-4.9c-1.4-0.9-2.3-2.5-2.4-4.2
				v-4.9C66.5,151.6,67.6,151,68.9,151.8z"/>
		</g>
		<path class="st2" d="M71.2,157.2l1.1-0.6l0,0c0.5-0.2,1-0.2,1.5,0.1c1.2,0.8,2,2.1,2.1,3.6c0.1,0.5-0.2,1-0.6,1.4l0,0l-1,0.6
			L74,162c-0.2-0.1-0.4-0.1-0.6-0.2c-1.2-0.8-2-2.1-2.1-3.6c0-0.2,0-0.4,0.1-0.5L71.2,157.2z"/>
		<path class="st15" d="M71.2,157.2l1.1-0.6l0,0c0.5-0.2,1-0.2,1.5,0.1c1.2,0.8,2,2.1,2.1,3.6c0.1,0.5-0.2,1-0.6,1.4l0,0l-1,0.6
			L74,162c-0.2-0.1-0.4-0.1-0.6-0.2c-1.2-0.8-2-2.1-2.1-3.6c0-0.2,0-0.4,0.1-0.5L71.2,157.2z"/>
		<path class="st2" d="M72.7,157.4c1.2,0.8,2,2.2,2.1,3.6c0,1.3-0.9,1.9-2.1,1.2c-1.2-0.8-2-2.2-2.1-3.6
			C70.6,157.2,71.5,156.7,72.7,157.4z"/>
		<path class="st13" d="M200.2,308.6l-35.8,20.6c-1.4,0.9-2.3,2.5-2.4,4.2v4.9c0,1.5,1.1,2.1,2.4,1.4l35.8-20.6
			c1.4-0.9,2.3-2.5,2.4-4.2V310C202.7,308.4,201.6,307.8,200.2,308.6z"/>
		<path class="st2" d="M200.1,312.7v2.3c0,0.3-0.2,0.7-0.5,0.8l-0.5,0.3c-0.3,0.1-0.5,0-0.5-0.3v-2.4c0-0.3,0.2-0.6,0.5-0.8l0.5-0.3
			C199.9,312.2,200.1,312.4,200.1,312.7z"/>
		<path class="st2" d="M197.7,314.1v2.4c0,0.3-0.2,0.7-0.5,0.8l-0.5,0.3c-0.3,0.1-0.5,0-0.5-0.3v-2.4c0-0.3,0.2-0.6,0.5-0.8l0.5-0.3
			C197.5,313.6,197.7,313.8,197.7,314.1z"/>
		<path class="st2" d="M195.3,315.5v2.4c0,0.3-0.2,0.6-0.5,0.8l-0.6,0.3c-0.3,0.1-0.5,0-0.5-0.3v-2.4c0-0.3,0.2-0.6,0.5-0.8l0.6-0.3
			C195.1,315,195.3,315.2,195.3,315.5z"/>
		<path class="st16" d="M192.8,316.9v2.4c0,0.3-0.2,0.6-0.5,0.8l-0.5,0.3c-0.3,0.1-0.5,0-0.5-0.3v-2.4c0-0.3,0.2-0.7,0.5-0.8
			l0.5-0.3C192.6,316.4,192.8,316.6,192.8,316.9z"/>
		<path class="st16" d="M190.4,318.3v2.4c0,0.3-0.2,0.6-0.5,0.8l-0.5,0.3c-0.3,0.1-0.5,0-0.5-0.3v-2.4c0-0.3,0.2-0.7,0.5-0.8
			l0.5-0.3C190.2,317.8,190.4,318,190.4,318.3z"/>
		<path class="st2" d="M188,319.7v2.3c0,0.3-0.2,0.7-0.5,0.8l-0.5,0.3c-0.3,0.1-0.5,0-0.5-0.3v-2.4c0-0.3,0.2-0.7,0.5-0.8l0.5-0.3
			C187.8,319.2,188,319.4,188,319.7z"/>
		<path class="st2" d="M185.6,321.1v2.4c0,0.3-0.2,0.7-0.5,0.8l-0.5,0.3c-0.1,0.1-0.3,0.1-0.4-0.1c0-0.1-0.1-0.1-0.1-0.2v-2.4
			c0-0.3,0.2-0.6,0.5-0.8l0.5-0.3C185.3,320.6,185.6,320.8,185.6,321.1z"/>
		<path class="st2" d="M183.1,322.5v2.4c0,0.3-0.2,0.7-0.5,0.8l-0.5,0.3c-0.1,0.1-0.3,0.1-0.4-0.1c0-0.1-0.1-0.1-0.1-0.2v-2.4
			c0-0.3,0.2-0.6,0.5-0.8l0.5-0.3C182.9,322,183.1,322.2,183.1,322.5z"/>
		<path class="st2" d="M180.7,323.9v2.4c0,0.3-0.2,0.6-0.5,0.8l-0.6,0.3c-0.1,0.1-0.3,0.1-0.4-0.1c0-0.1-0.1-0.1-0.1-0.2v-2.4
			c0-0.3,0.2-0.6,0.5-0.8l0.6-0.3C180.5,323.4,180.7,323.6,180.7,323.9z"/>
		<path class="st2" d="M178.3,325.3v2.4c0,0.3-0.2,0.6-0.5,0.8l-0.5,0.3c-0.3,0.1-0.5,0-0.5-0.3v-2.4c0-0.3,0.2-0.7,0.5-0.8l0.5-0.3
			C178.1,324.8,178.3,325,178.3,325.3z"/>
		<path class="st2" d="M175.8,326.7v2.3c0,0.3-0.2,0.6-0.5,0.8l-0.5,0.3c-0.3,0.1-0.5,0-0.5-0.3v-2.4c0-0.3,0.2-0.7,0.5-0.8l0.5-0.3
			C175.6,326.2,175.8,326.4,175.8,326.7z"/>
		<path class="st2" d="M173.4,328.1v2.4c0,0.3-0.2,0.7-0.5,0.8l-0.5,0.3c-0.3,0.1-0.5,0-0.5-0.3v-2.4c0-0.3,0.2-0.7,0.5-0.8l0.5-0.3
			C173.2,327.6,173.4,327.8,173.4,328.1z"/>
		<path class="st16" d="M171,329.5v2.4c0,0.3-0.2,0.7-0.5,0.8L170,333c-0.1,0.1-0.3,0.1-0.4-0.1c0-0.1-0.1-0.1-0.1-0.2v-2.4
			c0-0.3,0.2-0.6,0.5-0.8l0.5-0.3C170.8,329,171,329.2,171,329.5z"/>
		<path class="st2" d="M168.6,330.9v2.4c0,0.3-0.2,0.7-0.5,0.8l-0.5,0.3c-0.3,0.2-0.5,0-0.5-0.3v-2.4c0-0.3,0.2-0.6,0.5-0.8l0.5-0.3
			C168.3,330.4,168.6,330.6,168.6,330.9z"/>
		<path class="st2" d="M166.1,332.3v2.4c0,0.3-0.2,0.6-0.5,0.8l-0.6,0.3c-0.3,0.2-0.5,0-0.5-0.3v-2.4c0-0.3,0.2-0.6,0.5-0.8l0.6-0.3
			c0.1-0.1,0.3-0.1,0.4,0.1C166.1,332.1,166.1,332.2,166.1,332.3z"/>
		<path class="st13" d="M200.2,277.3L164.5,298c-1.4,0.9-2.3,2.5-2.4,4.2v4.8c0,1.5,1.1,2.2,2.4,1.4l35.8-20.6
			c1.4-0.9,2.3-2.5,2.4-4.2v-4.9C202.7,277.2,201.6,276.6,200.2,277.3z"/>
		<path class="st2" d="M200.1,281.5v2.4c0,0.3-0.2,0.7-0.5,0.8l-0.5,0.3c-0.3,0.2-0.5,0-0.5-0.3v-2.4c0-0.3,0.2-0.6,0.5-0.8l0.5-0.3
			C199.9,281,200.1,281.1,200.1,281.5z"/>
		<path class="st16" d="M197.7,282.9v2.4c0,0.3-0.2,0.7-0.5,0.8l-0.5,0.3c-0.3,0.2-0.5,0-0.5-0.3v-2.4c0-0.3,0.2-0.6,0.5-0.8
			l0.5-0.3C197.5,282.4,197.7,282.5,197.7,282.9z"/>
		<path class="st2" d="M195.3,284.2v2.4c0,0.3-0.2,0.6-0.5,0.8l-0.6,0.3c-0.3,0.2-0.5,0-0.5-0.3v-2.4c0-0.3,0.2-0.6,0.5-0.8l0.6-0.3
			c0.1-0.1,0.3-0.1,0.4,0.1C195.3,284.1,195.3,284.2,195.3,284.2z"/>
		<path class="st16" d="M192.8,285.6v2.4c0,0.3-0.2,0.6-0.5,0.8l-0.5,0.3c-0.3,0.2-0.5,0-0.5-0.3v-2.4c0-0.3,0.2-0.7,0.5-0.8
			l0.5-0.3c0.1-0.1,0.3-0.1,0.4,0.1C192.8,285.5,192.9,285.6,192.8,285.6z"/>
		<path class="st16" d="M190.4,287v2.4c0,0.3-0.2,0.6-0.5,0.8l-0.5,0.3c-0.3,0.2-0.5,0-0.5-0.3v-2.4c0-0.3,0.2-0.7,0.5-0.8l0.5-0.3
			C190.2,286.6,190.4,286.7,190.4,287z"/>
		<path class="st2" d="M188,288.5v2.4c0,0.3-0.2,0.7-0.5,0.8L187,292c-0.3,0.2-0.5,0-0.5-0.3v-2.4c0-0.3,0.2-0.7,0.5-0.8l0.5-0.3
			C187.8,288,188,288.1,188,288.5z"/>
		<path class="st2" d="M185.6,289.9v2.4c0,0.3-0.2,0.7-0.5,0.8l-0.5,0.3c-0.3,0.2-0.5,0-0.5-0.3v-2.4c0-0.3,0.2-0.6,0.5-0.8l0.5-0.3
			C185.3,289.4,185.6,289.5,185.6,289.9z"/>
		<path class="st2" d="M183.1,291.2v2.4c0,0.3-0.2,0.7-0.5,0.8l-0.5,0.3c-0.3,0.2-0.5,0-0.5-0.3v-2.4c0-0.3,0.2-0.6,0.5-0.8l0.5-0.3
			C182.9,290.8,183.1,290.9,183.1,291.2z"/>
		<path class="st16" d="M180.7,292.6v2.4c0,0.3-0.2,0.6-0.5,0.8l-0.6,0.3c-0.3,0.2-0.5,0-0.5-0.3v-2.4c0-0.3,0.2-0.6,0.5-0.8
			l0.6-0.3C180.5,292.2,180.7,292.3,180.7,292.6z"/>
		<path class="st2" d="M178.3,294v2.4c0,0.3-0.2,0.6-0.5,0.8l-0.5,0.3c-0.3,0.2-0.5,0-0.5-0.3v-2.4c0-0.3,0.2-0.7,0.5-0.8l0.5-0.3
			C178.1,293.6,178.3,293.7,178.3,294z"/>
		<path class="st16" d="M175.8,295.5v2.4c0,0.3-0.2,0.6-0.5,0.8l-0.5,0.3c-0.3,0.2-0.5,0-0.5-0.3v-2.4c0-0.3,0.2-0.7,0.5-0.8
			l0.5-0.3C175.6,295,175.8,295.1,175.8,295.5z"/>
		<path class="st2" d="M173.4,296.9v2.4c0,0.3-0.2,0.7-0.5,0.8l-0.5,0.3c-0.3,0.2-0.5,0-0.5-0.3v-2.4c0-0.3,0.2-0.7,0.5-0.8l0.5-0.3
			C173.2,296.4,173.4,296.5,173.4,296.9z"/>
		<path class="st16" d="M171,298.2v2.4c0,0.3-0.2,0.6-0.5,0.8l-0.5,0.3c-0.3,0.2-0.5,0-0.5-0.3v-2.4c0-0.3,0.2-0.6,0.5-0.8l0.5-0.3
			C170.8,297.8,171,297.9,171,298.2z"/>
		<path class="st2" d="M168.6,299.6v2.4c0,0.3-0.2,0.6-0.5,0.8l-0.5,0.3c-0.3,0.2-0.5,0-0.5-0.3v-2.4c0-0.3,0.2-0.6,0.5-0.8l0.5-0.3
			C168.3,299.2,168.6,299.3,168.6,299.6z"/>
		<path class="st2" d="M166.1,301v2.4c0,0.3-0.2,0.6-0.5,0.8l-0.6,0.3c-0.3,0.2-0.5,0-0.5-0.3v-2.4c0-0.3,0.2-0.6,0.5-0.8l0.6-0.3
			C165.9,300.6,166.1,300.7,166.1,301z"/>
		<path class="st13" d="M200.2,246.1l-35.8,20.6c-1.4,0.9-2.3,2.5-2.4,4.2v4.9c0,1.5,1.1,2.1,2.4,1.4l35.8-20.6
			c1.4-0.9,2.3-2.5,2.4-4.2v-4.9C202.7,245.9,201.6,245.3,200.2,246.1z"/>
		<path class="st2" d="M200.1,250.2v2.4c0,0.3-0.2,0.7-0.5,0.8l-0.5,0.3c-0.3,0.1-0.5,0-0.5-0.3v-2.4c0-0.3,0.2-0.6,0.5-0.8l0.5-0.3
			C199.9,249.8,200.1,249.9,200.1,250.2z"/>
		<path class="st2" d="M197.7,251.6v2.4c0,0.3-0.2,0.7-0.5,0.8l-0.5,0.3c-0.3,0.1-0.5,0-0.5-0.3v-2.4c0-0.3,0.2-0.6,0.5-0.8l0.5-0.3
			C197.5,251.2,197.7,251.3,197.7,251.6z"/>
		<path class="st2" d="M195.3,253v2.4c0,0.3-0.2,0.6-0.5,0.8l-0.6,0.3c-0.1,0.1-0.3,0.1-0.4-0.1c0-0.1-0.1-0.1-0.1-0.2v-2.4
			c0-0.3,0.2-0.6,0.5-0.8l0.6-0.3C195.1,252.6,195.3,252.7,195.3,253z"/>
		<path class="st2" d="M192.8,254.4v2.4c0,0.3-0.2,0.6-0.5,0.8l-0.5,0.3c-0.3,0.1-0.5,0-0.5-0.3v-2.4c0-0.3,0.2-0.7,0.5-0.8l0.5-0.3
			C192.6,254,192.8,254.1,192.8,254.4z"/>
		<path class="st16" d="M190.4,255.8v2.4c0,0.3-0.2,0.6-0.5,0.8l-0.5,0.3c-0.3,0.1-0.5,0-0.5-0.3v-2.4c0-0.3,0.2-0.7,0.5-0.8
			l0.5-0.3C190.2,255.4,190.4,255.5,190.4,255.8z"/>
		<path class="st16" d="M188,257.2v2.4c0,0.3-0.2,0.7-0.5,0.8l-0.5,0.3c-0.3,0.1-0.5,0-0.5-0.3v-2.4c0-0.3,0.2-0.7,0.5-0.8l0.5-0.3
			C187.8,256.8,188,256.9,188,257.2z"/>
		<path class="st2" d="M185.6,258.6v2.4c0,0.3-0.2,0.7-0.5,0.8l-0.5,0.3c-0.1,0.1-0.3,0.1-0.4-0.1c0-0.1-0.1-0.1-0.1-0.2v-2.4
			c0-0.3,0.2-0.6,0.5-0.8l0.5-0.3C185.3,258.2,185.6,258.3,185.6,258.6z"/>
		<path class="st2" d="M183.1,260v2.4c0,0.3-0.2,0.7-0.5,0.8l-0.5,0.3c-0.1,0.1-0.3,0.1-0.4-0.1c0-0.1-0.1-0.1-0.1-0.2v-2.4
			c0-0.3,0.2-0.6,0.5-0.8l0.5-0.3C182.9,259.6,183.1,259.7,183.1,260z"/>
		<path class="st2" d="M180.7,261.4v2.4c0,0.3-0.2,0.6-0.5,0.8l-0.6,0.3c-0.1,0.1-0.3,0.1-0.4-0.1c0-0.1-0.1-0.1-0.1-0.2v-2.4
			c0-0.3,0.2-0.6,0.5-0.8l0.6-0.3C180.5,261,180.7,261.1,180.7,261.4z"/>
		<path class="st16" d="M178.3,262.8v2.4c0,0.3-0.2,0.6-0.5,0.8l-0.5,0.3c-0.3,0.2-0.5,0-0.5-0.3v-2.4c0-0.3,0.2-0.7,0.5-0.8
			l0.5-0.3C178.1,262.4,178.3,262.5,178.3,262.8z"/>
		<path class="st2" d="M175.8,264.2v2.4c0,0.3-0.2,0.6-0.5,0.8l-0.5,0.3c-0.3,0.2-0.5,0-0.5-0.3v-2.4c0-0.3,0.2-0.7,0.5-0.8l0.5-0.3
			c0.1-0.1,0.3-0.1,0.4,0.1C175.8,264,175.9,264.1,175.8,264.2z"/>
		<path class="st2" d="M173.4,265.6v2.4c0,0.3-0.2,0.7-0.5,0.8l-0.5,0.3c-0.3,0.2-0.5,0-0.5-0.3v-2.4c0-0.3,0.2-0.7,0.5-0.8l0.5-0.3
			C173.2,265.2,173.4,265.3,173.4,265.6z"/>
		<path class="st16" d="M171,267v2.4c0,0.3-0.2,0.7-0.5,0.8l-0.5,0.3c-0.3,0.2-0.5,0-0.5-0.3v-2.4c0-0.4,0.2-0.7,0.5-0.9l0.5-0.3
			C170.8,266.6,171,266.7,171,267z"/>
		<path class="st2" d="M168.6,268.4v2.4c0,0.3-0.2,0.7-0.5,0.8l-0.5,0.3c-0.3,0.2-0.5,0-0.5-0.3v-2.4c0-0.3,0.2-0.6,0.5-0.8l0.5-0.3
			C168.3,268,168.6,268.1,168.6,268.4z"/>
		<path class="st16" d="M166.1,269.8v2.4c0,0.3-0.2,0.6-0.5,0.8l-0.6,0.3c-0.3,0.2-0.5,0-0.5-0.3v-2.4c0-0.3,0.2-0.6,0.5-0.8
			l0.6-0.3c0.1-0.1,0.3-0.1,0.4,0.1C166.1,269.6,166.1,269.7,166.1,269.8z"/>
		<path class="st13" d="M200.2,214.9l-35.8,20.6c-1.4,0.9-2.3,2.5-2.4,4.2v4.9c0,1.5,1.1,2.2,2.4,1.4l35.8-20.6
			c1.4-0.9,2.3-2.5,2.4-4.2v-4.9C202.7,214.7,201.6,214.1,200.2,214.9z"/>
		<path class="st2" d="M200.1,219v2.4c0,0.3-0.2,0.6-0.5,0.8l-0.5,0.3c-0.3,0.2-0.5,0-0.5-0.3v-2.4c0-0.3,0.2-0.6,0.5-0.8l0.5-0.3
			C199.9,218.6,200.1,218.7,200.1,219z"/>
		<path class="st16" d="M197.7,220.4v2.4c0,0.3-0.2,0.6-0.5,0.8l-0.5,0.3c-0.3,0.1-0.5,0-0.5-0.3v-2.4c0-0.3,0.2-0.6,0.5-0.8
			l0.5-0.3C197.5,220,197.7,220.1,197.7,220.4z"/>
		<path class="st2" d="M195.3,221.8v2.4c0,0.3-0.2,0.6-0.5,0.8l-0.6,0.3c-0.3,0.1-0.5,0-0.5-0.3v-2.4c0-0.3,0.2-0.6,0.5-0.8l0.6-0.3
			C195.1,221.4,195.3,221.5,195.3,221.8z"/>
		<path class="st2" d="M192.8,223.2v2.4c0,0.3-0.2,0.6-0.5,0.8l-0.5,0.3c-0.3,0.1-0.5,0-0.5-0.3v-2.4c0-0.3,0.2-0.7,0.5-0.8l0.5-0.3
			C192.6,222.8,192.8,222.9,192.8,223.2z"/>
		<path class="st2" d="M190.4,224.6v2.4c0,0.3-0.2,0.6-0.5,0.8l-0.5,0.3c-0.3,0.1-0.5,0-0.5-0.3v-2.4c0-0.3,0.2-0.7,0.5-0.8l0.5-0.3
			C190.2,224.2,190.4,224.3,190.4,224.6z"/>
		<path class="st16" d="M188,226v2.4c0,0.3-0.2,0.6-0.5,0.8l-0.5,0.3c-0.3,0.1-0.5,0-0.5-0.3v-2.4c0-0.4,0.2-0.7,0.5-0.9l0.5-0.3
			C187.8,225.6,188,225.7,188,226z"/>
		<path class="st16" d="M185.6,227.4v2.4c0,0.3-0.2,0.6-0.5,0.8l-0.5,0.3c-0.3,0.1-0.5,0-0.5-0.3v-2.4c0-0.3,0.2-0.6,0.5-0.8
			l0.5-0.3C185.3,227,185.6,227.1,185.6,227.4z"/>
		<path class="st2" d="M183.1,228.8v2.4c0,0.3-0.2,0.6-0.5,0.8l-0.5,0.3c-0.3,0.1-0.5,0-0.5-0.3v-2.4c0-0.3,0.2-0.6,0.5-0.8l0.5-0.3
			C182.9,228.4,183.1,228.5,183.1,228.8z"/>
		<path class="st16" d="M180.7,230.2v2.4c0,0.3-0.2,0.6-0.5,0.8l-0.6,0.3c-0.3,0.1-0.5,0-0.5-0.3v-2.4c0-0.3,0.2-0.6,0.5-0.8
			l0.6-0.3C180.5,229.8,180.7,229.9,180.7,230.2z"/>
		<path class="st2" d="M178.3,231.6v2.4c0,0.3-0.2,0.6-0.5,0.8l-0.5,0.3c-0.3,0.1-0.5,0-0.5-0.3v-2.4c0-0.3,0.2-0.6,0.5-0.8l0.5-0.3
			C178.1,231.2,178.3,231.3,178.3,231.6z"/>
		<path class="st2" d="M175.8,233v2.4c0,0.3-0.2,0.6-0.5,0.8l-0.5,0.3c-0.3,0.1-0.5,0-0.5-0.3v-2.4c0-0.3,0.2-0.6,0.5-0.8l0.5-0.3
			C175.6,232.6,175.8,232.7,175.8,233z"/>
		<path class="st2" d="M173.4,234.4v2.4c0,0.3-0.2,0.6-0.5,0.8l-0.5,0.3c-0.3,0.1-0.5,0-0.5-0.3v-2.4c0-0.3,0.2-0.6,0.5-0.8l0.5-0.3
			C173.2,234,173.4,234.1,173.4,234.4z"/>
		<path class="st16" d="M171,235.8v2.4c0,0.3-0.2,0.6-0.5,0.8l-0.5,0.3c-0.3,0.1-0.5,0-0.5-0.3v-2.4c0-0.3,0.2-0.6,0.5-0.8l0.5-0.3
			C170.8,235.4,171,235.5,171,235.8z"/>
		<path class="st2" d="M168.6,237.2v2.4c0,0.3-0.2,0.6-0.5,0.8l-0.5,0.3c-0.3,0.1-0.5,0-0.5-0.3v-2.4c0-0.3,0.2-0.6,0.5-0.8l0.5-0.3
			C168.3,236.8,168.6,236.9,168.6,237.2z"/>
		<path class="st2" d="M166.1,238.6v2.4c0,0.3-0.2,0.6-0.5,0.8l-0.6,0.3c-0.3,0.1-0.5,0-0.5-0.3v-2.4c0-0.3,0.2-0.6,0.5-0.8l0.6-0.3
			C165.9,238.2,166.1,238.3,166.1,238.6z"/>
		<path class="st13" d="M200.2,183.6l-35.8,20.6c-1.4,0.9-2.3,2.5-2.4,4.2v4.9c0,1.5,1.1,2.1,2.4,1.4l35.8-20.6
			c1.4-0.9,2.3-2.5,2.4-4.2V185C202.7,183.4,201.6,182.8,200.2,183.6z"/>
		<path class="st2" d="M200.1,187.7v2.4c0,0.3-0.2,0.7-0.5,0.8l-0.5,0.3c-0.1,0.1-0.3,0.1-0.4-0.1c0-0.1-0.1-0.1-0.1-0.2v-2.4
			c0-0.3,0.2-0.6,0.5-0.8l0.5-0.3C199.9,187.3,200.1,187.4,200.1,187.7z"/>
		<path class="st16" d="M197.7,189.1v2.4c0,0.3-0.2,0.7-0.5,0.8l-0.5,0.3c-0.1,0.1-0.3,0.1-0.4-0.1c0-0.1-0.1-0.1-0.1-0.2V190
			c0-0.3,0.2-0.6,0.5-0.8l0.5-0.3C197.5,188.7,197.7,188.8,197.7,189.1z"/>
		<path class="st2" d="M195.3,190.5v2.4c0,0.3-0.2,0.6-0.5,0.8l-0.6,0.3c-0.1,0.1-0.3,0.1-0.4-0.1c0-0.1-0.1-0.1-0.1-0.2v-2.4
			c0-0.3,0.2-0.6,0.5-0.8l0.6-0.3C195.1,190.1,195.3,190.2,195.3,190.5z"/>
		<path class="st2" d="M192.8,191.9v2.4c0,0.3-0.2,0.6-0.5,0.8l-0.5,0.3c-0.3,0.2-0.5,0-0.5-0.3v-2.4c0-0.3,0.2-0.7,0.5-0.8l0.5-0.3
			C192.6,191.5,192.8,191.6,192.8,191.9z"/>
		<path class="st2" d="M190.4,193.3v2.4c0,0.3-0.2,0.6-0.5,0.8l-0.5,0.3c-0.3,0.2-0.5,0-0.5-0.3v-2.4c0-0.3,0.2-0.7,0.5-0.8l0.5-0.3
			c0.1-0.1,0.3-0.1,0.4,0.1C190.4,193.1,190.4,193.2,190.4,193.3z"/>
		<path class="st16" d="M188,194.7v2.4c0,0.3-0.2,0.7-0.5,0.8l-0.5,0.3c-0.3,0.2-0.5,0-0.5-0.3v-2.4c0-0.3,0.2-0.7,0.5-0.8l0.5-0.3
			C187.8,194.3,188,194.4,188,194.7z"/>
		<path class="st16" d="M185.6,196.1v2.4c0,0.3-0.2,0.7-0.5,0.8l-0.5,0.3c-0.3,0.2-0.5,0-0.5-0.3V197c0-0.3,0.2-0.6,0.5-0.8l0.5-0.3
			C185.3,195.7,185.6,195.8,185.6,196.1z"/>
		<path class="st2" d="M183.1,197.5v2.4c0,0.3-0.2,0.7-0.5,0.8l-0.5,0.3c-0.3,0.2-0.5,0-0.5-0.3v-2.4c0-0.3,0.2-0.6,0.5-0.8l0.5-0.3
			C182.9,197.1,183.1,197.2,183.1,197.5z"/>
		<path class="st16" d="M180.7,198.9v2.4c0,0.3-0.2,0.6-0.5,0.8l-0.6,0.3c-0.3,0.2-0.5,0-0.5-0.3v-2.4c0-0.3,0.2-0.6,0.5-0.8
			l0.6-0.3c0.1-0.1,0.3-0.1,0.4,0.1C180.7,198.7,180.7,198.8,180.7,198.9z"/>
		<path class="st2" d="M178.3,200.3v2.4c0,0.3-0.2,0.6-0.5,0.8l-0.5,0.3c-0.3,0.2-0.5,0-0.5-0.3v-2.4c0-0.3,0.2-0.7,0.5-0.8l0.5-0.3
			c0.1-0.1,0.3-0.1,0.4,0.1C178.3,200.1,178.3,200.2,178.3,200.3z"/>
		<path class="st2" d="M175.8,201.7v2.4c0,0.3-0.2,0.6-0.5,0.8l-0.5,0.3c-0.3,0.2-0.5,0-0.5-0.3v-2.4c0-0.3,0.2-0.7,0.5-0.8l0.5-0.3
			C175.6,201.3,175.8,201.4,175.8,201.7z"/>
		<path class="st2" d="M173.4,203.1v2.4c0,0.3-0.2,0.7-0.5,0.8l-0.5,0.3c-0.3,0.2-0.5,0-0.5-0.3V204c0-0.3,0.2-0.7,0.5-0.8l0.5-0.3
			C173.2,202.7,173.4,202.8,173.4,203.1z"/>
		<path class="st16" d="M171,204.5v2.4c0,0.3-0.2,0.7-0.5,0.8L170,208c-0.3,0.2-0.5,0-0.5-0.3v-2.4c0-0.3,0.2-0.6,0.5-0.8l0.5-0.3
			C170.8,204.1,171,204.2,171,204.5z"/>
		<path class="st2" d="M168.6,205.9v2.4c0,0.3-0.2,0.7-0.5,0.8l-0.5,0.3c-0.3,0.2-0.5,0-0.5-0.3v-2.4c0-0.3,0.2-0.6,0.5-0.8l0.5-0.3
			C168.3,205.5,168.6,205.6,168.6,205.9z"/>
		<path class="st2" d="M166.1,207.3v2.4c0,0.3-0.2,0.6-0.5,0.8l-0.6,0.3c-0.3,0.2-0.5,0-0.5-0.3v-2.4c0-0.3,0.2-0.6,0.5-0.8l0.6-0.3
			C165.9,206.9,166.1,207,166.1,207.3z"/>
		<path class="st13" d="M200.2,152.4L164.5,173c-1.4,0.9-2.3,2.5-2.4,4.2v4.8c0,1.5,1.1,2.2,2.4,1.4l35.8-20.6
			c1.4-0.9,2.3-2.5,2.4-4.2v-4.9C202.7,152.2,201.6,151.6,200.2,152.4z"/>
		<path class="st16" d="M200.1,156.5v2.4c0,0.3-0.2,0.7-0.5,0.8l-0.5,0.3c-0.3,0.2-0.5,0-0.5-0.3v-2.4c0-0.3,0.2-0.6,0.5-0.8
			l0.5-0.3C199.9,156,200.1,156.2,200.1,156.5z"/>
		<path class="st2" d="M197.7,157.9v2.4c0,0.3-0.2,0.7-0.5,0.8l-0.5,0.3c-0.3,0.2-0.5,0-0.5-0.3v-2.4c0-0.3,0.2-0.6,0.5-0.8l0.5-0.3
			C197.5,157.4,197.7,157.6,197.7,157.9z"/>
		<path class="st16" d="M195.3,159.3v2.4c0,0.3-0.2,0.6-0.5,0.8l-0.6,0.3c-0.3,0.2-0.5,0-0.5-0.3v-2.4c0-0.3,0.2-0.6,0.5-0.8
			l0.6-0.3c0.1-0.1,0.3-0.1,0.4,0.1C195.3,159.1,195.3,159.2,195.3,159.3z"/>
		<path class="st16" d="M192.8,160.7v2.3c0,0.3-0.2,0.6-0.5,0.8l-0.5,0.3c-0.3,0.2-0.5,0-0.5-0.3v-2.4c0-0.3,0.2-0.7,0.5-0.8
			l0.5-0.3C192.6,160.2,192.8,160.4,192.8,160.7z"/>
		<path class="st16" d="M190.4,162.1v2.4c0,0.3-0.2,0.6-0.5,0.8l-0.5,0.3c-0.3,0.2-0.5,0-0.5-0.3v-2.4c0-0.3,0.2-0.7,0.5-0.8
			l0.5-0.3C190.2,161.6,190.4,161.8,190.4,162.1z"/>
		<path class="st2" d="M188,163.5v2.4c0,0.3-0.2,0.7-0.5,0.8L187,167c-0.3,0.2-0.5,0-0.5-0.3v-2.4c0-0.3,0.2-0.7,0.5-0.8l0.5-0.3
			C187.8,163,188,163.2,188,163.5z"/>
		<path class="st2" d="M185.6,164.9v2.4c0,0.3-0.2,0.7-0.5,0.8l-0.5,0.3c-0.3,0.2-0.5,0-0.5-0.3v-2.4c0-0.3,0.2-0.6,0.5-0.8l0.5-0.3
			C185.3,164.4,185.6,164.6,185.6,164.9z"/>
		<path class="st16" d="M183.1,166.3v2.4c0,0.3-0.2,0.7-0.5,0.8l-0.5,0.3c-0.3,0.2-0.5,0-0.5-0.3v-2.4c0-0.3,0.2-0.6,0.5-0.8
			l0.5-0.3C182.9,165.8,183.1,166,183.1,166.3z"/>
		<path class="st2" d="M180.7,167.7v2.3c0,0.3-0.2,0.6-0.5,0.8l-0.6,0.3c-0.3,0.2-0.5,0-0.5-0.3v-2.4c0-0.3,0.2-0.6,0.5-0.8l0.6-0.3
			C180.5,167.2,180.7,167.4,180.7,167.7z"/>
		<path class="st16" d="M178.3,169.1v2.4c0,0.3-0.2,0.6-0.5,0.8l-0.5,0.3c-0.3,0.2-0.5,0-0.5-0.3v-2.4c0-0.3,0.2-0.7,0.5-0.8
			l0.5-0.3C178.1,168.6,178.3,168.8,178.3,169.1z"/>
		<path class="st16" d="M175.8,170.5v2.4c0,0.3-0.2,0.6-0.5,0.8l-0.5,0.3c-0.3,0.2-0.5,0-0.5-0.3v-2.4c0-0.3,0.2-0.7,0.5-0.8
			l0.5-0.3C175.6,170,175.8,170.2,175.8,170.5z"/>
		<path class="st16" d="M173.4,171.9v2.4c0,0.3-0.2,0.6-0.5,0.8l-0.5,0.3c-0.3,0.2-0.5,0-0.5-0.3v-2.4c0-0.3,0.2-0.7,0.5-0.8
			l0.5-0.3C173.2,171.4,173.4,171.6,173.4,171.9z"/>
		<path class="st2" d="M171,173.3v2.4c0,0.3-0.2,0.6-0.5,0.8l-0.5,0.3c-0.3,0.2-0.5,0-0.5-0.3v-2.4c0-0.3,0.2-0.6,0.5-0.8l0.5-0.3
			C170.8,172.8,171,173,171,173.3z"/>
		<path class="st16" d="M168.6,174.7v2.3c0,0.3-0.2,0.6-0.5,0.8l-0.5,0.3c-0.3,0.2-0.5,0-0.5-0.3v-2.4c0-0.3,0.2-0.6,0.5-0.8
			l0.5-0.3C168.3,174.2,168.6,174.4,168.6,174.7z"/>
		<path class="st16" d="M166.1,176.1v2.4c0,0.3-0.2,0.6-0.5,0.8l-0.6,0.3c-0.3,0.2-0.5,0-0.5-0.3v-2.4c0-0.3,0.2-0.6,0.5-0.8
			l0.6-0.3C165.9,175.6,166.1,175.8,166.1,176.1z"/>
		<path class="st2" d="M155.7,338.1l-1.1-0.6l0,0c-0.5-0.2-1-0.2-1.5,0.1c-1.2,0.8-2,2.1-2.1,3.6c-0.1,0.5,0.2,1,0.6,1.4l0,0l1,0.6
			l0.2-0.3c0.2,0,0.4-0.1,0.6-0.2c1.2-0.8,2-2.1,2.1-3.6c0-0.2,0-0.4-0.1-0.5L155.7,338.1z"/>
		<path class="st17" d="M155.7,338.1l-1.1-0.6l0,0c-0.5-0.2-1-0.2-1.5,0.1c-1.2,0.8-2,2.1-2.1,3.6c-0.1,0.5,0.2,1,0.6,1.4l0,0l1,0.6
			l0.2-0.3c0.2,0,0.4-0.1,0.6-0.2c1.2-0.8,2-2.1,2.1-3.6c0-0.2,0-0.4-0.1-0.5L155.7,338.1z"/>
		<path class="st2" d="M154.2,338.2c-1.2,0.8-2,2.2-2.1,3.6c0,1.3,0.9,1.9,2.1,1.2c1.2-0.8,2-2.1,2.1-3.6
			C156.3,338.1,155.3,337.5,154.2,338.2z"/>
		<path class="st15" d="M154.2,338.2c-1.2,0.8-2,2.2-2.1,3.6c0,1.3,0.9,1.9,2.1,1.2c1.2-0.8,2-2.1,2.1-3.6
			C156.3,338.1,155.3,337.5,154.2,338.2z"/>
		<path class="st2" d="M146.6,343.3l-1.1-0.6l0,0c-0.5-0.2-1-0.2-1.5,0.1c-1.2,0.8-2,2.2-2.1,3.6c-0.1,0.5,0.2,1,0.6,1.4l0,0l1,0.6
			l0.2-0.3c0.2,0,0.4-0.1,0.6-0.2c1.2-0.8,2-2.1,2.1-3.6c0-0.2,0-0.4-0.1-0.5L146.6,343.3z"/>
		<path class="st17" d="M146.6,343.3l-1.1-0.6l0,0c-0.5-0.2-1-0.2-1.5,0.1c-1.2,0.8-2,2.2-2.1,3.6c-0.1,0.5,0.2,1,0.6,1.4l0,0l1,0.6
			l0.2-0.3c0.2,0,0.4-0.1,0.6-0.2c1.2-0.8,2-2.1,2.1-3.6c0-0.2,0-0.4-0.1-0.5L146.6,343.3z"/>
		<path class="st2" d="M145.1,343.5c-1.2,0.8-2,2.2-2.1,3.6c0,1.3,0.9,1.9,2.1,1.2c1.2-0.8,2-2.1,2.1-3.6
			C147.2,343.3,146.3,342.8,145.1,343.5z"/>
		<path class="st15" d="M145.1,343.5c-1.2,0.8-2,2.2-2.1,3.6c0,1.3,0.9,1.9,2.1,1.2c1.2-0.8,2-2.1,2.1-3.6
			C147.2,343.3,146.3,342.8,145.1,343.5z"/>
		<path class="st2" d="M155.7,306.9l-1.1-0.6l0,0c-0.5-0.2-1-0.2-1.5,0.1c-1.2,0.8-2,2.1-2.1,3.6c-0.1,0.5,0.2,1,0.6,1.4l0,0l1,0.6
			l0.2-0.3c0.2,0,0.4-0.1,0.6-0.2c1.2-0.8,2-2.2,2.1-3.6c0-0.2,0-0.4-0.1-0.5L155.7,306.9z"/>
		<path class="st17" d="M155.7,306.9l-1.1-0.6l0,0c-0.5-0.2-1-0.2-1.5,0.1c-1.2,0.8-2,2.1-2.1,3.6c-0.1,0.5,0.2,1,0.6,1.4l0,0l1,0.6
			l0.2-0.3c0.2,0,0.4-0.1,0.6-0.2c1.2-0.8,2-2.2,2.1-3.6c0-0.2,0-0.4-0.1-0.5L155.7,306.9z"/>
		<path class="st2" d="M154.2,307c-1.2,0.8-2,2.2-2.1,3.6c0,1.3,0.9,1.9,2.1,1.2c1.2-0.8,2-2.1,2.1-3.6
			C156.3,306.9,155.3,306.3,154.2,307z"/>
		<path class="st15" d="M154.2,307c-1.2,0.8-2,2.2-2.1,3.6c0,1.3,0.9,1.9,2.1,1.2c1.2-0.8,2-2.1,2.1-3.6
			C156.3,306.9,155.3,306.3,154.2,307z"/>
		<path class="st2" d="M146.6,312.1l-1.1-0.6l0,0c-0.5-0.2-1-0.2-1.5,0.1c-1.2,0.8-2,2.2-2.1,3.6c-0.1,0.5,0.2,1,0.6,1.4l0,0l1,0.6
			l0.2-0.3c0.2,0,0.4-0.1,0.6-0.2c1.2-0.8,2-2.1,2.1-3.6c0-0.2,0-0.4-0.1-0.5L146.6,312.1z"/>
		<path class="st17" d="M146.6,312.1l-1.1-0.6l0,0c-0.5-0.2-1-0.2-1.5,0.1c-1.2,0.8-2,2.2-2.1,3.6c-0.1,0.5,0.2,1,0.6,1.4l0,0l1,0.6
			l0.2-0.3c0.2,0,0.4-0.1,0.6-0.2c1.2-0.8,2-2.1,2.1-3.6c0-0.2,0-0.4-0.1-0.5L146.6,312.1z"/>
		<path class="st2" d="M145.1,312.2c-1.2,0.8-2,2.2-2.1,3.6c0,1.3,0.9,1.9,2.1,1.2c1.2-0.8,2-2.2,2.1-3.6
			C147.2,312.1,146.3,311.6,145.1,312.2z"/>
		<path class="st15" d="M145.1,312.2c-1.2,0.8-2,2.2-2.1,3.6c0,1.3,0.9,1.9,2.1,1.2c1.2-0.8,2-2.2,2.1-3.6
			C147.2,312.1,146.3,311.6,145.1,312.2z"/>
		<path class="st2" d="M155.7,275.6l-1.1-0.6l0,0c-0.5-0.2-1-0.2-1.5,0.1c-1.2,0.8-2,2.1-2.1,3.6c-0.1,0.5,0.2,1,0.6,1.4l0,0l1,0.6
			l0.2-0.3c0.2,0,0.4-0.1,0.6-0.2c1.2-0.8,2-2.2,2.1-3.6c0-0.2,0-0.4-0.1-0.5L155.7,275.6z"/>
		<path class="st17" d="M155.7,275.6l-1.1-0.6l0,0c-0.5-0.2-1-0.2-1.5,0.1c-1.2,0.8-2,2.1-2.1,3.6c-0.1,0.5,0.2,1,0.6,1.4l0,0l1,0.6
			l0.2-0.3c0.2,0,0.4-0.1,0.6-0.2c1.2-0.8,2-2.2,2.1-3.6c0-0.2,0-0.4-0.1-0.5L155.7,275.6z"/>
		<path class="st2" d="M154.2,275.8c-1.2,0.8-2,2.2-2.1,3.6c0,1.3,0.9,1.9,2.1,1.2c1.2-0.8,2-2.1,2.1-3.6
			C156.3,275.6,155.3,275.1,154.2,275.8z"/>
		<path class="st15" d="M154.2,275.8c-1.2,0.8-2,2.2-2.1,3.6c0,1.3,0.9,1.9,2.1,1.2c1.2-0.8,2-2.1,2.1-3.6
			C156.3,275.6,155.3,275.1,154.2,275.8z"/>
		<path class="st2" d="M146.6,280.9l-1.1-0.6l0,0c-0.5-0.2-1-0.2-1.5,0.1c-1.2,0.8-2,2.1-2.1,3.6c-0.1,0.5,0.2,1,0.6,1.4l0,0l1,0.6
			l0.2-0.3c0.2,0,0.4-0.1,0.6-0.2c1.2-0.8,2-2.1,2.1-3.6c0-0.2,0-0.4-0.1-0.5L146.6,280.9z"/>
		<path class="st17" d="M146.6,280.9l-1.1-0.6l0,0c-0.5-0.2-1-0.2-1.5,0.1c-1.2,0.8-2,2.1-2.1,3.6c-0.1,0.5,0.2,1,0.6,1.4l0,0l1,0.6
			l0.2-0.3c0.2,0,0.4-0.1,0.6-0.2c1.2-0.8,2-2.1,2.1-3.6c0-0.2,0-0.4-0.1-0.5L146.6,280.9z"/>
		<path class="st2" d="M145.1,281c-1.2,0.8-2,2.2-2.1,3.6c0,1.3,0.9,1.9,2.1,1.2c1.2-0.8,2-2.2,2.1-3.6
			C147.2,280.9,146.3,280.3,145.1,281z"/>
		<path class="st15" d="M145.1,281c-1.2,0.8-2,2.2-2.1,3.6c0,1.3,0.9,1.9,2.1,1.2c1.2-0.8,2-2.2,2.1-3.6
			C147.2,280.9,146.3,280.3,145.1,281z"/>
		<path class="st2" d="M155.7,244.4l-1.1-0.6l0,0c-0.5-0.2-1-0.2-1.5,0.1c-1.2,0.8-2,2.1-2.1,3.6c-0.1,0.5,0.2,1,0.6,1.4l0,0l1,0.6
			l0.2-0.3c0.2,0,0.4-0.1,0.6-0.2c1.2-0.8,2-2.2,2.1-3.6c0-0.2,0-0.4-0.1-0.5L155.7,244.4z"/>
		<path class="st17" d="M155.7,244.4l-1.1-0.6l0,0c-0.5-0.2-1-0.2-1.5,0.1c-1.2,0.8-2,2.1-2.1,3.6c-0.1,0.5,0.2,1,0.6,1.4l0,0l1,0.6
			l0.2-0.3c0.2,0,0.4-0.1,0.6-0.2c1.2-0.8,2-2.2,2.1-3.6c0-0.2,0-0.4-0.1-0.5L155.7,244.4z"/>
		<path class="st2" d="M154.2,244.5c-1.2,0.8-2,2.2-2.1,3.6c0,1.3,0.9,1.9,2.1,1.2c1.2-0.8,2-2.1,2.1-3.6
			C156.3,244.4,155.3,243.9,154.2,244.5z"/>
		<path class="st15" d="M154.2,244.5c-1.2,0.8-2,2.2-2.1,3.6c0,1.3,0.9,1.9,2.1,1.2c1.2-0.8,2-2.1,2.1-3.6
			C156.3,244.4,155.3,243.9,154.2,244.5z"/>
		<path class="st2" d="M146.6,249.6l-1.1-0.6l0,0c-0.5-0.2-1-0.2-1.5,0.1c-1.2,0.8-2,2.1-2.1,3.6c-0.1,0.5,0.2,1,0.6,1.4l0,0l1,0.6
			l0.2-0.3c0.2,0,0.4-0.1,0.6-0.2c1.2-0.8,2-2.1,2.1-3.6c0-0.2,0-0.4-0.1-0.5L146.6,249.6z"/>
		<path class="st17" d="M146.6,249.6l-1.1-0.6l0,0c-0.5-0.2-1-0.2-1.5,0.1c-1.2,0.8-2,2.1-2.1,3.6c-0.1,0.5,0.2,1,0.6,1.4l0,0l1,0.6
			l0.2-0.3c0.2,0,0.4-0.1,0.6-0.2c1.2-0.8,2-2.1,2.1-3.6c0-0.2,0-0.4-0.1-0.5L146.6,249.6z"/>
		<path class="st2" d="M145.1,249.8c-1.2,0.8-2,2.1-2.1,3.6c0,1.3,0.9,1.9,2.1,1.2c1.2-0.8,2-2.1,2.1-3.6
			C147.2,249.6,146.3,249.1,145.1,249.8z"/>
		<path class="st15" d="M145.1,249.8c-1.2,0.8-2,2.1-2.1,3.6c0,1.3,0.9,1.9,2.1,1.2c1.2-0.8,2-2.1,2.1-3.6
			C147.2,249.6,146.3,249.1,145.1,249.8z"/>
		<path class="st2" d="M155.7,213.1l-1.1-0.6l0,0c-0.5-0.2-1-0.2-1.5,0.1c-1.2,0.8-2,2.1-2.1,3.6c-0.1,0.5,0.2,1,0.6,1.4l0,0l1,0.6
			l0.2-0.3c0.2-0.1,0.4-0.1,0.6-0.2c1.2-0.8,2-2.1,2.1-3.6c0-0.2,0-0.4-0.1-0.5L155.7,213.1z"/>
		<path class="st17" d="M155.7,213.1l-1.1-0.6l0,0c-0.5-0.2-1-0.2-1.5,0.1c-1.2,0.8-2,2.1-2.1,3.6c-0.1,0.5,0.2,1,0.6,1.4l0,0l1,0.6
			l0.2-0.3c0.2-0.1,0.4-0.1,0.6-0.2c1.2-0.8,2-2.1,2.1-3.6c0-0.2,0-0.4-0.1-0.5L155.7,213.1z"/>
		<path class="st2" d="M154.2,213.2c-1.2,0.8-2,2.1-2.1,3.6c0,1.3,0.9,1.9,2.1,1.2c1.2-0.8,2-2.1,2.1-3.6
			C156.3,213.1,155.3,212.6,154.2,213.2z"/>
		<path class="st15" d="M154.2,213.2c-1.2,0.8-2,2.1-2.1,3.6c0,1.3,0.9,1.9,2.1,1.2c1.2-0.8,2-2.1,2.1-3.6
			C156.3,213.1,155.3,212.6,154.2,213.2z"/>
		<path class="st2" d="M146.6,218.4l-1.1-0.6l0,0c-0.5-0.2-1-0.2-1.5,0.1c-1.2,0.8-2,2.2-2.1,3.6c-0.1,0.5,0.2,1,0.6,1.4l0,0l1,0.6
			l0.2-0.3c0.2,0,0.4-0.1,0.6-0.2c1.2-0.8,2-2.1,2.1-3.6c0-0.2,0-0.4-0.1-0.5L146.6,218.4z"/>
		<path class="st17" d="M146.6,218.4l-1.1-0.6l0,0c-0.5-0.2-1-0.2-1.5,0.1c-1.2,0.8-2,2.2-2.1,3.6c-0.1,0.5,0.2,1,0.6,1.4l0,0l1,0.6
			l0.2-0.3c0.2,0,0.4-0.1,0.6-0.2c1.2-0.8,2-2.1,2.1-3.6c0-0.2,0-0.4-0.1-0.5L146.6,218.4z"/>
		<path class="st2" d="M145.1,218.5c-1.2,0.8-2,2.1-2.1,3.6c0,1.3,0.9,1.9,2.1,1.2c1.2-0.8,2-2.1,2.1-3.6
			C147.2,218.4,146.3,217.8,145.1,218.5z"/>
		<path class="st15" d="M145.1,218.5c-1.2,0.8-2,2.1-2.1,3.6c0,1.3,0.9,1.9,2.1,1.2c1.2-0.8,2-2.1,2.1-3.6
			C147.2,218.4,146.3,217.8,145.1,218.5z"/>
		<path class="st2" d="M155.7,181.9l-1.1-0.6l0,0c-0.5-0.2-1-0.2-1.5,0.1c-1.2,0.8-2,2.1-2.1,3.6c-0.1,0.5,0.2,1,0.6,1.4l0,0l1,0.6
			l0.2-0.3c0.2-0.1,0.4-0.1,0.6-0.2c1.2-0.8,2-2.1,2.1-3.6c0-0.2,0-0.4-0.1-0.5L155.7,181.9z"/>
		<path class="st17" d="M155.7,181.9l-1.1-0.6l0,0c-0.5-0.2-1-0.2-1.5,0.1c-1.2,0.8-2,2.1-2.1,3.6c-0.1,0.5,0.2,1,0.6,1.4l0,0l1,0.6
			l0.2-0.3c0.2-0.1,0.4-0.1,0.6-0.2c1.2-0.8,2-2.1,2.1-3.6c0-0.2,0-0.4-0.1-0.5L155.7,181.9z"/>
		<path class="st2" d="M154.2,182c-1.2,0.8-2,2.1-2.1,3.6c0,1.3,0.9,1.9,2.1,1.2c1.2-0.8,2-2.1,2.1-3.6
			C156.3,181.9,155.3,181.4,154.2,182z"/>
		<path class="st15" d="M154.2,182c-1.2,0.8-2,2.1-2.1,3.6c0,1.3,0.9,1.9,2.1,1.2c1.2-0.8,2-2.1,2.1-3.6
			C156.3,181.9,155.3,181.4,154.2,182z"/>
		<path class="st2" d="M146.6,187.1l-1.1-0.6l0,0c-0.5-0.2-1-0.2-1.5,0.1c-1.2,0.8-2,2.2-2.1,3.6c-0.1,0.5,0.2,1,0.6,1.4l0,0l1,0.6
			l0.2-0.3c0.2,0,0.4-0.1,0.6-0.2c1.2-0.8,2-2.1,2.1-3.6c0-0.2,0-0.4-0.1-0.5L146.6,187.1z"/>
		<path class="st17" d="M146.6,187.1l-1.1-0.6l0,0c-0.5-0.2-1-0.2-1.5,0.1c-1.2,0.8-2,2.2-2.1,3.6c-0.1,0.5,0.2,1,0.6,1.4l0,0l1,0.6
			l0.2-0.3c0.2,0,0.4-0.1,0.6-0.2c1.2-0.8,2-2.1,2.1-3.6c0-0.2,0-0.4-0.1-0.5L146.6,187.1z"/>
		<path class="st2" d="M145.1,187.3c-1.2,0.8-2,2.1-2.1,3.6c0,1.3,0.9,1.9,2.1,1.2c1.2-0.8,2-2.1,2.1-3.6
			C147.2,187.1,146.3,186.6,145.1,187.3z"/>
		<path class="st15" d="M145.1,187.3c-1.2,0.8-2,2.1-2.1,3.6c0,1.3,0.9,1.9,2.1,1.2c1.2-0.8,2-2.1,2.1-3.6
			C147.2,187.1,146.3,186.6,145.1,187.3z"/>
		<path class="st13" d="M86.6,253.8l41.1,23.7c0.8,0.5,1.3,1.4,1.3,2.3v11.4c0,0.9-0.6,1.2-1.3,0.8l-41.1-23.7
			c-0.8-0.5-1.3-1.4-1.3-2.3v-11.3C85.2,253.7,85.8,253.4,86.6,253.8z"/>
		<path class="st2" d="M87.7,258.8c0.1,0.9,0.6,1.7,1.3,2.2l36.1,20.8c0.7,0.4,1.3,0.1,1.3-0.7c-0.1-0.9-0.6-1.7-1.3-2.2l-36.1-20.8
			C88.3,257.7,87.7,258,87.7,258.8z"/>
		<path class="st18" d="M87.7,264.6c0.1,0.9,0.6,1.7,1.3,2.2l36.1,20.8c0.7,0.4,1.3,0.1,1.3-0.7c-0.1-0.9-0.6-1.7-1.3-2.2
			l-36.1-20.8C88.3,263.5,87.7,263.8,87.7,264.6z"/>
		<path class="st2" d="M89.1,263.9l19.9,11.5v2.9l-19.9-11.5c-0.8-0.5-1.3-1.3-1.3-2.2C87.7,263.8,88.3,263.5,89.1,263.9z"/>
		<path class="st13" d="M86.6,285.1l41.1,23.7c0.8,0.5,1.3,1.4,1.3,2.3v11.4c0,0.9-0.6,1.2-1.3,0.8l-41.1-23.7
			c-0.8-0.5-1.3-1.4-1.3-2.3v-11.4C85.2,285,85.8,284.7,86.6,285.1z"/>
		<path class="st2" d="M87.7,290.1c0.1,0.9,0.6,1.7,1.3,2.2l36.1,20.8c0.7,0.4,1.3,0.1,1.3-0.7c-0.1-0.9-0.6-1.7-1.3-2.2l-36.1-20.8
			C88.3,289,87.7,289.3,87.7,290.1z"/>
		<path class="st18" d="M87.7,295.9c0.1,0.9,0.6,1.7,1.3,2.2l36.1,20.8c0.7,0.4,1.3,0.1,1.3-0.7c-0.1-0.9-0.6-1.7-1.3-2.2
			l-36.1-20.8C88.3,294.8,87.7,295.1,87.7,295.9z"/>
		<path class="st2" d="M89.1,295.2l24.9,14.4v2.9l-24.9-14.4c-0.8-0.5-1.3-1.3-1.3-2.2C87.7,295.1,88.3,294.8,89.1,295.2z"/>
		<path class="st13" d="M86.6,316.2l41.1,23.7c0.8,0.5,1.3,1.4,1.3,2.3v11.4c0,0.9-0.6,1.2-1.3,0.8l-41.1-23.7
			c-0.8-0.5-1.3-1.4-1.3-2.3v-11.4C85.2,316.1,85.8,315.7,86.6,316.2z"/>
		<path class="st2" d="M87.7,321.2c0.1,0.9,0.6,1.7,1.3,2.2l36.1,20.8c0.7,0.4,1.3,0.1,1.3-0.7c-0.1-0.9-0.6-1.7-1.3-2.2l-36.1-20.8
			C88.3,320.1,87.7,320.4,87.7,321.2z"/>
		<path class="st18" d="M87.7,326.9c0.1,0.9,0.6,1.7,1.3,2.2l36.1,20.9c0.7,0.4,1.3,0.1,1.3-0.7c-0.1-0.9-0.6-1.7-1.3-2.2
			l-36.1-20.9C88.3,325.8,87.7,326.1,87.7,326.9z"/>
		<path class="st2" d="M89.1,326.3l29.9,17.3v2.9l-29.9-17.3c-0.8-0.5-1.3-1.3-1.3-2.2C87.7,326.1,88.3,325.8,89.1,326.3z"/>
		<path class="st13" d="M86.6,222.8l41.1,23.7c0.8,0.5,1.3,1.4,1.3,2.3v11.4c0,0.9-0.6,1.2-1.3,0.8l-41.1-23.7
			c-0.8-0.5-1.3-1.4-1.3-2.3v-11.3C85.2,222.7,85.8,222.4,86.6,222.8z"/>
		<path class="st2" d="M87.7,227.8c0.1,0.9,0.6,1.7,1.3,2.2l36.1,20.8c0.7,0.4,1.3,0.1,1.3-0.7c-0.1-0.9-0.6-1.7-1.3-2.2l-36.1-20.8
			C88.3,226.7,87.7,227,87.7,227.8z"/>
		<path class="st18" d="M87.7,233.6c0.1,0.9,0.6,1.7,1.3,2.2l36.1,20.8c0.7,0.4,1.3,0.1,1.3-0.7c-0.1-0.9-0.6-1.7-1.3-2.2
			l-36.1-20.8C88.3,232.5,87.7,232.8,87.7,233.6z"/>
		<path class="st2" d="M89.1,232.9l32.4,18.7v2.9l-32.4-18.7c-0.8-0.5-1.3-1.3-1.3-2.2C87.7,232.8,88.3,232.5,89.1,232.9z"/>
		<path class="st13" d="M86.6,160.3l41.1,23.7c0.8,0.5,1.3,1.4,1.3,2.3v11.4c0,0.9-0.6,1.2-1.3,0.8l-41.1-23.7
			c-0.8-0.5-1.3-1.4-1.3-2.3V161C85.2,160.2,85.8,159.9,86.6,160.3z"/>
		<path class="st2" d="M87.7,165.3c0.1,0.9,0.6,1.7,1.3,2.2l36.1,20.8c0.7,0.4,1.3,0.1,1.3-0.7c-0.1-0.9-0.6-1.7-1.3-2.2l-36.1-20.8
			C88.3,164.2,87.7,164.5,87.7,165.3z"/>
		<path class="st18" d="M87.7,171c0.1,0.9,0.6,1.7,1.3,2.2l36.1,20.8c0.7,0.4,1.3,0.1,1.3-0.7c-0.1-0.9-0.6-1.7-1.3-2.2l-36.1-20.8
			C88.3,169.9,87.7,170.2,87.7,171z"/>
		<path class="st2" d="M89.1,170.4l24.9,14.4v2.9l-24.9-14.4c-0.8-0.5-1.3-1.3-1.3-2.2C87.7,170.2,88.3,169.9,89.1,170.4z"/>
		<path class="st13" d="M86.6,191.5l41.1,23.7c0.8,0.5,1.3,1.4,1.3,2.3v11.4c0,0.9-0.6,1.2-1.3,0.8l-41.1-23.7
			c-0.8-0.5-1.3-1.4-1.3-2.3v-11.3C85.2,191.4,85.8,191.1,86.6,191.5z"/>
		<path class="st2" d="M87.7,196.5c0.1,0.9,0.6,1.7,1.3,2.2l36.1,20.8c0.7,0.4,1.3,0.1,1.3-0.7c-0.1-0.9-0.6-1.7-1.3-2.2l-36.1-20.8
			C88.3,195.4,87.7,195.7,87.7,196.5z"/>
		<path class="st18" d="M87.7,202.3c0.1,0.9,0.6,1.7,1.3,2.2l36.1,20.8c0.7,0.4,1.3,0.1,1.3-0.7c-0.1-0.9-0.6-1.7-1.3-2.2
			l-36.1-20.8C88.3,201.2,87.7,201.5,87.7,202.3z"/>
		<path class="st2" d="M89.1,201.6l32.4,18.7v2.9l-32.4-18.7c-0.8-0.5-1.3-1.3-1.3-2.2C87.7,201.5,88.3,201.2,89.1,201.6z"/>
		<path class="st2" d="M136.7,171.3l48.3-27.9c0.7-0.5,1.2-1.3,1.2-2.2v-1.6c0-0.9-0.5-1.7-1.2-2.2l-48.3-27.9
			c-0.8-0.4-1.7-0.4-2.5,0L86,137.4c-0.7,0.5-1.2,1.3-1.2,2.2v1.6c0,0.9,0.5,1.7,1.2,2.2l48.3,27.9
			C135.1,171.7,136,171.7,136.7,171.3z"/>
		<path class="st19" d="M136.7,171.3l48.3-27.9c0.7-0.5,1.2-1.3,1.2-2.2v-1.6c0-0.9-0.5-1.7-1.2-2.2l-48.3-27.9
			c-0.8-0.4-1.7-0.4-2.5,0L86,137.4c-0.7,0.5-1.2,1.3-1.2,2.2v1.6c0,0.9,0.5,1.7,1.2,2.2l48.3,27.9
			C135.1,171.7,136,171.7,136.7,171.3z"/>
		<path class="st2" d="M185,138.9l-48.3,27.9c-0.8,0.4-1.7,0.4-2.5,0L86,138.9c-0.4-0.1-0.6-0.6-0.5-1c0.1-0.2,0.2-0.4,0.5-0.5
			l48.3-27.9c0.8-0.4,1.7-0.4,2.5,0l48.2,27.9c0.4,0.1,0.6,0.6,0.5,1C185.4,138.6,185.2,138.8,185,138.9z"/>
		<path class="st2" d="M135.5,167.1v4.5c0.4,0,0.9-0.1,1.3-0.3l48.3-27.9c0.7-0.5,1.2-1.3,1.2-2.2v-1.6c0-0.8-0.4-1.5-1-2
			c0.4,0.4,0.4,0.9-0.2,1.3l-48.3,27.9C136.4,167,135.9,167.1,135.5,167.1z"/>
		<path class="st15" d="M135.5,167.1v4.5c0.4,0,0.9-0.1,1.3-0.3l48.3-27.9c0.7-0.5,1.2-1.3,1.2-2.2v-1.6c0-0.8-0.4-1.5-1-2
			c0.4,0.4,0.4,0.9-0.2,1.3l-48.3,27.9C136.4,167,135.9,167.1,135.5,167.1z"/>
		<path class="st18" d="M136.7,157.7l32.7-18.9c0.7-0.5,1.2-1.3,1.2-2.2v-1.6c0-0.9-0.5-1.7-1.2-2.2l-20.9-12.1
			c-0.8-0.5-1.5-1.1-2.1-1.9l-10-13.5c-0.5-0.6-1.4-0.8-2.1-0.4l-32.7,18.8c-0.7,0.5-1.2,1.3-1.2,2.2v10.7c0,0.9,0.5,1.7,1.2,2.2
			l32.7,18.9C135,158.1,136,158.1,136.7,157.7z"/>
		<path class="st6" d="M134.2,153.2l-20.9-12.1c-0.8-0.5-1.5-1.1-2.1-1.9l-10-13.5c-0.4-0.5-0.3-1.3,0.2-1.8c0.1,0,0.1-0.1,0.2-0.1
			l32.7-18.8c0.7-0.4,1.6-0.2,2.1,0.4l10,13.5c0.5,0.8,1.2,1.5,1.9,2l21.1,12c0.4,0.1,0.6,0.6,0.5,1c-0.1,0.2-0.3,0.4-0.5,0.5
			l-32.7,18.9C136,153.7,135,153.6,134.2,153.2z"/>
		<path class="st16" d="M101.6,123.9l32.7-18.8c0.7-0.4,1.6-0.2,2.1,0.4l10,13.5c0.3,0.4,0.6,0.8,1,1.1c0,0-35.2,20.3-35.2,20.3
			c-0.4-0.3-0.7-0.7-1-1.1l-10-13.5c-0.4-0.5-0.3-1.3,0.2-1.8C101.5,124,101.5,123.9,101.6,123.9z"/>
		<path class="st2" d="M161.5,133.3c-0.9-0.5-2-0.5-2.9,0c-0.5,0.2-0.7,0.7-0.6,1.1c0.1,0.3,0.3,0.5,0.6,0.6c0.9,0.5,2,0.5,2.9,0
			c0.5-0.2,0.7-0.7,0.6-1.1C161.9,133.6,161.7,133.3,161.5,133.3z"/>
		<path class="st2" d="M155.6,136.6c-0.9-0.5-2-0.5-2.9,0c-0.5,0.2-0.7,0.7-0.6,1.1c0.1,0.3,0.3,0.5,0.6,0.6c0.9,0.5,2,0.5,2.9,0
			c0.5-0.2,0.7-0.7,0.6-1.1C156.1,136.9,155.9,136.7,155.6,136.6z"/>
		<path class="st18" d="M149.8,140c-0.9-0.5-2-0.5-2.9,0c-0.5,0.2-0.7,0.7-0.6,1.1c0.1,0.3,0.3,0.5,0.6,0.6c0.9,0.5,2,0.5,2.9,0
			c0.5-0.2,0.7-0.7,0.6-1.1C150.2,140.3,150,140.1,149.8,140z"/>
		<path class="st18" d="M143.9,143.4c-0.9-0.5-2-0.5-2.9,0c-0.5,0.2-0.7,0.7-0.6,1.1c0.1,0.3,0.3,0.5,0.6,0.6c0.9,0.5,2,0.5,2.9,0
			c0.5-0.2,0.7-0.7,0.6-1.1C144.4,143.7,144.2,143.5,143.9,143.4z"/>
		<path class="st2" d="M157.1,130.7c-0.9-0.5-2-0.5-2.9,0c-0.5,0.2-0.7,0.7-0.6,1.1c0.1,0.3,0.3,0.5,0.6,0.6c0.9,0.5,2,0.5,2.9,0
			c0.5-0.2,0.7-0.7,0.6-1.1C157.6,131,157.3,130.8,157.1,130.7z"/>
		<path class="st18" d="M151.2,134.1c-0.9-0.5-2-0.5-2.9,0c-0.5,0.2-0.7,0.7-0.6,1.1c0.1,0.3,0.3,0.5,0.6,0.6c0.9,0.5,2,0.5,2.9,0
			c0.5-0.2,0.7-0.7,0.6-1.1C151.7,134.4,151.5,134.2,151.2,134.1z"/>
		<ellipse class="st2" cx="143.9" cy="138.3" rx="2.1" ry="1.2"/>
		<path class="st18" d="M139.5,140.9c-0.9-0.5-2-0.5-2.9,0c-0.5,0.2-0.7,0.7-0.6,1.1c0.1,0.3,0.3,0.5,0.6,0.6c0.9,0.5,2,0.5,2.9,0
			c0.5-0.2,0.7-0.7,0.6-1.1C140,141.2,139.8,141,139.5,140.9z"/>
		<path class="st18" d="M152.7,128.2c-0.9-0.5-2-0.5-2.9,0c-0.5,0.2-0.7,0.7-0.6,1.1c0.1,0.3,0.3,0.5,0.6,0.6c0.9,0.5,2,0.5,2.9,0
			c0.5-0.2,0.7-0.7,0.6-1.1C153.2,128.5,152.9,128.3,152.7,128.2z"/>
		<path class="st2" d="M146.8,131.6c-0.9-0.5-2-0.5-2.9,0c-0.5,0.2-0.7,0.7-0.6,1.1c0.1,0.3,0.3,0.5,0.6,0.6c0.9,0.5,2,0.5,2.9,0
			c0.5-0.2,0.7-0.7,0.6-1.1C147.3,131.9,147.1,131.7,146.8,131.6z"/>
		<path class="st18" d="M141,135c-0.9-0.5-2-0.5-2.9,0c-0.5,0.2-0.7,0.7-0.6,1.1c0.1,0.3,0.3,0.5,0.6,0.6c0.9,0.5,2,0.5,2.9,0
			c0.5-0.2,0.7-0.7,0.6-1.1C141.5,135.3,141.3,135.1,141,135z"/>
		<path class="st2" d="M138,146.7c-0.9-0.5-2-0.5-2.9,0c-0.5,0.2-0.7,0.7-0.6,1.1c0.1,0.3,0.3,0.5,0.6,0.6c0.9,0.5,2,0.5,2.9,0
			c0.5-0.2,0.7-0.7,0.6-1.1C138.5,147,138.3,146.8,138,146.7z"/>
		<path class="st18" d="M133.6,144.2c-0.9-0.5-2-0.5-2.9,0c-0.5,0.2-0.7,0.7-0.6,1.1c0.1,0.3,0.3,0.5,0.6,0.6c0.9,0.5,2,0.5,2.9,0
			c0.5-0.2,0.7-0.7,0.6-1.1C134.1,144.5,133.9,144.3,133.6,144.2z"/>
		<path class="st18" d="M135.1,138.3c-0.9-0.5-2-0.5-2.9,0c-0.5,0.2-0.7,0.7-0.5,1.2c0.1,0.2,0.3,0.4,0.5,0.5c0.9,0.5,2,0.5,2.9,0
			c0.5-0.2,0.7-0.7,0.6-1.1C135.6,138.6,135.4,138.4,135.1,138.3z"/>
		<path class="st2" d="M148.3,125.7c-0.9-0.5-2-0.5-2.9,0c-0.5,0.2-0.7,0.7-0.6,1.1c0.1,0.3,0.3,0.5,0.6,0.6c0.9,0.5,2,0.5,2.9,0
			c0.5-0.2,0.7-0.7,0.6-1.1C148.8,125.9,148.5,125.7,148.3,125.7z"/>
		<path class="st18" d="M142.4,129c-0.9-0.5-2-0.5-2.9,0c-0.5,0.2-0.7,0.7-0.6,1.1c0.1,0.3,0.3,0.5,0.6,0.6c0.9,0.5,2,0.5,2.9,0
			c0.5-0.2,0.7-0.7,0.6-1.1C142.9,129.3,142.7,129.1,142.4,129z"/>
		<path class="st2" d="M136.6,132.4c-0.9-0.5-2-0.5-2.9,0c-0.5,0.2-0.7,0.7-0.6,1.1c0.1,0.3,0.3,0.5,0.6,0.6c0.9,0.5,2,0.5,2.9,0
			c0.5-0.2,0.7-0.7,0.6-1.1C137,132.7,136.8,132.5,136.6,132.4z"/>
		<ellipse class="st18" cx="129.2" cy="136.6" rx="2.1" ry="1.2"/>
		<path class="st2" d="M129.2,141.6c-0.9-0.5-2-0.5-2.9,0c-0.5,0.2-0.7,0.7-0.6,1.1c0.1,0.3,0.3,0.5,0.6,0.6c0.9,0.5,2,0.5,2.9,0
			c0.5-0.2,0.7-0.7,0.6-1.1C129.7,141.9,129.5,141.7,129.2,141.6z"/>
		<path class="st18" d="M124.8,139.1c-0.9-0.5-2-0.5-2.9,0c-0.5,0.2-0.7,0.7-0.6,1.1c0.1,0.3,0.3,0.5,0.6,0.6c0.9,0.5,2,0.5,2.9,0
			c0.5-0.2,0.7-0.7,0.6-1.1C125.3,139.4,125.1,139.2,124.8,139.1z"/>
		<path class="st16" d="M135.4,153.5v4.5c0.5,0,0.9-0.1,1.3-0.3l32.7-18.9c0.7-0.5,1.2-1.3,1.2-2.2v-1.6c0-0.8-0.4-1.5-1-2
			c0.5,0.4,0.4,0.9-0.2,1.3l-32.7,18.9C136.4,153.4,135.9,153.5,135.4,153.5z"/>
		<path class="st18" d="M142,118.4L142,118.4c-0.3-0.4-0.9-0.6-1.4-0.3l-28.4,16.4c-0.4,0.2-0.6,0.7-0.3,1.1c0,0,0.1,0.1,0.1,0.1
			l0,0c0.3,0.4,0.9,0.5,1.4,0.3l28.4-16.4c0.4-0.2,0.6-0.7,0.3-1.1C142.1,118.5,142,118.4,142,118.4z"/>
		<path class="st2" d="M142,118.4L142,118.4c-0.3-0.4-0.9-0.6-1.4-0.3l-21.1,12.2l1.2,1.6l21.1-12.2c0.4-0.2,0.6-0.7,0.3-1.1
			C142.1,118.5,142,118.4,142,118.4z"/>
		<path class="st18" d="M139.7,115.2L139.7,115.2c-0.3-0.4-0.9-0.6-1.4-0.3l-28.4,16.4c-0.4,0.2-0.6,0.7-0.3,1.1c0,0,0,0.1,0.1,0.1
			l0,0c0.3,0.4,0.9,0.5,1.4,0.3l28.4-16.4c0.4-0.2,0.6-0.7,0.3-1.1C139.7,115.3,139.7,115.3,139.7,115.2z"/>
		<path class="st2" d="M139.7,115.2L139.7,115.2c-0.3-0.4-0.9-0.6-1.4-0.3l-7.1,4.1l1.2,1.6l7.1-4.1c0.4-0.2,0.6-0.7,0.3-1.1
			C139.7,115.3,139.7,115.3,139.7,115.2z"/>
		<path class="st18" d="M137.3,112.1L137.3,112.1c-0.3-0.4-0.9-0.5-1.4-0.3l-28.4,16.4c-0.4,0.2-0.6,0.7-0.3,1.1
			c0,0,0.1,0.1,0.1,0.1l0,0c0.3,0.4,0.9,0.6,1.4,0.3l28.4-16.4c0.4-0.2,0.6-0.7,0.3-1.2C137.4,112.2,137.4,112.1,137.3,112.1z"/>
		<path class="st2" d="M137.3,112.1L137.3,112.1c-0.3-0.4-0.9-0.5-1.4-0.3l-14.8,8.5l1.2,1.6l14.8-8.5c0.4-0.2,0.6-0.7,0.3-1.2
			C137.4,112.2,137.4,112.1,137.3,112.1z"/>
		<path class="st18" d="M135,108.9L135,108.9c-0.3-0.4-0.9-0.6-1.4-0.3L105.1,125c-0.4,0.2-0.6,0.7-0.3,1.1c0,0,0.1,0.1,0.1,0.1l0,0
			c0.3,0.4,0.9,0.5,1.4,0.3l28.4-16.4C135.1,109.9,135.3,109.4,135,108.9C135,109,135,109,135,108.9z"/>
		<path class="st2" d="M135,108.9L135,108.9c-0.3-0.4-0.9-0.6-1.4-0.3l-25.8,14.9l1.2,1.6l25.8-14.9c0.4-0.2,0.6-0.7,0.3-1.1
			C135.1,109,135,109,135,108.9z"/>
	</g>
</g>
<g id="freepik--Cables--inject-11">
	<g id="freepik--Cable--inject-11">
		<path class="st2" d="M256.7,365c-0.1,0.2-0.4,0.3-0.7,0.2c0,0,0,0,0,0l-39.1-22.6c-1.2-0.6-2.7-0.6-3.9,0l-78.3,45.2
			c-0.8,0.4-1.6,0.6-2.4,0.6c-0.9,0-1.7-0.2-2.5-0.6l-45.2-26.1c-0.9-0.4-1.4-1.4-1-2.4c0.2-0.5,0.6-0.9,1-1l18.6-10.7
			c0.1,0,0.2,0,0.2,0c0.2,0.1,0.4,0.4,0.4,0.6c0,0.1,0,0.1-0.1,0.2c0,0,0,0-0.1,0h-0.1l-18.5,10.7c-0.3,0.1-0.6,0.4-0.7,0.8
			c0,0.3,0.2,0.6,0.7,0.8l45.2,26.1c1.2,0.6,2.7,0.6,3.9,0l78.3-45.2c1.5-0.8,3.4-0.8,4.9,0l39.1,22.6
			C256.7,364.5,256.8,364.8,256.7,365z"/>
		<path class="st2" d="M248.4,369.8c-0.1,0.2-0.4,0.3-0.7,0.2l-30.9-17.8c-1.2-0.6-2.7-0.6-3.9,0l-78.3,45.2
			c-0.8,0.4-1.6,0.6-2.4,0.6c-0.9,0-1.7-0.2-2.5-0.6l-61.7-35.6c-0.9-0.4-1.4-1.4-1-2.4c0.2-0.5,0.6-0.9,1-1l26.8-15.5l0,0
			c0.1,0,0.2,0,0.2,0c0.2,0.1,0.3,0.4,0.3,0.6c0,0.1,0,0.2-0.1,0.2l0,0l-26.8,15.5c-0.3,0.1-0.6,0.5-0.7,0.8c0,0.3,0.2,0.6,0.7,0.8
			l61.7,35.6c1.2,0.6,2.7,0.6,3.9,0l78.3-45.2c1.5-0.8,3.4-0.8,4.9,0l30.9,17.8C248.5,369.2,248.6,369.5,248.4,369.8
			C248.4,369.8,248.4,369.8,248.4,369.8z"/>
		<path class="st2" d="M240.2,374.6c-0.1,0.2-0.4,0.3-0.7,0.2l-22.6-13c-1.2-0.6-2.7-0.6-3.9,0l-78.3,45.2c-0.8,0.4-1.6,0.6-2.4,0.6
			c-0.9,0-1.7-0.2-2.5-0.6l-78.3-45.2c-0.7-0.3-1.1-1-1.2-1.7c0.1-0.7,0.5-1.4,1.2-1.7l35.1-20.2c0,0,0.1,0,0.1-0.1
			c0.1,0,0.2,0,0.2,0c0.2,0.1,0.3,0.4,0.4,0.6c0,0.1,0,0.2-0.1,0.2l0,0L52,359.2c-0.4,0.2-0.7,0.5-0.7,0.8s0.2,0.6,0.7,0.8
			l78.3,45.2c1.2,0.6,2.7,0.6,3.9,0l78.3-45.2c1.5-0.8,3.4-0.8,4.9,0l22.6,13C240.2,374,240.3,374.3,240.2,374.6
			C240.2,374.5,240.2,374.6,240.2,374.6z"/>
		<path class="st2" d="M231.9,379.3c-0.1,0.2-0.4,0.3-0.7,0.2l-14.3-8.3c-1.2-0.6-2.7-0.6-3.9,0l-78.3,45.2
			c-0.8,0.4-1.6,0.6-2.4,0.6c-0.9,0-1.7-0.2-2.5-0.6L35,361.7c-0.9-0.4-1.4-1.5-1-2.4c0.2-0.5,0.6-0.8,1-1l43.3-25c0,0,0,0,0.1,0
			c0.1,0,0.2,0,0.2,0c0.2,0.1,0.4,0.4,0.4,0.6c0,0.1,0,0.1,0,0.2h-0.1l0,0l-43.3,25c-0.3,0.1-0.6,0.5-0.7,0.8c0,0.3,0.2,0.6,0.7,0.8
			l94.8,54.7c1.2,0.6,2.7,0.6,3.9,0l78.3-45.2c1.5-0.8,3.4-0.8,4.9,0l14.3,8.3c0.2,0.1,0.3,0.5,0.2,0.7
			C232,379.3,231.9,379.3,231.9,379.3z"/>
		<g class="st20">
			<path d="M256.7,365c-0.1,0.2-0.4,0.3-0.7,0.2c0,0,0,0,0,0l-39.1-22.6c-1.2-0.6-2.7-0.6-3.9,0l-78.3,45.2
				c-0.8,0.4-1.6,0.6-2.4,0.6c-0.9,0-1.7-0.2-2.5-0.6l-45.2-26.1c-0.9-0.4-1.4-1.4-1-2.4c0.2-0.5,0.6-0.9,1-1l18.6-10.7
				c0.1,0,0.2,0,0.2,0c0.2,0.1,0.4,0.4,0.4,0.6c0,0.1,0,0.1-0.1,0.2c0,0,0,0-0.1,0h-0.1l-18.5,10.7c-0.3,0.1-0.6,0.4-0.7,0.8
				c0,0.3,0.2,0.6,0.7,0.8l45.2,26.1c1.2,0.6,2.7,0.6,3.9,0l78.3-45.2c1.5-0.8,3.4-0.8,4.9,0l39.1,22.6
				C256.7,364.5,256.8,364.8,256.7,365z"/>
			<path d="M248.4,369.8c-0.1,0.2-0.4,0.3-0.7,0.2l-30.9-17.8c-1.2-0.6-2.7-0.6-3.9,0l-78.3,45.2c-0.8,0.4-1.6,0.6-2.4,0.6
				c-0.9,0-1.7-0.2-2.5-0.6l-61.7-35.6c-0.9-0.4-1.4-1.4-1-2.4c0.2-0.5,0.6-0.9,1-1l26.8-15.5l0,0c0.1,0,0.2,0,0.2,0
				c0.2,0.1,0.3,0.4,0.3,0.6c0,0.1,0,0.2-0.1,0.2l0,0l-26.8,15.5c-0.3,0.1-0.6,0.5-0.7,0.8c0,0.3,0.2,0.6,0.7,0.8l61.7,35.6
				c1.2,0.6,2.7,0.6,3.9,0l78.3-45.2c1.5-0.8,3.4-0.8,4.9,0l30.9,17.8C248.5,369.2,248.6,369.5,248.4,369.8
				C248.4,369.8,248.4,369.8,248.4,369.8z"/>
			<path d="M240.2,374.6c-0.1,0.2-0.4,0.3-0.7,0.2l-22.6-13c-1.2-0.6-2.7-0.6-3.9,0l-78.3,45.2c-0.8,0.4-1.6,0.6-2.4,0.6
				c-0.9,0-1.7-0.2-2.5-0.6l-78.3-45.2c-0.7-0.3-1.1-1-1.2-1.7c0.1-0.7,0.5-1.4,1.2-1.7l35.1-20.2c0,0,0.1,0,0.1-0.1
				c0.1,0,0.2,0,0.2,0c0.2,0.1,0.3,0.4,0.4,0.6c0,0.1,0,0.2-0.1,0.2l0,0L52,359.2c-0.4,0.2-0.7,0.5-0.7,0.8s0.2,0.6,0.7,0.8
				l78.3,45.2c1.2,0.6,2.7,0.6,3.9,0l78.3-45.2c1.5-0.8,3.4-0.8,4.9,0l22.6,13C240.2,374,240.3,374.3,240.2,374.6
				C240.2,374.5,240.2,374.6,240.2,374.6z"/>
			<path d="M231.9,379.3c-0.1,0.2-0.4,0.3-0.7,0.2l-14.3-8.3c-1.2-0.6-2.7-0.6-3.9,0l-78.3,45.2c-0.8,0.4-1.6,0.6-2.4,0.6
				c-0.9,0-1.7-0.2-2.5-0.6L35,361.7c-0.9-0.4-1.4-1.5-1-2.4c0.2-0.5,0.6-0.8,1-1l43.3-25c0,0,0,0,0.1,0c0.1,0,0.2,0,0.2,0
				c0.2,0.1,0.4,0.4,0.4,0.6c0,0.1,0,0.1,0,0.2h-0.1l0,0l-43.3,25c-0.3,0.1-0.6,0.5-0.7,0.8c0,0.3,0.2,0.6,0.7,0.8l94.8,54.7
				c1.2,0.6,2.7,0.6,3.9,0l78.3-45.2c1.5-0.8,3.4-0.8,4.9,0l14.3,8.3c0.2,0.1,0.3,0.5,0.2,0.7C232,379.3,231.9,379.3,231.9,379.3z"
				/>
		</g>
	</g>
</g>
<g id="freepik--Device--inject-11">
	<g id="freepik--device--inject-11">
		<g id="freepik--Monitor--inject-11">
			<path class="st18" d="M347.7,390.4l26.3-15.2c2.7-1.6,4.1-3.6,4.1-5.7s0-3.7,0-3.7l-24.7-14c-1.5-1-2.5-2.7-2.6-4.5v-32.4
				l-45.9,26.5v32.4c0.1,1.8,1.1,3.5,2.6,4.5l20.7,12C333.5,393.5,342.3,393.5,347.7,390.4z"/>
			<path class="st21" d="M315.8,379.5v3.6l-8.4-4.9c-1.5-1-2.5-2.7-2.6-4.5v-32.4l8.8-5c0.2,2.2,0.4,4.5,0.5,6.8l-6.1,3.5V372
				c0.1,1.8,1.1,3.5,2.6,4.5L315.8,379.5z"/>
			<path class="st16" d="M308,372c0.1,1.8,1.1,3.5,2.6,4.5l17.5,10.2c5.4,3.1,14.2,3.1,19.6,0l26.3-15.2c5.4-3.1,5.4-8.2,0-11.3
				L356.5,350c-1.5-1-2.5-2.7-2.6-4.5v-25.3L308,346.6V372z"/>
			<path class="st21" d="M361.8,353.1L361.8,353.1l-5.3-3.1c-1.5-1-2.5-2.7-2.6-4.5v-25.3L308,346.6V372c0.1,1.8,1.1,3.5,2.6,4.5
				l5.2,3L361.8,353.1z"/>
			<path class="st21" d="M378.1,365.8v3.7c0,2-1.4,4.1-4.1,5.7l-26.3,15.2c-2.9,1.5-6.1,2.3-9.4,2.3V389c3.3,0,6.5-0.8,9.4-2.3
				l26.3-15.2C376.7,370,378.1,367.9,378.1,365.8z"/>
			<path class="st6" d="M234.3,406.9c2,1,4.4,0.9,6.3-0.1c22.6-13,155-89.5,177.5-102.5c1.9-1.3,3.1-3.4,3.3-5.7V143.2
				c0.1-3.4-2.5-6.2-5.9-6.4c-1.2,0-2.4,0.3-3.5,0.9L234.5,240.3c-1.9,1.3-3.1,3.4-3.3,5.7v155.4
				C231.3,403.6,232.4,405.7,234.3,406.9z"/>
			<path class="st2" d="M240.6,406.8l177.5-102.5c1.9-1.3,3.1-3.4,3.3-5.7V143.2c0-2.1-1.5-2.9-3.3-1.9L240.6,243.9
				c-1.9,1.3-3.1,3.4-3.3,5.7v155.4C237.3,407,238.8,407.9,240.6,406.8z"/>
			<path class="st22" d="M240.6,406.8l177.5-102.5c1.9-1.3,3.1-3.4,3.3-5.7V143.2c0-2.1-1.5-2.9-3.3-1.9L240.6,243.9
				c-1.9,1.3-3.1,3.4-3.3,5.7v155.4C237.3,407,238.8,407.9,240.6,406.8z"/>
			<path d="M240.1,407.5c-3,1.6-6.7,0.4-8.2-2.6c-0.5-0.9-0.7-2-0.7-3.1v-17.5l6.1,3.5v17.5C237.3,407.2,238.5,408.1,240.1,407.5z"
				/>
			<path class="st23" d="M237.3,399.5v5.9c0,2.1,1.5,2.9,3.3,1.9l177.5-102.5c1.9-1.3,3.1-3.4,3.3-5.7v-5.9L237.3,399.5z"/>
			<path class="st24" d="M243.5,386.3V251.6c0.1-1.4,0.8-2.7,2-3.4l167.9-96.9c1.1-0.6,2-0.1,2,1.1v134.8c-0.1,1.4-0.8,2.7-2,3.4
				l-167.9,96.9C244.4,388.1,243.5,387.6,243.5,386.3z"/>
			<path class="st2" d="M329.4,349.3c-1,0.6-1.6,1.7-1.7,2.9c0,1.1,0.7,1.5,1.7,1c1-0.6,1.6-1.7,1.7-2.9
				C331,349.2,330.3,348.8,329.4,349.3z"/>
			<path class="st23" d="M238.3,246.3c-0.6,1-0.9,2.1-1,3.2v149.9l-6.1-3.5V246c0.1-1.1,0.4-2.3,1-3.2L238.3,246.3z"/>
		</g>
		<path class="st25" d="M315.9,313.5c-2.9,0-5.9-0.6-8.6-1.7c-8.1-3.3-14.3-11.4-17.5-22.8c-0.6-2,0.6-4,2.6-4.6s4,0.6,4.6,2.6
			c2.6,9.2,7.2,15.6,13.2,18c5.1,2.1,11.1,1.2,17.4-2.4c15.1-8.7,28.9-31.6,34.2-56.9c0.4-2,2.4-3.3,4.4-2.9c2,0.4,3.3,2.4,2.9,4.4
			l0,0c-5.8,27.7-20.7,51.9-37.8,61.8C326.6,311.8,321.3,313.4,315.9,313.5z"/>
		<path class="st25" d="M314.6,252.5c0,4.9-2.6,10.4-5.8,12.2s-5.8-0.6-5.8-5.6s2.6-10.4,5.8-12.2S314.6,247.6,314.6,252.5z"/>
		<path class="st25" d="M351.2,231.4c0,4.9-2.6,10.4-5.8,12.2s-5.8-0.6-5.8-5.6s2.6-10.4,5.8-12.2S351.2,226.4,351.2,231.4z"/>
	</g>
</g>
<g id="freepik--speech-bubbles--inject-11">
	<g id="freepik--speech-bubble--inject-11">
		<g id="freepik--speach-bubble--inject-11">
			<path class="st2" d="M258,203.9l-3.9-11l3.1-9v-5.5l-9.5,5.5v5.5l4.1,10.8c0.1,0.1,0.2,0.2,0.3,0.2l0,0L258,203.9z"/>
			<path class="st26" d="M258,203.9l-3.9-11l3.1-9v-5.5l-9.5,5.5v5.5l4.1,10.8c0.1,0.1,0.2,0.2,0.3,0.2l0,0L258,203.9z"/>
			<path class="st6" d="M280.7,119.8c-0.1-2-1.2-3.8-2.9-4.9l-2.3-1.3c-1.8-0.9-3.9-0.9-5.7,0l-35.5,20.6c-1.7,1.1-2.7,2.9-2.9,4.9
				v54.2c0.1,2,1.2,3.8,2.9,4.9l2.3,1.3c1.8,0.9,3.9,0.9,5.7,0l11.4-6.6l4.1,10.8c0.2,0.3,0.5,0.4,0.8,0.2c0.1-0.1,0.2-0.2,0.3-0.3
				l4.3-16.1l14.6-8.5c1.7-1.1,2.7-2.9,2.9-4.9V119.8z"/>
			<path class="st15" d="M231.5,193.2c0.1,2,1.2,3.8,2.9,4.9l2.3,1.3c1.6,0.8,3.5,0.9,5.2,0.2c-1.3,0.5-2.4-0.2-2.4-1.9v-54.2
				c0-1,0.3-2,0.8-2.8l-8-4.6c-0.5,0.9-0.8,1.8-0.8,2.8L231.5,193.2z"/>
			<path class="st27" d="M280.6,119c-0.3-1.2-1.4-1.6-2.8-0.8l-35.6,20.6c-0.8,0.5-1.5,1.3-2,2.1l-8-4.6c0.5-0.9,1.2-1.6,2-2.1
				l35.5-20.6c1.8-0.9,3.9-0.9,5.7,0l2.3,1.3C279.3,115.8,280.3,117.3,280.6,119z"/>
		</g>
		<path class="st25" d="M245,178l30.9-17.8c0.6-0.4,1.1-0.1,1.1,0.6c-0.1,0.7-0.5,1.4-1.1,1.8L245,180.4c-0.6,0.4-1.1,0.1-1.1-0.6
			C244,179.1,244.4,178.4,245,178z"/>
		<path class="st25" d="M245,182.8l30.8-17.8c0.6-0.4,1.1-0.1,1.1,0.6c-0.1,0.8-0.5,1.4-1.1,1.8L245,185.2c-0.6,0.4-1.1,0.1-1.1-0.6
			C244,183.9,244.4,183.2,245,182.8z"/>
		<path class="st25" d="M245,187.6l30.9-17.8c0.6-0.4,1.1-0.1,1.1,0.6c-0.1,0.8-0.5,1.4-1.1,1.8L245,190c-0.6,0.4-1.1,0.1-1.1-0.6
			C243.9,188.7,244.4,188,245,187.6z"/>
		<path id="freepik--Check--inject-11" class="st25" d="M269,133c-1.3-0.5-2.7,0.1-3.3,1.3l-9.4,22.4l-2.2-2.2
			c-1-0.9-2.6-0.8-3.5,0.2c-0.8,1-0.8,2.4,0,3.3l4.9,4.7c0.5,0.4,1.1,0.7,1.7,0.7c0.2,0,0.3,0,0.5,0c0.8-0.2,1.5-0.7,1.8-1.5
			l10.9-25.8C270.9,135.1,270.3,133.6,269,133C269,133,269,133,269,133z"/>
	</g>
	<g id="freepik--speech-bubble--inject-11_00000100375647581033524870000001584042278398240147_">
		<g id="freepik--speach-bubble--inject-11_00000144334993855799476120000010507601217583988125_">
			<path class="st2" d="M324.4,165.5l-3.9-11l3.1-8.9v-5.5l-9.5,5.5v5.5l4.1,10.8c0.1,0.1,0.2,0.2,0.3,0.2l0,0L324.4,165.5z"/>
			<path class="st26" d="M324.4,165.5l-3.9-11l3.1-8.9v-5.5l-9.5,5.5v5.5l4.1,10.8c0.1,0.1,0.2,0.2,0.3,0.2l0,0L324.4,165.5z"/>
			<path class="st6" d="M347,81.5c-0.1-2-1.2-3.8-2.9-4.9l-2.3-1.3c-1.8-0.9-3.9-0.9-5.7,0l-35.5,20.6c-1.7,1.1-2.7,2.9-2.9,4.9
				v54.2c0.1,2,1.2,3.8,2.9,4.9l2.3,1.3c1.8,0.9,3.9,0.9,5.7,0l11.4-6.6l4.1,10.8c0.2,0.3,0.5,0.4,0.8,0.2c0.1-0.1,0.2-0.2,0.3-0.3
				l4.3-16.1l14.6-8.5c1.7-1.1,2.7-2.9,2.9-4.9L347,81.5z"/>
			<path class="st15" d="M297.8,154.9c0.1,2,1.2,3.8,2.9,4.9l2.3,1.3c1.6,0.8,3.5,0.9,5.2,0.2c-1.3,0.5-2.4-0.2-2.4-1.9v-54.2
				c0-1,0.3-2,0.8-2.8l-8-4.6c-0.5,0.8-0.8,1.8-0.8,2.8L297.8,154.9z"/>
			<path class="st27" d="M346.9,80.7c-0.3-1.2-1.4-1.6-2.8-0.8l-35.5,20.6c-0.8,0.5-1.5,1.3-2,2.1l-8-4.6c0.5-0.9,1.2-1.6,2-2.1
				l35.5-20.6c1.8-0.9,3.9-0.9,5.7,0l2.3,1.3C345.6,77.5,346.6,79,346.9,80.7z"/>
		</g>
		<path class="st25" d="M311.1,139.8L342,122c0.6-0.4,1.1-0.1,1.1,0.6c-0.1,0.8-0.5,1.4-1.1,1.8l-30.9,17.8
			c-0.6,0.4-1.1,0.1-1.1-0.6C310.1,140.9,310.5,140.2,311.1,139.8z"/>
		<path class="st25" d="M311.1,144.6l30.9-17.8c0.6-0.3,1.1-0.1,1.1,0.6c-0.1,0.8-0.5,1.4-1.1,1.8L311.1,147
			c-0.6,0.4-1.1,0.1-1.1-0.6C310,145.7,310.4,145,311.1,144.6z"/>
		<path class="st25" d="M311.1,149.4l30.9-17.8c0.6-0.4,1.1-0.1,1.1,0.6c0,0.8-0.5,1.5-1.1,1.9l-30.9,17.8c-0.6,0.4-1.1,0.1-1.1-0.6
			C310.1,150.5,310.5,149.8,311.1,149.4z"/>
		<path class="st25" d="M335.1,94.8c-1.3-0.5-2.7,0.1-3.3,1.3c0,0,0,0,0,0l-9.4,22.4l-2.2-2.2c-1-1-2.6-0.9-3.5,0.1
			s-0.9,2.6,0.1,3.5l0,0l4.9,4.7c0.5,0.5,1.1,0.7,1.7,0.7c0.2,0,0.3,0,0.5-0.1c0.8-0.2,1.5-0.7,1.8-1.5l10.9-25.8
			C337,96.8,336.4,95.4,335.1,94.8C335.2,94.8,335.1,94.8,335.1,94.8z"/>
	</g>
	<g id="freepik--speech-bubble--inject-11_00000057107582475868632560000000429588546888649130_">
		<g id="freepik--speach-bubble--inject-11_00000139276006335773128590000002998268773631605381_">
			<path class="st2" d="M390.6,127.3l-3.9-11l3.1-9v-5.5l-9.5,5.5v5.5l4.1,10.8c0.1,0.1,0.2,0.2,0.3,0.2l0,0L390.6,127.3z"/>
			<path class="st26" d="M390.6,127.3l-3.9-11l3.1-9v-5.5l-9.5,5.5v5.5l4.1,10.8c0.1,0.1,0.2,0.2,0.3,0.2l0,0L390.6,127.3z"/>
			<path class="st6" d="M413.3,43.2c-0.1-2-1.2-3.8-2.8-4.9l-2.3-1.3c-1.8-0.9-3.9-0.9-5.7,0l-35.5,20.5c-1.7,1.1-2.7,2.9-2.9,4.9
				v54.2c0.1,2,1.2,3.8,2.9,4.9l2.3,1.3c1.8,0.9,3.9,0.9,5.7,0l11.4-6.6l4.1,10.8c0.2,0.3,0.5,0.4,0.8,0.2c0.1-0.1,0.2-0.2,0.3-0.3
				l4.3-16.2l14.6-8.5c1.7-1.1,2.7-2.9,2.8-4.9L413.3,43.2z"/>
			<path class="st15" d="M364.1,116.7c0.1,2,1.2,3.8,2.9,4.9l2.3,1.3c1.6,0.8,3.5,0.9,5.2,0.2c-1.3,0.5-2.4-0.2-2.4-1.9V67.1
				c0-1,0.3-2,0.8-2.8l-8-4.6c-0.5,0.9-0.8,1.8-0.8,2.8L364.1,116.7z"/>
			<path class="st27" d="M413.2,42.4c-0.3-1.2-1.4-1.6-2.8-0.8l-35.6,20.6c-0.8,0.5-1.5,1.2-2,2.1l-8-4.6c0.5-0.9,1.2-1.6,2-2.1
				L402.5,37c1.8-0.9,3.9-0.9,5.7,0l2.3,1.3C411.9,39.3,412.9,40.7,413.2,42.4z"/>
		</g>
		<path class="st25" d="M377.2,101.6l30.9-17.8c0.6-0.3,1.1-0.1,1.1,0.6c-0.1,0.7-0.5,1.4-1.1,1.8L377.2,104
			c-0.6,0.3-1.1,0.1-1.1-0.6C376.2,102.7,376.6,102,377.2,101.6z"/>
		<path class="st25" d="M377.2,106.4l30.9-17.8c0.6-0.4,1.1-0.1,1.1,0.6c-0.1,0.7-0.5,1.4-1.1,1.8l-30.9,17.8
			c-0.6,0.3-1.1,0.1-1.1-0.6C376.2,107.5,376.6,106.8,377.2,106.4z"/>
		<path class="st25" d="M377.2,111.2l30.9-17.8c0.6-0.3,1.1-0.1,1.1,0.6c-0.1,0.7-0.5,1.4-1.1,1.8l-30.9,17.8
			c-0.6,0.3-1.1,0.1-1.1-0.6C376.2,112.3,376.6,111.6,377.2,111.2z"/>
		<path id="freepik--check--inject-11" class="st25" d="M401.3,56.6c-1.3-0.5-2.7,0.1-3.3,1.3l-9.4,22.5l-2.2-2.2
			c-1-0.9-2.6-0.8-3.5,0.2c-0.8,1-0.8,2.4,0,3.3l4.9,4.7c0.5,0.5,1.1,0.7,1.7,0.7c0.2,0,0.3,0,0.5,0c0.8-0.2,1.5-0.7,1.8-1.5
			l10.9-25.8C403.2,58.7,402.6,57.2,401.3,56.6C401.3,56.6,401.3,56.6,401.3,56.6z"/>
	</g>
</g>
</svg>
