<?xml version="1.0" encoding="utf-8"?>
<!-- Generator: Adobe Illustrator 26.0.1, SVG Export Plug-In . SVG Version: 6.00 Build 0)  -->
<svg version="1.1" id="Layer_1" xmlns="http://www.w3.org/2000/svg" xmlns:xlink="http://www.w3.org/1999/xlink" x="0px" y="0px"
	 viewBox="0 0 500 500" style="enable-background:new 0 0 500 500;" xml:space="preserve">
<style type="text/css">
	.st0{fill:#F7C5B9;}
	.st1{fill:#3A4C55;}
	.st2{fill:#B1B1B1;}
	.st3{fill:#3C4954;}
	.st4{fill:#ACACAC;}
	.st5{fill:#3D4A55;}
	.st6{fill:#AEADAD;}
	.st7{fill:#3F4D56;}
	.st8{fill:#FEFEFE;}
	.st9{fill:#989898;}
	.st10{fill:#E7673C;}
	.st11{fill:#B65130;}
	.st12{fill:#919191;}
	.st13{fill:#E6673C;}
	.st14{fill:#E6663C;}
	.st15{fill:#F7C6B9;}
	.st16{fill:#31404A;}
	.st17{fill:#FDFEFE;}
	.st18{fill:#C8C8C8;}
	.st19{fill:#FDFDFD;}
	.st20{fill:#FCFCFC;}
	.st21{fill:#FBFBFB;}
	.st22{fill:#F8F9F9;}
	.st23{fill:#F4F5F5;}
	.st24{fill:#E9E9EA;}
	.st25{fill:#DEDEDE;}
	.st26{fill:#FBFCFC;}
	.st27{fill:#E8E9EA;}
	.st28{fill:#F7F7F8;}
	.st29{fill:#FAFAFB;}
	.st30{fill:#F8F8F8;}
	.st31{fill:#B1B0B0;}
	.st32{fill:#F2F2F3;}
	.st33{fill:#F0F1F1;}
	.st34{fill:#AFAEAD;}
	.st35{fill:#F4F4F5;}
	.st36{fill:#F5F5F6;}
	.st37{fill:#E3653D;}
	.st38{fill:#E1B7AB;}
	.st39{fill:#E0E1E2;}
	.st40{fill:#EBECED;}
	.st41{fill:#3E4D57;}
	.st42{fill:#3E4B56;}
	.st43{fill:#3C4B56;}
	.st44{fill:#3C4D56;}
	.st45{fill:#3B4B56;}
	.st46{fill:#3B4C55;}
	.st47{fill:#405059;}
	.st48{fill:#3C4D57;}
	.st49{fill:#3B4A55;}
	.st50{fill:#404F59;}
	.st51{fill:#3E4E57;}
	.st52{fill:#3F4F58;}
	.st53{fill:#3F4E58;}
	.st54{fill:#424D56;}
	.st55{fill:#424E57;}
	.st56{fill:#414E57;}
	.st57{fill:#667078;}
	.st58{fill:#47555E;}
	.st59{fill:#677179;}
	.st60{fill:#48555F;}
	.st61{fill:#5C6870;}
	.st62{fill:#5C6770;}
	.st63{fill:#5C676F;}
	.st64{fill:#5D6971;}
	.st65{fill:#5B676F;}
	.st66{fill:#5D6870;}
	.st67{fill:#495660;}
	.st68{fill:#5D6871;}
	.st69{fill:#49565F;}
	.st70{fill:#5D6970;}
	.st71{fill:#68727A;}
	.st72{fill:#495560;}
	.st73{fill:#5A666E;}
	.st74{fill:#47545E;}
	.st75{fill:#5A656E;}
	.st76{fill:#59666F;}
	.st77{fill:#5B666F;}
	.st78{fill:#616D75;}
	.st79{fill:#5F6B73;}
	.st80{fill:#606C74;}
	.st81{fill:#48565F;}
	.st82{fill:#495760;}
	.st83{fill:#4B5760;}
	.st84{fill:#55626A;}
	.st85{fill:#4A5761;}
	.st86{fill:#45525C;}
	.st87{fill:#46535C;}
	.st88{fill:#4C5963;}
	.st89{fill:#3F4C58;}
	.st90{fill:#41515A;}
	.st91{fill:#42505A;}
	.st92{fill:#44525B;}
	.st93{fill:#3E4C55;}
	.st94{fill:#3F4B54;}
	.st95{fill:#404B54;}
	.st96{fill:#4D4D53;}
	.st97{fill:#4E5963;}
	.st98{fill:#4F5A64;}
	.st99{fill:#3D4C55;}
	.st100{fill:#3C4C54;}
	.st101{fill:#3F4C54;}
	.st102{fill:#3F4D57;}
	.st103{fill:#D5623D;}
	.st104{fill:#E5653C;}
	.st105{fill:#DF643C;}
	.st106{fill:#DE643C;}
	.st107{fill:#F1F2F2;}
	.st108{fill:#E7663C;}
	.st109{fill:#3E4D56;}
	.st110{fill:#3E4A55;}
</style>
<g>
	<path d="M474.4,445c-14,0-28,0-41.9,0c-0.6,0-1.2,0.2-1.7-0.2c0.3-0.4,0.5-0.7,0.8-1.1c6-7.9,11.2-16.2,15-25.4
		c5-12.2,6.8-24.9,5.9-38c-0.7-9.3-2.6-18.3-4.9-27.3c-0.8-3-1.8-6-2.3-9.1c0.5-0.4,1.1-0.8,1.6-1.2c9-7.7,15.1-17.4,19.2-28.3
		c6.2-16.5,8.8-33.6,8.1-51.3c-0.4-9.8-2.1-19.4-6-28.4c-3.8-9.1-9.5-16.9-17.3-23.1c-6.8-5.4-14.5-9.3-22.5-12.6
		c0.1-6.5,0.3-12.9,0.3-19.4c0-9.2-0.3-18.3-1.6-27.4c-0.7-4.9-1.7-9.6-2.8-14.4c0.5-0.5,1.1-0.3,1.7-0.3c7.1,0,14.2,0,21.3,0
		c1.3,0,2.5,0,3.8-0.2c4.1-0.6,6.9-2.9,8.3-6.7c1.4-3.8,0.5-7.3-2.2-10.2c-0.5-0.5-0.6-1-0.5-1.7c0.5-2.9,0.5-5.9-0.2-8.8
		c-1.3-5.6-4.3-10.1-8.8-13.5c-5.3-3.9-11.4-5.1-17.9-3.8c-0.7,0.1-1.1,0-1.4-0.6c-1.1-1.9-2.6-3.6-4.3-4.9
		c-5.2-4.1-10.9-5.8-17.5-4.7c-2.1,0.4-4.1,1.1-6.2,1.7c-1-1.6-2-3.1-2.9-4.7c-7.5-12.4-16.7-23.4-27.9-32.7
		c-14.2-12-30.4-20.6-48-26.5c-15.7-5.2-31.8-8.2-48.3-8.9c-17.2-0.8-34.2,0.6-51,4.2c-11.9,2.6-23.4,6.1-34.7,10.8
		c-10.3,4.3-20.2,9.3-29.8,15.1c-0.6,0.3-1.2,0.3-1.9,0.3c-4.9,0-9.8,0-14.7,0c-11.4,0-22.8,0-34.1,0c-3.2,0-4.1,1-4.1,4.1
		c0,4.2,0,8.4,0,12.5c0,3.6,0,7.1,0,10.7c0,2.1,1.1,3.2,3.2,3.2c1.6,0,3.1,0,4.7,0c1.7,0.1,3.5-0.2,5.2,0.2c-1.3,1.2-2.7,2.5-4,3.7
		c-7.2,6.7-14,13.8-20.5,21.1c-0.6,0.6-1.4,0.5-2.2,0.5c-17.5,0-35.1,0.1-52.6,0c-2.8,0-5.6,2.7-5.4,5.4c0.2,3.7,0.1,7.5,0.1,11.2
		c0,1.8,0,1.8,1.8,1.8c13.8,0,27.6,0,41.4,0c0.6,0,1.2-0.2,1.7,0.3c-0.4,0.5-0.7,1-1.1,1.6c-0.6,0.4-1.2,0.3-1.8,0.3
		c-9.2,0-18.3,0-27.5,0c-2,0-2,0-2,2c0,24,0,48,0,72.1c0,1.6-0.5,3.2-0.2,4.8c-0.1,0.9-0.3,1.9-0.4,2.8c-1.2,9.7-1.6,19.5-1.4,29.3
		c0.2,7.5,0.7,15.1,1.8,22.5c-0.2,1.8,0.2,3.6,0.2,5.4c-0.1,8.3,0,16.5,0,24.8c0,0.4,0,0.8,0,1.2c0,1-0.4,1.4-1.5,1.4
		c-2.5-0.1-4.9,0-7.4,0c-0.9,0-1.3,0.3-1.3,1.3c0,4.7,0,9.4,0,14.2c0,1,0.4,1.4,1.3,1.3c2.2,0,4.3,0,6.5,0c2.1,0,2.4,0.3,2.4,2.4
		c0,4.6,0,9.2,0,13.8c0,1,0.3,1.4,1.4,1.4c2.5-0.1,4.9,0,7.4,0c0.6,0,1.3-0.2,1.8,0.3c-0.3,0.8-0.5,1.5-0.8,2.3
		c-5.6,15.6-8.6,31.8-9.7,48.3c-1.2,19,0.3,37.9,4.1,56.5c1.3,6.3,3.1,12.5,5,18.7c-0.5,0.4-1,0.2-1.6,0.2c-8.6,0-17.3,0-25.9,0
		c-0.4,0-0.7,0-1.1,0c-0.4,0-0.8,0-0.8,0.5c0,0.5,0.4,0.5,0.8,0.5c0.5,0,1,0,1.5,0h187.3c0.9,0,1.7-0.1,2.5,0.3
		c0.2,0.1,0.4,0.2,0.6,0.3c14.4,7.7,29.1,14.9,43.6,22.4c20.3,10.4,41.5,17.6,64.3,19.5c11.4,1,22.6,0.5,33.9-1.3
		c12-2,23.5-5.8,34.3-11.3c7.5-3.8,14.6-8.4,21.1-13.9c5.7-4.8,10.9-10.1,15.7-15.7c0.6-0.4,1.3-0.3,2-0.3c14.3,0,28.6,0,42.9,0
		c0.7,0,1.9,0.5,1.9-0.6C476.2,444.6,475,445,474.4,445z M405.8,83.4c8.8-2,17.9,2.3,21.9,9.2c0.6,1,1.2,1.1,2.2,0.9
		c6.2-1.2,12.1-0.2,17.2,3.5c6.6,4.8,9.6,11.6,8.9,19.7c-0.2,2.1,0.1,3.5,1.4,5.3c4.1,5.4,0.4,13.2-6.3,14c-1.3,0.2-2.6,0.2-3.9,0.2
		c-7.2,0-14.3,0-21.5,0c-0.6,0-1.2,0.1-1.7-0.3c0.5-0.6,0.2-1.3,0-1.9c-0.8-3-1.8-6-2.8-8.9c-4.8-13.6-11.4-26.4-18.7-38.8
		c-0.3-0.5-0.6-1-1.2-1.2C402.5,83.9,404.3,83.7,405.8,83.4z"/>
	<path class="st0" d="M333.9,335.4c0,0.8-0.5,1.2-1.2,1.4c-0.6,0.1-1.2,0-1.8,0c-22.4,0-44.8,0-67.2,0c-0.5,0-1.1-0.1-1.6,0
		c-1.5,0.3-2.1,1.2-1.7,2.7c3.1,12.5,6.4,25,9.6,37.5c0.2,0.7,0.4,1.5,0.6,2.2c0.5,1.8,0.3,2.2-1.3,3.2c-1.7,1-3.2,2.1-4.6,3.5
		c-3.5,3.4-5.4,7.5-5.6,12.4c-0.3,7.3,2.2,13.7,6,19.8c1,1.6,2.6,2.5,4.1,3.4c6.1,3.9,12.5,7.1,19,10.2c0.6,0.3,1.2,0.5,1.5,1.1
		c0,0.1,0,0.2,0,0.3c0,0,0,0.1,0,0.1c0,0.9-0.3,1.4-1.2,1.9h0c-0.1,0-0.1,0.1-0.2,0.1c-0.2,0.1-0.4,0.2-0.7,0.3
		c-1.2,0.8-2.4,1.2-3.6-0.1c-0.2-0.3-0.6-0.3-0.9-0.2c-1.9,0.9-3.8,0.1-5.7-0.2c-3.5-0.6-7-0.7-10.4,0.4c-2.3,0.7-3.8,2.2-4.3,4.7
		c-0.3,1.5-1.2,2.9-1.4,4.5c-0.1,0.5-0.6,0.7-1.1,0.8c-0.5,0.1-1.1,0-1.6,0c-67.6,0-135.3,0-202.9,0c-0.9,0-2,0.4-2.7-0.8
		c-1.9-6.2-3.7-12.4-5-18.7c-3.8-18.7-5.3-37.5-4.1-56.5c1-16.5,4-32.7,9.7-48.3c0.3-0.8,0.5-1.5,0.8-2.3c0.3-0.7,0.9-0.8,1.6-0.8
		c7.2,0,14.4,0,21.6,0c1.5,0,1.9,0.6,1.9,2.3c0,5.9,0,11.9,0,17.8c0,3.3-0.2,3.1,3.1,3.1c17.2,0,34.5,0,51.7,0c0.5,0,0.9,0,1.3,0
		c1.5,0,1.8-0.3,1.9-1.8c0-1.5,0-3.1,0-4.6c0-4.6,0-9.2,0-13.8c0-2.8,0.3-3,3-3h184.6c0.5,0,0.9,0,1.3,0c1.1,0.1,1.4-0.4,1.4-1.4
		c0-3.3,0-6.6,0-9.8c0-0.8-0.3-1.8,0.6-2.2c0.9-0.3,1.6,0.5,2.2,1.1c0.7,0.7,1.1,1.6,1.2,2.5c0.3,3.5,0.6,7,0.9,10.5
		c0.3,4.3,0.6,8.6,1,12.9C333.9,332.9,333.8,334.1,333.9,335.4z"/>
	<path class="st1" d="M476.2,445.5c0,1-1.2,0.6-1.9,0.6c-14.3,0-28.6,0-42.9,0c-0.7,0-1.4-0.1-2,0.3c-0.8,0.2-1.7,0.3-2.5,0.3
		c-7.6,0-15.2,0-22.8,0c-1.9,0-2,0.1-1.5,1.9c0.5,2-0.3,3.4-1.4,4.8c-2.8,3.4-6.5,5.3-10.8,5.8c-7.7,1-15.3,2.8-23,4
		c-3.1,0.5-6.2,0.3-9.3,0.1c-0.8,0-1.3-0.5-1.9-1c-2.8-3-6.2-5.2-9.3-7.7c-0.5-0.4-1-0.5-1.6-0.3c-1.9,0.6-3.6,0.2-5-1.1
		c-0.7-0.6-1.4-0.8-2.3-0.7c-3.6,0.5-7.1,0.9-10.7,1.4c-0.4,0.1-0.9,0.1-1.3,0.4c-2.5,1.7-5.2,1.4-7.6,0c-1.2-0.7-2.2-0.6-3.3,0.1
		c-3.3,2.2-6.8,4-9.8,6.6c-0.5,0.4-1.1,0.6-1.7,0.6c-4.1-0.1-8.2-0.5-12.1-1.8c-6.6-2.2-13.3-4.1-20.1-5.8c-3.7-0.9-6.7-3-9-6.1
		c-0.7-1-1.6-1.3-2.8-1.3c-13,0-26.1,0-39.1,0c-1.5,0-3-0.1-4.6-0.3c-0.8-0.4-1.7-0.3-2.5-0.3H26.1c-0.5,0-1,0-1.5,0
		c-0.4,0-0.8-0.1-0.8-0.5c0-0.5,0.4-0.5,0.8-0.5c0.4,0,0.7,0,1.1,0c8.6,0,17.3,0,25.9,0c0.5,0,1.1,0.1,1.6-0.2
		c0.5,0.3,1,0.2,1.4,0.2c68.4,0,136.8,0,205.2,0c0.8,0,1.1,0,1.3-1.1c0.4-2,1.1-4,1.9-5.9c0.7-1.6,2.2-2.4,3.8-3c4-1.3,8-0.9,12-0.2
		c0.8,0.1,1.8,0.6,2.5,0.4c1.6-0.4,3-0.7,4.3,0.7c0.2,0.2,0.7,0,0.9-0.3c0.3-0.4,0.7-0.5,1.2-0.6c0.3,0,0.6,0.1,0.8,0.2h0
		c1,0.2,2,0.4,3-0.2c0.4-0.2,0.8-0.2,1.2,0c-1-0.5-2.3-0.6-3.1-1.7c0-0.1-0.1-0.1-0.1-0.2c-6.1-3.1-12.3-6.1-18.3-9.6
		c-1.6-1-3.2-2-4.7-3.1c-2.6-1.9-3.7-4.8-5-7.6c-2.3-4.9-3.5-10-3.1-15.4c0.4-4.6,2.2-8.6,5.6-11.8c1.7-1.7,3.6-3.2,5.7-4.2
		c0.8-0.4,0.5-0.9,0.4-1.4c-3.4-13.1-6.8-26.3-10.1-39.4c-0.1-0.5-0.3-1-0.4-1.4c-0.2-1.3,0.5-2.5,1.9-2.8c0.6-0.1,1.2-0.1,1.9-0.1
		c22.8,0,45.6,0,68.4,0c1.2,0,1.7-0.1,1.6-1.6c-0.7-8.7-1.4-17.4-2-26.1c-0.1-2-1.5-2.8-2.7-3.9c-0.4,0.4-0.2,0.8-0.2,1.2
		c0,3.9,0,7.7,0,11.6c0,0.9-0.2,1.3-1.1,1.2c-0.4,0-0.8,0-1.2,0H139.8c-1.8,0-1.8,0-1.8,1.7c0,6.6,0,13.1,0,19.7
		c0,1.7-0.1,1.7-1.8,1.7c-18.5,0-37.1,0-55.6,0c-1.3,0-1.7-0.3-1.7-1.7c0.1-6.7,0-13.5,0.1-20.2c0-1-0.2-1.3-1.2-1.3
		c-7.3,0-14.7,0-22,0c-0.4,0-0.9-0.1-1.3,0.2c-0.6-0.5-1.2-0.3-1.8-0.3c-2.5,0-4.9-0.1-7.4,0c-1.1,0-1.4-0.4-1.4-1.4
		c0-4.6,0-9.2,0-13.8c0-2.1-0.3-2.4-2.4-2.4c-2.2,0-4.3,0-6.5,0c-1,0-1.4-0.4-1.3-1.3c0-4.7,0-9.4,0-14.2c0-0.9,0.4-1.3,1.3-1.3
		c2.5,0,4.9,0,7.4,0c1.1,0,1.5-0.4,1.5-1.4c0-0.4,0-0.8,0-1.2c0-8.3,0-16.5,0-24.8c0-1.8-0.5-3.6-0.2-5.4c0.1-2.7-0.3-5.4-0.3-8.2
		c0-13.3,0-26.7,0-40c0-2.1,0.4-4.3,0.3-6.4c-0.3-1.6,0.2-3.2,0.2-4.8c0-24,0-48,0-72.1c0-2,0-2,2-2c9.2,0,18.4,0,27.5,0
		c0.6,0,1.3,0.1,1.8-0.3c1-0.3,2-0.3,3-0.3c5.2,0.1,10.4-0.1,15.6,0.1c0,0,0.1,0,0.1,0c0.1,0,0.2,0,0.3,0c0.7,0,1.4-0.1,2.1-0.1
		c32.2,0,64.5,0,96.7,0c0.9,0,2,0.3,2.7-0.7c-0.7-0.4-1.3-0.3-1.9-0.3c-32.4,0-64.7,0-97.1,0c-0.8,0-1.5,0-2.3-0.1
		c-0.1,0-0.1,0-0.2,0c-0.1,0-0.1,0-0.2,0c-5.5,0.1-11,0-16.5,0.1c-0.5,0-1,0.1-1.4-0.2c-0.5-0.5-1.1-0.3-1.7-0.3
		c-13.8,0-27.6,0-41.4,0c-1.8,0-1.8,0-1.8-1.8c0-3.7,0.2-7.5-0.1-11.2c-0.2-2.7,2.6-5.5,5.4-5.4c17.5,0.1,35.1,0,52.6,0
		c0.8,0,1.5,0.1,2.2-0.5c0.9-0.3,1.9-0.3,2.8-0.3c3.3,0.1,6.6,0.2,9.9,0.2c26.2,0.5,52.4,0.1,78.6,0.2c0.9,0,1.7,0,2.5-0.4
		c0,0,0,0,0,0c0.7-0.4,0.5-1,0.5-1.6c0-2.9,0-5.8,0-8.6c0-2.3,0.6-2.8,2.9-3c3-0.2,5.9-0.5,8.9-0.8c0.9-0.1,1.4-0.4,1.7-1.4
		c0.4-1.4,1-2.7,1.7-4c0.5-0.9,0.4-1.5-0.3-2.3c-1.9-2.2-3.8-4.5-5.7-6.8c-1.4-1.7-1.4-2.3,0.2-3.9c3.2-3.3,6.5-6.5,9.7-9.7
		c1.5-1.5,2-1.5,3.6-0.1c2.3,1.9,4.6,3.9,6.9,5.8c0.7,0.6,1.3,0.7,2.2,0.3c1.2-0.6,2.4-1.2,3.7-1.5c1.4-0.3,1.7-1.3,1.8-2.5
		c0.2-3,0.5-6,0.8-9c0-0.4,0.1-0.8,0.3-1.2c0-0.1,0.1-0.1,0.1-0.2c0.1-0.1,0.1-0.2,0.2-0.2c0.6-0.5,1.3-0.4,2.1-0.4
		c4.7,0,9.3,0,14,0c2.1,0,2.7,0.6,2.8,2.7c0,0.7,0,1.3,0,2c0,0.1,0,0.2,0.1,0.4c0,0.1,0,0.2,0,0.3c0.3,2.1,0.3,4.2,0.6,6.3
		c0.1,0.9,0.5,1.4,1.4,1.7c1.4,0.5,2.8,1,4.1,1.7c0.8,0.4,1.4,0.3,2.1-0.3c1.8-1.4,3.4-3,5.2-4.4c0.1-0.1,0.2-0.1,0.2-0.2
		c0,0,0,0,0.1,0c0.6-0.6,1.3-1.1,2-1.7c1.1-0.9,1.5-0.9,2.5,0.1c2.8,2.8,5.7,5.6,8.5,8.5c0,0,0.1,0.1,0.1,0.1c0.5,0.6,1,1.1,1.6,1.5
		c0,0,0,0,0,0c0.2,0.2,0.4,0.3,0.5,0.5c1.1,1,1.1,1.7,0.2,2.9c-1.9,2.3-3.8,4.7-5.8,6.9c-0.9,1-1.1,1.8-0.4,3
		c0.6,1.2,1.1,2.5,1.5,3.7c0.2,0.8,0.7,1.2,1.5,1.2c2.7,0.3,5.4,0.5,8.2,0.7c0.3,0,0.5,0,0.8,0c2.5,0.2,2.9,0.6,2.9,3
		c0,2.9,0,5.7,0,8.6c0,0.5-0.1,1.1,0.3,1.5c0,0,0.1,0,0.1,0.1c0.5,0.3,1.1,0.4,1.7,0.4c7.3,0,14.6,0,21.9,0c0.3,0,0.7,0,1-0.1
		c0.7-0.1,1.4-0.2,2.1-0.1c2.2,0.2,3.8,1.3,4.8,3.2c0.4,0.7,0.9,1.2,1.6,1.5c3.8,1.9,4.5,5.8,1.5,8.8c0,0-0.1,0.1-0.1,0.1
		c0,0-0.1,0-0.1,0.1c-1.5,1-2.5,2.2-2.4,4.3c0.1,0.9-0.7,1.4-1.7,1.5c-0.6,0.1-1.3,0-1.9,0c-12.5,0-24.9,0-37.4,0
		c-0.5,0-1.1-0.1-1.6,0.1c0.2,0.7,0.7,0.8,1.3,0.9c0.6,0.1,1.2,0,1.8,0c14.8,0,29.6,0,44.4,0c0.8,0,1.5,0.1,2.3,0.1
		c0.1,0,0.3,0,0.4,0c0.1,0,0.3,0,0.4,0c1.7-0.1,3.4-0.1,5.1,0c1.6,0,2.1,0.5,2.1,2.1c0,3,0,6-0.1,9c0,0.3,0,0.7,0,1
		c-0.1,8.4,0,16.9,0,25.3c0,0.5,0,1,0.1,1.5c0.2,0.8,0.6,1.3,1.4,1.4c0.1,0,0.3,0.1,0.4,0.1c7.3,0,14.5,0.1,21.8-0.1
		c0.2,0,0.3,0,0.5,0c0.4,0,0.8-0.1,1.2,0c1.7,0,2.3,0.6,2.3,2.3c0,0.4,0,0.8,0,1.2c-0.1,0.2-0.1,0.4-0.1,0.7v0c0,0.2,0,0.3,0,0.5
		c0,0.5,0.1,0.9,0.1,1.4c0,9.8,0,19.5,0,29.3c0,0.5,0,1.1-0.1,1.6c-0.2,0.9-0.7,1.4-1.6,1.6c-0.6,0.1-1.2,0.1-1.7,0.1
		c-7.4,0-14.8,0-22.3,0c-1.8,0-1.8,0-1.8,1.8c0,19.8,0,39.7,0,59.5c0,1.3,0.4,2.1,1.5,2.7c1.8,1,3.6,1.8,5.6,2.2
		c4,0.7,7.6,2.5,11.1,4.5c3.2,1.9,6.5,3.7,9.5,6c2,1.5,4.4,1.6,6.8,2c0.6,0.1,1.5,0.6,1.9,0.1c0.5-0.6-0.3-1.3-0.5-2
		c-0.6-1.6-1.6-2.3-3.4-2.1c-1.9,0.2-3.8-0.2-5.6-0.7c-2.1-0.6-2.7-1.4-2.8-3.6c-0.1-2.5,0.3-5,0.8-7.5c0.2-0.8,0.3-1.6-0.2-2.3
		c-0.4-0.8-0.1-1.7,0.2-2.5c0.3-0.8,0.2-1.5-0.6-2c-0.4-0.3-0.8-0.6-1.1-0.9c-2.3-2.1-2.1-3.7,0.5-5.3c0.9-0.5,1.8-1,2.7-1.5
		c0.7-0.4,1-0.9,1-1.7c0.1-2.2,0.7-4.4,2.2-6.1c0.1-0.2,0.3-0.4,0.3-0.6c0.4-2.3,0.9-4.6,1.3-7c-0.6,0.2-0.9,0.8-1.4,0.4
		c-0.5-0.4-0.6-1-0.5-1.6c0.7-8.6,5.2-14.2,14.4-16.1c4.5-0.9,8.8-0.2,12.8,1.8c-0.3-0.2-0.6-0.5-0.4-0.9c0.3-0.7,1.1-0.4,1.7-0.3
		c5.8,1.6,11,4.2,14.8,9c1.3,1.6,2.1,3.5,2.7,5.5c0.3,0.9,0.7,1.6,1.4,2.2c3.6,2.9,5.2,6.8,5.8,11.2c0.1,1.1,0.4,2.2,0.3,3.4
		c-0.1,0.6,0,1.4-0.7,1.7c0,0,0,0-0.1,0h0c-0.7,0.2-0.9-0.6-1.4-1c-0.4,0.6-0.3,1.2-0.4,1.8c-1,5.2-3.1,10-5.9,14.4
		c-2.8,4.4-7,6.9-12.1,7.8c-1.3,0.2-1.8,0.8-1.9,2c-0.2,3.4,0.1,6.7,0.7,10.1c0.2,1,1,1.1,1.7,1.3c3.4,1,6.7,2.2,10.1,3.4
		c4.2,1.4,8.4,3.1,12.4,4.8c3.5,1.5,5.9,4.4,7.7,7.7c2,3.7,2.8,7.7,3.4,11.7c0.6,4.3,0.7,8.7,0.6,13.1c-0.2,4.7-0.4,9.3-1,14
		c-0.2,1.5-0.3,3,0.3,4.5c0.5,1.2,0.3,2.4-0.7,3.2c-1.2,1-1.4,2.4-1.4,3.8c0,1.8-0.3,3.7-0.4,5.5c-0.1,0.4-0.2,0.9-0.2,1.3
		c0,0.2,0,0.3,0,0.5c-0.1,1.3,0,2.6-0.1,3.8c-0.7,7.6-1.5,15.3-2.7,22.9c-0.6,3.9-2.6,6.2-6.3,7.3c-2.1,0.6-2,0.7-2,2.9
		c0,5.1,0,10.2-1.1,15.2c-0.2,0.9,0.2,1.6,0.7,2.2c2,2.9,3.5,6.1,4.3,9.5c1.8,7.2,0.7,13.9-4.7,19.4c-1.8,1.9-4.1,3.2-6.4,4.4
		c-0.6,0.3-1.3,0.5-1.9,1.1c0.6,0.3,1.1,0.2,1.6,0.2c8.3,0,16.5,0,24.8,0c0.6,0,1.3-0.1,1.8,0.3c0.5,0.4,1.1,0.2,1.7,0.2
		c14,0,28,0,41.9,0C475,445,476.2,444.6,476.2,445.5z"/>
	<path class="st2" d="M428.8,179.4c0,6.5-0.2,12.9-0.3,19.4c-0.5,0.3-1,0.1-1.4,0c-11.5-4.6-23.3-8.1-34.8-12.7
		c-11.8-4.7-22.4-11.3-31.9-19.8c-1.3-1.1-2.4-2.4-3.7-3.5c-0.1-0.1-0.2-0.2-0.3-0.3c-0.2-0.3-0.3-0.6-0.4-0.8c0-0.1,0-0.2,0-0.3
		c-0.1-3.1-0.1-3-3.2-3c-7.7,0.1-15.5,0-23.2,0.1c-1.2,0-1.2-0.5-1.2-1.4c0-12.3,0-24.6,0-37c0-1.9,0-1.8-1.8-1.9
		c-1.7,0-3.3,0-5-0.1h0v0c-0.3-0.1-0.5-0.3-0.7-0.4c-0.1-0.1-0.2-0.2-0.3-0.3c-1.5-1.9-2.8-4-4.3-6c-0.1-0.2-0.2-0.4-0.3-0.6
		c0-0.1,0-0.3,0-0.5c2.7-3.5,1.7-6.8-2.4-8.4c-0.3-0.1-0.5-0.2-0.6-0.6c-1.3-3.1-2.9-4-6.2-3.9c-8.5,0.1-17,0.1-25.5,0.1
		c-0.2,0-0.4-0.1-0.6-0.2c0.3-0.3,0.6-0.4,0.9-0.5c0.4-0.1,0.8,0,1.3,0c7,0,13.9,0,20.9,0c0.4,0,0.9,0.1,1.4-0.1
		c0.1-0.4-0.3-0.6-0.5-0.9c-3.5-4.5-7.4-8.8-11.3-13.1c-6.4-6.9-13.5-12.8-21.2-18.1c-0.1-0.1-0.2-0.2-0.4-0.3c0,0,0,0,0,0
		c-0.6-0.5-1.2-1.1-2-1.5c-2.8-2.8-5.6-5.5-8.4-8.4c-0.7-0.7-1.2-0.8-1.9-0.1c-0.6,0.6-1.4,1.1-2.1,1.7c-0.2,0-0.4,0-0.6-0.1
		c-0.3-0.1-0.7-0.1-1-0.3c-3.8-1.6-7.6-3.2-11.6-4.4c-0.3-0.1-0.5-0.2-0.8-0.4c-0.1-0.1-0.3-0.2-0.4-0.2c-0.1-1.2-0.3-2.5-0.4-3.7
		c-0.1-0.7-0.4-0.9-1-0.9c-5.4,0-10.9,0-16.3,0c-0.3,0-0.6,0.1-0.9,0.3c-0.1,0-0.2,0-0.3,0c-1.6,0.2-3.1-0.2-4.7-0.4
		c-7-0.9-14.1-1-21.1-0.6c-11.5,0.5-22.7,2.8-33.6,6.6c-0.8,0.3-1.6,0.7-2.5,0.5c-0.1,0-0.1,0-0.2-0.1c0,0,0,0-0.1,0
		c-0.5-0.5-0.5-1.1-0.5-1.8c0-1.9,0-3.8,0-5.7c0-2.1-0.7-2.8-2.7-3.2c-0.5-0.1-1-0.1-1.1-0.8c9.5-5.8,19.4-10.9,29.8-15.1
		c11.2-4.6,22.8-8.2,34.7-10.8c16.8-3.7,33.9-5,51-4.2c16.5,0.7,32.7,3.7,48.3,8.9c17.6,5.9,33.8,14.5,48,26.5
		c11.1,9.3,20.3,20.3,27.9,32.7c1,1.6,2,3.1,2.9,4.7c0.1,0.7-0.5,1-1,1.3c-5.5,3.2-8.7,8.1-10.3,14.2c-0.6,2.6-0.7,2.6-3.2,2.5
		c-8.4,0-15.2,5.3-17.2,13.5c-0.3,1.3-0.8,1.9-2.2,2.3c-4.2,1.3-7,5.1-6.9,9.2c0,5.4,4.4,9.7,9.8,9.7c12.7,0,25.5,0,38.2,0
		c0.5,0,0.9,0,1.3,0c2.1,0,2.5,0.4,2.5,2.4c0,3.7,0,7.4,0,11.1c0-3.7,0-7.4,0-11.1c0-2,0.4-2.4,2.5-2.4c2.9,0,5.8,0,8.6,0
		c0.7,0,1.5,0,1.8,0.8c1,4.8,2.1,9.5,2.8,14.4C428.5,161.1,428.9,170.3,428.8,179.4z"/>
	<path class="st0" d="M466.1,314.3c-4.1,11-10.2,20.7-19.2,28.3c-0.5,0.4-1.1,0.8-1.6,1.2c-0.4,1.1-1.2,1.6-2.1,2.2
		c-5.9,4-12.2,7.1-18.9,9.5c-0.8,0.3-1.3,0.3-1.5,0.1c-0.3-0.3-0.3-0.8-0.2-1.9c0.2-2.5,0.4-4.9,0.5-7.4c0-0.7,0.2-1.2,0.9-1.7
		c1.4-1,1.6-2.1,0.9-3.6c-0.4-0.8-0.5-1.5-0.4-2.3c0.6-5.7,1.1-11.5,1.1-17.2c0.1-7.2-0.1-14.4-2.9-21.2c-2-4.8-5.1-8.3-10.1-10.2
		c-7-2.7-13.9-5.3-21.1-7.5c-1.1-0.4-1.8-0.8-1.9-2.1c-0.5-3.7-1-7.3-0.4-11c0.1-0.6,0.2-1,1-1.1c6.1-0.5,10.6-3.7,13.6-8.9
		c2.9-5,5.2-10.3,5.3-16.3c1,0.6,1.1,1.8,1.9,2.7c0,0,0,0,0.1,0.1c0,0,0-0.1,0-0.1c0.3-2.6,0-4.9-0.5-7.3c-0.8-3.6-2.5-6.7-5.6-8.9
		c-0.5-0.4-0.9-0.9-1-1.5c-1.4-5.9-5.4-9.6-10.6-12.2c-2.3-1.2-4.7-2.1-7.3-2.7c-0.3-0.1-0.6-0.3-0.9,0c0.8,0.9,2.1,1.3,2.8,2.6
		c-2.1-1-4-2-6.1-2.5c-6.6-1.8-12.7-0.8-18,3.6c-3.9,3.2-5.2,7.7-5.2,12.7c0,0.1,0.1,0.2,0.2,0.4c0.6-0.5,0.6-1.4,1.4-1.9
		c0.3,1,0.5,1.9,0.2,2.9c-0.2,0.6-0.3,1.1-0.4,1.7c-0.4,2.3-0.7,4.6-2.3,6.5c-1,1.2-1.1,2.9-0.9,4.5c0.1,0.7-0.1,1.1-0.7,1.4
		c-1.3,0.7-2.7,1.4-4,2.3c-1.7,1.1-1.8,2.1-0.4,3.6c0.5,0.5,1.1,1,1.7,1.3c1.1,0.6,1.4,1.3,0.9,2.5c-0.4,0.9-1.2,2,0.2,2.9
		c0.3,0.2,0,0.8-0.1,1.2c-0.5,2.6-1.1,5.3-1,8c0,2.3,0.4,2.7,2.5,3.3c2.3,0.7,4.6,0.7,7,0.7c0.8,0,1.2,0.2,1.6,0.9
		c0.6,1.2,1.3,2.3,1.7,3.7c0.2,0.7,0.2,1.1-0.8,0.9c-2.2-0.5-4.4-0.8-6.6-1.2c-0.5-0.1-0.8-0.3-1.2-0.6c-4.6-3.2-9.4-6.2-14.4-8.7
		c-2.5-1.3-5.2-2.2-8-2.6c-2.2-0.4-4.2-1.5-6-2.8c-0.5-0.4-0.6-0.8-0.6-1.4c0-20.6,0-41.2,0-61.8c0-1,0.4-1.2,1.2-1.2
		c8,0,16.1,0,24.2,0c2.1,0,2.1,0,2.1-2.1c0-10.3,0-20.6,0-30.9c0-0.4,0-0.8,0-1.2c0.1,0.1,0.3,0.2,0.4,0.4v0
		c3.6,3.1,7.1,6.5,10.9,9.4c8.7,6.7,18.4,11.8,28.7,15.6c8.4,3.1,16.8,6,25.2,9.1c2.4,0.9,4.9,1.9,7.3,2.8c8,3.3,15.7,7.2,22.5,12.6
		c7.7,6.2,13.4,14,17.3,23.1c3.8,9.1,5.6,18.6,6,28.4C474.9,280.6,472.3,297.7,466.1,314.3z"/>
	<path class="st2" d="M429.4,446.4c-4.8,5.7-10,11-15.7,15.7c-6.5,5.4-13.6,10-21.1,13.9c-10.8,5.5-22.3,9.3-34.3,11.3
		c-11.2,1.9-22.5,2.3-33.9,1.3c-22.8-1.9-44-9.1-64.3-19.5c-14.5-7.5-29.2-14.7-43.6-22.4c-0.2-0.1-0.4-0.2-0.6-0.3
		c0.3-0.6,0.8-0.3,1.2-0.3c14.5,0,29,0,43.6,0c0.7,0,1.2,0.2,1.6,0.8c2.1,3.3,5.2,5.6,9,6.5c7.3,1.8,14.5,4.1,21.7,6.3
		c3.6,1.1,7.2,1.3,10.9,1.5c0.4,0,0.7,0,1-0.3c2.6-2.8,6.2-4.1,9.1-6.4c1.7-1.3,3.1-1.8,5.2-0.4c2.1,1.4,4.6,1.4,6.8-0.4
		c0.7-0.5,1.5-0.4,2.3-0.5c3.4-0.5,6.9-0.9,10.3-1.3c0.7-0.1,1.2,0,1.8,0.6c1.4,1.7,3.1,2,5.2,1.2c0.5-0.2,0.9-0.2,1.3,0.2
		c2.9,2.3,6.2,4.1,8.5,6.8c2.3,2.7,4.8,2.2,7.5,2.3c5.3,0.1,10.3-1.4,15.4-2.4c4.3-0.8,8.6-1.3,12.9-2.1c3.3-0.6,6.2-2.1,8.6-4.4
		c1.9-1.9,3.2-3.9,2-6.6c-0.5-1.1-0.1-1.4,1.1-1.4c8.4,0,16.8,0,25.2,0C428.6,446,429.1,445.8,429.4,446.4z"/>
	<path class="st2" d="M446.6,418.2c-3.8,9.2-9,17.6-15,25.4c-0.3,0.4-0.5,0.7-0.8,1.1c-0.5,0.2-1,0.2-1.5,0.2h-26.7
		c-0.2,0-0.4,0-0.5,0c-0.4,0-0.8,0-0.9-0.4c-0.1-0.5,0.4-0.5,0.7-0.7c2.4-1.2,4.9-2.3,7-4c5.6-4.5,7.5-10.5,6.7-17.4
		c-0.6-4.8-2.6-9-5.3-13c-0.3-0.4-0.6-0.8-0.4-1.3c1.4-5.6,1.3-11.3,1.1-17c0-1.2,0.3-1.5,1.4-1.7c1.6-0.2,3-1,4.3-1.8
		c2.2-1.2,2.3-3.4,2.7-5.5c1.6-9,2.4-18.1,3-27.2c0-0.4,0.1-0.8,0.2-1.2c0.1,0.8,0.1,1.2,0.2,1.4c0.2,0.3,0.6,0.1,1.7-0.2
		c6.4-2.3,12.4-5.3,18.1-9.1c0.9-0.6,1.8-1.3,2.7-2c0.5,3.1,1.6,6.1,2.3,9.1c2.3,9,4.2,18,4.9,27.3
		C453.4,393.3,451.6,406,446.6,418.2z"/>
	<path class="st3" d="M457.4,120.1c-0.5-0.5-0.6-1-0.5-1.7c0.5-2.9,0.5-5.9-0.2-8.8c-1.3-5.6-4.3-10.1-8.8-13.5
		c-5.3-3.9-11.4-5.1-17.9-3.8c-0.7,0.1-1.1,0-1.4-0.6c-1.1-1.9-2.6-3.6-4.3-4.9c-5.2-4.1-10.9-5.8-17.5-4.7
		c-2.1,0.4-4.1,1.1-6.2,1.7c-0.1,0.1-0.2,0.2-0.3,0.3c-6.6,3.7-10.6,9.2-11.6,16.8c-0.1,0.5-0.3,0.7-0.8,0.6c-1.5-0.3-3-0.1-4.6,0.1
		c-7.5,1-13.8,6.9-15.1,14.3c-0.1,0.8-0.4,1-1.1,1.2c-3.7,0.9-6.2,3.2-7.3,6.7c-2.2,7,2.7,13.4,10.1,13.4c13.2,0,26.4,0,39.6,0
		c1.2,0,1.5,0.3,1.5,1.5c-0.1,4,0,7.9,0,11.9c0,0.4,0,0.7,0,1.1c0,0.3,0.2,0.5,0.5,0.5c0.3,0,0.4-0.2,0.4-0.4c0-0.4,0.1-0.8,0.1-1.2
		c0-4,0-8,0-12c0-1,0.3-1.3,1.3-1.3c3.3,0.1,6.7,0,10,0c0.4,0,0.9-0.1,1.2,0.3c0.5-0.5,1.1-0.3,1.7-0.3c7.1,0,14.2,0,21.3,0
		c1.3,0,2.5,0,3.8-0.2c4.1-0.6,6.9-2.9,8.3-6.7C460.9,126.6,460,123.1,457.4,120.1z M451.1,136c-1.3,0.2-2.6,0.2-3.9,0.2
		c-7.2,0-14.3,0-21.5,0c-0.6,0-1.2,0.1-1.7-0.3c0.5-0.6,0.2-1.3,0-1.9c-0.8-3-1.8-6-2.8-8.9c-4.8-13.6-11.4-26.4-18.7-38.8
		c-0.3-0.5-0.6-1-1.2-1.2c1.2-1.3,3-1.5,4.5-1.8c8.8-2,17.9,2.3,21.9,9.2c0.6,1,1.2,1.1,2.2,0.9c6.2-1.2,12.1-0.2,17.2,3.5
		c6.6,4.8,9.6,11.6,8.9,19.7c-0.2,2.1,0.1,3.5,1.4,5.3C461.4,127.4,457.8,135.2,451.1,136z"/>
	<path class="st2" d="M186.4,97.4c-0.4,0.4-1,0.2-1.4,0.2c-26.5,0-53.1,0-79.6,0c-4.1,0-8.3,0-12.4-0.1c-0.4,0-1,0.3-1.3-0.4
		c6.5-7.4,13.3-14.5,20.5-21.1c1.3-1.2,2.7-2.5,4-3.7c0.4-0.6,1-0.7,1.6-0.7c3.3,0,6.7,0,10,0c0.6,0,1.1,0.1,1.4,0.6
		c0,0.1,0,0.1,0,0.2c-0.1,0.4-0.5,0.5-0.8,0.5c-1.2,0-2.1,0.8-2.9,1.5c-3.5,3.1-7,6.2-10.2,9.6c-3.4,3.6-6.4,7.6-9.3,11.7
		c-0.2,0.3-0.5,0.6-0.5,1.1c0.6,0.3,1.1,0.2,1.7,0.2c25.5,0,51.1,0,76.6,0c0.5,0,1.1-0.1,1.6,0c0,0,0,0,0,0
		C185.8,96.9,186.1,97.1,186.4,97.4z"/>
	<path class="st3" d="M162.7,68.5c0,2.8-1.4,4.1-4.2,4.1c-6.7,0-13.5,0-20.2,0c-2,0-2,0-2.6,1.9c-0.6,2-1.1,4-1.7,6
		c-0.2,0.7-0.5,1.5-1.3,1.5c-0.9,0-1.2-0.8-1.4-1.5c-0.6-2.2-1.3-4.4-1.9-6.6c-0.1-0.5-0.3-1.1-0.1-1.6h0c-1-0.4-2-0.1-3-0.1
		c-3.3,0-6.6,0.1-9.9,0.1c-1.7-0.4-3.5-0.1-5.2-0.2c-1.6,0-3.1,0-4.7,0c-2.1,0-3.2-1.1-3.2-3.2c0-3.6,0-7.1,0-10.7
		c0-4.2,0-8.4,0-12.5c0-3.1,1-4.1,4.1-4.1c11.4,0,22.8,0,34.1,0c4.9,0,9.8,0,14.7,0c0.6,0,1.3,0,1.9-0.3c0.2,0.3,0.6,0.2,0.9,0.2
		c2.5,0.3,3.4,1.2,3.4,3.8c0,2.4,0,4.9,0.1,7.3c0.1,0.1,0.1,0.1,0.2,0.2c0.4,0.4,0.3,0.9,0.3,1.4C162.7,58.9,162.8,63.7,162.7,68.5z
		"/>
	<path class="st4" d="M43.9,198.2c0,17.4,0,34.8,0,52.3c0,0.4-0.1,0.8-0.1,1.2c-1.1-7.5-1.6-15-1.8-22.5c-0.2-9.8,0.2-19.6,1.4-29.3
		c0.1-0.9,0.3-1.9,0.4-2.8C43.8,197.4,43.9,197.8,43.9,198.2z"/>
	<path class="st2" d="M94.3,117.7c-0.1,0.2-0.3,0.3-0.4,0.5c-6,0-11.9,0-17.9,0c-0.3,0-0.6,0.1-0.7-0.3c0.4-0.5,0.7-1.1,1.1-1.6
		c0.3-0.2,0.6-0.3,1-0.3c5.7,0,11.4,0,17.1,0.1c0.1,0.2,0.2,0.3,0.2,0.5C94.7,116.9,94.6,117.3,94.3,117.7z"/>
	<path class="st5" d="M141.7,400c-6.5,0-13,0-19.4,0c-5.4,0-9.8-3.6-10.5-8.6c-0.7-5.5,2.4-10.2,7.8-11.6c0.7-0.2,0.9-0.5,1-1.1
		c1.7-7.9,6.7-12.5,14.4-14.3c1.5-0.4,3.1-0.4,4.7-0.1c1,0.1,1.3-0.2,1.4-1.1c0.6-4.7,2.6-8.6,5.9-12c7.1-7.4,19-8.7,27.6-3
		c2.5,1.7,4.6,3.8,6.2,6.3c0.4,0.7,0.8,0.9,1.6,0.7c12.9-2.6,25.3,6.2,27,19.1c0.3,2.3,0.4,4.6-0.2,6.8c-0.2,0.7,0,1.2,0.5,1.8
		c2.8,3.1,3.5,6.7,2.1,10.5c-1.5,4-4.5,6.5-8.9,6.6c-6.4,0.2-12.9,0.1-19.3,0.1c-5.9,0-11.9,0-17.8,0c-1.2,0-1.7,0.2-1.6,1.5
		c0.1,2.1,0,4.2,0,6.3c0,0.5,0.3,1.3-0.5,1.3c-0.8,0-0.5-0.8-0.6-1.2c0-2.1-0.1-4.2,0-6.3c0-1.2-0.2-1.6-1.5-1.6
		C155.1,400,148.4,400,141.7,400z"/>
	<path class="st6" d="M289.6,433.2c1.7,0.8,3.4,1.5,5.3,2.4c-0.8,0.5-1.4,0.6-1.9,0c-0.6-0.5-1.3-0.6-1.8-0.1
		c-0.9,0.9-1.7,0.9-2.6,0c-0.2-0.2-0.5-0.3-0.8-0.4C288.8,435,289.1,434,289.6,433.2z"/>
	<path class="st7" d="M163.3,414.5c0-0.7,0-1.3,0-2c0-0.4,0.1-0.7,0.6-0.7c0.4,0,0.5,0.3,0.5,0.6c0,1.5,0,2.9,0,4.4
		c0,0.3-0.1,0.6-0.5,0.7c-0.5,0-0.6-0.3-0.6-0.7C163.3,416.1,163.3,415.3,163.3,414.5z"/>
	<path class="st8" d="M228.5,199.4c-0.7,1-1.4,2-2.1,3.1c-0.8,1.4-0.8,2.9,0,4.3c1.3,2.3,3.3,4,5.1,5.9c0.2,0.2,0.6,0.4,0.8,0.3
		c1.2-0.3,1.9,0.5,2.7,1.1c2.5,1.9,5,3.6,8.1,4.5c0.8,0.2,0.5,0.6,0.5,1.1c0,0.5-0.3,1.3,0.5,1.3c0.7,0,0.4-0.7,0.5-1.2
		c0.1-0.3-0.2-0.7,0.3-0.8c0.7,0,1.3,0,1.8,0.6c1.9,2,3.7,4.1,5.1,6.4c3.3,5.4,6.3,11,10,16.2c3.7,5.3,7.7,10.4,13,14.3
		c2.3,1.7,4.6,3.3,7.2,4.5c0.7,0.3,1.2,0.8,1.6,1.3c1.4,1.7,2.8,3.4,4.2,5.1c1.3,1.7,3.1,2.5,5.1,2.9c1.3,0.2,2.5,0.7,3.2,1.8
		c2.7,4.2,6.9,6.7,10.7,9.8c0.8,0.6,1.3,1.2,1.3,2.3c0,0.6,0.1,1.2,0.3,1.7c0.1,0.4,0.4,0.6,0.9,0.5c1.5-0.2,2.1,0.3,2.3,1.9
		c0.1,1.1,0.6,1.8,1.4,2.5c4.5,3.9,8.9,7.8,13.4,11.7c0.7,0.6,0.9,1.2,0.9,2.1c0,3.9-0.1,7.7,0,11.6c0,1-0.3,1.2-1.3,1.2
		c-13.7,0-27.4,0-41.2,0c-48.4,0-96.8,0-145.2,0c-1.7,0-1.8,0-1.7-1.8c0-3.3,0-6.6,0.1-9.8c0-1.2-0.3-1.7-1.6-1.7
		c-18.7,0-37.4,0-56.1,0c-1.2,0-1.5,0.4-1.4,1.5c0.1,3.6,0,7.1,0.1,10.7c0,0.9-0.3,1.2-1.2,1.2c-10.6,0-21.2,0-31.8,0
		c-0.9,0-1.1-0.2-1.1-1.1c0-4.7,0-9.4,0-14.2c0-0.6,0.3-0.9,0.7-1.3c1.6-1.5,3.1-3.1,4.7-4.7c0.3-0.3,0.3-0.6,0.3-1
		c0-3.2,0-6.5,0-9.7c0-1-0.3-1.4-1.3-1.3c-1.2,0.1-2.3,0-3.5,0c-0.7,0-0.9-0.2-0.8-0.9c0-0.3,0-0.5,0-0.8c0-54,0-108,0-161.9
		c0-1.4,0.3-1.7,1.7-1.7c93.1,0,186.1,0,279.2,0c1.3,0,1.7,0.3,1.7,1.6c-0.1,12-0.1,23.9,0,35.9c0,1.3-0.4,1.6-1.6,1.6
		c-9.1-0.1-18.2,0-27.3-0.1c-1.4,0-1.7,0.4-1.7,1.8c0.1,8.3,0,16.6,0.1,24.8c0,1.1-0.3,1.3-1.3,1.3c-12.2,0-24.4,0-36.6,0
		c-1.2,0-1.6,0.3-1.6,1.6c0.1,8,0,15.9,0,24.2c-1.4-1.1-2.8-1.7-3.7-3.1c-2-3-4.2-5.9-6.5-8.8c-2.8-3.7-6.5-6.3-10.5-8.5
		c-1.1-0.6-2.1-0.6-3.2-0.1c-1,0.5-1.9,1-2.8,1.6c-1.2,0.9-2.5,1.6-4.1,1.4c-0.7-0.1-1,0.2-1,0.9c0,0.1,0,0.3,0,0.4
		c0,1-0.2,2.1,0.1,2.9C226.3,199.9,227.7,198.9,228.5,199.4z"/>
	<path class="st9" d="M317,397.8c-12.6,0-25.3,0-37.9,0c-2.7,0-3.4-0.5-4-3.1c-4.7-18.1-9.3-36.3-14-54.4c-0.6-2.5-0.3-2.9,2.2-2.9
		c25.3,0,50.6,0,76,0c2.6,0,3.4,0.6,4.1,3.1c4.7,18.1,9.3,36.2,14,54.3c0.1,0.2,0.1,0.4,0.1,0.7c0.5,1.9,0.1,2.4-1.8,2.4
		c-9.9,0-19.9,0-29.8,0C322.8,397.8,319.9,397.8,317,397.8z"/>
	<path class="st10" d="M172.3,114.9c-46,0-91.9,0-137.9,0c-2,0-1.8,0.3-1.8-1.8c0-3.3,0-6.7,0-10c0-2.8,1.4-4.3,4.1-4.5
		c0.7-0.1,1.3-0.1,2-0.1c89.1,0,178.2,0,267.3,0c1.6,0,3.4-0.2,4.7,1.1c0.3,0.3,0.6,0.6,0.8,0.9c0.5,0.7,0.6,1.3-0.5,1.6
		c-2.1,0.7-3.2,2.5-3.2,4.7c0,2.1,1.2,3.8,3.3,4.4c1.8,0.6,0.9,1.9,0.9,2.9c0.1,1.1-1,0.6-1.5,0.6
		C264.5,114.9,218.4,114.9,172.3,114.9z"/>
	<path class="st10" d="M397.1,440.5c3.2-1.1,6.2-2.2,8.9-3.7c0.6-0.4,1.3-0.7,1.8-1.1c0.4-0.3,1.2-0.5,0.8-1.2c-0.4-0.7-1,0-1.4,0.2
		c-1.2,0.8-2.5,1.6-3.9,2.2c-7.3,3.2-15,5-22.7,6.7c-10,2.2-20,3.9-30.1,5.4c-0.7,0.1-1.2,0.4-1.7,0.8c-1.1,0.9-2.2,1.8-3.4,2.6
		c-1.6,1-3.4,0.6-4.5-0.9c-0.5-0.8-1.1-1-1.9-0.8c-4.2,0.5-8.5,1.1-12.7,1.6c-0.4,0-0.7,0.1-1,0.4c-2,1.9-4.2,1.3-6.3,0.2
		c-2.2-1-4-2.6-5.6-4.4c-3.2-3.4-6.1-7-8.5-10.9c-0.2-0.3-0.3-0.5-0.5-0.8c-1.9-3.5-0.7-5.5,3.2-5.8c2.2-0.1,4.3-0.1,6.4,0.4
		c1,0.2,1.9,0.1,2.9-0.3c12.2-5.5,24.1-11.5,35.7-18.1c10-5.8,20.7-10.2,31.7-13.5c4.2-1.3,8.8-1.2,12.9,1.4c0.6,0.4,1.2,1,1.8,1.5
		c0.3,0.3,0.7,0.7,1.2,0.3c0.5-0.5-0.1-0.8-0.4-1.1c-2.4-2.4-5.3-3.6-8.7-3.7c-1.5,0-3,0-4.5,0c-0.4,0-1.1,0.4-1.1-0.4
		c0-0.7,0.3-1,1.1-1c3.2,0,6.3,0.3,9.3,1.3c2.5,0.8,4.6,2.3,6.5,4.2c4.3,4.4,8.1,9.2,10.4,15c2.4,6,2.4,11.8-0.7,17.6
		c-1.7,3.2-4.6,5.1-7.7,6.8c-1.3,0.7-2.6,1.8-3.9,1.7C399.5,442.8,398.7,441.1,397.1,440.5z"/>
	<path class="st0" d="M129.3,72.3c0.9,1.5,1,3.2,1.6,4.8c0.4,1.3,0.7,2.6,1.1,3.9c0.1,0.3,0.1,0.8,0.6,0.8c0.6,0,0.6-0.5,0.7-0.8
		c0.7-2.5,1.4-4.9,2-7.4c0.3-1,0.7-1.4,1.8-1.4c7,0.1,13.9,0,20.9,0c3.2,0,4.1-0.9,4.1-4.2c0-5.1,0-10.2,0.1-15.4
		c7.8-2.9,15.9-4.8,24.1-6.2c8.5-1.4,17-1.5,25.5-1.3c3.8,0.1,7.7,0.7,11.5,1.1c0.4,0,0.9,0.1,1.2,0.5c-0.3,3.8-0.7,7.7-1,11.5
		c-0.1,0.7-0.3,1.1-1,1.3c-1.8,0.5-3.6,1.2-5.2,2.2c-0.7,0.4-1.1,0.2-1.6-0.2c-2.7-2.3-5.4-4.6-8.1-6.9c-0.7-0.6-1.1-0.6-1.8,0.1
		c-3.6,3.7-7.3,7.4-11,11c-0.7,0.7-0.6,1.2,0,1.9c2.2,2.6,4.3,5.2,6.6,7.7c0.6,0.7,0.8,1.3,0.3,2.2c-0.9,1.6-1.5,3.2-2,5
		c-0.2,0.7-0.5,1-1.3,1c-3.4,0.2-6.8,0.6-10.2,0.8c-1.3,0.1-1.8,0.5-1.7,1.9c0.1,3.3,0,6.6,0,9.8c0,0.5-0.1,1-0.1,1.5
		c-0.6,0-1.2,0-1.8,0c-26.2,0-52.4,0-78.6,0c-0.5,0-1.1,0-1.8,0c0.9-1.8,2-3.1,3.1-4.6c3.8-5.3,8.2-10.2,13-14.7
		c2-1.8,4.1-3.5,6.1-5.3C127.3,72,128.3,72.5,129.3,72.3z"/>
	<path class="st0" d="M241.8,50.1c0.5,2.8,0.6,5.7,0.8,8.6c0.1,0.9,0.3,1.4,1.2,1.6c2.1,0.6,4.2,1.4,6.1,2.5
		c0.7,0.4,1.2,0.4,1.8-0.2c2.3-2,4.6-3.9,6.9-5.8c0.6-0.4,1.2-0.2,1.8,0.1c1.5,0.7,3.1,1.4,4.3,2.6c2.2,2.1,4.3,4.3,6.6,6.4
		c0.6,0.6,0.2,0.9-0.2,1.3c-2.2,2.6-4.4,5.2-6.6,7.8c-0.6,0.7-0.7,1.3-0.3,2.1c1.1,1.9,1.9,3.9,2.4,6c0.2,0.9,0.7,1.2,1.6,1.2
		c3.4,0.2,6.8,0.6,10.2,0.8c0.8,0.1,1.1,0.3,1.1,1.2c-0.1,3.3,0,6.7,0,10c0,0.8-0.2,1.1-1,1.1c-8,0-16,0-24,0
		c-0.9,0-1.1-0.3-0.9-1.2c1.4-11-5.5-20.7-16.1-22.9c-12.5-2.5-24.3,7.3-24.1,20.1c0,1,0,2.1,0.2,3.1c0.2,0.7-0.1,0.8-0.8,0.8
		c-8.1,0-16.3,0-24.4,0c-0.6,0-0.9-0.2-0.9-0.9c0-3.5,0-6.9,0-10.4c0-0.8,0.4-0.9,1.1-1c3.5-0.3,6.9-0.6,10.3-0.8
		c0.9-0.1,1.3-0.3,1.5-1.2c0.6-2.2,1.5-4.2,2.6-6.2c0.4-0.7,0.3-1.2-0.2-1.8c-2.3-2.6-4.4-5.3-6.7-7.9c-0.6-0.7-0.6-1,0.1-1.6
		c3.3-3.2,6.5-6.5,9.7-9.7c0.6-0.6,0.9-0.7,1.6-0.1c2.6,2.3,5.3,4.4,7.9,6.7c0.6,0.6,1.2,0.6,1.9,0.2c1.9-1.1,3.9-1.9,5.9-2.5
		c0.8-0.2,1.2-0.6,1.3-1.6c0.2-3.4,0.6-6.8,0.8-10.2c0.1-0.9,0.3-1.3,1.3-1.2c1.4,0.1,2.9,0.1,4.3,0.1c3,0.3,5.9,0.8,8.8,1.6
		C240.6,49.3,241.3,49.5,241.8,50.1z"/>
	<path class="st8" d="M230.4,199.9c3.3-0.3,6.5-0.8,9.7-0.7c2.2,0.1,4,1.8,5.7,3.3c1.1,1,2.1,2.2,2.9,3.5c0.7,1,0.9,1,1.5-0.2
		c0.2,0.2,0.3,0.3,0.4,0.5c1.7,3.1,4.3,5.2,7.1,7.2c9,6.4,17.9,13,26.8,19.6c5.5,4.1,10.3,9,14.9,14c0.6,0.6,1.2,1.1,1.9,1.4
		c2.6,1.2,5.3,2.5,7.9,3.7c0.7,0.3,0.9,0.6,0.8,1.4c-1.5,9.2-2.1,18.4-2.1,27.6c-0.2,0.2-0.3,0.1-0.5,0c-2.5-1.9-4.9-3.8-7.2-5.9
		c-1-0.9-1.9-1.9-2.7-3c-1-1.5-2.3-2.5-4.1-2.8c-2.2-0.4-3.9-1.4-5.3-3.2c-2.5-3.4-5.5-6.2-9.3-8.3c-7.5-4.3-12.8-11-17.5-18.2
		c-2.8-4.3-5.4-8.8-8-13.3c-1.7-2.9-3.7-5.4-6-7.8c-0.5-0.5-0.9-0.7-1.6-0.7c-1.9,0-3.7-0.7-5.4-1.6c-1.9-1-3.8-2.2-5.5-3.6
		c-0.9-0.8-0.9-2,0.1-2.7c0.6-0.4,1.2-1,1.4-1.8c0.3-0.9,1.3-0.9,1.8-1.8c1.1,5,4.9,6.9,9,8.3c0.5,0.2,1.2,0.6,1.4-0.1
		c0.2-0.7-0.7-0.7-1.1-0.9c-2.2-0.7-4.2-1.7-6-3.3c-0.9-0.9-1.6-1.9-1.9-3.2c-0.2-0.7-0.3-1.3-0.6-1.9c-0.6-1.8-1.3-3.4-3.7-3.2
		c-1.2,0.1-2.4-0.4-3.5-1C231.3,201,230.6,200.8,230.4,199.9z"/>
	<path class="st8" d="M421.8,348.3c-0.6,6.9-0.9,13.9-1.7,20.8c-0.4,3.9-0.8,7.9-1.5,11.8c-0.2,1.1-0.4,2.2-0.7,3.3
		c-0.6,2.5-2.8,3.2-4.8,3.8c-4,1.2-8.2,1.6-12.4,1.9c-9.8,0.7-19.6,1.3-29.3,2c-4.1,0.3-8.2,0.4-12.2,0.8c-1,0.1-1.4-0.2-1.6-1.2
		c-0.8-3.3-1.6-6.5-2.5-9.8c-0.2-0.7-0.3-1.1,0.7-1.2c9.6-1.1,18.9-3.2,28.1-6.2c5.1-1.7,10.4-2.8,15.6-4c0.9-0.2,1-0.6,0.9-1.4
		c-1.3-7.8-1.8-15.6-1.6-23.5c0-1,0.3-1.6,1.3-2c4.1-1.9,8.3-1.6,12.6-0.9c2.8,0.4,5.6,1.2,8.4,2c0.9,0.3,1.2,0.7,1.1,1.6
		C421.9,346.9,421.9,347.6,421.8,348.3z"/>
	<path class="st10" d="M329,424.2c-4.2,2.2-8.5,4.1-12.8,6c-0.5,0.2-1,0.2-1.6,0.1c-3.2-0.6-6.4-0.9-9.6,0.2
		c-1.8,0.6-2.6,1.7-2.4,3.6c0.1,0.4,0.2,0.9,0.1,1.3c-0.4,0.1-0.6-0.1-0.9-0.2c-7.7-3.4-15.3-7-22.4-11.6c-3.5-2.2-6.7-4.6-9.3-7.9
		c-0.3-0.3-0.6-1-1.1-0.6c-0.5,0.4,0,0.9,0.3,1.3c2.1,2.6,4.7,4.6,7.4,6.5c6.7,4.8,14.1,8.4,21.6,11.9c0.3,0.1,0.6,0.1,0.8,0.5
		c-1.5,0.7-2.6-0.4-3.7-0.9c-9.1-4.1-18-8.5-26.4-13.7c-3.2-2-4.8-5.1-6.3-8.4c-2.1-4.6-3.4-9.5-3-14.6c0.4-5.5,3-9.9,7.4-13.2
		c0.7-0.5,1.5-1,2.3-1.5c1.4-0.9,1.4-0.9,1.9,0.7c1,3.8,2,7.6,3,11.3c0.7,2.8,1.9,3.8,4.8,3.7c1.4,0,2.1,0.3,2.8,1.6
		c0.9,1.8,2.7,2.4,4.7,2.4c3,0,5.9,0,8.9,0.1c3.2,1.4,5.8,3.7,8.7,5.6c2.5,1.7,5.1,3.4,7.4,5.4c1.4,1.2,3.2,1.7,4.9,2.2
		c2.5,0.9,5,1.8,7.3,3.1c1.3,0.7,2.8,1.3,2.5,3.2c0,0.4,0.3,0.5,0.6,0.5c0.5,0.1,1.1,0.1,1.6,0.3C328.7,423.4,329.3,423.5,329,424.2
		z"/>
	<path class="st8" d="M327.3,259c-2.9-3.6-6.9-4.3-10.7-5.5c-1.3-0.4-2.1-1-2.4-2.3c-0.1-0.4-0.4-0.7-0.6-1c-1-1.2-2.1-1.1-2.6,0.4
		c-0.3,1-0.7,1.1-1.5,0.5c0,0-0.1,0-0.1-0.1c-5.7-2.1-10.5-5.5-14.5-10.1c-2.1-2.5-4.7-4.5-7.1-6.8c0.3-0.4,0.7-0.2,1.1-0.2
		c4.9,0,9.9-0.1,14.8,0c1.3,0,1.6-0.3,1.6-1.6c0-11.7,0-23.4-0.1-35.1c0-1.2,0.3-1.5,1.5-1.5c6.5,0.1,13,0,19.6,0c0.7,0,1.2,0,1.2,1
		c0,20.5,0,40.9,0,61.4C327.4,258.3,327.4,258.4,327.3,259z"/>
	<path class="st8" d="M366.7,273.4c2.5-0.4,4.3-1.7,5.6-3.7c0.4-0.6,1.2-0.8,1.9-1.2c0.8-0.5,1.4-1.1,1.7-2c0.1-0.3,0-0.5-0.3-0.7
		c-0.2-0.1-0.5,0-0.6,0.2c-1.2,2.4-3.6,2.7-5.8,3.1c-4.3,0.8-8.7,0.8-13-0.1c-1.2-0.2-1.6-0.9-1.7-2c-0.1-2.9,0.5-5.6,1.1-8.4
		c0.1-0.6,0.4-0.7,1-0.5c1.4,0.5,2.9,0.7,4.3,0.9c1,0.1,1.9,0,2.8-0.4c0.3-0.1,0.6-0.3,0.4-0.7c-0.1-0.4-0.4-0.4-0.8-0.2
		c-2.6,0.8-5-0.1-7.3-0.8c-0.8-0.3-1-0.8-0.8-1.6c0.8-2.5,0.8-2.5-1.4-4.1c-2.6-1.9-2.6-2.2,0.3-3.8c0.5-0.3,1.1-0.6,1.7-0.9
		c0.8-0.5,1.4-1,2.3,0c0.6,0.7,1.5,0.2,2.2-0.4c0.7-0.7,1.1-1.5,1.4-2.4c0.1-0.3,0.1-0.8,0.6-0.7c0.4,0,0.4,0.3,0.5,0.6
		c0.3,0.9,0.7,1.2,1.3,0.2c0.3-0.5,0.6-0.4,1-0.3c4.2,0.9,8.4,1.8,12.7,2.6c0.7,0.1,1,0.4,0.9,1.2c-0.2,1.1,0,2.2,0.7,3.2
		c0.4,0.5,0,1-0.1,1.5c-0.1,0.4-0.2,0.9,0.3,1c0.5,0.1,0.6-0.3,0.7-0.7c0.6-1.8,1.5-3.5,2.7-4.9c2.1-2.5,4.6-2.9,7.4-1
		c2.6,1.8,3.1,4.2,1.5,7c-0.4,0.7-0.8,1.3-1.3,1.9c-2.1,2-3.8,4.3-5.6,6.5c-1.4,1.7-1.8,1.6-2.9-0.3c-0.2-0.3-0.3-0.6-0.7-0.4
		c-0.3,0.2-0.3,0.5-0.3,0.8c0.2,1.4,1.5,2.4,2.8,2.1c0.8-0.2,1.1,0.1,1.5,0.7c0.9,1.3,1.6,2.7,2.7,3.8c0.3,0.3,0.2,0.7,0.1,1
		c-0.6,4.5-0.1,8.9,0.9,13.2c0.3,1.6-0.2,2.6-1.9,3.4c-3.5,1.6-7.3,2.2-11.1,2.2c-2.7,0-5.5-0.3-8.1-1.3c-1.2-0.4-2.3-1-3.1-2
		c-0.8-0.9-0.8-1.9,0.1-2.4c2.1-1.1,2.6-2.9,2.6-5.1C367.5,276.1,367.3,274.8,366.7,273.4z"/>
	<path class="st0" d="M233.6,97.5c-5.8,0-11.6,0-17.4,0c-1.1,0-1.4-0.4-1.6-1.4c-1.9-12.2,8.8-23.3,21-21.8
		c11,1.3,18.4,10.8,17,21.8c-0.1,1-0.5,1.4-1.6,1.4C245.2,97.5,239.4,97.5,233.6,97.5z"/>
	<path class="st0" d="M269.9,63.1c0.6-0.4,0.9,0.2,1.3,0.4c6.1,4.1,11.9,8.5,17.2,13.5c6.5,6.2,12.4,13,17.9,20c0,0,0,0.1,0,0.3
		c-8.5,0-17,0-25.5,0c0-3.9-0.1-7.7-0.1-11.6c0-1.1-0.4-1.5-1.4-1.6c-3.5-0.3-7-0.6-10.5-0.9c-0.8-0.1-1.1-0.3-1.3-1
		c-0.5-1.8-1.2-3.6-2.1-5.2c-0.4-0.7-0.3-1.2,0.2-1.8c2.3-2.6,4.4-5.3,6.7-7.9c0.7-0.8,0.7-1.4-0.1-2.1
		C271.4,64.7,270.6,63.9,269.9,63.1z"/>
	<path class="st8" d="M259.3,187.2c0.7,0,1.1,0,1.4,0c11.6,0,23.2,0,34.8,0c1.2,0,1.2,0.4,1.4,1.4c0.5,3.7-0.8,6.3-3.6,8.7
		c-4,3.5-7.6,7.4-11.3,11.2c-0.5,0.5-0.7,0.8-1.4,0.1C273.7,201.6,266.6,194.5,259.3,187.2z"/>
	<path class="st8" d="M304.1,232.1c-3.9-4-7.6-7.6-11.3-11.3c-3.3-3.3-6.7-6.7-10-10c-0.6-0.6-0.6-1,0-1.6
		c4.3-4.3,8.6-8.6,12.9-12.9c0.6-0.6,1-0.8,2-0.6c1.6,0.3,3.3,0.2,5,0.1c1.1-0.1,1.5,0.2,1.5,1.4c-0.1,11.1,0,22.3,0,33.4
		C304.1,231,304.1,231.4,304.1,232.1z"/>
	<path class="st8" d="M258.8,188.2c3.1,3.2,6.2,6.3,9.4,9.5c3.9,3.9,7.7,7.8,11.6,11.6c0.6,0.6,0.6,1,0,1.6
		c-3.1,3.1-6.3,6.2-9.3,9.3c-0.6,0.6-0.9,0.6-1.5,0.1c-3.2-2.4-6.4-4.7-9.7-7.1c-0.4-0.3-0.8-0.5-0.8-1.2c0-7.9,0-15.8,0-23.7
		C258.6,188.3,258.7,188.2,258.8,188.2z"/>
	<path class="st11" d="M316,402.9c3.1,0,6.2,0,9.3,0c0.5,0,0.7,0.4,0.9,0.7c0.4,0.7,0.8,1.5,1.2,2.2c0.2,0.3,0.4,0.5,0.7,0.3
		c0.3-0.2,0.4-0.5,0.2-0.8c-0.2-0.4-0.4-0.8-0.6-1.2c-0.7-1.3-0.7-1.3,0.8-1.3c5.5,0,11,0,16.5,0c0.2,0,0.4,0,0.5,0
		c0.6-0.1,1,0.2,1.3,0.7c1.5,2.4,2.9,4.9,3.9,7.5c0.4,0.9,0.3,1.5-0.7,2c-4.3,2.4-8.5,4.8-12.9,7c-0.8,0.4-1.4,0.4-2.2-0.1
		c-1.2-0.7-2.4-1.4-3.7-2c-0.8-0.4-1-0.8-0.9-1.7c0.5-2.4,0.1-4.8-0.6-7.2c-0.1-0.4-0.2-1-0.8-0.9c-0.6,0.2-0.4,0.8-0.3,1.2
		c0.6,2,0.9,4,0.7,6.1c0,0.4,0.1,1.1-0.5,1.2c-0.5,0.1-0.6-0.6-0.8-0.9c-2.3-4-5.7-7-9.1-10.1c-1-0.9-2.1-1.8-3.2-2.7
		C315.9,403.1,315.9,403,316,402.9z"/>
	<path class="st8" d="M303,232.8c-4.4,0-8.7-0.1-13.1,0c-2.6,0.1-4.6-0.5-6.6-2.1c-3.7-3-7.7-5.7-11.6-8.5c-0.9-0.6-0.8-0.9-0.1-1.6
		c3.1-3,6.1-6,9.1-9.1c0.5-0.5,0.8-0.7,1.5-0.1c6.9,6.9,13.8,13.8,20.7,20.7C302.9,232.3,303.1,232.4,303,232.8z"/>
	<path class="st12" d="M324.9,401.8c-12.7,0-25.4,0-38.2,0c-1.6,0-3.1-0.3-4.1-1.8c-0.5-0.7-0.4-1.2,0.6-1.1c0.4,0,0.7,0,1.1,0
		c23.6,0,47.3,0,70.9,0c1.7,0,3.2-0.1,3.5-2.3c0.1-0.6,0.6-0.5,1-0.5c8,0,15.9,0,23.9,0c0.3,0,0.8-0.1,0.9,0.4
		c0.1,0.5-0.5,0.6-0.8,0.7c-5.6,1.4-11.1,3.1-16.7,4.2c-1.4,0.3-2.9,0.4-4.3,0.4C350.1,401.8,337.5,401.8,324.9,401.8z"/>
	<path class="st11" d="M329,424.2c-0.6-1-1.7-0.6-2.5-0.7c-0.9-0.2-1.5-0.2-0.9-1.3c0.5-0.8-0.2-1.2-0.8-1.6c-2.2-1.4-4.6-2.5-7-3.3
		c-1.5-0.5-3-1-4.5-1.5c-1.1-0.4-1.9-1.2-2.8-1.8c-4.5-3.4-9.2-6.6-13.9-9.8c-0.5-0.3-1-0.6-1.3-1.1c5.9,0,11.9,0,17.8-0.1
		c0.5,0,0.9,0.2,1.2,0.5c4,3.4,8.1,6.7,11.4,10.9c0.3,0.4,0.6,0.7,0.8,1.1c0.8,2.1,2.5,3,4.4,3.8c1.3,0.6,2.5,1.3,4,2.1
		C332.8,422.5,330.9,423.3,329,424.2z"/>
	<path class="st13" d="M108.5,310c-8.9,0-17.8,0-26.7,0c-1.3,0-1.7-0.3-1.7-1.6c0.1-2.9,0-2.9,2.9-2.9c17.4,0,34.8,0,52.2,0
		c1.8,0,1.8,0,1.8,1.8c0,3.2,0.4,2.7-2.7,2.7C125.7,310,117.1,310,108.5,310z"/>
	<path class="st14" d="M326.3,159.4c8.9,0,17.9,0,26.8,0c1.3,0,1.8,0.3,1.8,1.7c-0.1,3.3,0.4,2.8-2.9,2.8c-17.4,0-34.8,0-52.2,0
		c-1.8,0-1.8,0-1.8-1.8c0-2.7,0-2.7,2.7-2.7C309.2,159.4,317.7,159.4,326.3,159.4z"/>
	<path class="st15" d="M93.9,118.1c0.2-0.7,0.4-1.4,0.6-2.1c0.4,0,0.7,0,1.1,0c33.6,0,67.2,0,100.8,0c0.3,0,0.6,0,1.1,0
		c-0.8,1.2-1.4,2.2-3.2,2.2c-33-0.1-65.9,0-98.9,0C94.9,118.2,94.4,118.1,93.9,118.1z"/>
	<path class="st16" d="M376,445.9c0,0.8,0,1.4,0,1.9c0,0.8,0.5,1.3,1.2,1.4c0.7,0.1,1.1-0.4,1.4-0.9c0.2-0.3,0.3-0.8,0.4-1.1
		c0.4-2.2,0.7-2.5,2.8-2.7c0.8-0.1,1.2,0.2,0.9,1c-1.1,2.8-1.3,5.7-0.5,8.6c0.2,0.8-0.2,1.1-1,1.3c-2.6,0.5-5.1,0.9-7.7,1
		c-2.7,0.1-5.4,0-8.1,0c-0.8,0-1.5-0.2-2.3-0.3c-0.5-0.1-0.8-0.3-0.8-0.7c-0.3-2.9-2.6-3.4-4.7-4.1c-1-0.3-2.1-0.5-3.1,0.2
		c-0.6,0.4-1.2,0.9-1.1,1.7c0.1,0.9-0.4,1.2-1.2,1c-1.2-0.3-2.4-0.7-3.6-1c-0.8-0.3-0.8-0.6-0.2-1.2c1.6-1.8,3.8-1.9,5.9-2.2
		c2.6-0.5,5.2-0.9,7.8-1.3c0.6-0.1,1.3-0.1,1.9,0c1,0.3,1.8,0.3,2.6-0.6c0.5-0.5,1-0.4,1.3,0.3c0.3,0.6,0.8,1,1.5,0.9
		c0.8-0.1,1.1-0.7,1.3-1.4c0.1-0.6,0.3-1.1,1-1c0.8,0,0.7,0.7,0.7,1.2c0,0.9,0.4,1.5,1.2,1.7c0.8,0.1,1.2-0.6,1.5-1.3
		C375.3,447.6,374.8,446.6,376,445.9z"/>
	<path class="st8" d="M280.6,444.7c0,2.4-0.5,4.3-1.4,6c-0.2,0.4-0.3,0.9-1.1,0.6c-4.3-1.6-8.6-3.2-12.2-6c-2.3-1.8-3-3.6-2.2-6
		c0.6-2,2.2-2.9,4-3.4c2.9-0.8,6-0.7,9-0.3c0.4,0.1,0.6,0.3,0.9,0.6C279.3,438.9,280.6,441.8,280.6,444.7z"/>
	<path class="st17" d="M34.8,292.9c0-2.1,0-4.2,0-6.3c0-0.7,0.2-1,1-1c4.2,0,8.4,0,12.7,0c0.7,0,1,0.2,1,1c0,2.7,0,5.3,0,8
		c0,0.7-0.2,1.1-1,1c-0.8-0.1-1.7,0-2.6,0c-0.9-0.1-1.3,0.2-1.3,1.2c0.1,0.8,0,1.5,0,2.3c0.1,1-0.2,1.4-1.2,1.3
		c-2.5-0.1-5-0.1-7.5,0c-0.9,0-1.1-0.3-1.1-1.2C34.9,297,34.8,294.9,34.8,292.9z"/>
	<path class="st15" d="M269.7,118.1c-24.1,0-48.2,0-72.5,0c0.9-1.4,1.7-2.2,3.5-2.2c21.7,0.1,43.4,0.1,65.2,0
		C267.7,116,269,116.3,269.7,118.1z"/>
	<path class="st18" d="M383.5,454.7c-1.5-3.6-0.9-7,0.8-10.4c0.3-0.5,0.7-0.6,1.2-0.7c2.8-0.7,5.7-1.4,8.5-2.2
		c2.9-0.8,6.1,1.6,6.3,4.6c0,0.6,0.2,1.2-0.2,1.7c-0.8,0.8-1.9,1.1-2.9,1.6c-3.1,1.4-5.8,3.4-9,4.5c-1,0.4-2,0.8-3.1,1
		C384.5,455,384,455.2,383.5,454.7z"/>
	<path class="st8" d="M364.6,227.3c1.5,3.7,3.6,6.7,6.6,9.1c1,0.8,2.1,1.5,3.3,2c0.6,0.3,0.9,0.2,0.7-0.6c-0.2-0.9-0.3-1.8,0.2-3
		c1.4,2.9,2.3,5.7,2.9,8.5c0.4,1.7,0.3,1.8-1.4,1.4c-3.8-0.8-7.6-1.6-11.5-2.4c-0.6-0.1-1-0.2-1-1c0-0.4-0.1-0.9-0.6-1
		c-0.5-0.1-0.6,0.4-0.8,0.7c-0.1,0.2-0.1,0.7-0.6,0.6c-0.5-0.1-0.3-0.5-0.3-0.7c0-1.6,0.1-3.2-1.5-4.2c-0.3-0.2-0.1-0.8-0.1-1.1
		c0.2-1,0.3-1.9,0.5-2.9c0.1-0.4-0.2-1.3,0.9-0.8c0.4,0.2,0.4-0.4,0.5-0.7C363.2,230,363.6,228.6,364.6,227.3z"/>
	<path class="st0" d="M316.1,110.3c2.1,2.5,3.7,5.2,5.6,7.8c-1.4,0-2.9,0-4.3,0c-14.6,0-29.1,0-43.7,0c-1.8,0-3-0.4-3.8-2.1
		c0.4-0.2,0.9-0.1,1.4-0.1c13.4,0,26.8,0,40.2,0c1.9,0,1.9,0,1.9-1.8c0-0.2,0-0.5,0-0.7c-0.2-1.2,0-2.1,1.4-2.3
		C315.2,111.1,315.6,110.6,316.1,110.3z"/>
	<path class="st11" d="M347.7,402.9c4,0,7.7-0.1,11.5,0c5.5,0.3,10.7-0.8,15.9-2.4c2.1-0.6,4.3-1.1,6.5-1.6c-3.9,1.5-7.7,3-11.6,4.5
		c-5.8,2.3-11.5,4.8-17,7.9c-0.3,0.2-0.8,0.8-1.1,0C351,408.4,349.4,405.7,347.7,402.9z"/>
	<path class="st0" d="M243.1,51c1.3-0.3,2.3,0.4,3.4,0.8c3.6,1.2,7,2.6,10.5,4.2c0.2,0.1,0.3,0.3,0.5,0.4c-2,1.7-4.1,3.5-6.1,5.2
		c-0.4,0.4-0.8,0.4-1.3,0.2c-1.8-1-3.7-1.7-5.6-2.3c-0.5-0.2-0.7-0.4-0.8-0.9C243.5,56,243.3,53.5,243.1,51z"/>
	<path class="st16" d="M305.3,440.1c1.2,1.6,2.5,3.1,3.7,4.7c1.6,2.1,3.5,4,5.3,5.9c0.4,0.4,1.3,0.8,1.1,1.4c-0.2,0.7-1.1,1-1.8,1.2
		c-1.3,0.4-3.6-0.9-4.2-2.2c-0.5-1.3-1.6-1.7-3.7-1.5c-2.5,0.2-4-1.7-5.8-2.9c-0.3-0.2-0.3-0.5-0.1-0.9c1.4-2.8,0.3-5.4-0.8-8
		c-0.2-0.4-0.8-0.8,0-1.2c0.5-0.3,1.1-0.4,1.5,0.3c1,2,2.2,3.9,1.6,6.3c-0.1,0.3,0,0.5,0,0.8c-0.1,0.9,0.4,1.4,1.2,1.6
		c0.8,0.1,1.2-0.4,1.5-1.1c0.2-0.5,0.3-1,0.3-1.6c0-0.9,0-1.9,0-2.8C305.1,440.2,305.2,440.1,305.3,440.1z"/>
	<path class="st19" d="M400.9,449c0.6,1,0.2,1.8-0.3,2.5c-2.6,3.6-6.3,5.7-10.6,6.1c-6.9,0.8-13.7,2.4-20.5,3.7
		c-3.6,0.7-7.3,0.6-11,0.5c-0.3,0-0.7,0-0.8-0.4c0-0.4,0.4-0.4,0.7-0.4c3.3-0.4,6.7-0.8,10-1.2c4.8-0.7,9.7-1.6,14.5-2.5
		c4.4-0.9,8.8-2.1,12.9-4C397.7,452.2,399.6,451.1,400.9,449z"/>
	<path class="st19" d="M262.4,443c2.9,4.3,7.2,6.2,11.6,7.9c7.3,3,14.9,4.9,22.5,6.8c2.6,0.6,5.2,1.2,7.9,1.7
		c-0.4,0.7-0.9,0.5-1.4,0.5c-4.1,0-8-0.7-11.9-1.9c-6.3-2.1-12.6-3.9-19-5.5c-4-1-7.3-3.3-9.4-6.9C262.1,444.4,262,444.2,262.4,443z
		"/>
	<path class="st20" d="M379.5,365.1c-0.2,0.7-0.6,0.5-1,0.3c-2.3-1.1-4.5-2.3-6.6-3.9c-5.8-4.3-10.2-9.8-14-15.8
		c-4-6.4-7.3-13.3-9.8-20.5c-0.1-0.2-0.2-0.4-0.2-0.6c-0.1-0.4-0.6-1,0.2-1.2c0.7-0.2,0.7,0.5,0.9,0.9c3,8.5,6.8,16.6,12,24
		c4.6,6.7,10.2,12.4,17.6,16C378.9,364.4,379.4,364.5,379.5,365.1z"/>
	<path class="st19" d="M247.7,202.8c-1.9-1.9-4-3.4-6.3-4.5c-0.6-0.3-1.3-0.4-2-0.3c-2.7,0.3-5.4,0.5-8.1,0.6c1-0.5,2-1.1,2.7-1.9
		c0.3-0.4,0.6-0.2,0.9,0c0.4,0.3,0.8,0.6,1.2,0.8c0.3,0.2,0.5,0.3,0.8,0c0.2-0.3,0.1-0.6-0.1-0.8c-0.4-0.3-0.7-0.6-1.1-0.8
		c-0.4-0.2-0.8-0.5-0.3-1c0.2-0.3,0.3-0.6-0.1-0.8c-0.4-0.3-0.7,0-0.9,0.3c-0.7,1-1.5,2-2.7,2.6c-0.8,0.4-1.1,0.4-1.2-0.7
		c-0.1-1.3,0.2-2.1,1.4-2.6c0.4-0.2,0.7-0.4,1-0.6c1.5-1.1,2.8-1,4.4,0c3.8,2.4,7.4,5.1,10,8.9C247.5,202.1,247.8,202.2,247.7,202.8
		z"/>
	<path class="st21" d="M394.7,341.5c0.1-0.9,0.2-2,0.5-3c0.6-1.9,0.2-3.6-0.3-5.4c-1.9-6.2-3-12.6-2.3-19.1
		c0.4-3.8,1.3-7.4,3.2-10.8c0.2-0.3,0.3-0.7,0.6-0.9c0.3-0.4,0.6-1.2,1.2-0.8c0.7,0.5-0.1,1-0.3,1.4c-2.6,4-3.6,8.5-3.7,13.2
		c-0.2,6,0.9,11.8,2.7,17.5c0.5,1.5,0.7,2.9,0.2,4.5c-0.2,0.6-0.2,1.3-0.4,2c-0.4,1.6-0.3,3,1.5,3.8c0.3,0.1,0.5,0.4,0.3,0.8
		c-0.2,0.4-0.5,0.3-0.8,0.2C395.7,344.5,394.6,343,394.7,341.5z"/>
	<path class="st8" d="M309,106.8c0-2.1,1.5-3.7,3.7-3.8c2.1,0,3.8,1.6,3.9,3.6c0.1,2.1-1.7,3.9-3.8,3.9
		C310.7,110.5,309,108.9,309,106.8z"/>
	<path class="st20" d="M377.1,292.4c3.8-0.2,7.5-0.8,11.1-2c0.4-0.1,1-0.4,1.1,0.2c0.2,0.6-0.5,0.7-0.8,0.8
		c-7.2,2.3-14.5,3-21.8,0.8c-2.4-0.7-4.7-1.7-6.5-3.6c-2.1-2.2-2.5-4.8-1.7-7.6c0.1-0.4,0.2-1,0.9-0.8c0.5,0.2,0.3,0.7,0.2,1.1
		c-0.9,4,0.2,6.5,3.8,8.3C367.6,291.8,372.3,292.5,377.1,292.4z"/>
	<path class="st19" d="M229.3,200.4c0.3,0.9,1.4,1.2,1.2,2.4c-0.1,0.6,0.7,1.2,1.2,1.7c1.1,1,2.1,1.9,3.3,2.8
		c0.5,0.4,0.7,0.8,0.2,1.3c-0.4,0.5-0.8,1-1.6,0.4c-1.5-1.2-3.3-2-4.1-3.9c-0.2-0.3-0.4-0.5-0.7-0.4c-0.4,0.1-0.4,0.5-0.2,0.8
		c0.3,1,1,1.7,1.8,2.3c0.8,0.7,1.7,1.3,2.6,1.9c0.4,0.3,0.8,0.6,0.6,1.2c-0.1,0.4-0.1,0.9-0.6,1c-0.6,0.2-0.8-0.4-1.2-0.7
		c-1-1.2-2.2-2.3-3.1-3.5c-2.2-2.7-2.1-3.8,0-6.5C228.7,201,229,200.8,229.3,200.4z"/>
	<path class="st20" d="M332.8,303c0.5-9.9,2.6-19.5,6.6-28.7c0.3-0.6,0.4-2,1.3-1.6c1,0.5-0.1,1.4-0.4,2c-2.9,6.6-4.7,13.5-5.7,20.7
		c-0.4,2.5-0.5,5.1-0.8,7.6c0,0.4,0.1,1-0.6,1C332.7,304,332.8,303.5,332.8,303z"/>
	<path class="st19" d="M383.5,454.7c3.2-0.8,6.2-2,9-3.6c2.4-1.4,4.8-2.8,7.5-3.4c-0.3,1.6-1.6,2.5-2.8,3.3
		c-3.9,2.6-8.4,3.5-12.8,4.8C383.6,456,383.6,455.3,383.5,454.7z"/>
	<path class="st22" d="M323.5,173.8c-4,0-8,0-12,0c-0.5,0-1.3,0.3-1.2-0.6c0-0.7,0.7-0.5,1.2-0.5c8,0,16.1,0,24.1,0
		c0.5,0,1.3-0.3,1.2,0.6c0,0.7-0.8,0.5-1.2,0.5C331.6,173.8,327.5,173.8,323.5,173.8z"/>
	<path class="st23" d="M105.7,319.9c-4,0-8,0-12,0c-0.5,0-1.3,0.3-1.3-0.5c0-0.8,0.8-0.6,1.3-0.6c8,0,16,0,24,0
		c0.5,0,1.3-0.3,1.3,0.5c0,0.8-0.8,0.5-1.2,0.5C113.7,319.9,109.7,319.9,105.7,319.9z"/>
	<path class="st24" d="M101.5,327.2c2.7,0,5.4,0,8.1,0c0.4,0,1-0.1,1.1,0.5c0,0.8-0.6,0.6-1.1,0.6c-5.3,0-10.7,0-16,0
		c-0.5,0-1.2,0.1-1.2-0.6c0-0.7,0.7-0.6,1.2-0.6C96.2,327.2,98.8,327.2,101.5,327.2z"/>
	<path class="st25" d="M356.1,452.1c1.5,0.2,3.2,0.6,4.5,1.8c1,0.9,0.8,1.7-0.3,2.4c-2.8,1.7-5.4-0.7-5.8-2.8
		C354.2,452.3,355,452.1,356.1,452.1z"/>
	<path class="st19" d="M304.3,455.2c-0.2,0-0.5-0.1-0.7-0.2c-0.9-0.3-2-0.6-2.1-1.8c-0.1-1,0.9-1.4,1.7-1.8c1.3-0.6,2.6-1,4-0.8
		c1.1,0.2,1.4,0.7,1,1.8C307.6,453.9,305.8,455.2,304.3,455.2z"/>
	<path class="st21" d="M386,318.9c0-0.6-0.1-1.1,0.4-1.1c0.6-0.1,0.6,0.5,0.6,1c0.4,3.5,1.2,6.8,2.7,9.9c1.1,2.3,2.6,4.3,4.6,5.9
		c0.3,0.2,0.9,0.5,0.5,1c-0.4,0.5-0.8,0-1.1-0.2c-1.7-1.3-3-2.9-4.1-4.8C387.5,326.9,386.4,322.9,386,318.9z"/>
	<path class="st26" d="M321.6,281c0.5,0.2,0.5,0.6,0.6,1.1c1.1,4.8,2.8,9.5,5.3,13.7c0.5,0.9,1.2,1.8,1.8,2.7c0.2,0.3,0.5,0.7,0,1.1
		c-0.5,0.3-0.7-0.1-0.9-0.5c-3.6-5.1-5.9-10.9-7.2-17C321,281.3,321.2,280.9,321.6,281z"/>
	<path class="st27" d="M310.8,185.2c2.3,0,4.6,0,6.9,0c0.4,0,1,0,1,0.6c0,0.6-0.6,0.6-1,0.6c-4.6,0-9.2,0-13.9,0c-0.4,0-1,0-1-0.6
		c0-0.5,0.5-0.5,0.9-0.5C306.1,185.2,308.4,185.2,310.8,185.2z"/>
	<path class="st28" d="M319.3,182.2c-2.7,0-5.3,0-8,0c-0.4,0-1,0.2-1.1-0.5c0-0.7,0.6-0.6,1.1-0.6c5.3,0,10.7,0,16,0
		c0.4,0,1-0.1,1.1,0.5c0,0.8-0.7,0.6-1.1,0.6C324.7,182.2,322,182.2,319.3,182.2z"/>
	<path class="st29" d="M92.8,314.7c2.3,0,4.6,0,6.9,0c0.4,0,1-0.1,1.1,0.5c0,0.8-0.6,0.6-1.1,0.6c-4.5,0-9.1,0-13.6,0
		c-0.4,0-1,0.2-1.1-0.5c0-0.8,0.6-0.6,1.1-0.6C88.3,314.6,90.6,314.7,92.8,314.7z"/>
	<path class="st30" d="M310.7,169.7c-2.3,0-4.6,0-6.9,0c-0.4,0-1,0.1-1-0.6c0-0.6,0.5-0.5,0.9-0.5c4.6,0,9.3,0,13.9,0
		c0.4,0,1-0.1,1,0.6c0,0.6-0.6,0.5-1.1,0.5C315.3,169.7,313,169.7,310.7,169.7z"/>
	<path class="st30" d="M93,331.3c2.2,0,4.4,0,6.6,0c0.4,0,1.1-0.3,1.2,0.5c0,0.7-0.6,0.6-1.1,0.6c-4.5,0-9,0-13.5,0
		c-0.4,0-1.1,0.2-1.2-0.5c0-0.8,0.7-0.5,1.1-0.6C88.4,331.3,90.7,331.3,93,331.3z"/>
	<path class="st31" d="M241.8,50.1c-3.6-0.9-7.2-1.8-10.8-2.7c3.3,0,6.5,0,9.8-0.1c0.6,0,0.9,0.3,0.9,0.9
		C241.8,48.9,241.8,49.5,241.8,50.1z"/>
	<path class="st21" d="M231.2,202.3c1.9,0.7,3.4,1.1,4.9,1.2c1.2,0.1,1.1,1,1.3,1.8c0.2,0.7-0.3,1.3-0.9,1.6
		c-0.2,0.1-0.4,0.1-0.6-0.1C234.2,205.5,232.5,204.3,231.2,202.3z"/>
	<path class="st32" d="M93.4,322.7c1.1,0,2.2,0,3.4,0c0.4,0,0.9,0,0.9,0.6c0,0.5-0.4,0.5-0.8,0.5c-2.3,0-4.6,0-7,0
		c-0.4,0-0.8-0.1-0.8-0.5c0-0.6,0.5-0.6,0.9-0.6C91.1,322.7,92.3,322.7,93.4,322.7z"/>
	<path class="st33" d="M311.3,176.5c1.1,0,2.2,0,3.4,0c0.4,0,0.9,0.1,0.8,0.6c0,0.5-0.5,0.5-0.8,0.5c-2.3,0-4.6,0-6.9,0
		c-0.4,0-0.8,0-0.8-0.5c0-0.5,0.4-0.6,0.9-0.6C309,176.5,310.1,176.5,311.3,176.5z"/>
	<path class="st23" d="M299.3,443.3c-0.1,0.3-0.1,0.8-0.2,1.4c-0.1,0.3-0.1,0.7-0.5,0.6c-0.4-0.1-0.3-0.5-0.3-0.8
		c0.6-2.8-0.5-5.2-2.1-7.4c-0.2-0.3-0.8-0.7-0.3-1c0.5-0.4,0.7,0.3,1,0.6C298.3,438.5,299.2,440.7,299.3,443.3z"/>
	<path class="st23" d="M286.5,443.6c0.1,0.6,0.1,1-0.3,1c-0.5,0.1-0.4-0.4-0.4-0.7c-0.2-2.7-0.9-5.1-2.5-7.3c-0.2-0.2-0.4-0.6,0-0.8
		c0.4-0.2,0.5,0.2,0.7,0.4C285.6,438.5,286.4,441.1,286.5,443.6z"/>
	<path class="st34" d="M264.7,59.6c-1.5-0.7-3.1-1.5-4.6-2.2c-0.5-0.2-0.9-0.5-1.5-0.5c1.9-1.7,1.9-1.7,3.6,0.1
		C263.1,57.8,263.9,58.7,264.7,59.6z"/>
	<path class="st35" d="M294.7,444.1c-0.1,0.4,0.2,1-0.4,1.1c-0.5,0-0.5-0.6-0.5-0.9c-0.1-2.5-1.1-4.7-2.1-6.9
		c-0.1-0.3-0.5-0.7-0.1-0.9c0.5-0.3,0.6,0.2,0.8,0.5C293.6,439.2,294.5,441.6,294.7,444.1z"/>
	<path class="st36" d="M290.2,443.7c0,0.2,0,0.4,0,0.5c0,0.4,0.2,1-0.4,1c-0.5,0-0.4-0.6-0.4-1c0-2.5-0.6-4.9-1.9-7
		c-0.2-0.3-0.5-0.7,0-0.9c0.4-0.2,0.5,0.3,0.7,0.5C289.4,439,290.2,441.2,290.2,443.7z"/>
	<path class="st32" d="M301.6,436.4c0.4,0,0.8,0.2,1,0.6c1,2.1,1.8,4.3,1.3,6.7c-0.1,0.4-0.1,1-0.6,0.9c-0.6-0.1-0.3-0.6-0.2-1
		c0.5-2.4-0.4-4.6-1.4-6.7C301.5,436.8,301.4,436.6,301.6,436.4z"/>
	<path class="st37" d="M229.5,197.1c0.2,1.2-0.6,1.1-1.4,1.2c-1.3,0.1-1.1-0.7-1.2-1.5c-0.1-1.2,0.6-1.1,1.4-1.2
		C229.6,195.4,229.5,196.2,229.5,197.1z"/>
	<path class="st35" d="M360.6,238.2c1.2,1.9,0.3,5.6-0.8,6.8c-0.3,0.3-0.7,0.9-1.2,0.3c-0.4-0.5,0.2-0.7,0.5-0.9
		c0.9-0.7,1.3-1.6,1.4-2.7C360.4,240.6,360.5,239.5,360.6,238.2z"/>
	<path class="st38" d="M358,243.7c-0.3-1.9,0.2-3.7,1.4-5.2C359.3,240.4,359.9,242.3,358,243.7z"/>
	<path class="st22" d="M45.9,299.3c-0.1-3.4-0.5-2.8,2.6-2.7C47.8,297.6,46.8,298.3,45.9,299.3z"/>
	<path class="st39" d="M377.8,445.4c0.3,0,0.3,0.2,0.3,0.4c0,0.3-0.1,0.5-0.2,0.8c-0.2,0.6,0.1,1.3-0.6,1.6
		c-0.2,0.1-0.3-0.2-0.3-0.3c0-0.8,0.1-1.7,0.6-2.4C377.6,445.4,377.7,445.4,377.8,445.4z"/>
	<path class="st40" d="M374.1,447c-0.2,0.5,0.1,1.3-0.6,1.4c-0.5,0.1-0.3-0.6-0.3-0.9c0.1-0.5-0.2-1.2,0.6-1.2
		C374.4,446.3,373.9,446.8,374.1,447z"/>
	<path class="st0" d="M352.7,158.1c-6.6,0-12.9,0-19.2,0c-1.1,0-2.3-0.1-3.4,0c-1.1,0.1-1.5-0.3-1.5-1.4c0-7.4,0-14.8,0-22.1
		c0-2,0-4.1,0-6.1C336.4,138.6,343.8,148.7,352.7,158.1z"/>
	<path class="st41" d="M332.8,106.7c0,2.7-2.1,4.9-4.8,4.9c-2.7,0-4.9-2.2-4.9-4.9c0-2.6,2.1-4.8,4.8-4.8
		C330.7,101.9,332.8,104,332.8,106.7z"/>
	<path class="st41" d="M407.1,148.6c0.5,0,0.7,0.4,0.9,0.6c1,1.2,2,2.3,2.9,3.6c0.4,0.6,0.7,0.5,1.1,0c1-1.2,2-2.4,3-3.7
		c0.2-0.3,0.5-0.8,1-0.4c0.5,0.4,0.1,0.8-0.2,1.1c-1.2,1.5-2.4,3-3.6,4.5c-0.4,0.5-0.8,0.7-1.3,0.1c-1.3-1.6-2.5-3.1-3.8-4.7
		c-0.2-0.2-0.4-0.5-0.2-0.8C406.8,148.8,407,148.7,407.1,148.6z"/>
	<path class="st42" d="M459.1,276.2c0,0.5-0.3,0.7-0.5,0.9c-1.6,1.7-3.3,3.3-4.9,5c-0.6,0.6-1,0.6-1.6,0.1c-1-0.9-2.1-1.8-3.2-2.7
		c-0.5-0.5-1-0.4-1.7-0.2c-2,0.5-2.4,1.8-2.4,3.6c0,3.5-0.1,3.5-3.6,3.5c-1.5,0-3.1,0-4.6,0c-0.8,0-1.3-0.2-1.3-1.1
		c0-0.9-0.3-1.8-0.2-2.7c0.1-1.7-0.3-2.8-2.1-3.2c-0.9-0.2-1.4-0.3-2.1,0.3c-0.9,0.9-2,1.7-3,2.5c-0.6,0.5-1,0.5-1.6,0
		c-1.6-1.7-3.3-3.3-4.9-5c-0.6-0.6-0.5-1,0-1.6c0.9-1,1.7-2.1,2.7-3.1c0.5-0.6,0.7-1.1,0.3-1.8c-0.2-0.3-0.4-0.7-0.5-1.1
		c-0.2-0.7-0.5-1.1-1.4-1.1c-1.4,0-2.8-0.3-4.2-0.4c-0.7-0.1-1.1-0.3-1-1.1c0-2.4,0-4.8,0-7.1c0-0.8,0.4-1,1.1-1.1
		c1.4-0.1,2.8-0.3,4.2-0.3c0.8,0,1-0.4,1.3-1c0.9-1.6,0.7-2.7-0.6-4.1c-2.6-2.8-2.5-2.9,0.2-5.6c1-1,1.9-1.9,2.8-2.9
		c0.6-0.7,1.1-0.7,1.8-0.1c1,0.9,2.1,1.7,3.1,2.6c0.5,0.5,1,0.6,1.7,0.2c0.3-0.2,0.7-0.4,1.1-0.5c0.8-0.2,1.2-0.7,1.2-1.5
		c0-1.3,0.2-2.6,0.3-3.9c0-0.8,0.3-1.2,1.2-1.2c2.3,0,4.6,0,6.9,0c0.9,0,1.2,0.3,1.2,1.2c0.1,1.3,0.3,2.6,0.3,3.9
		c0,0.9,0.5,1.2,1.2,1.6c1.5,0.9,2.7,0.6,3.7-0.7c0.2-0.2,0.5-0.4,0.7-0.6c2.4-2,2.4-2,4.5,0.3c1.1,1.1,2.2,2.3,3.3,3.3
		c0.7,0.6,0.7,1.1,0.1,1.8c-0.9,1-1.7,2.1-2.6,3.1c-0.5,0.5-0.5,0.9-0.3,1.6c0.5,1.9,1.7,2.7,3.6,2.4c0.2,0,0.4,0,0.7,0.1
		c2.9,0.3,2.9,0.3,2.9,3.3c0,1.6,0,3.1,0,4.7c0,0.9-0.2,1.4-1.2,1.4c-1.4,0.1-2.8,0.3-4.2,0.3c-0.7,0-0.9,0.4-1.2,1
		c-1.1,1.7-0.6,3,0.8,4.3c0.6,0.6,1.1,1.3,1.7,1.9C458.8,275.8,459,276,459.1,276.2z"/>
	<path class="st2" d="M424,136c-0.3,0.4-0.8,0.2-1.1,0.2c-3.2,0-6.4,0-9.6,0c-1.1,0-1.4-0.4-1.3-1.4c0.1-1.7,0-3.3,0-5
		c0-0.4,0-1-0.6-1c-0.5,0-0.5,0.6-0.5,1c0,1.7-0.1,3.3,0,5c0.1,1.2-0.4,1.4-1.5,1.4c-11.6,0-23.3,0-34.9,0c-2.2,0-4.4,0.2-6.6-0.2
		c-4.4-0.7-7.6-4.5-7.7-8.9c0-4.3,3.2-8.2,7.4-9c1-0.2,1.3-0.7,1.5-1.6c1.5-8.3,8.1-13.9,16.5-14c0.6,0,1.3,0.1,1.9,0.1
		c1.9,0.2,1.9,0.2,2.1-1.7c1-7,4.7-12.1,10.7-15.6c0.3-0.2,0.6-0.3,0.9-0.1c0.7,0.1,0.9,0.7,1.2,1.2c7.3,12.4,14,25.1,18.7,38.8
		c1,2.9,1.9,5.9,2.8,8.9C424.2,134.7,424.6,135.3,424,136z"/>
	<path d="M424,136c-2.9-11.1-7.2-21.7-12.4-32c-3.2-6.4-6.7-12.6-10.3-18.8c0.7,0.1,0.9,0.7,1.2,1.2c7.3,12.4,14,25.1,18.7,38.8
		c1,2.9,1.9,5.9,2.8,8.9C424.2,134.7,424.6,135.3,424,136z"/>
	<path class="st10" d="M132.4,78.6c-0.6-2.1-1.2-4-1.7-6c-0.3-1.2-0.9-1.6-2.1-1.6c-7.1,0-14.1,0-21.2,0c-0.5,0-1,0-1.5,0
		c-1.2-0.1-1.8-0.7-1.8-1.9c0-8.2,0-16.4,0-24.6c0-1.1,0.7-1.7,1.8-1.8c0.4,0,0.8,0,1.2,0c17,0,34,0,51,0c2.5,0,2.9,0.4,2.9,2.9
		c0,7.6,0,15.1,0,22.7c0,2.2-0.5,2.8-2.8,2.8c-7.2,0-14.5,0-21.7,0c-1.3,0-1.9,0.4-2.1,1.6c-0.4,1.7-0.9,3.4-1.4,5.1
		C132.9,78,132.9,78.4,132.4,78.6z"/>
	<path class="st0" d="M162,398.9c-13.3,0-26.5,0-39.8,0c-4.1,0-7.4-2.2-8.8-5.7c-1.4-3.6-0.6-7.4,2.4-10.2c1.2-1.1,2.6-1.9,4.1-2.1
		c1.2-0.2,1.5-0.7,1.7-1.8c1.6-7.5,6.2-12,13.6-13.6c1.8-0.4,3.6-0.3,5.4-0.1c1,0.1,1.3-0.2,1.4-1.2c1-8.1,5.3-13.9,12.8-17.1
		c8.8-3.8,19.8-0.4,24.9,7.7c0.7,1.2,1.4,1.6,2.9,1.3c7.9-1.8,16.9,1.7,21.6,8.2c3.6,5.1,5.1,10.6,3.9,16.8
		c-0.2,0.9,0.1,1.5,0.7,2.1c2.8,2.7,3.3,6.1,2,9.6c-1.3,3.6-4.1,5.8-8.1,5.9c-7.1,0.1-14.3,0.1-21.5,0.1
		C174.9,398.9,168.4,398.9,162,398.9z"/>
	<path class="st43" d="M179.7,192.1c-13.7,0-27.4,0-41.2,0c-1.3,0-1.7-0.4-1.7-1.7c0.1-17.2,0.1-34.5,0.1-51.7
		c0-1.1,0.3-1.6,1.5-1.6c27.5,0,55.1,0,82.6,0c1.2,0,1.6,0.3,1.6,1.6c0,17.2,0,34.5,0,51.7c0,1.4-0.4,1.6-1.7,1.6
		C207.2,192.1,193.4,192.1,179.7,192.1z"/>
	<path class="st5" d="M86.1,182.4c-0.4,0-0.6-0.3-0.8-0.5c-0.7-0.6-1.5-1.1-2-1.8c-1-1.2-2.1-1.3-3.5-0.6c-0.7,0.4-1.1,0.7-1.1,1.5
		c-0.1,1.3-0.3,2.5-0.3,3.8c0,0.7-0.3,1-1.1,1c-2.2,0-4.4,0-6.6,0c-0.7,0-1-0.2-1.1-1c-0.1-1.4-0.2-2.8-0.4-4.2
		c-0.1-1.1-2.6-2.1-3.4-1.4c-1,0.9-2.1,1.7-3.1,2.6c-0.6,0.5-1,0.6-1.6,0c-1.5-1.6-3-3.1-4.6-4.6c-0.6-0.6-0.6-1.1,0-1.7
		c0.8-0.9,1.6-1.9,2.4-2.8c0.4-0.5,0.9-1,0.3-1.6c-0.6-0.7-0.2-2.3-1.9-2.2c-1.2,0.1-2.4-0.2-3.6-0.3c-0.8,0-1.2-0.3-1.2-1.2
		c0-2.2,0-4.3,0-6.5c0-0.8,0.3-1.1,1.1-1.2c0.9,0,1.7-0.3,2.5-0.2c1.6,0.1,2.6-0.4,3-2.1c0.2-0.7,0.3-1.2-0.3-1.8
		c-0.9-1-1.7-2-2.5-3c-0.4-0.5-0.4-0.9,0-1.4c1.6-1.6,3.2-3.2,4.8-4.8c0.5-0.5,0.9-0.6,1.5-0.1c0.9,0.8,1.9,1.6,2.9,2.4
		c0.5,0.4,0.9,0.9,1.6,0.4c0.8-0.6,2.2-0.3,2.2-1.9c0-1.3,0.2-2.5,0.3-3.8c0-0.8,0.4-1,1.1-1c2.2,0,4.4,0,6.6,0c0.7,0,1,0.3,1.1,1
		c0,0.9,0.2,1.9,0.2,2.8c0,1.4,0.4,2.3,1.9,2.7c0.9,0.3,1.5,0.3,2.1-0.4c0.8-0.8,1.8-1.5,2.7-2.3c0.6-0.5,1-0.6,1.6,0
		c1.5,1.6,3.1,3.1,4.7,4.7c0.6,0.6,0.6,1,0,1.6c-0.6,0.7-1.2,1.5-1.9,2.1c-1.1,1-1.2,1.9-0.5,3.3c0.4,0.9,0.9,1.2,1.8,1.2
		c1.2,0,2.3,0.2,3.5,0.3c0.8,0,1.1,0.4,1.1,1.2c0,2.2,0,4.3,0,6.5c0,0.8-0.3,1.1-1.1,1.2c-1.1,0.1-2.2,0.3-3.4,0.3
		c-1.1,0-1.6,0.4-2,1.4c-0.5,1.2-0.5,2,0.5,2.9c0.7,0.6,1.1,1.4,1.8,2c0.8,0.8,0.8,1.3,0,2.1c-1.5,1.4-2.9,2.8-4.3,4.3
		C86.7,182.1,86.5,182.4,86.1,182.4z"/>
	<path class="st43" d="M214.9,238.3c4,1.6,7.5,3.7,10.2,7c2.8,3.4,4.5,7.3,5.3,11.6c0.1,0.7,0.4,1.1,1,1.4c1.2,0.5,1.8,1.7,1.5,3
		c-0.3,1.2-1,2-2.3,2.1c-1.2,0.2-2.4-0.5-2.8-1.6c-0.5-1.2-0.2-2.5,0.9-3.2c0.7-0.4,0.8-0.9,0.6-1.6c-1.4-6.7-4.6-12.1-10.7-15.6
		c-3.3-1.9-6.9-2.7-10.7-3.1c-0.7-0.1-1.2,0-1.1,0.9c0.1,0.7-0.4,0.8-1,0.8c-0.9,0-1.8,0-2.7,0c-0.8,0-1.4-0.1-1.2-1.1
		c0.1-0.7-0.4-0.7-0.9-0.6c-6.1,0.6-11.6,2.4-15.9,7.1c-3.1,3.4-4.9,7.4-5.8,11.8c-0.1,0.6,0,1,0.5,1.3c1.1,0.8,1.5,2,1,3.2
		c-0.5,1.2-1.5,1.7-2.7,1.6c-1.2-0.1-2.2-1-2.4-2.2c-0.2-1.2,0.3-2.4,1.7-2.9c0.9-0.3,0.8-1,0.9-1.6c1.2-5.9,3.9-10.9,8.7-14.6
		c2.1-1.6,4.5-2.7,6.9-3.8c-4.1,0-8.2,0-12.4,0c-0.6,0-0.8,0.2-0.7,0.8c0.1,0.8-0.4,1-1.1,1c-4.7-0.1-3.7,0.8-3.8-3.9
		c0-0.7,0.3-1,1-1c0.8,0,1.6,0,2.4,0c1-0.1,1.7,0.1,1.5,1.4c-0.1,0.9,0.6,0.7,1.1,0.7c4.4,0,8.7,0,13.1,0c1.9,0,3.8,0,5.7,0
		c0.7,0,1.3-0.1,1.1-1c-0.1-0.8,0.3-1,1-1c0.7,0,1.4,0,2.2,0c1.1-0.1,1.9,0,1.7,1.5c-0.1,0.8,0.6,0.5,1,0.5c4.4,0,8.8,0,13.2,0
		c1.9,0,3.8,0,5.7,0c0.7,0,1.1-0.1,1-0.9c-0.1-0.9,0.4-1.2,1.2-1.1c0,0,0.1,0,0.1,0c3.9-0.1,3.9,0,3.6,3.9c-0.1,0.7-0.3,1-1,1
		c-0.9,0-1.8,0-2.7,0c-0.8,0-1.3-0.2-1.3-1.1c0.1-0.7-0.4-0.7-0.8-0.7C223,238.3,218.9,238.3,214.9,238.3z"/>
	<path class="st44" d="M106.4,246.1c-13.8,0-27.5,0-41.3,0c-0.4,0-0.7,0-1.1,0c-0.7,0-1.1-0.4-1.1-1.1c0-0.7,0.4-1.1,1.1-1.1
		c0.3,0,0.6,0,0.9,0c27.7,0,55.3,0,83,0c0.4,0,0.7,0,1.1,0c0.6,0.1,1,0.4,1,1c0,0.6-0.4,1-1,1.1c-0.4,0-0.8,0-1.2,0
		C134.1,246.1,120.2,246.1,106.4,246.1z"/>
	<path class="st45" d="M106.4,250.6c13.8,0,27.6,0,41.4,0c0.4,0,0.8,0,1.2,0c0.6,0,0.9,0.4,1,0.9c0.1,0.6-0.3,1-0.9,1.2
		c-0.3,0.1-0.7,0-1.1,0c-27.7,0-55.5,0-83.2,0c-0.4,0-0.8,0-1.2-0.1c-0.5-0.2-0.8-0.6-0.7-1.1c0.1-0.5,0.4-0.8,0.9-0.9
		c0.4,0,0.8,0,1.2,0C78.8,250.6,92.6,250.6,106.4,250.6z"/>
	<path class="st46" d="M97.6,259.6c-10.9,0-21.8,0-32.6,0c-0.4,0-0.7,0-1.1,0c-0.6-0.1-0.9-0.5-0.9-1c0-0.6,0.3-1,0.8-1.1
		c0.4-0.1,0.8,0,1.2,0c21.7,0,43.4,0,65.1,0c0.4,0,0.7,0,1.1,0c0.6,0.1,0.9,0.5,0.9,1c0,0.6-0.3,1-1,1.1c-0.4,0-0.7,0-1.1,0
		C119.2,259.6,108.4,259.6,97.6,259.6z"/>
	<path class="st5" d="M121.4,182.7c0,3.2,0,3.2-3.1,3.4c-0.6,0.1-1,0.2-1.2,0.8c-0.2,0.6-0.4,1,0.1,1.7c2,2.5,2,2.5-0.3,4.7
		c-2.1,2-2.1,2.1-4.3,0.2c-0.7-0.6-1.2-0.6-2-0.3c-0.9,0.3-0.7,0.9-0.8,1.5c-0.2,2.9-0.2,2.9-3,2.9c-3.4,0-3.4,0-3.7-3.3
		c-0.1-0.6-0.2-0.9-0.8-1c-0.5-0.1-1-0.7-1.6,0c-0.1,0.1-0.1,0.1-0.2,0.2c-2.4,2-2.4,2-4.6-0.2c-2.2-2.1-2.2-2.1-0.2-4.5
		c0.3-0.4,0.8-0.7,0.4-1.4c-0.4-0.6-0.5-1.4-1.4-1.2c0,0-0.1,0-0.1,0c-2.9-0.4-2.9-0.4-2.9-3.5c0-3,0-3,2.9-3.2
		c0.7-0.1,1.2-0.2,1.5-1c0.3-0.8,0.1-1.2-0.3-1.8c-1.9-2.3-1.9-2.3,0.2-4.3c2.2-2.2,2.3-2.3,4.7-0.3c0.6,0.5,1.1,0.4,1.7,0.1
		c0.6-0.2,0.8-0.5,0.8-1.2c0.3-3.2,0.3-3.2,3.5-3.2c3,0,3,0,3.2,3.1c0,0.4-0.3,1.1,0.6,1.3c0.7,0.2,1.3,0.6,2-0.1
		c2.3-2.1,2.3-2,4.5,0.2c2.2,2.2,2.2,2.2,0.3,4.5c-0.4,0.5-0.6,0.9-0.3,1.6c0.3,0.8,0.8,1,1.5,1
		C121.4,179.6,121.4,179.6,121.4,182.7z"/>
	<path class="st47" d="M275.7,287.3c-6.6,0-13.1,0-19.7,0c-0.4,0-0.9,0-1.3-0.1c-0.6-0.1-0.8-0.5-0.8-1.1c0-0.5,0.3-0.9,0.8-0.9
		c0.4-0.1,0.8-0.1,1.2-0.1c13.3,0,26.6,0,39.9,0c0.4,0,0.8,0,1.2,0.1c0.5,0.1,0.8,0.5,0.8,1c0,0.5-0.2,0.9-0.7,1
		c-0.4,0.1-0.9,0.1-1.3,0.1C289,287.3,282.4,287.3,275.7,287.3z"/>
	<path class="st48" d="M275.7,294c-6.6,0-13.2,0-19.8,0c-0.4,0-0.8,0-1.2-0.1c-0.5-0.1-0.8-0.5-0.8-1c0-0.5,0.2-0.9,0.7-1
		c0.4-0.1,0.9-0.1,1.3-0.1c13.3,0,26.6,0,39.9,0c0.4,0,0.7,0,1.1,0c0.6,0.1,1,0.5,0.9,1.1c0,0.6-0.4,0.9-0.9,1c-0.4,0-0.8,0-1.2,0
		C289,294,282.3,294,275.7,294z"/>
	<path class="st49" d="M229.8,291.2c3.5,0,7.1,0,10.6,0c2.6,0,4.6,1,5.7,3.4c1.1,2.3,0.7,4.5-1,6.5c-0.2,0.2-0.4,0.4-0.4,0.7
		c-0.2,1-0.2,1-1.2,0.7c-0.1,0-0.3,0-0.5,0.1c-1.2,0.6-2.5,0.5-3.8,0.5c-6.7,0-13.4,0-20.1,0c-4.4,0-7.3-3.9-6-7.9
		c0.8-2.4,3-4,5.8-4C222.6,291.1,226.2,291.2,229.8,291.2z"/>
	<path class="st49" d="M188.8,291.2c3.5,0,7,0,10.5,0c3.8,0,6.4,2.5,6.4,5.9c0,3.5-2.7,5.9-6.5,5.9c-7.1,0-14.2,0-21.3,0
		c-3,0-5.3-1.9-6-4.7c-0.6-2.5,0.7-5.3,3.1-6.6c1-0.5,2.1-0.6,3.1-0.6C181.8,291.2,185.3,291.2,188.8,291.2z"/>
	<path class="st50" d="M268.4,133.1c2.4,0,4.8,0,7.1,0c0.9,0,1.3,0.3,1.3,1.3c0,3.2,0,6.5,0,9.7c0,0.5-0.1,0.9-0.5,1.2
		c-0.1,0.1-0.1,0.1-0.2,0.2c-1.5,1.5-2.8,3.5-4.6,4.3c-1.8,0.7-4.1,0.2-6.1,0.2c-1.4,0-2.9,0-4.3,0c-0.8,0-1.2-0.2-1.2-1.1
		c0-4.9,0-9.8,0-14.7c0-0.8,0.3-1.1,1.1-1.1C263.6,133.1,266,133.1,268.4,133.1z"/>
	<path class="st43" d="M93.1,225.7c0-2.4,0-4.8,0-7.2c0-0.9,0.3-1.2,1.2-1.2c4.8,0,9.6,0,14.4,0c0.9,0,1.2,0.2,1.2,1.1
		c0,3.3,0,6.6,0,9.9c0,0.5-0.1,1-0.6,1.3c-0.1,0.1-0.1,0.1-0.2,0.2c-1.4,1.4-2.7,3.4-4.4,4.1c-1.7,0.7-3.9,0.2-5.9,0.2
		c-1.4,0-2.9-0.1-4.3,0c-1.1,0.1-1.5-0.3-1.5-1.4C93.1,230.4,93.1,228.1,93.1,225.7z"/>
	<path class="st48" d="M266.9,298.7c3.7,0,7.5,0,11.2,0c0.8,0,1.7,0,1.7,1c0,1.1-0.9,1.1-1.8,1.1c-7.5,0-14.9,0-22.4,0
		c-0.2,0-0.4,0-0.5,0c-0.7,0-1.2-0.3-1.2-1.1c0-0.8,0.6-1,1.3-1c2.8,0,5.7,0,8.5,0C264.7,298.7,265.8,298.7,266.9,298.7z"/>
	<path class="st51" d="M313.9,135.2c1.7,0,3.4,0,5.1,0c0.7,0,1.4,0.2,1.4,1c0,1-0.7,1.1-1.5,1.1c-3.5,0-6.9,0-10.4,0
		c-0.7,0-1.4-0.1-1.4-1c0-1,0.7-1.2,1.5-1.2C310.4,135.2,312.1,135.2,313.9,135.2z"/>
	<path class="st52" d="M313.9,132.9c-1.8,0-3.5,0-5.3,0c-0.8,0-1.5-0.1-1.5-1.1c0-0.9,0.7-1,1.5-1c3.5,0,6.9,0,10.4,0
		c0.8,0,1.5,0.2,1.5,1.1c0,0.9-0.7,1-1.5,1C317.3,132.9,315.6,132.9,313.9,132.9z"/>
	<path class="st51" d="M313.7,128.3c-1.7,0-3.4,0-5.1,0c-0.8,0-1.5-0.2-1.5-1.2c0-0.9,0.7-1,1.4-1c3.5,0,6.9,0,10.4,0
		c0.8,0,1.5,0.1,1.5,1.1c0,0.9-0.7,1-1.4,1C317.2,128.3,315.5,128.3,313.7,128.3z"/>
	<path class="st53" d="M244.3,277.1c-1,0-0.3-1.1-1-1.2c-0.5,0-1.3,0.2-1.4-0.5c-0.1-0.8-0.1-1.4-1.1-1.7c-0.2-0.1-0.2-0.6,0.1-0.7
		c1-0.1,1-0.7,0.9-1.4c0-0.4,0.3-0.6,0.7-0.6c0.5,0,1-0.1,1.4-0.2c2-0.4,3.4,1.3,2.7,3.2c-0.1,0.3-0.1,0.7-0.1,1.1
		c0,0.3-0.1,0.7-0.4,0.7c-0.8,0.1-1.6,0.1-1.6,1.2C244.6,277.1,244.4,277.1,244.3,277.1z"/>
	<path class="st54" d="M128.6,132.1c0-2.8-0.3-2.3,2.3-2.3c2.7,0,2.4-0.5,2.4,2.4c0,2.6,0.4,2.4-2.3,2.4
		C128.2,134.5,128.7,134.7,128.6,132.1z"/>
	<path class="st54" d="M228.2,129.7c2.7,0,2.4-0.4,2.4,2.4c0,2.6,0.3,2.3-2.4,2.3c-2.8,0-2.3,0.2-2.4-2.3c0,0,0-0.1,0-0.1
		C225.8,129.3,225.5,129.8,228.2,129.7z"/>
	<path class="st54" d="M131.1,194.5c2.5,0,2.3-0.4,2.3,2.3c0,2.8,0.4,2.5-2.5,2.5c-2.7,0-2.2,0.2-2.3-2.3
		C128.6,194.5,128.6,194.5,131.1,194.5z"/>
	<path class="st55" d="M179.8,199c-0.8,0-1.5-0.1-1.7-0.7c-0.3-0.9-1.6-0.7-1.6-1.5c0-0.7,1.1-0.7,1.6-1.4c0.7-1,2.2-0.9,3.1,0
		c0.1,0.1,0.3,0.3,0.3,0.4c0.1,0.7,1.9,0.6,1.1,1.1C181.7,197.7,181.1,199.1,179.8,199z"/>
	<path class="st56" d="M230.3,164.5c0,0.8-0.4,1.3-1,1.8c-0.6,0.4-1.7,0.4-2.2,0c-1.3-1.1-1.4-2.5,0-3.6c0.6-0.5,1.7-0.5,2.3,0
		C230,163.1,230.3,163.7,230.3,164.5z"/>
	<path class="st55" d="M179.7,134.2c-0.7,0-1.5-0.1-1.6-0.7c-0.3-0.9-1.7-0.7-1.5-1.5c0.1-0.6,1.1-0.7,1.6-1.4
		c0.6-0.9,2.1-0.9,2.9-0.1c0.5,0.4,0.7,1.1,1.5,1.2c0.3,0,0.3,0.6,0.1,0.6c-1.1,0.2-1.4,1.6-2.5,1.8
		C180,134.2,179.8,134.2,179.7,134.2z"/>
	<path class="st56" d="M133.1,164.5c0,0.8-0.4,1.3-1,1.8c-0.6,0.4-1.7,0.4-2.2,0c-1.3-1.1-1.3-2.5,0-3.6c0.6-0.5,1.6-0.5,2.2,0
		C132.9,163.3,133.2,163.7,133.1,164.5z"/>
	<path class="st57" d="M220.1,272.9c0.5,0.1,1.2-0.1,1.2,0.6c0,0.6-0.6,0.5-1.1,0.5c-0.4,0-1,0.1-1-0.6
		C219.1,272.9,219.7,273,220.1,272.9z"/>
	<path class="st58" d="M224.5,272.9c0.4,0,1,0,1,0.6c0,0.6-0.6,0.6-1,0.5c-0.4,0-1,0.1-1-0.5C223.5,272.9,224.1,273,224.5,272.9z"/>
	<path class="st59" d="M228.9,274.1c-0.5-0.1-1,0.1-1.1-0.5c-0.1-0.7,0.5-0.6,0.9-0.6c0.5,0,1.1-0.1,1.2,0.6
		C229.9,274.1,229.3,274,228.9,274.1z"/>
	<path class="st60" d="M233.1,272.9c0.5,0,1.1,0,1,0.5c0,0.7-0.7,0.6-1.2,0.6c-0.4,0-0.9,0-0.9-0.5
		C232.1,272.7,232.8,273.1,233.1,272.9z"/>
	<path class="st61" d="M139.5,132.6c-0.4-0.1-1,0.1-1-0.6c0-0.6,0.6-0.6,1-0.6c0.4,0,1,0,1.1,0.5
		C140.5,132.6,139.9,132.6,139.5,132.6z"/>
	<path class="st62" d="M254.7,274.1c-0.4-0.1-1,0.1-1.1-0.5c-0.1-0.7,0.5-0.6,0.9-0.6c0.4,0,1-0.1,1.1,0.5
		C255.8,274.1,255.2,274,254.7,274.1z"/>
	<path class="st61" d="M147.8,132.6c-0.4,0-1-0.1-1-0.6c0-0.7,0.7-0.6,1.2-0.6c0.4,0,0.9,0,0.9,0.6
		C148.9,132.8,148.3,132.6,147.8,132.6z"/>
	<path class="st61" d="M152.2,132.6c-0.4-0.1-1,0.1-1-0.5c0-0.7,0.6-0.6,1-0.6c0.4,0,1-0.1,1.1,0.5
		C153.2,132.6,152.6,132.6,152.2,132.6z"/>
	<path class="st63" d="M259,274.1c-0.4-0.1-1,0.1-1-0.6c0-0.6,0.6-0.6,1-0.6c0.5,0,1,0,1,0.6C260,274.1,259.4,274.1,259,274.1z"/>
	<path class="st62" d="M160.7,132.6c-0.5,0-1.1,0-1.2-0.5c0-0.6,0.5-0.6,1-0.6c0.4,0,1-0.1,1.1,0.5
		C161.7,132.7,161,132.5,160.7,132.6z"/>
	<path class="st63" d="M263.3,274.1c-0.4-0.1-1,0-1-0.6c0.1-0.6,0.6-0.5,1.1-0.5c0.4,0,1,0,1,0.6C264.3,274.1,263.7,274,263.3,274.1
		z"/>
	<path class="st64" d="M169.1,132.6c-0.5,0-1,0-1-0.6c0-0.6,0.6-0.6,1-0.6c0.4,0,1-0.1,1,0.6C170.1,132.7,169.5,132.6,169.1,132.6z"
		/>
	<path class="st65" d="M173.3,132.6c-0.4,0-1,0-1.1-0.6c0-0.6,0.6-0.6,1-0.6c0.4,0,1-0.1,1.1,0.5
		C174.3,132.7,173.7,132.6,173.3,132.6z"/>
	<path class="st62" d="M186,131.5c0.4,0.1,1,0,0.9,0.5c0,0.7-0.7,0.6-1.1,0.6c-0.4,0-0.9,0-0.9-0.5
		C184.9,131.4,185.6,131.5,186,131.5z"/>
	<path class="st62" d="M190.1,132.6c-0.4-0.1-1,0.1-1-0.6c0-0.7,0.6-0.5,1-0.6c0.4,0,1,0,1,0.6C191.2,132.7,190.6,132.6,190.1,132.6
		z"/>
	<path class="st66" d="M267.6,274.1c-0.4,0-1,0.1-1-0.6c0-0.6,0.6-0.6,1-0.6c0.4,0,1,0,1,0.6C268.6,274.1,268.1,274.1,267.6,274.1z"
		/>
	<path class="st67" d="M198.7,132.6c-0.4-0.1-1,0.1-1.1-0.5c-0.1-0.6,0.5-0.6,1-0.6c0.4,0,1-0.1,1.1,0.5
		C199.7,132.6,199.1,132.6,198.7,132.6z"/>
	<path class="st68" d="M271.9,272.9c0.5,0,1.1,0,1,0.6c-0.1,0.6-0.6,0.5-1.1,0.5c-0.4,0-1,0-1-0.6C271,272.8,271.6,273,271.9,272.9z
		"/>
	<path class="st69" d="M211.3,132.6c-0.4-0.1-1,0.1-1-0.5c0-0.6,0.6-0.6,1-0.6c0.4,0,1-0.1,1,0.5
		C212.3,132.6,211.7,132.6,211.3,132.6z"/>
	<path class="st68" d="M284.8,274.1c-0.5,0-1,0-1-0.6c0-0.6,0.6-0.5,1-0.5c0.4,0,1,0,1,0.6C285.8,274.1,285.2,274,284.8,274.1z"/>
	<path class="st70" d="M289.2,274.1c-0.5,0-1.1,0-1.1-0.6c0-0.6,0.6-0.6,1-0.6c0.4,0,1-0.1,1,0.6C290.2,274.1,289.6,274,289.2,274.1
		z"/>
	<path class="st63" d="M293.4,272.9c0.4,0.1,1-0.1,1.1,0.5c0.1,0.7-0.5,0.6-0.9,0.6c-0.4,0-1,0.1-1.1-0.5
		C292.4,272.9,293,272.9,293.4,272.9z"/>
	<path class="st61" d="M160.5,197.4c-0.4-0.1-1,0-1-0.6c0.1-0.6,0.7-0.5,1.1-0.5c0.4,0,1,0,1,0.6C161.6,197.5,161,197.4,160.5,197.4
		z"/>
	<path class="st66" d="M152.1,197.4c-0.4-0.1-1,0.1-1-0.6c0-0.7,0.6-0.6,1-0.6c0.4,0,1,0,1.1,0.5
		C153.2,197.4,152.6,197.4,152.1,197.4z"/>
	<path class="st71" d="M147.9,196.2c0.4,0.1,1.1-0.1,1.1,0.6c0,0.6-0.6,0.5-1,0.5c-0.4,0-1,0-1-0.6
		C146.9,196.3,147.4,196.3,147.9,196.2z"/>
	<path class="st62" d="M139.5,196.3c0.5,0,1.1,0,1.1,0.6c0,0.6-0.6,0.6-1,0.6c-0.4,0-1,0.1-1-0.6
		C138.4,196.2,139.1,196.3,139.5,196.3z"/>
	<path class="st63" d="M250.3,274.1c-0.4-0.1-0.9,0.1-1-0.5c0-0.7,0.5-0.6,0.9-0.6c0.5,0,1.1-0.1,1.1,0.6
		C251.4,274.1,250.8,274.1,250.3,274.1z"/>
	<path class="st64" d="M202.8,132.6c-0.4-0.1-1,0-1-0.6c0.1-0.6,0.6-0.5,1.1-0.5c0.4,0,1,0,1,0.6
		C203.8,132.7,203.2,132.6,202.8,132.6z"/>
	<path class="st72" d="M211.3,197.4c-0.4-0.1-1,0.1-1-0.6c0-0.6,0.6-0.5,1-0.6c0.4,0,1,0,1,0.5C212.3,197.4,211.7,197.4,211.3,197.4
		z"/>
	<path class="st64" d="M202.8,197.4c-0.4,0-1,0.1-1-0.6c0-0.6,0.6-0.6,1-0.6c0.4,0,1,0,1,0.6C203.8,197.4,203.3,197.4,202.8,197.4z"
		/>
	<path class="st71" d="M198.6,196.2c0.4,0.1,1,0,1,0.6c0,0.7-0.7,0.6-1.2,0.6c-0.4,0-0.9,0-0.9-0.5
		C197.6,196.2,198.2,196.3,198.6,196.2z"/>
	<path class="st62" d="M190.1,197.4c-0.4-0.1-1,0.1-1-0.6c0-0.7,0.6-0.5,1-0.6c0.4,0,1,0,1,0.6C191.2,197.4,190.6,197.4,190.1,197.4
		z"/>
	<path class="st67" d="M186,197.4c-0.4-0.1-1,0.1-1.1-0.5c-0.1-0.6,0.5-0.6,1-0.6c0.4,0,1-0.1,1.1,0.5
		C187,197.4,186.4,197.3,186,197.4z"/>
	<path class="st60" d="M173.3,196.3c0.4,0.1,1,0,1,0.6c0,0.6-0.6,0.5-1.1,0.5c-0.4,0-1,0-1-0.6C172.3,196.2,172.9,196.3,173.3,196.3
		z"/>
	<path class="st64" d="M169.2,197.4c-0.5,0-1.1,0.1-1.1-0.6c0-0.6,0.5-0.6,1-0.6c0.4,0,1-0.1,1,0.5
		C170.1,197.5,169.5,197.3,169.2,197.4z"/>
	<path class="st73" d="M52.1,274.1c-0.4,0-1,0-1.1-0.5c0-0.7,0.6-0.6,1.1-0.6c0.4,0,1,0,1,0.6C53.1,274.1,52.5,274,52.1,274.1z"/>
	<path class="st73" d="M56.4,274.1c-0.4-0.1-1,0.1-1.1-0.5c0-0.7,0.6-0.6,1.1-0.6c0.4,0,1,0,1,0.6C57.4,274.1,56.8,274,56.4,274.1z"
		/>
	<path class="st74" d="M60.8,274.1c-0.5-0.1-1.1,0-1.1-0.6c0-0.6,0.6-0.5,1-0.5c0.4,0,1-0.1,1,0.6C61.7,274.1,61.1,274,60.8,274.1z"
		/>
	<path class="st75" d="M65,272.9c0.4,0.1,1-0.1,1.1,0.5c0.1,0.7-0.6,0.6-1.1,0.6c-0.4,0-1,0-1-0.6C64,272.9,64.5,273,65,272.9z"/>
	<path class="st74" d="M69.4,274.1c-0.4-0.1-1,0.1-1.1-0.5c0-0.6,0.6-0.6,1-0.6c0.4,0,1-0.1,1.1,0.5C70.4,274.1,69.8,274,69.4,274.1
		z"/>
	<path class="st73" d="M73.6,274.1c-0.4-0.1-1,0.1-1-0.5c0-0.6,0.5-0.6,1-0.6c0.5,0,1.1-0.1,1.1,0.6C74.7,274.1,74.1,274,73.6,274.1
		z"/>
	<path class="st74" d="M77.9,274c-0.4-0.1-1,0.1-1-0.6c0-0.6,0.6-0.5,1-0.5c0.4,0,1,0,1,0.6C79,274.1,78.4,274,77.9,274z"/>
	<path class="st76" d="M82.3,272.9c0.5,0.1,1.1,0,1,0.7c-0.1,0.6-0.7,0.5-1.2,0.5c-0.4,0-0.9,0-0.8-0.6
		C81.3,272.7,82,273,82.3,272.9z"/>
	<path class="st77" d="M86.6,274.1c-0.4-0.1-1.1,0.1-1.1-0.6c0-0.6,0.5-0.5,0.9-0.5c0.5,0,1.1-0.1,1.2,0.5
		C87.7,274.1,87.1,274,86.6,274.1z"/>
	<path class="st65" d="M95.2,274.1c-0.4-0.1-1,0.1-1-0.5c-0.1-0.7,0.6-0.6,1-0.6c0.4,0,1,0,1,0.6C96.2,274.1,95.7,274,95.2,274.1z"
		/>
	<path class="st62" d="M108.2,274.1c-0.4-0.1-1,0.1-1.1-0.5c-0.1-0.7,0.5-0.6,0.9-0.6c0.4,0,1-0.1,1.1,0.5
		C109.2,274.1,108.6,274,108.2,274.1z"/>
	<path class="st62" d="M112.4,274.1c-0.4-0.1-1,0.1-1-0.6c0-0.6,0.6-0.6,1-0.6c0.5,0,1,0,1,0.6C113.5,274.1,112.9,274.1,112.4,274.1
		z"/>
	<path class="st63" d="M116.8,274.1c-0.4-0.1-1,0.1-1.1-0.5c-0.1-0.7,0.5-0.6,0.9-0.6c0.4,0,1-0.1,1.1,0.5
		C117.8,274.1,117.3,274,116.8,274.1z"/>
	<path class="st63" d="M121,274.1c-0.4-0.1-1,0.1-1-0.6c0-0.6,0.6-0.5,1-0.5c0.4,0,1,0,1,0.6C122.1,274.1,121.5,274,121,274.1z"/>
	<path class="st65" d="M125.5,274.1c-0.5-0.1-1,0.1-1.1-0.5c-0.1-0.7,0.5-0.6,0.9-0.6c0.4,0,1-0.1,1.1,0.5
		C126.4,274.1,125.9,274,125.5,274.1z"/>
	<path class="st68" d="M129.7,274.1c-0.4,0-1,0.1-1-0.6c0-0.6,0.6-0.6,1-0.6c0.4,0,1-0.1,1,0.6C130.7,274.1,130.1,274,129.7,274.1z"
		/>
	<path class="st68" d="M142.5,272.9c0.4,0,1-0.1,1.1,0.5c0.1,0.7-0.5,0.6-0.9,0.6c-0.4,0-1,0.1-1.1-0.5
		C141.5,272.9,142.1,272.9,142.5,272.9z"/>
	<path class="st65" d="M146.9,274.1c-0.5,0-1.1,0-1.1-0.6c0-0.6,0.6-0.6,1-0.6c0.4,0,1-0.1,1,0.6C147.9,274.1,147.3,274,146.9,274.1
		z"/>
	<path class="st63" d="M151.3,274.1c-0.6,0-1.1,0-1.1-0.6c0-0.6,0.6-0.6,1-0.6c0.4,0,1-0.1,1,0.6C152.2,274.1,151.6,274,151.3,274.1
		z"/>
	<path class="st63" d="M155.5,274.1c-0.5,0-1,0-1-0.6c0.1-0.6,0.6-0.5,1.1-0.5c0.4,0,1,0,0.9,0.6C156.5,274.2,155.9,274,155.5,274.1
		z"/>
	<path class="st62" d="M159.9,274.1c-0.5,0-1.1,0-1.1-0.5c0-0.6,0.5-0.6,1-0.6c0.4,0,1-0.1,1.1,0.5
		C160.9,274.1,160.3,274,159.9,274.1z"/>
	<path class="st63" d="M164.2,274.1c-0.5,0-1.1,0-1.1-0.5c0-0.7,0.6-0.6,1.1-0.6c0.4,0,1-0.1,1,0.6
		C165.1,274.2,164.6,274,164.2,274.1z"/>
	<path class="st65" d="M181.4,272.9c0.4,0.1,1-0.1,1,0.6c0,0.6-0.6,0.6-1,0.6c-0.5,0-1.1,0.1-1.1-0.6
		C180.4,272.9,181,272.9,181.4,272.9z"/>
	<path class="st65" d="M185.7,274.1c-0.5,0-1.1,0-1-0.6c0-0.7,0.7-0.6,1.1-0.6c0.4,0,1,0,0.9,0.6C186.7,274.2,186.1,274,185.7,274.1
		z"/>
	<path class="st73" d="M190,272.9c0.4,0.1,1-0.1,1,0.5c0,0.6-0.5,0.6-1,0.6c-0.5,0-1.1,0.1-1.1-0.6C189,272.9,189.6,273,190,272.9z"
		/>
	<path class="st73" d="M194.3,272.9c0.4,0.1,1.1-0.1,1.1,0.6c0,0.6-0.6,0.5-1,0.5c-0.4,0-1,0-1-0.6
		C193.3,272.9,193.8,273,194.3,272.9z"/>
	<path class="st74" d="M198.6,274.1c-0.4-0.1-1,0-1-0.6c0-0.6,0.6-0.5,1-0.5c0.4,0,1-0.1,1,0.6C199.7,274.1,199,274,198.6,274.1z"/>
	<path class="st74" d="M202.9,274.1c-0.4-0.1-1,0-1-0.6c0-0.6,0.6-0.5,1.1-0.5c0.4,0,1-0.1,1,0.6C203.9,274.1,203.3,274,202.9,274.1
		z"/>
	<path class="st74" d="M207.3,274.1c-0.5-0.1-1.1,0-1-0.6c0.1-0.6,0.7-0.5,1.1-0.5c0.4,0,1-0.1,1,0.6
		C208.2,274.1,207.6,274,207.3,274.1z"/>
	<path class="st74" d="M211.5,274.1c-0.4-0.1-1,0-1-0.6c0-0.6,0.6-0.5,1.1-0.5c0.4,0,1-0.1,1,0.6C212.6,274.1,212,274,211.5,274.1z"
		/>
	<path class="st74" d="M215.8,274.1c-0.4-0.1-1,0-1-0.6c0-0.6,0.6-0.5,1.1-0.5c0.4,0,1-0.1,1,0.6C216.9,274.1,216.3,274,215.8,274.1
		z"/>
	<path class="st78" d="M228.8,175.2c-0.1,0.5,0.1,1.1-0.5,1.1c-0.6,0-0.6-0.5-0.6-1c0-0.5,0-1,0.6-1.1
		C228.8,174.2,228.7,174.8,228.8,175.2z"/>
	<path class="st78" d="M228.7,192.5c-0.1,0.4,0.1,1-0.5,1c-0.6,0.1-0.7-0.5-0.7-0.9c0-0.5,0-1.1,0.7-1.1
		C228.8,191.6,228.7,192.1,228.7,192.5z"/>
	<path class="st78" d="M131.6,140.7c-0.1,0.4,0.1,1-0.5,1.1c-0.6,0.1-0.6-0.5-0.7-0.9c0-0.4,0-1,0.5-1.1
		C131.6,139.7,131.5,140.3,131.6,140.7z"/>
	<path class="st78" d="M228.7,140.7c-0.1,0.5,0.1,1.1-0.6,1.1c-0.6,0-0.6-0.6-0.6-1c0-0.5,0.1-1,0.6-1
		C228.8,139.7,228.7,140.3,228.7,140.7z"/>
	<path class="st65" d="M143.7,132.6c-0.4-0.1-1,0-0.9-0.6c0-0.6,0.6-0.5,1-0.5c0.4,0,1,0,1,0.6C144.7,132.7,144.1,132.6,143.7,132.6
		z"/>
	<path class="st65" d="M156.4,131.5c0.4,0,1,0,1,0.6c0,0.6-0.6,0.6-1,0.6c-0.4,0-1,0-1-0.6C155.4,131.4,155.9,131.5,156.4,131.5z"/>
	<path class="st78" d="M228.7,145.2c0,0.4,0,0.9-0.5,0.9c-0.7,0-0.6-0.6-0.6-1.1c0-0.4,0.1-0.9,0.6-0.9
		C228.9,144.1,228.7,144.7,228.7,145.2z"/>
	<path class="st65" d="M276.2,274.1c-0.5-0.1-1.1,0-1-0.6c0-0.6,0.6-0.5,1.1-0.5c0.4,0,1,0,1,0.6C277.2,274.2,276.6,274,276.2,274.1
		z"/>
	<path class="st65" d="M143.7,197.4c-0.4,0-1,0-1-0.6c0-0.6,0.6-0.6,1-0.6c0.4,0,1,0,1,0.6C144.7,197.4,144.1,197.4,143.7,197.4z"/>
	<path class="st63" d="M215.5,131.5c0.4,0,1-0.1,1.1,0.5c0,0.6-0.5,0.6-1,0.6c-0.4,0-1,0.1-1-0.5C214.5,131.4,215,131.5,215.5,131.5
		z"/>
	<path class="st65" d="M156.4,196.3c0.4,0,1-0.1,1,0.6c0,0.6-0.6,0.6-1,0.6c-0.4,0-1,0-1-0.6C155.4,196.2,155.9,196.3,156.4,196.3z"
		/>
	<path class="st78" d="M228.7,188.3c-0.1,0.4,0.1,1-0.6,0.9c-0.6,0-0.6-0.6-0.6-1c0-0.4,0.1-1,0.6-1
		C228.8,187.3,228.7,187.9,228.7,188.3z"/>
	<path class="st78" d="M228.7,179.7c-0.1,0.4,0.1,1-0.6,1c-0.6,0-0.6-0.6-0.6-1c0-0.5,0.1-1,0.6-1
		C228.8,178.6,228.7,179.2,228.7,179.7z"/>
	<path class="st78" d="M130.4,136.4c0.1-0.4,0.1-1,0.7-0.9c0.6,0.1,0.5,0.7,0.5,1.1c0,0.4,0.1,1-0.6,0.9
		C130.4,137.4,130.4,136.8,130.4,136.4z"/>
	<path class="st78" d="M228.7,136.5c-0.1,0.4,0.1,1-0.6,0.9c-0.6-0.1-0.6-0.6-0.5-1c0-0.4,0.1-1,0.6-1
		C228.8,135.5,228.7,136.1,228.7,136.5z"/>
	<path class="st78" d="M130.4,188.3c0-0.5,0-1.1,0.7-1.1c0.5,0,0.5,0.5,0.5,0.9c0,0.4,0.1,1-0.5,1.1
		C130.5,189.3,130.5,188.8,130.4,188.3z"/>
	<path class="st65" d="M280.6,274.1c-0.5-0.1-1.1,0.1-1.1-0.5c0-0.6,0.5-0.6,1-0.6c0.4,0,1-0.1,1,0.5
		C281.6,274.1,281,274,280.6,274.1z"/>
	<path class="st78" d="M130.4,184c0-0.5,0-1.1,0.7-1.1c0.5,0,0.5,0.5,0.5,0.9c0,0.4,0.1,1-0.5,1.1C130.5,185,130.5,184.5,130.4,184z
		"/>
	<path class="st65" d="M138.3,274.1c-0.4,0-1,0-1-0.6c0-0.6,0.6-0.6,1-0.6c0.4,0,1-0.1,1,0.6C139.3,274.1,138.7,274,138.3,274.1z"/>
	<path class="st65" d="M134,272.9c0.4,0,1,0,1,0.6c0,0.6-0.6,0.5-1.1,0.5c-0.4,0-1,0-1-0.6C133,272.8,133.6,273,134,272.9z"/>
	<path class="st79" d="M103.8,274.1c-0.4-0.1-1,0.1-1-0.5c0-0.8,0.6-0.6,1.1-0.6c0.4,0,1,0,1,0.6C104.8,274.1,104.3,274,103.8,274.1
		z"/>
	<path class="st78" d="M131.6,179.6c-0.1,0.4,0.1,1-0.5,1c-0.6,0.1-0.7-0.5-0.7-0.9c0-0.5,0-1.1,0.7-1.1
		C131.6,178.6,131.5,179.2,131.6,179.6z"/>
	<path class="st78" d="M227.6,183.9c0.1-0.4,0.1-1,0.7-0.9c0.6,0.1,0.5,0.7,0.5,1.1c0,0.4,0.1,1-0.6,0.9
		C227.5,184.9,227.6,184.3,227.6,183.9z"/>
	<path class="st78" d="M131.6,175.3c0,0.4,0.1,1-0.6,1c-0.6,0-0.6-0.5-0.6-1c0-0.5,0.1-1,0.6-1C131.6,174.3,131.6,174.9,131.6,175.3
		z"/>
	<path class="st78" d="M227.6,171c0-0.5,0-1.1,0.7-1.1c0.5,0,0.5,0.5,0.5,0.9c0,0.4,0.1,1-0.5,1.1
		C227.6,172.1,227.6,171.5,227.6,171z"/>
	<path class="st78" d="M131.6,170.9c-0.1,0.4,0.1,1-0.5,1.1c-0.6,0.1-0.6-0.5-0.7-0.9c0-0.4,0-1,0.5-1.1
		C131.6,169.9,131.5,170.5,131.6,170.9z"/>
	<path class="st65" d="M215.5,197.4c-0.4,0-1,0-1-0.6c0-0.6,0.6-0.6,1-0.6c0.4,0,1-0.1,1,0.6C216.5,197.4,215.9,197.4,215.5,197.4z"
		/>
	<path class="st78" d="M228.7,149.3c-0.1,0.4,0.1,1-0.5,1.1c-0.6,0.1-0.6-0.5-0.7-0.9c0-0.4,0-1,0.5-1.1
		C228.8,148.3,228.7,148.9,228.7,149.3z"/>
	<path class="st78" d="M130.4,149.4c0-0.5,0-1.1,0.7-1.1c0.5,0,0.5,0.5,0.5,0.9c0,0.4,0.1,1-0.5,1.1
		C130.5,150.5,130.5,149.9,130.4,149.4z"/>
	<path class="st78" d="M131.6,145.1c0,0.4,0.1,1-0.6,1c-0.6,0-0.6-0.5-0.6-1c0-0.5,0.1-1,0.6-1C131.6,144,131.6,144.6,131.6,145.1z"
		/>
	<path class="st78" d="M228.7,158c0,0.4,0.1,1-0.6,1c-0.6,0-0.6-0.6-0.6-1c0-0.5,0.1-1,0.6-1C228.8,157,228.7,157.6,228.7,158z"/>
	<path class="st78" d="M131.6,158.1c0,0.4,0.1,1-0.6,1c-0.6,0-0.6-0.6-0.6-1c0-0.5,0.1-1,0.6-1C131.6,157,131.5,157.6,131.6,158.1z"
		/>
	<path class="st78" d="M227.6,153.8c0-0.5,0-1.1,0.7-1.1c0.5,0,0.5,0.5,0.5,0.9c0,0.4,0.1,1-0.5,1.1
		C227.7,154.8,227.6,154.2,227.6,153.8z"/>
	<path class="st78" d="M131.6,153.8c-0.1,0.4,0.1,1-0.6,1c-0.6,0-0.6-0.6-0.6-1c0-0.5,0.1-1,0.6-1
		C131.6,152.7,131.5,153.3,131.6,153.8z"/>
	<path class="st80" d="M164.8,197.4c-0.4-0.1-1,0.1-1-0.6c0-0.7,0.6-0.6,1-0.6c0.4,0,1,0,1.1,0.5
		C165.9,197.4,165.3,197.4,164.8,197.4z"/>
	<path class="st81" d="M172.9,274c-0.5,0-1,0.1-1.1-0.5c-0.1-0.6,0.5-0.6,1-0.6c0.4,0,1-0.1,1.1,0.5
		C173.9,274.1,173.2,274,172.9,274z"/>
	<path class="st64" d="M207.1,197.4c-0.5,0-1.1,0-1.1-0.6c0-0.6,0.6-0.6,1-0.6c0.4,0,1-0.1,1,0.6
		C208.1,197.5,207.5,197.3,207.1,197.4z"/>
	<path class="st60" d="M177.1,274c-0.5,0-1.1,0-1-0.6c0-0.6,0.6-0.5,1.1-0.5c0.4,0,1-0.1,1,0.6C178.1,274.2,177.5,274,177.1,274z"/>
	<path class="st79" d="M168.5,272.9c0.4,0.1,1-0.1,1,0.6c0,0.7-0.6,0.6-1.1,0.6c-0.4,0-1,0-1-0.6C167.5,272.9,168,272.9,168.5,272.9
		z"/>
	<path class="st60" d="M237.4,274c-0.4-0.1-1,0.1-1-0.6c0-0.7,0.6-0.5,1-0.5c0.4,0,1,0,1,0.5C238.5,274.1,237.9,274,237.4,274z"/>
	<path class="st82" d="M224,132.6c-0.4-0.1-1,0.1-1.1-0.6c0-0.6,0.6-0.5,1-0.6c0.4,0,1,0,1,0.5C225,132.6,224.4,132.6,224,132.6z"/>
	<path class="st83" d="M219.7,196.3c0.4,0.1,1-0.1,1.1,0.5c0.1,0.7-0.5,0.6-0.9,0.6c-0.4,0-1,0.1-1.1-0.5
		C218.6,196.3,219.2,196.3,219.7,196.3z"/>
	<path class="st83" d="M224,197.4c-0.4-0.1-1,0.1-1.1-0.5c0-0.6,0.6-0.6,1-0.6c0.4,0,1-0.1,1,0.5C225,197.4,224.4,197.3,224,197.4z"
		/>
	<path class="st84" d="M131.6,192.6c-0.1,0.4,0.1,1-0.5,1c-0.5,0-0.6-0.5-0.6-0.9c0-0.5,0-1.1,0.7-1.1
		C131.6,191.6,131.5,192.2,131.6,192.6z"/>
	<path class="st80" d="M135.3,132.6c-0.5,0-1.1,0-1.1-0.6c0-0.6,0.5-0.6,1-0.6c0.4,0,1-0.1,1.1,0.5
		C136.3,132.7,135.7,132.6,135.3,132.6z"/>
	<path class="st61" d="M194.3,196.3c0.4,0.1,1-0.1,1.1,0.5c0.1,0.7-0.5,0.6-0.9,0.6c-0.4,0-1,0.1-1.1-0.5
		C193.3,196.3,193.9,196.3,194.3,196.3z"/>
	<path class="st61" d="M194.4,132.6c-0.5,0-1.1,0-1.1-0.6c0-0.6,0.6-0.6,1-0.6c0.4,0,1-0.1,1,0.6
		C195.4,132.7,194.8,132.6,194.4,132.6z"/>
	<path class="st80" d="M207.1,132.6c-0.5,0-1.1,0-1.1-0.5c0-0.6,0.5-0.6,1-0.6c0.4,0,1-0.1,1.1,0.5
		C208.1,132.7,207.5,132.6,207.1,132.6z"/>
	<path class="st85" d="M219.7,132.6c-0.4-0.1-1,0-1-0.6c0.1-0.6,0.7-0.5,1.1-0.5c0.4,0,1-0.1,0.9,0.6
		C220.7,132.7,220.1,132.5,219.7,132.6z"/>
	<path class="st65" d="M99.4,274.1c-0.4-0.1-1,0.1-1-0.6c0-0.7,0.7-0.5,1.1-0.6c0.4,0,0.9,0,0.9,0.5
		C100.5,274.1,99.9,274,99.4,274.1z"/>
	<path class="st60" d="M90.8,274c-0.4-0.1-1,0.1-0.9-0.6c0.1-0.6,0.7-0.5,1.1-0.5c0.4,0,1,0,1,0.6C91.9,274.1,91.3,274,90.8,274z"/>
	<path class="st60" d="M244.8,289.1c0,0.4,0.1,1-0.6,1c-0.7,0-0.5-0.6-0.5-1c0-0.4,0-1,0.6-1C244.9,288.1,244.8,288.7,244.8,289.1z"
		/>
	<path class="st60" d="M243.7,194.1c0-0.4-0.1-0.9,0.5-0.9c0.8,0,0.5,0.7,0.6,1.1c0,0.4,0.1,0.9-0.5,0.9
		C243.5,195.2,243.7,194.6,243.7,194.1z"/>
	<path class="st60" d="M244.8,189.9c0,0.5,0,1-0.5,1c-0.7,0-0.5-0.7-0.6-1.1c0-0.4,0-0.9,0.5-0.9C245,188.9,244.7,189.6,244.8,189.9
		z"/>
	<path class="st60" d="M244.8,310.7c0,0.4,0.1,1-0.6,0.9c-0.6-0.1-0.5-0.6-0.5-1.1c0-0.4,0-1,0.6-1
		C244.9,309.7,244.8,310.3,244.8,310.7z"/>
	<path class="st60" d="M244.8,306.4c0,0.4,0.1,1-0.6,1c-0.7,0-0.5-0.6-0.5-1c0-0.4,0-1,0.6-1C244.9,305.4,244.8,306,244.8,306.4z"/>
	<path class="st60" d="M244.8,185.5c0,0.5,0.1,1.1-0.5,1.1c-0.6,0-0.6-0.6-0.6-1c0-0.4-0.1-1,0.5-1
		C244.9,184.6,244.7,185.2,244.8,185.5z"/>
	<path class="st60" d="M244.8,125.3c0,0.4,0.1,1-0.6,1c-0.7,0-0.5-0.6-0.5-1c0-0.4,0-1,0.6-1C244.9,124.3,244.8,124.9,244.8,125.3z"
		/>
	<path class="st60" d="M244.8,129.6c0,0.4,0.1,1-0.5,1c-0.7,0-0.5-0.6-0.5-1c0-0.4-0.1-1,0.6-1C244.9,128.5,244.8,129.1,244.8,129.6
		z"/>
	<path class="st60" d="M244.8,133.9c0,0.4,0.1,1-0.6,1c-0.7,0-0.5-0.6-0.5-1c0-0.4,0-1,0.6-1C244.9,132.9,244.8,133.5,244.8,133.9z"
		/>
	<path class="st60" d="M244.8,280.5c0,0.4,0.1,1-0.6,0.9c-0.6-0.1-0.5-0.6-0.5-1.1c0-0.5,0-1,0.6-1
		C244.9,279.5,244.8,280.1,244.8,280.5z"/>
	<path class="st60" d="M244.8,284.8c0,0.4,0.1,1-0.6,0.9c-0.6-0.1-0.5-0.6-0.5-1.1c0-0.4,0-1,0.6-1
		C244.9,283.8,244.8,284.4,244.8,284.8z"/>
	<path class="st86" d="M244.8,172.6c-0.1,0.5,0.1,1.1-0.5,1.1c-0.6,0-0.6-0.6-0.6-1c0-0.4-0.1-1,0.5-1
		C244.9,171.6,244.7,172.2,244.8,172.6z"/>
	<path class="st87" d="M244.8,254.5c0,0.4,0.2,1-0.5,1c-0.7,0.1-0.6-0.5-0.6-0.9c0-0.4-0.1-1,0.5-1
		C244.9,253.6,244.8,254.1,244.8,254.5z"/>
	<path class="st87" d="M244.8,237.4c0,0.4,0.1,1-0.6,0.9c-0.6-0.1-0.5-0.6-0.5-1c0-0.4-0.1-1,0.6-0.9
		C244.9,236.4,244.7,237,244.8,237.4z"/>
	<path class="st86" d="M244.8,168.3c0,0.4,0.1,1-0.5,1.1c-0.6,0.1-0.6-0.5-0.6-1c0-0.4-0.1-1,0.5-1.1
		C244.9,167.3,244.7,167.9,244.8,168.3z"/>
	<path class="st87" d="M244.8,250.2c0,0.4,0.2,1-0.5,1c-0.7,0.1-0.6-0.5-0.6-0.9c0-0.4-0.1-1,0.5-1
		C244.9,249.2,244.8,249.8,244.8,250.2z"/>
	<path class="st87" d="M244.8,232.9c0,0.4,0.2,1-0.5,1c-0.7,0.1-0.6-0.5-0.6-0.9c0-0.4-0.1-1,0.5-1
		C244.9,232,244.8,232.5,244.8,232.9z"/>
	<path class="st87" d="M243.7,228.8c0-0.5-0.1-1,0.5-1.1c0.7,0,0.6,0.5,0.6,1c0,0.4,0.2,1-0.5,1
		C243.6,229.7,243.7,229.1,243.7,228.8z"/>
	<path class="st87" d="M244.8,245.9c0,0.4,0.1,1-0.5,1.1c-0.7,0-0.6-0.5-0.6-0.9c0-0.4-0.1-1,0.5-1
		C244.9,244.9,244.7,245.5,244.8,245.9z"/>
	<path class="st86" d="M244.8,151.1c0,0.4,0.1,1-0.6,1c-0.6,0-0.5-0.6-0.5-1c0-0.4-0.1-1,0.6-1C244.9,150.1,244.7,150.7,244.8,151.1
		z"/>
	<path class="st67" d="M243.7,181.2c0-0.4,0-1,0.6-1c0.6,0.1,0.5,0.7,0.5,1.1c0,0.4,0,0.9-0.5,0.9
		C243.6,182.2,243.7,181.7,243.7,181.2z"/>
	<path class="st86" d="M244.8,146.8c0,0.4,0.1,1-0.6,1c-0.6,0-0.5-0.6-0.5-1c0-0.4-0.1-1,0.6-1C244.9,145.8,244.7,146.4,244.8,146.8
		z"/>
	<path class="st87" d="M243.7,263.2c0-0.4-0.1-1,0.6-0.9c0.6,0,0.5,0.6,0.5,1c0,0.4,0.1,1-0.6,0.9
		C243.6,264.2,243.7,263.6,243.7,263.2z"/>
	<path class="st67" d="M244.8,138.2c0,0.4,0.1,1-0.6,1c-0.6,0-0.5-0.6-0.5-1.1c0-0.4,0-0.9,0.5-0.9
		C244.9,137.2,244.8,137.7,244.8,138.2z"/>
	<path class="st86" d="M244.8,142.4c0,0.4,0.1,1-0.5,1c-0.6,0-0.6-0.6-0.6-1c0-0.4-0.1-1,0.5-1C244.9,141.4,244.7,142,244.8,142.4z"
		/>
	<path class="st86" d="M244.8,159.7c0,0.4,0.1,1-0.5,1c-0.6,0-0.6-0.6-0.6-1c0-0.4-0.1-1,0.5-1C244.9,158.7,244.7,159.3,244.8,159.7
		z"/>
	<path class="st87" d="M244.8,241.7c0,0.4,0.1,1-0.6,1c-0.6,0-0.5-0.6-0.5-1c0-0.4-0.1-1,0.6-1C244.9,240.7,244.7,241.2,244.8,241.7
		z"/>
	<path class="st86" d="M244.8,177c0,0.4,0.1,1-0.6,1c-0.6,0-0.5-0.6-0.5-1c0-0.4-0.1-1,0.6-1C244.9,176,244.7,176.6,244.8,177z"/>
	<path class="st86" d="M244.8,155.3c0,0.4,0.1,1-0.5,1.1c-0.6,0.1-0.6-0.5-0.6-1c0-0.4-0.1-1,0.5-1.1
		C244.9,154.3,244.7,154.9,244.8,155.3z"/>
	<path class="st87" d="M243.7,267.6c0-0.5-0.1-1,0.5-1.1c0.7,0,0.6,0.5,0.6,1c0,0.4,0.2,1-0.5,1C243.6,268.6,243.7,268,243.7,267.6z
		"/>
	<path class="st87" d="M244.8,259c0,0.4,0.1,1-0.6,0.9c-0.6-0.1-0.5-0.6-0.5-1c0-0.4-0.1-1,0.6-0.9C244.9,258,244.7,258.6,244.8,259
		z"/>
	<path class="st86" d="M244.8,164c0,0.4,0.1,1-0.5,1c-0.6,0-0.6-0.6-0.6-1c0-0.4-0.1-1,0.5-1C244.9,163,244.7,163.6,244.8,164z"/>
	<path class="st86" d="M244.8,224.4c0,0.5,0.1,1-0.6,1c-0.5,0-0.5-0.5-0.5-0.9c0-0.4-0.1-1,0.6-1C244.9,223.4,244.7,224,244.8,224.4
		z"/>
	<path class="st41" d="M135.3,196.3c0.4,0.1,1-0.1,1,0.6c0,0.6-0.6,0.5-1.1,0.5c-0.4,0-0.9,0-0.9-0.5
		C134.2,196.2,134.8,196.3,135.3,196.3z"/>
	<path class="st41" d="M164.8,132.6c-0.4-0.1-1,0.1-0.9-0.6c0-0.6,0.7-0.5,1.1-0.5c0.4,0,0.9,0,0.9,0.5
		C165.8,132.7,165.2,132.6,164.8,132.6z"/>
	<path class="st57" d="M48.8,273.4c0,0.5-0.3,0.6-0.7,0.6c-0.4,0-0.9,0-0.9-0.5c-0.1-0.5,0.3-0.6,0.7-0.6
		C48.3,272.9,48.7,272.9,48.8,273.4z"/>
	<path class="st88" d="M244.2,122c-0.4,0-0.6-0.3-0.6-0.7c0-0.4,0.1-0.9,0.6-0.8c0.4,0,0.5,0.4,0.5,0.8
		C244.8,121.6,244.7,121.9,244.2,122z"/>
	<path class="st58" d="M244.3,315.5c-0.5,0-0.6-0.3-0.6-0.7c0-0.4,0-0.9,0.6-0.9c0.4,0,0.5,0.3,0.5,0.6
		C244.8,314.9,244.9,315.4,244.3,315.5z"/>
	<path class="st89" d="M354.9,390.9c0,0.4,0,0.7-0.4,0.8c-0.6,0.1-0.6-0.4-0.7-0.7c-0.9-3.3-1.8-6.7-2.6-10c-2-7.8-4-15.6-6-23.5
		c-1.3-5.1-2.6-10.2-3.9-15.2c-0.6-2.3-1.2-2.8-3.6-2.8c-19.1,0-38.2,0-57.3,0c-0.6,0-1.3,0-1.9,0c-0.3,0-0.7-0.1-0.7-0.5
		c0-0.4,0.3-0.5,0.6-0.5c0.4,0,0.8,0,1.2,0c19.2,0,38.5,0,57.7,0c2.9,0,4.2,0.9,5,3.8c1.4,5.1,2.7,10.3,4,15.4
		c1.6,6,3.1,12.1,4.7,18.1c1.3,5,2.6,10,3.9,15C354.8,390.7,354.8,390.8,354.9,390.9z"/>
	<path class="st43" d="M307.5,375.7c-3.2,0-6.4-3.2-6.5-6.4c0-0.5,0.3-0.8,0.7-1.1c1.4-1.1,2.2-2.6,2.1-4.4c0-1.1,0.6-1.4,1.4-1.6
		c4.1-1.2,8.4,3,8,7.7C312.9,373.5,310.6,375.7,307.5,375.7z"/>
	<path class="st90" d="M272.6,339.4c-1.2,0-2.3,0-3.5,0c-0.4,0-0.8-0.1-0.8-0.5c0-0.5,0.4-0.5,0.8-0.5c2.3,0,4.7,0,7,0
		c0.4,0,0.8,0,0.8,0.5c0,0.5-0.4,0.6-0.8,0.6C274.9,339.5,273.7,339.4,272.6,339.4z"/>
	<path class="st91" d="M264.1,338.3c0.4,0.1,1.1-0.2,1.1,0.5c0,0.7-0.7,0.6-1.1,0.6c-0.5,0-1.2,0.2-1.2-0.6
		C263,338.1,263.7,338.4,264.1,338.3z"/>
	<path class="st92" d="M356,395.3c0,0.5-0.1,0.9-0.6,0.8c-0.7-0.2-0.5-1-0.7-1.6c-0.1-0.3,0.1-0.7,0.5-0.6
		C355.9,394,355.7,394.8,356,395.3z"/>
	<path class="st93" d="M297.3,101.9c2.7,0,4.9,2.1,4.9,4.8c0,2.7-2.2,4.9-4.9,4.9c-2.7,0-4.9-2.2-4.8-4.9
		C292.6,104.1,294.7,102,297.3,101.9z"/>
	<path class="st94" d="M366.6,439.9c-12.7-0.5-25.2-2.1-37.7-4.4c-0.2,0-0.4-0.1-0.7-0.2c-0.4-0.1-0.7-0.2-0.7-0.7
		c0.1-0.4,0.5-0.5,0.9-0.4c1.5,0.3,3.1,0.5,4.6,0.8c10.2,1.9,20.5,3,30.9,3.5c1.3,0.1,2.5,0.1,3.8,0.2c0.4,0,1.1,0,1.1,0.6
		c0,0.8-0.7,0.5-1.1,0.5C367.3,439.9,366.9,439.9,366.6,439.9z"/>
	<path class="st95" d="M409.9,427.2c-0.3,2.4-1.6,4.5-3.3,6.4c-1.5,1.7-3.4,2.9-5.4,3.9c-0.3,0.2-0.7,0.5-1,0
		c-0.3-0.5,0.2-0.7,0.5-0.9c1.8-1,3.6-2.1,5-3.6c1.6-1.7,2.8-3.6,3.1-6c0.1-0.3,0-0.8,0.5-0.8C409.8,426.1,409.9,426.4,409.9,427.2z
		"/>
	<path class="st96" d="M372.7,439.8c-0.6,0-1,0.1-1.1-0.4c-0.1-0.5,0.3-0.6,0.6-0.6c1.6-0.2,3.2-0.4,4.8-0.6c0.4,0,0.6,0.1,0.7,0.5
		c0,0.4-0.3,0.5-0.6,0.6C375.6,439.4,374,439.6,372.7,439.8z"/>
	<path class="st86" d="M367.4,236.4c0,0.3,0,0.5-0.3,0.6c-0.2,0.1-0.5,0.1-0.6-0.1c-1.1-1.5-2.7-2.1-4.4-2.7
		c-0.3-0.1-0.5-0.3-0.4-0.6c0.1-0.3,0.3-0.5,0.6-0.4c1.9,0.6,3.7,1.2,5,2.9C367.3,236.1,367.3,236.3,367.4,236.4z"/>
	<path class="st8" d="M328.1,103c2.1,0.1,3.7,1.7,3.6,3.9c0,2.1-1.8,3.7-3.9,3.7c-2.1-0.1-3.7-1.8-3.7-3.9
		C324.3,104.5,326,103,328.1,103z"/>
	<path class="st0" d="M425.7,271.4c-0.5-1.1-0.9-2.4-1.5-3.6c-0.2-0.4-0.7-0.4-1.1-0.4c-1.3-0.1-2.5-0.2-3.8-0.3
		c-0.8,0-1.1-0.3-1.1-1.1c0-1.8,0-3.5,0-5.3c0-0.7,0.2-0.9,0.9-1c1.3,0,2.6-0.2,3.9-0.3c0.8,0,1.1-0.5,1.5-1.1
		c1.5-2.5,1.1-4.5-1.1-6.3c-0.2-0.2-0.3-0.4-0.5-0.6c-0.7-0.6-0.7-1.2,0-1.8c1.2-1.1,2.4-2.3,3.5-3.5c0.5-0.5,0.8-0.5,1.3-0.1
		c1,0.9,2.1,1.7,3.1,2.6c0.3,0.3,0.6,0.7,1.2,0.4c1.2-0.5,2.3-1,3.5-1.5c0.5-0.2,0.4-0.7,0.5-1.1c0.1-1.3,0.3-2.7,0.4-4
		c0-0.7,0.2-1,0.9-0.9c1.8,0,3.6,0,5.4,0c0.7,0,0.9,0.3,1,1c0.1,1.3,0.2,2.5,0.3,3.8c0,0.2,0,0.5,0,0.7c0.2,1,4.2,2.3,5,1.7
		c1.1-0.8,2.1-1.7,3.1-2.6c0.5-0.5,0.9-0.5,1.5,0c1.2,1.3,2.4,2.5,3.7,3.7c0.5,0.5,0.5,0.8,0,1.3c-0.9,1-1.7,2.1-2.6,3.1
		c-0.5,0.6-0.4,1-0.2,1.7c0.6,2.7,2.2,3.8,5,3.7c2.3-0.1,2.3,0.2,2.3,2.5c0,1.3,0,2.5,0,3.8c0,0.7-0.2,1.1-1,1.1
		c-1.2,0-2.3,0.3-3.5,0.2c-1.2,0-1.5,0.6-2.1,1.6c-1.4,2.3-0.7,3.8,1,5.5c1.7,1.8,1.6,1.9-0.1,3.7c-0.8,0.8-1.7,1.6-2.5,2.5
		c-0.6,0.7-1,0.6-1.7,0.1c-0.9-0.8-1.9-1.6-2.8-2.4c-0.6-0.5-1.2-0.8-1.9-0.3c-0.2,0.1-0.4,0.3-0.6,0.3c-2.7,0.3-2.9,2.2-3,4.3
		c-0.1,2.6-0.1,2.6-2.6,2.6c-1.3,0-2.5,0-3.8,0c-0.7,0-0.9-0.2-1-0.9c-0.1-1.4-0.3-2.9-0.4-4.3c0-0.4,0-0.7-0.4-0.9
		c-1.2-0.5-2.3-0.9-3.5-1.4c-0.4-0.2-0.8,0.2-1.1,0.4c-1,0.9-2.1,1.7-3.1,2.6c-0.6,0.5-0.9,0.5-1.4-0.1c-1.2-1.2-2.4-2.5-3.6-3.6
		c-0.6-0.6-0.5-1,0-1.5c0.9-1,1.7-2,2.6-3C425.5,272.2,425.7,271.9,425.7,271.4z"/>
	<path class="st97" d="M412,120.4c0,1.3,0,2.6,0,3.9c0,0.5,0,1-0.6,1c-0.5,0-0.5-0.5-0.5-0.9c0-2.7,0-5.4,0-8.1c0-0.4,0-0.9,0.5-0.9
		c0.6,0,0.6,0.5,0.6,1C412,117.7,412,119.1,412,120.4z"/>
	<path class="st98" d="M412,110.1c0,0.7,0,1.4,0,2.2c0,0.3-0.2,0.6-0.6,0.6c-0.3,0-0.5-0.3-0.5-0.6c0-1.5,0-3.1,0-4.6
		c0-0.3,0.2-0.6,0.6-0.6c0.4,0,0.6,0.3,0.6,0.6C412,108.4,412,109.3,412,110.1C412,110.1,412,110.1,412,110.1z"/>
	<path class="st99" d="M132.5,50.2c-6.3,0-12.7,0-19,0c-0.4,0-0.8,0-1.2,0c-0.5-0.1-0.8-0.4-0.8-0.9c0-0.5,0.2-0.9,0.7-1
		c0.4-0.1,0.9-0.1,1.3-0.1c12.8,0,25.6,0,38.4,0c0.3,0,0.6,0,0.9,0c0.6,0.1,1,0.5,1,1.1c0,0.6-0.4,1-1.1,1c-0.9,0-1.9,0-2.8,0
		C144.1,50.2,138.3,50.2,132.5,50.2z"/>
	<path class="st100" d="M132.5,60.4c-6.3,0-12.7,0-19,0c-0.4,0-0.8,0-1.2,0c-0.5-0.1-0.8-0.4-0.8-0.9c0-0.6,0.2-1,0.8-1.1
		c0.4-0.1,0.8-0.1,1.2-0.1c12.8,0,25.6,0,38.4,0c0.3,0,0.6,0,0.9,0c0.6,0.1,1,0.5,1,1.1c0,0.6-0.4,1-1,1c-0.4,0-0.7,0-1.1,0
		C145.2,60.4,138.9,60.4,132.5,60.4z"/>
	<path class="st101" d="M132.5,55.3c-6.3,0-12.7,0-19,0c-0.4,0-0.8,0-1.2,0c-0.6-0.1-0.9-0.4-0.9-1c0-0.6,0.3-0.9,0.8-1.1
		c0.4-0.1,0.8-0.1,1.2-0.1c12.7,0,25.4,0,38.1,0c0.1,0,0.2,0,0.3,0c0.8,0,1.8,0,1.8,1.1c0,1.2-0.9,1.1-1.8,1.1c-6.1,0-12.1,0-18.2,0
		C133.4,55.3,133,55.3,132.5,55.3z"/>
	<path class="st46" d="M127.7,63.4c4.7,0,9.4,0,14.1,0c0.4,0,0.7,0,1.1,0c0.6,0.1,0.9,0.4,0.9,1c0,0.6-0.3,1-0.9,1.1
		c-0.3,0.1-0.6,0-0.9,0c-9.6,0-19.1,0-28.7,0c-0.2,0-0.4,0-0.7,0c-0.7,0-1.1-0.4-1.1-1.1c0-0.7,0.4-1,1.1-1.1c0.7,0,1.4,0,2.2,0
		C119,63.4,123.3,63.4,127.7,63.4z"/>
	<path class="st42" d="M164.3,384c0,3.5,0,7,0,10.5c0,0.5,0.2,1.2-0.5,1.2c-0.9,0-0.6-0.8-0.6-1.2c0-7,0-13.9,0-20.9
		c0-0.4-0.2-1.2,0.5-1.2c0.9,0,0.6,0.7,0.6,1.2C164.4,377.1,164.3,380.5,164.3,384z"/>
	<path class="st102" d="M159.5,376c-0.5-0.2-0.7-0.5-0.3-0.9c1.4-1.7,2.7-3.4,4.1-5.1c0.4-0.4,0.7-0.2,1,0.1
		c1.3,1.6,2.6,3.2,3.9,4.8c0.2,0.3,0.5,0.6,0.1,0.9c-0.5,0.4-0.7,0-1-0.3c-0.9-1.1-1.9-2.3-2.8-3.5c-0.7-0.9-1-0.8-1.6,0
		c-0.8,1.2-1.8,2.2-2.7,3.4C160.1,375.7,159.9,376,159.5,376z"/>
	<path class="st8" d="M138,173.8c0-8.7,0-17,0-25.3c0-3,0.1-5.9,0-8.9c0-1.1,0.3-1.3,1.4-1.3c22.8,0,45.7,0,68.5,0
		c4.1,0,8.3,0,12.4,0c1,0,1.3,0.3,1.2,1.3c0,11.6,0,23.1,0,34.7c0,0.8-0.2,1.4-0.7,1.9c-2.5,2.4-4.9,4.9-7.3,7.4
		c-0.7,0.7-1,0.6-1.7-0.1c-7.8-7.8-15.6-15.6-23.4-23.4c-1.2-1.2-1.2-1.2-2.5,0c-2.9,2.9-5.8,5.8-8.6,8.7c-0.6,0.6-0.9,0.6-1.6,0
		c-5.1-5.1-10.2-10.2-15.2-15.3c-0.8-0.8-1.3-0.8-2.1,0c-6.3,6.4-12.7,12.7-19.1,19.1C139,173,138.6,173.3,138,173.8z"/>
	<path class="st10" d="M221.5,177.3c0,4.3,0,8.6,0,12.9c0,0.6-0.2,0.9-0.8,0.8c-0.3,0-0.6,0-0.9,0c-26.7,0-53.4,0-80,0
		c-1.7,0-1.7,0-1.7-1.8c0-4.3,0-8.6,0-13c0-0.6,0.1-1,0.6-1.4c6.8-6.7,13.5-13.5,20.2-20.2c0.7-0.7,1-0.3,1.5,0.2
		c5,5,10.1,10,15,15.1c0.9,0.9,1.5,1,2.4,0c2.8-2.9,5.8-5.8,8.6-8.7c0.7-0.8,1.1-0.7,1.8,0c7.8,7.8,15.6,15.6,23.3,23.4
		c0.9,0.9,1.5,0.9,2.3,0c2.4-2.6,4.9-5.1,7.3-7.6C221.2,177.2,221.4,177.2,221.5,177.3z"/>
	<path class="st10" d="M86,181.1c-0.2-0.2-0.4-0.3-0.6-0.4c-0.3-0.3-0.7-0.6-1-0.9c-2.8-2.4-2.8-2.4-6.1-0.8
		c-0.5,0.2-0.6,0.6-0.7,1.1c-0.1,1.1-0.2,2.2-0.3,3.4c0,1-0.3,1.5-1.5,1.4c-1.3-0.1-2.6-0.1-3.9,0c-1.2,0.1-1.5-0.4-1.6-1.5
		c0-1-0.2-2.1-0.3-3.1c0-0.2,0-0.5-0.1-0.7c-0.3-0.9-4.1-1.9-4.8-1.3c-0.9,0.7-1.8,1.5-2.7,2.3c-0.6,0.5-0.9,0.5-1.4-0.1
		c-1.1-1.1-2.2-2.3-3.3-3.3c-0.7-0.6-0.5-1,0-1.5c0.8-0.9,1.5-1.9,2.4-2.8c0.4-0.5,0.5-0.9,0.2-1.5c0,0-0.1-0.1-0.1-0.1
		c-0.5-3.2-2.8-3.6-5.4-3.5c-1.1,0-1.5-0.3-1.5-1.5c0.1-1.4,0.1-2.9,0-4.3c0-0.7,0.2-1,1-1.1c1.3-0.1,2.5-0.3,3.8-0.4
		c0.7-0.1,0.9-0.4,1.2-1c1.4-2.3,1-4.1-1-5.9c-1.4-1.3-1.3-1.4,0.1-2.8c0.9-0.9,1.9-1.8,2.8-2.8c0.4-0.4,0.7-0.4,1.1,0
		c1,0.9,2,1.6,3,2.5c0.5,0.5,1,0.5,1.6,0.2c0.3-0.2,0.6-0.4,0.8-0.4c2.2-0.2,2.5-1.8,2.6-3.6c0.1-2.7,0.2-2.7,2.9-2.7
		c1.2,0,2.7-0.4,3.6,0.2c1.1,0.6,0.5,2.2,0.6,3.4c0.1,1.4,0.7,2,2,2.7c1.8,0.9,2.9,0.5,4.3-0.8c2.1-2,2.2-1.9,4.2,0.2
		c0.9,0.9,2.4,1.6,2.4,2.7c0,1-1.3,2-2.2,2.8c-1,0.9-0.8,1.7-0.5,3c0.6,2.2,1.9,2.7,4,2.8c2.6,0,2.6,0.2,2.6,2.8c0,0.1,0,0.3,0,0.4
		c0,3.7,0,3.8-3.8,3.9c-1.3,0-1.8,0.6-2.4,1.7c-1.2,2-0.5,3.3,0.9,4.8c1.8,1.9,1.7,2-0.1,3.8c-0.8,0.8-1.5,1.5-2.3,2.3
		C86.4,180.8,86.2,180.9,86,181.1z"/>
	<path class="st103" d="M230.3,236.2c1.2-0.3,1.5,0.3,1.5,1.4c0,1.1-0.4,1.4-1.5,1.4c-1.1,0-1.5-0.4-1.4-1.5
		C228.9,236.5,229.2,235.9,230.3,236.2z"/>
	<path class="st104" d="M230.4,262.3c-1-0.1-1.6-0.6-1.6-1.6c0-1,0.6-1.6,1.6-1.6c1,0,1.6,0.6,1.6,1.6
		C232,261.7,231.4,262.2,230.4,262.3z"/>
	<path class="st37" d="M178.6,262.3c-1-0.1-1.6-0.6-1.5-1.7c0-0.9,0.7-1.5,1.6-1.5c1,0,1.6,0.6,1.6,1.6
		C180.2,261.8,179.6,262.2,178.6,262.3z"/>
	<path class="st105" d="M205.9,237.6c0.3,1.3-0.3,1.4-1.4,1.5c-1.1,0-1.4-0.3-1.4-1.4c0-1.1,0.2-1.5,1.4-1.5
		C205.6,236.2,206.2,236.4,205.9,237.6z"/>
	<path class="st106" d="M177.3,237.6c-0.3-1.2,0.3-1.4,1.3-1.4c1.2,0,1.4,0.4,1.4,1.5c0,1.1-0.3,1.4-1.4,1.4
		C177.7,239,177,238.8,177.3,237.6z"/>
	<path class="st10" d="M111.8,191.7c-1.6,0-3,1.3-3.1,2.8c-0.2,2-0.2,2-2.2,2c0,0-0.1,0-0.1,0c-2.1,0-2.2,0-2.3-2.2
		c0-0.8,0-1.6-1.1-1.9c-1.1-0.4-2-1.1-3.2,0.1c-1.5,1.6-1.7,1.4-3.2-0.1c-1.4-1.4-1.4-1.4-0.1-3c1-1.2,1-2.8,0-3.9
		c-0.4-0.5-1.1-0.4-1.6-0.4c-2.2-0.2-2.2-0.1-2.2-2.3c0-0.2,0-0.5,0-0.7c-0.2-1.2,0.3-1.6,1.5-1.6c2.2,0,2.8-0.7,3.2-2.8
		c0.1-0.8-0.5-1.2-1-1.7c-1.3-1.6-1.3-1.5,0.1-3c1.6-1.6,1.7-1.7,3.3-0.1c1.2,1.2,2.1,0.4,3.1,0.1c1-0.3,1.1-1,1.1-1.9
		c0.1-2.3,0.1-2.3,2.4-2.3c0.4,0,0.8,0,1.2,0c0.6-0.1,0.9,0.2,0.9,0.9c0,0.3,0,0.6,0,0.9c0.1,1.8,1,2.8,2.8,3.1
		c0.8,0.1,1.2-0.6,1.7-1c1.5-1.2,1.5-1.2,2.9,0.2c1.6,1.6,1.6,1.6,0.2,3.3c-0.5,0.6-1.1,1-0.6,2c0.6,1.1,0.7,2.3,2.4,2.4
		c2.2,0,2.2,0.2,2.2,2.4c0,2,0,2-2,2.2c-0.8,0.1-1.6-0.2-2,0.9c-0.4,1.2-1.3,2.3,0.2,3.4c0.3,0.2,0.4,0.6,0.7,0.8
		c0.5,0.5,0.5,0.9-0.1,1.4c-0.8,0.7-1.4,1.8-2.3,2c-0.9,0.2-1.5-1.1-2.3-1.6C112.3,191.9,112,191.8,111.8,191.7z"/>
	<path class="st10" d="M229.8,302c-3.6,0-7.1,0-10.7,0c-3,0-5.2-2-5.1-4.9c0-2.8,2.1-4.8,5.1-4.8c7.1,0,14.3,0,21.4,0
		c3,0,5.1,2,5.1,4.9c0,2.8-2.1,4.8-5.1,4.8C237,302,233.4,302,229.8,302z"/>
	<path class="st10" d="M188.9,302c-3.6,0-7.2,0-10.8,0c-2.9,0-5.1-2-5.1-4.8c0-2.9,2.1-4.9,5.1-4.9c7.2,0,14.4,0,21.6,0
		c2.9,0,5,2,5,4.8c0,2.8-2.1,4.9-5,4.9C196,302,192.5,302,188.9,302z"/>
	<path class="st8" d="M261.1,141.5c0-2.1,0-4.2,0-6.3c0-0.7,0.2-0.9,0.9-0.9c4.3,0,8.5,0,12.8,0c0.7,0,0.9,0.2,0.9,0.9
		c0,2.7,0,5.4,0,8.1c0,0.6-0.2,0.9-0.8,0.9c-1,0-2,0-3,0c-0.7,0-1.1,0.2-1,1c0,0.1,0,0.3,0,0.4c-0.1,1.1,0.5,2.6-0.3,3.2
		c-0.7,0.6-2.1,0.2-3.3,0.2c-1.8,0-3.5,0-5.3,0c-0.9,0-1.1-0.3-1.1-1.1C261.2,145.7,261.1,143.6,261.1,141.5z"/>
	<path class="st8" d="M274.5,145.3c-0.8,0.8-1.6,1.6-2.4,2.4C271.9,144.7,271.6,145,274.5,145.3z"/>
	<path class="st8" d="M101.6,218.5c2.1,0,4.1,0,6.2,0c0.7,0,1,0.2,1,1c0,2.7,0,5.3,0,8c0,0.7-0.3,0.9-0.9,0.9
		c-1.2,0.1-2.8-0.6-3.6,0.3c-0.8,0.8-0.2,2.3-0.3,3.5c0,0.8-0.2,1-1,1c-2.6,0-5.2-0.1-7.8,0c-0.9,0-1-0.3-1-1.1c0-4.2,0-8.4,0-12.5
		c0-0.8,0.2-1,1-1C97.3,218.6,99.4,218.5,101.6,218.5z"/>
	<path class="st107" d="M107.6,229.4c-0.9,0.8-1.7,1.6-2.5,2.3C104.9,228.8,104.7,229.3,107.6,229.4z"/>
	<path class="st20" d="M242.9,273.5c-0.3-1.3,0.4-1.3,1.4-1.4c1.2-0.1,1.3,0.4,1.3,1.4c0,1-0.1,1.4-1.3,1.4
		C243.3,274.8,242.6,274.8,242.9,273.5z"/>
	<path class="st108" d="M132.3,132.1c0.2,1-0.2,1.3-1.2,1.3c-1.1,0-1.3-0.4-1.4-1.4c0-1.1,0.4-1.2,1.3-1.2
		C132,130.8,132.5,131.1,132.3,132.1z"/>
	<path class="st108" d="M229.4,132.1c0.2,1-0.3,1.3-1.2,1.3c-1.1,0-1.3-0.4-1.3-1.4c0-1.1,0.5-1.2,1.4-1.2
		C229.3,130.7,229.6,131.1,229.4,132.1z"/>
	<path class="st108" d="M131,195.6c1-0.2,1.3,0.2,1.3,1.2c0,1.1-0.4,1.3-1.4,1.4c-1.1,0-1.2-0.4-1.2-1.4
		C129.7,195.8,130,195.4,131,195.6z"/>
	<path class="st37" d="M179.5,195.8c0.7,0,1.1,0.4,1,1c0,0.6-0.4,1-1,1c-0.6,0-1-0.4-1-1C178.6,196.2,179,195.9,179.5,195.8z"/>
	<path class="st37" d="M228.1,163.5c0.7,0,1.1,0.3,1.1,1c0,0.6-0.3,1-1,1c-0.6,0-1-0.3-1-1C227.2,163.9,227.5,163.5,228.1,163.5z"/>
	<path class="st37" d="M179.6,133.1c-0.6-0.1-1-0.4-0.9-1c0-0.6,0.4-1,1-0.9c0.7,0,1,0.4,0.9,1C180.6,132.8,180.2,133.1,179.6,133.1
		z"/>
	<path class="st37" d="M132,164.4c0,0.7-0.3,1.1-0.9,1.1c-0.6,0-1-0.3-1-0.9c0-0.6,0.3-1,0.9-1C131.6,163.4,131.9,163.8,132,164.4z"
		/>
	<path class="st8" d="M307.5,374.7c-2.3,0-5.1-2.6-5.3-4.9c0-0.4,0.2-0.6,0.4-0.9c1.4-1.2,2.1-2.9,2.2-4.7c0-0.7,0.3-0.9,0.9-1
		c2.3-0.5,4.7,1,5.8,3.6c1.2,3,0.2,6.2-2.3,7.5C308.8,374.5,308.2,374.6,307.5,374.7z"/>
	<path class="st8" d="M301.2,106.8c0,2.1-1.7,3.8-3.8,3.8c-2.1,0-3.8-1.7-3.8-3.9c0-2.1,1.7-3.7,3.8-3.7
		C299.6,103,301.2,104.7,301.2,106.8z"/>
	<path class="st109" d="M440,273.4c-5.3,0.3-10-4.2-10-9.9c0-5.6,4.5-10,10.1-9.9c5.5,0,9.8,4.4,9.9,9.8
		C450,268.8,445.3,273.6,440,273.4z"/>
	<path class="st42" d="M198,153.1c0-3.6,2.9-6.5,6.5-6.6c3.6,0,6.5,2.9,6.5,6.5c0,3.6-2.9,6.5-6.5,6.5
		C200.9,159.6,198,156.7,198,153.1z"/>
	<path class="st110" d="M73.9,155.1c5.2,0,9.4,4.3,9.4,9.4c0,5.1-4.3,9.3-9.4,9.3c-5.2,0-9.5-4.3-9.4-9.5
		C64.6,159.2,68.8,155,73.9,155.1z"/>
	<path class="st93" d="M106.5,176.2c3.7,0,6.6,2.8,6.6,6.6c0,3.6-3,6.6-6.6,6.6c-3.6,0-6.6-3.1-6.6-6.6
		C99.9,179,102.8,176.2,106.5,176.2z"/>
	<path class="st0" d="M440.3,254.6c5.3,0.4,8.8,4.5,8.4,9.7c-0.4,4.7-4.8,8.4-9.4,8.1c-5.1-0.4-8.7-4.7-8.3-9.7
		C431.4,257.9,435.7,254.3,440.3,254.6z"/>
	<path class="st10" d="M204.5,158.4c-3,0-5.4-2.4-5.4-5.4c0-3,2.4-5.4,5.4-5.4c3,0,5.5,2.5,5.5,5.5
		C209.9,156.1,207.5,158.5,204.5,158.4z"/>
	<path class="st8" d="M73.9,172.7c-4.6,0-8.3-3.7-8.3-8.3c0-4.5,3.7-8.3,8.3-8.3c4.6,0,8.4,3.8,8.4,8.4
		C82.2,169.1,78.5,172.7,73.9,172.7z"/>
	<path class="st8" d="M112,182.7c0,3-2.4,5.5-5.2,5.6c-3.2,0.1-5.8-2.4-5.8-5.5c-0.1-3,2.5-5.6,5.5-5.6
		C109.6,177.2,112,179.6,112,182.7z"/>
</g>
</svg>
