<?xml version="1.0" encoding="utf-8"?>
<!-- Generator: Adobe Illustrator 26.0.1, SVG Export Plug-In . SVG Version: 6.00 Build 0)  -->
<svg version="1.1" id="Layer_1" xmlns="http://www.w3.org/2000/svg" xmlns:xlink="http://www.w3.org/1999/xlink" x="0px" y="0px"
	 viewBox="0 0 750 500" style="enable-background:new 0 0 750 500;" xml:space="preserve">
<style type="text/css">
	.st0{fill:#F5F5F5;}
	.st1{fill:#E0E0E0;}
	.st2{fill:#EBEBEB;}
	.st3{fill:#263238;}
	.st4{fill:#FC876D;}
	.st5{opacity:0.3;}
	.st6{fill:none;}
	.st7{fill:#FFBF9D;}
	.st8{fill:#FF9A6C;}
	.st9{fill:#636160;}
	.st10{fill:#FFFFFF;}
	.st11{fill:#F96C46;}
	.st12{fill:#FAFAFA;}
</style>
<g id="freepik--background-complete--inject-17">
	<path class="st0" d="M366.6,163.5c-0.8,0-1.6-0.1-2.4-0.4l-12.2-4.2c-2.4-0.9-4.3-2.9-4.8-5.5l-2.5-12.7c-0.5-2.5,0.4-5.2,2.4-6.9
		l9.8-8.5c2-1.7,4.7-2.2,7.1-1.4l12.2,4.2c2.5,0.8,4.3,2.9,4.8,5.5l2.4,12.7c0.5,2.5-0.4,5.2-2.4,6.9l-9.8,8.5
		C370.1,162.9,368.4,163.5,366.6,163.5z M355,151.4l11.4,4l9.2-7.9l-2.3-11.9l-11.4-4l-9.1,7.9L355,151.4z"/>
	<path class="st0" d="M509.4,126.5c-0.8,0-1.6-0.1-2.4-0.4l-6.2-2.2c-2.4-0.9-4.3-2.9-4.8-5.5l-1.2-6.4c-0.5-2.5,0.4-5.2,2.4-6.9
		l5-4.3c2-1.7,4.7-2.2,7.1-1.4l6.2,2.2c2.5,0.8,4.3,2.9,4.8,5.5l1.2,6.4c0.5,2.5-0.4,5.2-2.4,6.9l-5,4.3
		C512.9,125.9,511.2,126.5,509.4,126.5z M503.9,116.5l5.4,1.9l4.3-3.7l-1.1-5.6l-5.4-1.9l-4.3,3.8L503.9,116.5z"/>
	<path class="st1" d="M680.7,220.8c-1.6,0-3.1-0.7-4.1-2l-3.5-4.4c-1.2-1.5-1.5-3.4-0.8-5.2l2-5.2c0.7-1.7,2.2-3,4.1-3.3l5.5-0.9
		c1.9-0.3,3.7,0.4,4.9,1.9l3.5,4.4c1.2,1.5,1.5,3.4,0.8,5.2l-2,5.2c-0.7,1.8-2.2,3-4.1,3.3l-5.5,0.9
		C681.2,220.7,680.9,220.8,680.7,220.8z M684.7,203.8h-0.2l-5.5,0.9c-0.5,0.1-0.8,0.4-1,0.8l-2,5.2c-0.2,0.4-0.1,0.9,0.2,1.2
		l3.5,4.4c0.3,0.3,0.7,0.5,1.2,0.5l5.5-0.9c0.5-0.1,0.8-0.4,1-0.8l2-5.2c0.2-0.4,0.1-0.9-0.2-1.2l0,0l-3.5-4.4
		C685.5,204,685.1,203.8,684.7,203.8z"/>
	<path class="st1" d="M57.7,264.2c-2.1,0-4-0.9-5.3-2.5l-8.2-10.2c-1.5-1.9-1.9-4.4-1-6.7l4.8-12.2c0.9-2.2,2.9-3.9,5.3-4.2l13-2
		c2.4-0.4,4.8,0.6,6.3,2.5l8.1,10.2c1.5,1.9,1.9,4.4,1,6.7L77,257.9c-0.9,2.3-2.9,3.9-5.3,4.2l-13,2C58.4,264.2,58,264.2,57.7,264.2
		z M49.8,247.2l8,10l12.7-1.9l4.7-12l-8-10l-12.7,1.9L49.8,247.2z"/>
	<path class="st2" d="M90.9,174.6h-7.7c-1.9,0-3.6-1-4.6-2.6l-3.9-6.7c-0.9-1.6-0.9-3.6,0-5.3l3.9-6.7c0.9-1.6,2.7-2.6,4.6-2.6h7.7
		c1.9,0,3.6,1,4.6,2.6l3.9,6.7c0.9,1.6,0.9,3.6,0,5.3l-3.9,6.7C94.5,173.6,92.8,174.6,90.9,174.6z M83.1,154.7
		c-0.5,0-0.9,0.2-1.1,0.6l-3.9,6.7c-0.2,0.4-0.2,0.9,0,1.3l3.9,6.7c0.2,0.4,0.6,0.6,1.1,0.6h7.7c0.5,0,0.9-0.2,1.1-0.6l3.9-6.7
		c0.2-0.4,0.2-0.9,0-1.3l-3.9-6.7c-0.2-0.4-0.6-0.6-1.1-0.6L83.1,154.7z"/>
	<polygon class="st2" points="222.8,98.9 207.7,89.5 189.2,58.2 163.4,42.5 158.5,47.8 161.1,51.4 169.2,62.3 201.5,105.6 
		214.6,112.8 	"/>
	<polygon class="st2" points="203.8,121.4 199.5,107 152.1,52.8 145.8,56.6 155.8,85.1 183.3,112.1 189.5,129 	"/>
	<path class="st1" d="M229.5,101.6c0,0,53.6,29.4,64.3,39.3s36,51.2,33.4,56.5s-4.5,6-10.3,0.9s-24.6-33.4-29.6-38
		S219.6,119,219.6,119L229.5,101.6z"/>
	<circle class="st2" cx="193.2" cy="97.3" r="17"/>
	<path class="st1" d="M189,113.7c1.4,0.3,2.8,0.4,4.1,0.4c1.6,0,3.2-0.2,4.8-0.7c7.7-2.3,12.8-9.7,12-17.7c-0.2-1.6-0.6-3.2-1.2-4.7
		c-0.3-0.8-0.7-1.5-1.1-2.2c-0.4-0.7-0.9-1.4-1.5-2.1c-4.6-5.7-12.3-7.7-19.1-5c-0.8,0.3-1.5,0.7-2.3,1.1c-0.7,0.4-1.4,0.9-2,1.4
		c-1.3,1-2.4,2.2-3.3,3.5c-1.7,2.5-2.7,5.3-2.9,8.3c-0.3,4.8,1.4,9.5,4.8,12.9c1.1,1.2,2.4,2.2,3.9,3
		C186.4,112.7,187.7,113.2,189,113.7c-0.1,0-0.2,0-0.3,0l-0.8-0.2c-0.4-0.1-0.8-0.3-1.2-0.4c-0.6-0.2-1.1-0.5-1.6-0.8
		c-1.5-0.8-2.8-1.8-4-2.9c-3.5-3.5-5.3-8.3-5-13.2c0.2-3.1,1.3-6,3-8.6c0.9-1.4,2.1-2.6,3.4-3.6c1.3-1.1,2.8-2,4.4-2.6
		c7-2.8,15-0.7,19.7,5.1c0.5,0.7,1,1.4,1.5,2.1c0.4,0.7,0.8,1.5,1.1,2.3c0.6,1.5,1,3.1,1.2,4.8c0.6,5.8-1.9,11.5-6.5,15.1
		c-1.7,1.4-3.7,2.3-5.8,2.9c-1.6,0.5-3.2,0.7-4.9,0.6c-0.6,0-1.2,0-1.8-0.1c-0.4,0-0.9-0.1-1.3-0.2l-0.8-0.2
		C189.1,113.8,189.1,113.7,189,113.7z"/>
	<path class="st1" d="M190.8,106.5c-5.1-1.3-8.2-6.6-6.9-11.7c1.3-5.1,6.6-8.2,11.7-6.9c5.1,1.3,8.2,6.6,6.9,11.7c0,0,0,0,0,0
		C201.1,104.8,195.9,107.9,190.8,106.5z"/>
	<path class="st1" d="M190.8,106.5c0-0.1,0.8,0.2,2.3,0.2c3.7,0,7-2.2,8.5-5.5c0.7-1.5,1-3.2,0.8-4.9c-0.2-1.8-0.9-3.6-2.1-5
		c-2.6-3.2-6.9-4.3-10.7-2.8c-0.9,0.3-1.7,0.8-2.4,1.4c-0.7,0.6-1.3,1.2-1.8,2c-0.9,1.4-1.5,3-1.6,4.6c-0.1,1.5,0.1,2.9,0.7,4.3
		c0.8,2,2.3,3.6,4.1,4.7C189.4,106,190.1,106.3,190.8,106.5c-0.8-0.1-1.5-0.4-2.2-0.7c-2-1-3.5-2.7-4.4-4.7
		c-0.6-1.4-0.9-2.9-0.8-4.4c0.1-1.8,0.7-3.4,1.7-4.9c0.5-0.8,1.1-1.5,1.9-2.1c0.8-0.6,1.6-1.1,2.5-1.5c4-1.6,8.6-0.4,11.2,2.9
		c1.2,1.5,2,3.3,2.2,5.3c0.2,1.7-0.2,3.5-0.9,5.1c-0.7,1.4-1.6,2.6-2.8,3.5c-1.7,1.3-3.9,2.1-6.1,2
		C192.4,106.9,191.6,106.8,190.8,106.5z"/>
	<path class="st2" d="M212.1,110.4l6.9-12.1c2-3.5,6.5-4.8,10.1-2.7l0.7,0.4c3.5,2,4.8,6.5,2.7,10.1l-6.9,12.1
		c-2,3.5-6.5,4.8-10.1,2.7l-0.7-0.4C211.3,118.5,210.1,114,212.1,110.4z"/>
	<path class="st1" d="M212.1,110.4c-0.4,0.9-0.7,1.8-0.8,2.8c-0.1,1.1,0.1,2.3,0.4,3.4c0.2,0.7,0.6,1.3,1,1.9
		c0.5,0.6,1.1,1.2,1.7,1.6c0.7,0.5,1.5,0.9,2.3,1.2c3,1,6.2,0,8.1-2.6c2.3-3.8,4.7-8.2,7.4-12.7c1.2-2.2,1.2-4.8,0-7
		c-0.5-1-1.3-1.9-2.3-2.6c-0.9-0.6-2-1.1-3.1-1.4c-2.1-0.4-4.2,0.1-5.9,1.4c-1.6,1.2-2.3,3-3.2,4.5l-4.1,7l-1.1,1.9
		C212.5,110,212.4,110.3,212.1,110.4c0.1-0.2,0.3-0.5,0.4-0.7c0.3-0.5,0.6-1.1,1.1-1.9c1-1.7,2.3-4.1,4-7.1l1.3-2.3
		c0.5-0.9,1.1-1.6,1.9-2.3c1.7-1.4,4-2,6.2-1.5c1.2,0.3,2.2,0.7,3.2,1.4c1.1,0.7,1.9,1.6,2.6,2.7c1.3,2.3,1.3,5.2,0,7.5
		c-2.6,4.5-5,8.8-7.4,12.8c-1.3,1.8-3.4,2.9-5.6,3.1c-1,0.1-2-0.1-2.9-0.4c-0.9-0.3-1.7-0.8-2.4-1.3c-0.7-0.5-1.3-1-1.8-1.7
		c-0.4-0.6-0.8-1.3-1-2c-0.7-1.8-0.6-3.9,0.3-5.6C211.9,110.8,212,110.6,212.1,110.4z"/>
	<path class="st1" d="M191.5,137.5c0,0,20.3,57.6,28.3,69.9s44.7,43.8,50.3,42.2s6.6-3.5,2.5-10s-29-29.7-32.7-35.4
		s-29.8-73.6-29.8-73.6L191.5,137.5z"/>
	<path class="st2" d="M190,126.7l13-4.9c3.8-1.4,8.1,0.5,9.5,4.3l0.3,0.7c1.4,3.8-0.5,8.1-4.3,9.5l-13,4.9c-3.8,1.4-8.1-0.5-9.5-4.3
		l-0.3-0.7C184.2,132.4,186.2,128.1,190,126.7z"/>
	<path class="st1" d="M203,121.8c0.2-0.1,0.5-0.2,0.7-0.3c0.7-0.2,1.5-0.3,2.2-0.3c1.2,0,2.3,0.4,3.4,0.9c0.6,0.4,1.2,0.8,1.8,1.3
		c0.6,0.6,1,1.3,1.4,2.1c0.4,0.8,0.7,1.7,0.9,2.6c0.2,1,0.1,2-0.1,3c-0.5,2.2-2,4-4,5.1c-4.2,1.7-8.9,3.4-13.8,5.2
		c-2.5,0.9-5.3,0.5-7.4-1.2c-1-0.8-1.8-1.8-2.2-3c-0.5-1.1-0.8-2.2-0.9-3.4c-0.1-2.2,0.8-4.4,2.5-5.9c0.8-0.7,1.6-1.2,2.6-1.5
		l2.5-0.9l7.6-2.8l2.1-0.7C202.4,121.9,202.7,121.9,203,121.8c-0.3,0.1-0.5,0.2-0.7,0.3l-2,0.8l-7.6,2.9c-1.6,0.7-3.5,1.1-4.9,2.4
		c-1.6,1.4-2.4,3.5-2.3,5.6c0.1,1.1,0.4,2.2,0.9,3.2c0.5,1.1,1.2,2,2.1,2.8c2,1.6,4.6,2,6.9,1.1c4.9-1.9,9.6-3.5,13.8-5.2
		c2.8-1.4,4.3-4.5,3.9-7.5c-0.2-0.9-0.4-1.7-0.8-2.5c-0.3-0.7-0.8-1.4-1.3-2c-0.5-0.5-1-1-1.7-1.3c-1-0.6-2.1-0.9-3.2-1
		C204.9,121.4,203.9,121.5,203,121.8z"/>
</g>
<g id="freepik--Floor--inject-17">
	<path class="st3" d="M714.8,453.5c0,0.1-152.4,0.3-340.4,0.3s-340.5-0.1-340.5-0.3s152.4-0.3,340.5-0.3S714.8,453.3,714.8,453.5z"
		/>
</g>
<g id="freepik--Screwdriver--inject-17">
	<path class="st1" d="M87,339.1c0.3-0.8,31.4-102.7,31.4-102.7l-0.8-12.6l8.2-13.4l10.1,3.4l-1.4,15l-7.2,10.9L96,342L87,339.1z"/>
	<path class="st3" d="M87,339.1l0.6,0.2l1.7,0.5l6.7,2.1l-0.1,0.1c5.1-16.6,16.8-55,31.2-102.4l0,0l0,0l7.2-10.9v0.1
		c0.4-4.8,0.9-9.9,1.4-15l0.2,0.3l-0.8-0.3l-9.3-3.1l0.3-0.1l-8.2,13.4v-0.1c0.3,4.3,0.5,8.5,0.8,12.6v0.1
		c-9.1,29.6-17,55.2-22.6,73.5c-2.8,9.1-5.1,16.4-6.6,21.4c-0.8,2.5-1.4,4.4-1.8,5.8l-0.5,1.5l-0.2,0.5c0-0.2,0.1-0.3,0.1-0.5
		c0.1-0.4,0.2-0.8,0.4-1.5c0.4-1.3,1-3.2,1.7-5.7c1.5-5,3.7-12.3,6.5-21.4c5.6-18.3,13.4-44,22.4-73.7v0.1
		c-0.3-4.1-0.5-8.3-0.8-12.6v-0.1v-0.1l8.2-13.4l0.1-0.2l0.2,0.1l9.3,3.1l0.8,0.3l0.2,0.1v0.2c-0.5,5.1-0.9,10.2-1.4,15v0.1v0.1
		l-7.2,10.9v-0.1C113,287,101.2,325.4,96.1,342v0.1H96l-6.7-2.2l-1.7-0.6L87,339.1z"/>
	<path class="st4" d="M79.5,344l-14,18.9l-19.6,71c0,0-2.8,14.5,13.2,18.6c18,4.6,22.1-9.1,22.1-9.1l19-69.3l-0.2-24l4.7-5.3
		c0.7-0.8,0.6-2.1-0.2-2.8c-0.2-0.2-0.4-0.3-0.6-0.4l-22.5-7.4c-1.1-0.3-2.2,0.3-2.5,1.3c-0.1,0.2-0.1,0.5-0.1,0.8L79.5,344z"/>
	<path class="st3" d="M100.1,350.8c-0.1,0.1-4.8-1.2-10.5-3.1s-10.4-3.4-10.4-3.6s4.8,1.2,10.5,3.1S100.2,350.7,100.1,350.8z"/>
	<path class="st3" d="M100.2,374c-0.5,0-0.9-0.1-1.4-0.2c-0.9-0.2-2.2-0.5-3.8-0.9c-3.2-0.8-7.5-2-12.3-3.5s-9-3.1-12.1-4.2
		c-1.5-0.6-2.8-1.1-3.6-1.5c-0.4-0.2-0.9-0.4-1.3-0.6c0.5,0.1,0.9,0.2,1.4,0.4l3.6,1.3c3.1,1.1,7.3,2.6,12.1,4.1s9.1,2.8,12.2,3.7
		l3.7,1C99.4,373.7,99.8,373.9,100.2,374z"/>
	<g class="st5">
		<path d="M73.4,370.3l0.5,0.1c1.7,0.5,2.8,2.3,2.2,4.1L58.8,434c-0.5,1.7-2.3,2.8-4.1,2.2l-0.5-0.1c-1.7-0.5-2.8-2.3-2.2-4.1
			l17.3-59.4C69.8,370.8,71.7,369.8,73.4,370.3z"/>
	</g>
	<g class="st5">
		<path d="M83.5,373.6l0.5,0.1c1.7,0.5,2.8,2.3,2.2,4.1l-17.3,59.4c-0.5,1.7-2.3,2.8-4.1,2.2l-0.5-0.1c-1.7-0.5-2.8-2.3-2.2-4.1
			l17.3-59.4C79.9,374.1,81.7,373,83.5,373.6z"/>
	</g>
	<g class="st5">
		<path d="M92.5,376.5l0.5,0.1c1.7,0.5,2.7,2.4,2.2,4.1l-17.6,59.3c-0.5,1.7-2.4,2.7-4.1,2.2l-0.5-0.1c-1.7-0.5-2.7-2.4-2.2-4.1
			l17.6-59.3C88.9,377,90.8,376,92.5,376.5z"/>
	</g>
	<path class="st3" d="M127.3,239.6c-1.5-0.3-3-0.7-4.5-1.3c-1.5-0.4-2.9-1-4.3-1.8c1.5,0.3,3,0.7,4.4,1.3
		C124.5,238.3,125.9,238.9,127.3,239.6z"/>
	<path class="st3" d="M135.9,213.6c-0.1,0.5-0.2,0.9-0.4,1.4c-0.3,1-0.7,2.3-1.1,3.8l-4,13l-0.1,0.2l-0.2-0.1l-4.6-1.6l-4.7-1.7
		l-0.2-0.1l0.1-0.2c1.4-5.1,2.7-9.6,3.7-13c0.5-1.6,0.8-2.8,1.1-3.8c0.1-0.5,0.3-0.9,0.5-1.4c-0.1,0.5-0.2,0.9-0.3,1.4l-1,3.8
		c-0.9,3.3-2.1,7.9-3.5,13l-0.2-0.3l4.8,1.7l4.6,1.6l-0.3,0.2l4.2-12.9c0.5-1.6,1-2.8,1.3-3.8C135.6,214.5,135.7,214.1,135.9,213.6z
		"/>
</g>
<g id="freepik--Gears--inject-17">
	<path class="st1" d="M430.9,111.9c-0.8,0-1.6-0.1-2.4-0.4l-12.2-4.2c-2.4-0.9-4.3-2.9-4.8-5.5l-2.5-12.7c-0.5-2.5,0.4-5.2,2.4-6.9
		l9.8-8.5c2-1.7,4.7-2.2,7.1-1.4l12.2,4.2c2.5,0.9,4.3,2.9,4.8,5.5l2.5,12.7c0.5,2.5-0.4,5.2-2.4,6.9l-9.8,8.5
		C434.3,111.3,432.6,111.9,430.9,111.9z M419.3,99.9l11.5,4l9.1-7.9L437.6,84l-11.4-4l-9.2,8L419.3,99.9z"/>
	<path class="st6" d="M430.9,111.9c-0.8,0-1.6-0.1-2.4-0.4l-12.2-4.2c-2.4-0.9-4.3-2.9-4.8-5.5l-2.5-12.7c-0.5-2.5,0.4-5.2,2.4-6.9
		l9.8-8.5c2-1.7,4.7-2.2,7.1-1.4l12.2,4.2c2.5,0.9,4.3,2.9,4.8,5.5l2.5,12.7c0.5,2.5-0.4,5.2-2.4,6.9l-9.8,8.5
		C434.3,111.3,432.6,111.9,430.9,111.9z M419.3,99.9l11.5,4l9.1-7.9L437.6,84l-11.4-4l-9.2,8L419.3,99.9z"/>
	<path class="st3" d="M419.3,99.9c-0.1-0.3-0.2-0.5-0.2-0.8l-0.5-2.3c-0.4-2.1-1-5.1-1.8-8.7c0-0.1,0-0.1,0.1-0.2l9.1-8
		c0.1,0,0.2,0,0.2,0l11.4,4l0.2,0.2l0,0v0.2v0.2l0.1,0.4l0.1,0.8c0.1,0.5,0.2,1,0.3,1.5c0.2,1,0.4,2,0.6,3c0.4,2,0.8,3.9,1.1,5.8
		c0,0.1,0,0.2-0.1,0.2l-9.1,7.9c-0.1,0-0.1,0-0.2,0l-8.4-3l-2.2-0.8C419.8,100.1,419.5,100,419.3,99.9c0.3,0,0.6,0.1,0.8,0.2
		l2.3,0.7l8.4,2.8h-0.2l9.1-8l-0.1,0.2c-0.4-1.9-0.7-3.8-1.1-5.8c-0.2-1-0.4-2-0.6-3c-0.1-0.5-0.2-1-0.3-1.5l-0.1-0.8l-0.1-0.4v-0.2
		v-0.1V84l0,0c0,0,0.3,0.4,0.2,0.2l-11.4-4h0.2l-9.2,7.9l0.1-0.2c0.6,3.6,1.2,6.6,1.6,8.7c0.2,1,0.3,1.8,0.4,2.4
		C419.3,99.3,419.3,99.6,419.3,99.9z"/>
	<path class="st3" d="M430.9,111.9c0,0,0.4,0,1.2-0.2c1.2-0.2,2.3-0.7,3.2-1.5l10-8.7c1.1-0.9,1.9-2.2,2.2-3.6
		c0.2-0.7,0.3-1.5,0.2-2.2c-0.1-0.8-0.2-1.6-0.4-2.3c-0.6-3.2-1.3-6.7-2-10.3c-0.1-0.9-0.4-1.8-0.7-2.6c-0.8-1.7-2.2-3-4-3.7l-2.8-1
		l-5.8-2l-3-1c-1-0.4-2-0.6-3-0.6c-1,0-2.1,0.2-3,0.7c-0.9,0.5-1.7,1.1-2.5,1.8l-4.6,4l-4.5,3.9c-1.4,1.2-2.2,3-2.3,4.8
		c0,0.9,0.1,1.8,0.3,2.7c0.2,0.9,0.3,1.8,0.5,2.6c0.3,1.7,0.6,3.4,0.9,5s0.6,3.2,0.9,4.6c0.4,1.4,1.2,2.6,2.2,3.6
		c0.5,0.4,1.1,0.8,1.7,1.1c0.6,0.3,1.2,0.4,1.8,0.7l3.4,1.2l5.4,1.9c1.1,0.4,2.2,0.8,3.4,1.1C430.4,111.9,430.8,111.9,430.9,111.9
		c-0.5,0-0.9,0-1.3,0c-1.2-0.3-2.3-0.6-3.4-1.1l-5.3-1.8l-3.4-1.1c-0.6-0.2-1.2-0.4-1.8-0.7c-0.6-0.3-1.2-0.7-1.8-1.1
		c-1.2-1-2-2.3-2.4-3.7c-0.3-1.5-0.6-3.1-0.9-4.7s-0.6-3.3-1-5c-0.2-0.8-0.3-1.7-0.5-2.6c-0.2-0.9-0.3-1.8-0.3-2.8
		c0.1-2,1-3.8,2.4-5.2l4.5-3.9l4.6-4c0.4-0.3,0.8-0.7,1.2-1c0.4-0.3,0.9-0.6,1.4-0.8c1-0.5,2.1-0.7,3.2-0.7c1.1,0,2.2,0.2,3.2,0.7
		l3,1l5.8,2l2.8,1c1,0.3,1.8,0.9,2.6,1.6c0.7,0.7,1.3,1.5,1.7,2.4c0.4,0.9,0.6,1.8,0.8,2.8c0.7,3.6,1.3,7.1,2,10.3
		c0.2,0.8,0.3,1.6,0.4,2.4c0.1,2.3-0.9,4.6-2.6,6.1l-10.1,8.6c-1,0.7-2.1,1.2-3.3,1.4C431.7,112,431.3,112,430.9,111.9z"/>
	<path class="st1" d="M345.7,91.1c-1.6,0-3.1-0.7-4.1-2l-3.5-4.3c-1.2-1.5-1.5-3.5-0.8-5.2l2-5.2c0.7-1.8,2.3-3,4.1-3.3l5.5-0.8
		c1.9-0.3,3.7,0.4,4.9,1.9l3.5,4.4c1.2,1.5,1.5,3.4,0.8,5.2l-2,5.2c-0.7,1.8-2.2,3-4.1,3.3l-5.5,0.8
		C346.2,91.1,345.9,91.1,345.7,91.1z M349.7,74.2h-0.2L344,75c-0.5,0.1-0.8,0.4-1,0.8l-2,5.2c-0.2,0.4-0.1,0.9,0.2,1.2l3.5,4.3
		c0.3,0.4,0.7,0.5,1.2,0.5l5.5-0.8c0.5-0.1,0.8-0.4,1-0.8l2-5.2c0.2-0.4,0.1-0.9-0.2-1.2l-3.5-4.3C350.5,74.3,350.1,74.2,349.7,74.2
		L349.7,74.2z"/>
	<path class="st6" d="M345.7,91.1c-1.6,0-3.1-0.7-4.1-2l-3.5-4.3c-1.2-1.5-1.5-3.5-0.8-5.2l2-5.2c0.7-1.8,2.3-3,4.1-3.3l5.5-0.8
		c1.9-0.3,3.7,0.4,4.9,1.9l3.5,4.4c1.2,1.5,1.5,3.4,0.8,5.2l-2,5.2c-0.7,1.8-2.2,3-4.1,3.3l-5.5,0.8
		C346.2,91.1,345.9,91.1,345.7,91.1z M349.7,74.2h-0.2L344,75c-0.5,0.1-0.8,0.4-1,0.8l-2,5.2c-0.2,0.4-0.1,0.9,0.2,1.2l3.5,4.3
		c0.3,0.4,0.7,0.5,1.2,0.5l5.5-0.8c0.5-0.1,0.8-0.4,1-0.8l2-5.2c0.2-0.4,0.1-0.9-0.2-1.2l-3.5-4.3C350.5,74.3,350.1,74.2,349.7,74.2
		L349.7,74.2z"/>
	<path class="st3" d="M349.7,74.2c0.1,0,0.3,0,0.4,0c0.2,0,0.3,0.1,0.5,0.2c0.2,0.2,0.3,0.3,0.5,0.5l2.8,3.4l0.5,0.6
		c0.2,0.2,0.3,0.5,0.3,0.8c0,0.3-0.1,0.6-0.2,0.8c-0.1,0.2-0.2,0.5-0.3,0.8c-0.4,1-0.8,2.1-1.3,3.3c-0.1,0.3-0.2,0.6-0.3,0.9
		c-0.1,0.4-0.4,0.7-0.7,0.8c-0.3,0.1-0.7,0.2-1,0.2l-1,0.2c-1.4,0.2-2.7,0.4-4.2,0.6c-0.4,0-0.9-0.2-1.1-0.5l-0.7-0.8l-1.3-1.6
		l-1.2-1.6l-0.3-0.4c-0.1-0.1-0.2-0.3-0.3-0.5c-0.1-0.4-0.1-0.7,0-1.1l1.3-3.3l0.6-1.5c0.1-0.3,0.2-0.5,0.3-0.7
		c0.2-0.2,0.4-0.4,0.6-0.5c1.9-0.3,3.4-0.5,4.4-0.6C348.6,74.2,349.2,74.1,349.7,74.2c-0.1,0-0.3,0.1-0.4,0.1l-1.2,0.2
		c-1,0.2-2.6,0.4-4.3,0.8c-0.2,0.1-0.4,0.2-0.5,0.4c-0.1,0.2-0.2,0.4-0.3,0.7l-0.6,1.5l-1.3,3.3c-0.1,0.2-0.1,0.5,0,0.8
		c0.1,0.3,0.3,0.5,0.5,0.7l1.3,1.6l1.3,1.6l0.6,0.8c0.2,0.2,0.5,0.3,0.8,0.3l4.1-0.6l1-0.2c0.3,0,0.6-0.1,0.9-0.2
		c0.2-0.1,0.4-0.3,0.5-0.6c0.1-0.3,0.2-0.6,0.3-0.9c0.5-1.1,0.9-2.2,1.3-3.3c0.1-0.2,0.2-0.5,0.3-0.8c0.1-0.2,0.2-0.4,0.2-0.7
		c0-0.2-0.1-0.4-0.2-0.6l-0.4-0.6l-2.7-3.5C350.7,74.6,350.3,74.3,349.7,74.2z"/>
	<path class="st3" d="M345.7,91.1c0.2,0,0.4-0.1,0.7-0.1l1.9-0.3l3-0.5c0.6-0.1,1.2-0.2,1.8-0.4c0.6-0.3,1.2-0.7,1.7-1.2
		c0.6-0.5,1-1.2,1.2-1.9c0.3-0.8,0.6-1.6,0.9-2.4c0.5-1.7,1.7-3.4,1.3-5.3c-0.2-1-0.6-1.9-1.3-2.6l-2-2.5l-1-1.3
		c-0.3-0.4-0.7-0.8-1.1-1.1c-0.9-0.6-1.9-1-3-1c-0.6,0-1.1,0.1-1.7,0.2l-1.7,0.2l-3.2,0.5c-1,0.2-1.9,0.7-2.6,1.5
		c-0.3,0.4-0.6,0.8-0.8,1.2c-0.2,0.4-0.4,0.9-0.6,1.4l-1.1,2.7c-0.4,0.8-0.7,1.7-0.9,2.5c-0.2,1.6,0.3,3.2,1.4,4.4l2.5,3.2
		c0.4,0.5,0.7,0.9,1,1.3c0.3,0.3,0.7,0.6,1.1,0.8C344,90.8,344.9,91,345.7,91.1c0.1,0,0,0-0.1,0s-0.3,0-0.5,0
		c-0.7-0.1-1.3-0.2-1.9-0.6c-0.4-0.2-0.8-0.5-1.2-0.8c-0.4-0.4-0.8-0.8-1.1-1.3l-2.6-3.2c-1.2-1.2-1.7-3-1.5-4.7
		c0.2-0.9,0.5-1.8,0.9-2.7l1-2.7c0.2-0.5,0.3-0.9,0.6-1.4c0.2-0.5,0.5-0.9,0.9-1.3c0.7-0.8,1.7-1.4,2.8-1.6c1.1-0.2,2.2-0.3,3.3-0.5
		l1.7-0.2c0.6-0.1,1.2-0.2,1.7-0.2c1.2,0,2.4,0.4,3.3,1.1c0.5,0.4,0.9,0.8,1.2,1.2l1,1.3c0.7,0.8,1.3,1.7,2,2.5
		c0.7,0.8,1.2,1.8,1.4,2.8c0.2,1,0.1,2-0.3,3c-0.3,0.9-0.7,1.7-1,2.6s-0.6,1.6-0.9,2.4c-0.3,0.8-0.7,1.4-1.3,2c-1,1-2.3,1.6-3.8,1.6
		l-3,0.4c-0.8,0.1-1.5,0.2-1.9,0.2C346.1,91.1,345.9,91.1,345.7,91.1z"/>
	<path class="st3" d="M443.1,78.1c-0.7,1.2-1.6,2.3-2.6,3.3c-0.9,1.1-2,2-3.1,2.8c0.8-1.1,1.8-2.1,2.8-3.1
		C441,79.9,442,78.9,443.1,78.1z"/>
	<path class="st3" d="M424.3,72.3c0.7,1.2,1.1,2.5,1.3,3.8c0.4,1.3,0.6,2.6,0.5,4c-0.4-1.3-0.8-2.5-1-3.9
		C424.8,74.9,424.5,73.6,424.3,72.3z"/>
	<path class="st3" d="M416.9,87.8c-1.3-0.3-2.6-0.6-3.8-1.1c-1.3-0.3-2.6-0.7-3.8-1.3C411.9,85.6,414.5,86.4,416.9,87.8L416.9,87.8z
		"/>
	<path class="st3" d="M414.8,105.1c0.5-1,1.2-2,2-2.9c0.7-1,1.5-1.8,2.4-2.5c-0.5,1-1.2,2-2,2.9
		C416.5,103.6,415.7,104.4,414.8,105.1z"/>
	<path class="st3" d="M431.6,110.6c-0.4-1-0.6-2.1-0.7-3.2c-0.2-1.1-0.3-2.2-0.2-3.3c0.4,1,0.6,2.1,0.7,3.2
		C431.6,108.4,431.7,109.5,431.6,110.6z"/>
	<path class="st3" d="M445.8,97.8c-1-0.1-2-0.4-3-0.9c-1-0.3-1.9-0.7-2.8-1.3C442.1,96,444,96.7,445.8,97.8z"/>
</g>
<g id="freepik--Character--inject-17">
	<path class="st3" d="M644.3,174.5c6.8-8.2,13.5-16.4,18.8-25.6s9-19.5,9.3-30.1c0-1.6-0.7-12.8-2.2-13.2c-1.1-0.3-1.9,9.5-2.8,10.2
		c-8.6,6.8-14.2,16.8-17.5,27.3C646.9,153.3,645.1,163.8,644.3,174.5"/>
	<path class="st7" d="M556.2,236.5c2.7-7,16-42,15.9-42s-22.9-11.9-15-36.2c3.8-11.7,13.6-35.2,22.7-56.4
		c9.8-22.8,35.4-34.2,58.9-26.2l2.3,0.8c24.7,10,30,36.5,19.3,60.8l-49,113.5l-42.9-13.3L556.2,236.5z"/>
	<path class="st8" d="M572.1,194.5c0,0,14.9,6,34.6,1.3c0,0-13.6,15.4-37,5.1L572.1,194.5z"/>
	<path class="st3" d="M579.7,125.2c-0.6,1.9,0.3,3.9,2.2,4.6c1.8,0.8,3.8-0.1,4.6-1.8c0,0,0,0,0-0.1c0.7-1.9-0.3-3.9-2.2-4.6
		C582.6,122.6,580.5,123.4,579.7,125.2C579.8,125.2,579.7,125.2,579.7,125.2z"/>
	<path class="st3" d="M581.5,113.7c0.3,0.6,3.5-0.5,7.3,0.8s5.8,4,6.4,3.7c0.3-0.1,0.1-1.1-0.8-2.4c-1.2-1.7-2.9-2.9-4.9-3.5
		c-1.9-0.7-4-0.7-6-0.1C582,112.7,581.4,113.4,581.5,113.7z"/>
	<path class="st3" d="M612.3,138.3c-0.7,1.9,0.3,3.9,2.2,4.6c1.8,0.8,3.8-0.1,4.6-1.8c0,0,0-0.1,0-0.1c0.6-1.9-0.3-3.9-2.2-4.6
		C615.2,135.7,613.1,136.5,612.3,138.3C612.3,138.3,612.3,138.3,612.3,138.3z"/>
	<path class="st3" d="M617.4,127.4c0.3,0.6,3.5-0.4,7.3,0.8s5.8,4,6.4,3.7c0.3-0.1,0.1-1.1-0.8-2.4c-1.2-1.7-2.9-2.9-4.9-3.5
		c-1.9-0.7-4-0.7-6-0.1C617.9,126.5,617.3,127.2,617.4,127.4z"/>
	<path class="st3" d="M594.4,151.5c0.1-0.2-2.1-1.4-5.7-3.1c-0.9-0.4-1.8-0.9-1.7-1.6s0.8-1.6,1.6-2.6l5.2-6.3
		c7.4-9,13-16.5,12.7-16.8s-6.6,6.7-14,15.7c-1.8,2.2-3.5,4.3-5.1,6.4c-0.7,1-1.8,2-1.8,3.6c0.1,0.8,0.5,1.5,1.1,1.9
		c0.5,0.3,1,0.6,1.5,0.8C592,150.9,594.3,151.7,594.4,151.5z"/>
	<path class="st3" d="M604.5,157.8c-0.6-0.2-2,3.8-6.4,5.5s-8.6-0.2-8.8,0.4c-0.1,0.2,0.7,1.1,2.5,1.8c2.4,0.8,4.9,0.8,7.3-0.1
		c2.2-0.8,4.1-2.5,5.1-4.7C604.9,159,604.8,157.8,604.5,157.8z"/>
	<path class="st3" d="M622.7,112.4c0,1.1,3.9,1.9,8.1,3.9s7.3,4.4,8.2,3.7c0.4-0.3,0.1-1.5-1-3c-3-3.7-7.6-5.9-12.4-5.8
		C623.8,111.4,622.7,111.9,622.7,112.4z"/>
	<path class="st3" d="M587.2,101.8c0.4,1.1,3.2,1,6.3,2s5.5,2.5,6.4,1.8c0.4-0.3,0.3-1.3-0.6-2.5c-2.5-3-6.5-4.2-10.2-3.1
		C587.7,100.6,587.1,101.3,587.2,101.8z"/>
	<path class="st7" d="M652.3,154.5c0.5,0,18.3,0.7,12.2,17s-21.3,6.9-21.1,6.4S652.3,154.5,652.3,154.5z"/>
	<path class="st8" d="M650.6,173.6c0.1,0,0.2,0.3,0.6,0.7c0.6,0.5,1.3,0.8,2.1,0.8c2,0,4.4-2.2,5.6-5.1c0.6-1.4,0.8-2.9,0.7-4.4
		c0.1-1.2-0.4-2.3-1.3-3c-0.6-0.5-1.5-0.4-2,0.1c-0.4,0.4-0.4,0.7-0.5,0.7s-0.2-0.4,0.1-1c0.2-0.4,0.6-0.6,1-0.8
		c0.6-0.2,1.2-0.1,1.7,0.2c1.3,0.8,2,2.2,2,3.6c0.2,1.7-0.1,3.4-0.7,4.9c-1.3,3.2-4.2,5.7-6.8,5.5c-1-0.1-1.9-0.6-2.5-1.4
		C650.5,174,650.5,173.6,650.6,173.6z"/>
	<path class="st3" d="M600.6,78.9c-2.1-2.5,9.1-8,16.7-8.4c11.5-0.7,27.5,2.3,35.5,8.3c9.7,7.2,16.7,16.1,18.3,28.1
		s-0.7,24.3-5.4,35.5c-1.4,3.4-3.2,6.9-6.1,9.1c-3.7,2.7-8.9,3.3-10.6,8.4c-0.6,1.9-1.9,3.4-3.6,4.3c-4.2,2-6.7-2.4-7.2-6
		c-1.1-7.8,1.4-15.5,3.9-23c1.8-5.3,3.6-10.7,7-15.1c1.8-2.4,4.1-4.5,5.8-7s2.8-5.7,2-8.6c-0.2-0.6-0.5-1.3-0.8-1.8
		c-3.1-5.8-9-9.5-15.6-9.7c-10.4-0.3-28-1.4-30.8-6.1c-4.2-6.7-4.5-10.2-4.5-10.2L600.6,78.9z"/>
	<path class="st9" d="M655,68.9c1,0.5,25.6,15.7,25.5,37.8s-4.2,27.6-4.2,27.6c0.8,1,1.5,2.1,2,3.4c0.7,1.7-3.1,7.4-6.3,5.5
		c-22.1-20.5-52.5-32.2-87.1-43l-26.2-9.4c-7.7-1.7-9.6-4.5-5.8-5.3c2.9-0.6,26.6-1.8,26.6-1.8l5.1-1.6l16-11.3c0,0-0.6-2.6,2.6-3.4
		S634.3,58.4,655,68.9z"/>
	<path class="st3" d="M584.5,82.1c0,0,0.3,0.1,1,0.4l3,0.9c2.6,0.8,6.2,2.1,10.8,3.7c11.7,4.5,23,10,33.7,16.5
		c10.7,6.5,21.1,13.6,31,21.3c3.8,2.9,6.9,5.3,9,7l2.5,1.9c0.6,0.4,0.9,0.6,0.9,0.6s-0.3-0.3-0.8-0.7l-2.4-2
		c-2.1-1.7-5.1-4.2-8.9-7.1c-9.9-7.8-20.2-14.9-31-21.4c-10.8-6.5-22.1-12-33.9-16.4C594.5,85,589.5,83.4,584.5,82.1z"/>
	<g class="st5">
		<path d="M675.3,89c0,0-27.1-14.5-42.1-12.8L635,76l-14,1.2c-2.4,0.2-5.1,0.3-6.7-1.5c0,0,8.5-3.6,21.9-3.5S669.3,77,675.3,89z"/>
	</g>
	<path class="st3" d="M675.7,89.2c-0.6-0.9-1.3-1.8-2-2.6c-2-2.2-4.2-4.2-6.6-5.9c-3.6-2.6-7.5-4.6-11.7-6
		c-5.1-1.9-10.5-2.6-15.9-2.2c-2.8,0.3-5.5,0.7-8.2,1.4c-2.6,0.6-5.2,1-7.6,1.7c-2.2,0.7-4.5,1.3-6.8,1.6c-2,0.2-4-0.1-5.9-0.8
		c-7.1-2.3-10.9-5.3-10.4-5.6c0,0.3,0.2,0.6,0.4,0.8c0.6,0.6,1.2,1.1,1.9,1.5c2.5,1.5,5.2,2.8,8.1,3.7c1.9,0.7,4,1,6.1,0.9
		c2.3-0.3,4.6-0.9,6.9-1.6c2.4-0.7,4.9-1.1,7.6-1.7c2.7-0.6,5.4-1,8.2-1.3c5.3-0.4,10.7,0.3,15.7,2.2c4.1,1.4,8.1,3.4,11.6,5.8
		c2.4,1.7,4.6,3.6,6.6,5.8c0.7,0.8,1.2,1.4,1.6,1.8S675.7,89.2,675.7,89.2z"/>
	<g class="st5">
		<path d="M680.1,115.9c-5.1-1.8-8.6-4.5-13.3-7.4c-5-3.1-10.1-5.9-15-9.2c-3.7-2.5-8.2-5.1-9.8-9c-1.1,1.9-1.1,4.3-0.1,6.2
			c1,2,5.5,5.6,7.4,6.9c10.8,7.3,18.3,12.4,30.4,17.5C679.9,119.2,680.1,117.6,680.1,115.9"/>
	</g>
	<path class="st9" d="M680.4,104.3c2.8,2.5,4.5,4.2,3.6,7c-0.7,2.3-2.2,5-4.6,4.6c-0.7-0.2-1.4-0.5-2-0.9l-33.1-19.4
		c-1.2-0.5-2.2-1.5-2.7-2.6c-0.7-1.9,1-3.9,2.9-4.5s4,0,5.8,0.7C661.1,92.7,670.9,98.1,680.4,104.3"/>
	<path class="st3" d="M641.9,93.7c-0.3-0.6-0.4-1.2-0.4-1.9c0.2-1.8,1.3-3.4,3-4c2.1-0.7,4.9-0.2,7.7,0.9s5.9,2.4,9,3.8
		c5.4,2.4,10.6,5.3,15.6,8.6c1.9,1.3,3.3,2.4,4.3,3.2l1.1,0.9c0.1,0.1,0.3,0.2,0.4,0.3c0,0-0.1-0.1-0.4-0.4l-1.1-1
		c-1-0.8-2.4-2-4.3-3.3c-4.9-3.4-10.1-6.4-15.6-8.8c-3.2-1.5-6.2-2.7-9.1-3.8s-5.7-1.6-8-0.8c-1.8,0.7-3,2.4-3.1,4.3
		c0,0.5,0.1,1,0.3,1.4C641.7,93.4,641.8,93.6,641.9,93.7z"/>
	<polygon class="st10" points="595.5,74.4 618,81.6 614,87.2 589.8,78.4 	"/>
	<path class="st3" d="M622.5,105.8c0-0.1-9.4-5-21.2-10.8S580,84.5,580,84.6s9.4,5,21.2,10.8S622.5,105.9,622.5,105.8z"/>
	<path class="st9" d="M628.2,227.1l0.3-14.8l-50.6,18.8c0,0-9.3-30.4-9.3-31.8l-11.2,7l-18.6-8l-18.6-9.2l-37.7,66l-39.5,116.5
		l93.1,62.1l69.1-74l42-64l23.1-40.5L628.2,227.1z"/>
	<path class="st3" d="M573.4,230.9c-0.1-0.5-0.1-1-0.1-1.5c0-1,0-2.4-0.1-4.1l0.2,0.1c-5.6,2.7-10.7,6.2-15.2,10.4l-0.4,0.4v-0.6
		c0-0.7-0.1-1.4-0.1-2.1c-0.4-7.2-0.8-13.8-1-18.6c-0.1-2.3-0.2-4.2-0.2-5.6c0-0.6,0-1.1,0-1.5c-0.1,0-0.2-0.2-0.2-0.3
		c0-0.1,0.2-0.2,0.3-0.2c0.1,0,0.2,0.2,0.2,0.3c0,0.1-0.1,0.2-0.2,0.2c0,0.4,0.1,0.9,0.1,1.5c0.1,1.4,0.2,3.3,0.4,5.6
		c0.3,4.8,0.7,11.3,1.1,18.6c0,0.7,0.1,1.4,0.1,2.1l-0.4-0.2c4.6-4.2,9.8-7.7,15.4-10.3l0.2-0.1v0.2c0,1.7-0.1,3.1-0.1,4.1
		C573.5,229.9,573.5,230.4,573.4,230.9z"/>
	<path class="st3" d="M623.5,227.8c-0.2,0.1-0.4,0.2-0.6,0.3l-1.7,0.8l-6.3,2.9l-20.8,9.3l-9.9,4.4l-0.4,0.2l0.1-0.4
		c0.8-4.7,1.2-9.4,1.1-14.2l0.2,0.1l-4.7,2.3l-1.2,0.6c-0.3,0.1-0.4,0.2-0.4,0.2c0.1-0.1,0.3-0.2,0.4-0.2l1.2-0.7l4.6-2.4l0.2-0.1
		v0.3c0.1,4.8-0.2,9.6-1,14.3l-0.3-0.3l9.8-4.4l20.8-9.1l6.3-2.7l1.7-0.7C623.1,228,623.3,227.9,623.5,227.8z"/>
	<path class="st11" d="M154.2,153.9h380.9c8,0,14.6,6.5,14.6,14.6v263.7c0,8-6.5,14.6-14.6,14.6H154.2c-8,0-14.6-6.5-14.6-14.6
		V168.5C139.6,160.4,146.2,153.9,154.2,153.9z"/>
	<path class="st11" d="M123.6,427.8h444.2l0,0v7.8c0,9.8-8,17.8-17.8,17.8H141.4c-9.8,0-17.8-8-17.8-17.8L123.6,427.8
		C123.6,427.8,123.6,427.8,123.6,427.8z"/>
	<rect x="150.6" y="165.5" class="st3" width="386.9" height="247.3"/>
	<polygon class="st3" points="304.2,425.1 309.7,434.6 387.3,434.6 392.4,425.1 	"/>
	<path class="st2" d="M161.9,173.9h365.2c1.8,0,3.3,1.5,3.3,3.3v231.6c0,1.8-1.5,3.3-3.3,3.3H161.9c-1.8,0-3.3-1.5-3.3-3.3V177.2
		C158.6,175.4,160.1,173.9,161.9,173.9z"/>
	<polygon class="st12" points="530,412.4 158.2,412.4 158.6,191.7 530,191.7 	"/>
	<path class="st3" d="M189.8,183.1c-0.1,1.7-1.5,3-3.2,2.9c-1.7-0.1-3-1.5-2.9-3.2c0.1-1.6,1.4-2.9,3.1-2.9
		C188.5,179.9,189.9,181.4,189.8,183.1z"/>
	<path class="st3" d="M171.3,183.1c-0.1,1.7-1.5,3-3.2,2.9c-1.7-0.1-3-1.5-2.9-3.2c0.1-1.6,1.4-2.9,3.1-2.9
		C170,179.9,171.3,181.4,171.3,183.1z"/>
	<path class="st3" d="M180.8,183.1c-0.1,1.7-1.5,3-3.2,2.9c-1.7-0.1-3-1.5-2.9-3.2c0.1-1.6,1.4-2.9,3.1-2.9
		C179.5,179.9,180.9,181.4,180.8,183.1z"/>
	<path class="st3" d="M546.2,425.1c0,0.2-91,0.3-203.2,0.3s-203.3-0.1-203.3-0.3s91-0.3,203.3-0.3S546.2,424.9,546.2,425.1z"/>
	<path class="st1" d="M304.5,234c6-3.6,12.5-6.5,19.3-8.4l4-19.1l32.3-0.6l4.7,19c6.9,1.7,13.5,4.3,19.6,7.7l16.4-10.7l23.3,22.5
		L414,261.1c3.7,6,6.5,12.6,8.4,19.4l19.1,4l0.6,32.3l-19,4.7c-1.7,6.8-4.3,13.4-7.7,19.6l10.7,16.4l-22.5,23.3l-16.7-10.1
		c-6,3.7-12.6,6.5-19.4,8.4l-4,19.1l-32.4,0.6l-4.6-19c-6.8-1.7-13.4-4.3-19.6-7.7l-16.4,10.7l-23.3-22.5l10.1-16.7
		c-3.7-6-6.5-12.6-8.4-19.4l-19.1-4l-0.6-32.3l19-4.7c1.7-6.9,4.3-13.5,7.7-19.6l-10.7-16.4l22.5-23.3L304.5,234z M321.8,277.1
		c-13.3,13.8-12.9,35.8,0.9,49.1c13.8,13.3,35.8,12.9,49.1-0.9c13.3-13.8,12.9-35.8-0.9-49.1C357.1,262.9,335.1,263.3,321.8,277.1
		C321.8,277.1,321.8,277.1,321.8,277.1L321.8,277.1z"/>
	<path class="st1" d="M433.8,246.4c0.4-2.4,1.2-4.7,2.2-6.9l-4-5.4l7.2-8.5l6,3.1c2-1.4,4.2-2.5,6.5-3.3l1-6.7l11.1-0.9l2,6.4
		c2.4,0.4,4.7,1.2,6.9,2.3l5.4-4l8.5,7.2l-3.1,6c1.4,2,2.5,4.2,3.3,6.5l6.7,1l0.9,11.1l-6.4,2c-0.4,2.4-1.2,4.7-2.3,6.9l4,5.4
		l-7.2,8.5l-6-3.1c-2,1.4-4.2,2.5-6.5,3.3l-1,6.7l-11.1,0.9l-2-6.4c-2.4-0.4-4.7-1.2-6.9-2.2l-5.4,4l-8.5-7.3l3.1-6
		c-1.4-2-2.5-4.2-3.3-6.5l-6.7-1l-0.9-11.1L433.8,246.4L433.8,246.4z M448.8,249.7c-0.6,6.6,4.2,12.5,10.8,13.1s12.5-4.2,13.1-10.8
		c0.6-6.6-4.2-12.5-10.8-13.1c-1.1-0.1-2.2-0.1-3.2,0.1C453.4,240,449.3,244.4,448.8,249.7L448.8,249.7z"/>
	<path class="st1" d="M190.2,358c0.1-2.9,0.5-5.7,1.4-8.5l-5.7-5.5l6.9-11.2l7.5,2.6c2.1-2,4.5-3.7,7-5l-0.1-8l12.8-3l3.5,7.1
		c2.9,0.1,5.7,0.5,8.5,1.4l5.6-5.7l11.2,6.9l-2.6,7.5c2,2.1,3.7,4.5,5,7l8-0.1l3,12.8l-7.2,3.5c-0.1,2.9-0.6,5.7-1.4,8.5l5.7,5.6
		l-6.9,11.2l-7.5-2.6c-2.1,2-4.5,3.7-7,5l0.1,8l-12.8,3l-3.5-7.1c-2.9-0.1-5.7-0.6-8.4-1.4l-5.6,5.7l-11.2-6.9l2.6-7.5
		c-2-2.1-3.7-4.5-5-7l-8,0.1l-3-12.8L190.2,358L190.2,358z M208.8,361.6c1.8,7.6,9.4,12.3,17,10.5c7.6-1.8,12.3-9.4,10.5-17
		c-1.8-7.6-9.4-12.3-17-10.5C211.7,346.4,207,354,208.8,361.6C208.7,361.6,208.7,361.6,208.8,361.6L208.8,361.6z"/>
	<path class="st2" d="M213.2,251.2c0.3-1.8,0.9-3.6,1.7-5.2l-3-4.1l5.5-6.4l4.5,2.4c1.5-1,3.2-1.9,4.9-2.5l0.7-5l8.4-0.7l1.5,4.9
		c1.8,0.3,3.6,0.9,5.2,1.7l4.1-3l6.4,5.5l-2.4,4.5c1,1.5,1.9,3.1,2.5,4.9l5,0.7l0.7,8.4l-4.8,1.5c-0.3,1.8-0.9,3.6-1.7,5.2l3,4.1
		l-5.5,6.4l-4.5-2.4c-1.5,1-3.1,1.9-4.9,2.5l-0.7,5l-8.4,0.6l-1.5-4.9c-1.8-0.3-3.6-0.9-5.2-1.7l-4.1,3l-6.4-5.5l2.4-4.5
		c-1-1.5-1.9-3.1-2.5-4.9l-5-0.7l-0.6-8.4L213.2,251.2L213.2,251.2z M224.6,255.2c0.4,5,4.7,8.7,9.7,8.3c5-0.4,8.7-4.7,8.3-9.7
		c-0.4-4.9-4.7-8.6-9.7-8.3C227.9,245.9,224.2,250.3,224.6,255.2C224.6,255.2,224.6,255.2,224.6,255.2z"/>
	<path class="st2" d="M434.2,341.4c0.3-1.6,0.8-3.1,1.5-4.5l-2.6-3.5l4.7-5.5l3.9,2c1.3-0.9,2.7-1.6,4.2-2.1l0.6-4.3l7.2-0.6
		l1.3,4.2c1.6,0.3,3.1,0.8,4.5,1.5l3.5-2.6l5.5,4.7l-2,3.9c0.9,1.3,1.6,2.7,2.1,4.2l4.3,0.6l0.6,7.2l-4.2,1.3
		c-0.3,1.6-0.8,3.1-1.5,4.5l2.6,3.5l-4.7,5.5l-3.9-2c-1.3,0.9-2.7,1.6-4.2,2.1l-0.6,4.3l-7.2,0.6l-1.3-4.2c-1.6-0.3-3.1-0.8-4.5-1.5
		l-3.5,2.6l-5.5-4.7l2-3.9c-0.9-1.3-1.6-2.7-2.1-4.2l-4.3-0.6l-0.6-7.2L434.2,341.4L434.2,341.4z M443.9,344.9
		c0.3,4.3,4.1,7.5,8.3,7.1c4.3-0.3,7.5-4.1,7.1-8.3c-0.3-4.3-4.1-7.5-8.3-7.1c0,0,0,0,0,0C446.8,337,443.6,340.7,443.9,344.9
		L443.9,344.9z"/>
	<path class="st9" d="M345.7,352.3H296c-9.2,0-16.7-7.5-16.7-16.7c0-2.9,0.8-5.7,2.2-8.3l24.9-43.1l24.9-43.1
		c4.6-8,14.8-10.7,22.8-6.1c2.5,1.5,4.6,3.6,6.1,6.1l24.9,43.1l24.9,43.1c4.6,8,1.8,18.2-6.2,22.8c-2.5,1.4-5.4,2.2-8.3,2.2H345.7z"
		/>
	<path class="st3" d="M399.3,332.2c0,0,0.1,0.2,0.4,0.8c0.9,2.1,0.6,4.5-0.7,6.4c-0.5,0.7-1.1,1.4-1.9,1.9c-0.9,0.5-1.8,0.9-2.9,0.9
		c-8.5,0.1-20.7,0.1-35.9,0.1l-53.2,0.1h-7.6c-2.8,0-5.2-1.8-6.1-4.4c-0.5-1.3-0.6-2.7-0.2-4c0.1-0.3,0.2-0.7,0.3-1s0.3-0.6,0.4-0.9
		l1-1.8c1.3-2.4,2.6-4.7,3.9-7.1l16.1-29.6l16.2-29.6c2.6-4.8,5.2-9.5,7.7-14.1c0.6-1.1,1.2-2.3,1.9-3.4c0.7-1.2,1.6-2.1,2.8-2.8
		c2.3-1.3,5.1-1.4,7.5-0.3c1.2,0.5,2.2,1.4,3,2.4c0.7,1,1.3,2.1,1.9,3.2c1.2,2.1,2.3,4.2,3.5,6.3c2.3,4.2,4.5,8.2,6.6,12.1
		c4.3,7.8,8.2,15.1,11.9,21.7c7.2,13.3,13.1,24,17.1,31.5l4.6,8.6c0.5,1,0.9,1.7,1.2,2.2S399.3,332.2,399.3,332.2
		c0,0-0.2-0.2-0.4-0.7l-1.2-2.2l-4.7-8.5c-4.1-7.4-10-18.1-17.3-31.4l-11.9-21.7l-6.6-12.1c-1.1-2.1-2.3-4.2-3.5-6.3
		c-0.6-1.1-1.2-2.1-1.8-3.1c-0.7-1-1.7-1.7-2.8-2.2c-2.3-1-4.9-0.9-7.1,0.3c-1.1,0.6-2,1.5-2.6,2.6c-0.7,1.1-1.3,2.3-1.9,3.4
		l-7.7,14.1c-5.2,9.6-10.6,19.5-16.2,29.6l-16.2,29.6c-1.3,2.4-2.6,4.8-3.9,7.1c-0.7,1.1-1.3,2.3-1.6,3.5c-0.3,1.2-0.2,2.5,0.2,3.8
		c0.8,2.4,3.1,4.1,5.7,4.1h7.6l53.2,0l35.9,0c1-0.1,1.9-0.4,2.8-0.9c0.7-0.5,1.4-1.1,1.9-1.8c0.8-1.1,1.2-2.5,1.2-3.8
		C400.1,334.4,399.8,333.2,399.3,332.2z"/>
	<path class="st10" d="M337.7,323c0-4.4,3.5-7.7,8.5-7.7s8.5,3.3,8.5,7.7s-3.4,7.9-8.5,7.9S337.7,327.4,337.7,323z M337.8,277.8
		h16.9l-2.8,33.3h-11.3L337.8,277.8z"/>
	<path class="st10" d="M348.1,236.1c-1-0.3-2.1-0.6-3.2-0.7c-2.6-0.1-5.2,0.8-7.2,2.4c-2,1.7-3.6,3.8-4.7,6.1
		c-0.9,1.8-1.3,3-1.4,2.9c0-0.3,0.1-0.6,0.2-0.9c0.2-0.8,0.5-1.5,0.9-2.2c1.1-2.5,2.7-4.7,4.8-6.4c2.1-1.7,4.8-2.5,7.6-2.4
		c0.8,0.1,1.6,0.3,2.4,0.6C347.9,235.9,348.1,236.1,348.1,236.1z"/>
	<path class="st10" d="M327.3,254.4c0.2-0.9,0.6-1.7,1.1-2.4c0.7-1.2,1.4-2.2,1.5-2.1c-0.2,0.9-0.6,1.7-1.1,2.4
		C328.5,253.1,328,253.8,327.3,254.4z"/>
	<g class="st5">
		<polygon class="st10" points="370.7,259.3 293.2,307 283.1,324.4 376.2,268.7 		"/>
	</g>
	<g class="st5">
		<path class="st10" d="M382.9,280.4L280.2,341c0.4,1.6,1.2,3.1,2.2,4.3l102.3-61.8L382.9,280.4z"/>
	</g>
	<path class="st1" d="M636.7,393.4c-8-8.8-20.3-12.1-31.7-8.5l-9.6-10.5l-1.3-1.5l-75.7-83.1c6.6-15.3-0.4-33.1-15.8-39.8
		c-5.1-2.2-10.7-3-16.2-2.2l-3.7,1.5l12.9,8.6l-0.7,14l-10.4,9.5l-14-0.7l-9.2-10.1l-3.8,1.5c-1.1,8.5,4.6,19.1,10.8,26
		c8,8.8,20.3,12.1,31.6,8.5l77,84.5l2.4,2.6l7.3,8c-4.7,10.9-2.6,23.5,5.4,32.2c6.2,6.8,14.3,11.3,22.8,11.1l3.8-1.5l-9.2-10.1
		l0.7-14l10.4-9.5l14,0.7l5.4,11.6l3.8-1.5C646,411.1,643.4,400.8,636.7,393.4z"/>
	<g class="st5">
		<path d="M636.7,393.4c-8-8.8-20.3-12.1-31.7-8.5l-9.6-10.5l-1.3-1.5l-75.7-83.1c6.6-15.3-0.4-33.1-15.8-39.8
			c-5.1-2.2-10.7-3-16.2-2.2l-3.7,1.5l12.9,8.6l-0.7,14l-10.4,9.5l-14-0.7l-9.2-10.1l-3.8,1.5c-1.1,8.5,4.6,19.1,10.8,26
			c8,8.8,20.3,12.1,31.6,8.5l77,84.5l2.4,2.6l7.3,8c-4.7,10.9-2.6,23.5,5.4,32.2c6.2,6.8,14.3,11.3,22.8,11.1l3.8-1.5l-9.2-10.1
			l0.7-14l10.4-9.5l14,0.7l5.4,11.6l3.8-1.5C646,411.1,643.4,400.8,636.7,393.4z"/>
	</g>
	<path class="st1" d="M632.9,394.9c-8-8.8-20.3-12.1-31.6-8.5l-9.6-10.5l-1.3-1.5l-75.7-83.1c6.6-15.3-0.4-33.1-15.8-39.8
		c-5.1-2.2-10.7-3-16.2-2.2l9.2,10.1l-0.7,14l-10.4,9.5l-14-0.7l-9.2-10.1c-3.9,16.2,6,32.6,22.2,36.5c5.4,1.3,11.1,1.1,16.4-0.6
		l77,84.5l2.4,2.6l7.3,8c-6.6,15.3,0.5,33.1,15.8,39.7c5.1,2.2,10.7,2.9,16.2,2.2l-9.2-10.1l0.7-14l10.4-9.5l14,0.7l9.2,10.1
		C642.3,412.6,639.7,402.3,632.9,394.9z"/>
	<path class="st3" d="M632.9,394.9c0,0,0.4,0.5,1.3,1.5c1.2,1.5,2.2,3.1,3.1,4.7c3.5,6.5,4.4,14.1,2.7,21.3v0.2l-0.1-0.1l-9.2-10.1
		l0.1,0l-14-0.7h0.1l-10.4,9.5V421c-0.2,4.4-0.4,9.1-0.7,14V435l9.1,10l0.2,0.3l-0.3,0c-10.3,1.5-20.7-2.4-27.4-10.3
		c-3.6-4.2-6-9.3-6.9-14.8c-0.9-5.7-0.2-11.6,2.1-17v0.2l-86.7-95.1l0.3,0.1c-5.5,1.7-11.3,1.9-16.9,0.5
		c-16.1-4.2-25.9-20.5-22-36.7l0.1-0.5l0.3,0.4l9.2,10.1l-0.2-0.1l14,0.7l-0.2,0.1l10.5-9.5l-0.1,0.2c0.2-4.7,0.5-9.4,0.7-14
		l0.1,0.2l-9.2-10.1l-0.3-0.4l0.5-0.1c11.3-1.6,22.5,3.2,29.1,12.5c3.1,4.3,5,9.4,5.5,14.7c0.5,5.1-0.3,10.3-2.3,15v-0.2l86.5,95.2
		h-0.1c8.3-2.7,17.4-1.6,24.9,2.9c1.9,1.1,3.6,2.5,5.2,4C632.5,394.3,633,394.8,632.9,394.9l-1.5-1.6c-1.6-1.5-3.4-2.8-5.3-4
		c-7.5-4.5-16.5-5.5-24.8-2.8h-0.1v-0.1l-86.7-95l-0.1-0.1l0.1-0.1c2-4.7,2.8-9.8,2.3-14.8c-0.5-5.2-2.4-10.2-5.4-14.5
		c-6.5-9.1-17.5-13.9-28.6-12.3l0.1-0.4l9.1,10.2l0.1,0.1v0.1c-0.2,4.6-0.4,9.3-0.7,14v0.1l-0.1,0.1l-10.4,9.5l-0.1,0.1h-0.1
		l-14-0.7h-0.1l-0.1-0.1l-9.2-10.1l0.5-0.1c-3.9,16.1,6,32.3,22.1,36.2c5.3,1.3,10.9,1.1,16.1-0.6h0.1l0.1,0.1
		c31.5,34.6,61,66.9,86.6,95.1l0.1,0.1l-0.1,0.1c-2.2,5.3-3,11.1-2,16.7c1.8,10.7,9.2,19.7,19.4,23.4c4.6,1.7,9.6,2.2,14.5,1.5
		l-0.1,0.3l-9.2-10.1l0-0.1V435c0.2-4.9,0.5-9.7,0.7-14v-0.1v0l10.4-9.4l0,0h0.1l14,0.7l0,0l0,0c3.4,3.7,6.5,7.1,9.2,10.1h-0.2
		c1.7-7.1,0.8-14.7-2.6-21.2c-0.9-1.7-1.9-3.2-3.1-4.7C633.3,395.4,632.9,394.9,632.9,394.9z"/>
	<path class="st3" d="M511.2,296.2c-0.1,0.3-0.2,0.5-0.3,0.8c-0.4,0.7-0.7,1.3-1.2,1.9c-2.8,4-6.8,7.1-11.5,8.8
		c-0.7,0.3-1.4,0.5-2.1,0.6c-0.3,0.1-0.5,0.1-0.8,0.1c0-0.1,1.1-0.4,2.8-1.1c4.5-1.9,8.4-4.8,11.3-8.7
		C510.5,297.1,511.1,296.1,511.2,296.2z"/>
	<path class="st7" d="M595.8,332.3L567,318.9l-25.7-3.2l9.4,8c0,0-33.2,11.6-33.8,14.2s2.6,9.6,8.5,8.3c0,0-3.3,4-1.9,8.4
		s4.4,5.2,10,4.2c0,0-3.8,5.7-0.8,8.6s7.6,2.2,7.6,2.2s0.1,6.9,3.7,7.5s13.9-0.1,17.7-1.3l19.3-6l12.5-2.8L595.8,332.3z"/>
	<path class="st8" d="M542.8,341.1c0.1,0.4-3.7,1.8-8.5,3.2s-8.8,2.2-9,1.9s3.7-1.8,8.5-3.2S542.7,340.7,542.8,341.1z"/>
	<path class="st8" d="M547.7,354.7c0.1,0.4-2.9,1.6-6.8,2.8s-7.1,1.8-7.2,1.4s2.9-1.6,6.8-2.8S547.6,354.4,547.7,354.7z"/>
	<path class="st8" d="M552.1,366.1c0.1,0.4-2.7,1-5.9,1.8s-5.8,2-6,1.6s2.2-2.1,5.6-3S552,365.8,552.1,366.1z"/>
	<path class="st8" d="M555.7,322.5c0.1,0.4-3.7,1.8-8.3,3.4s-8.5,2.8-8.6,2.5s3.5-2.2,8.2-3.8S555.6,322.1,555.7,322.5z"/>
	<polygon class="st7" points="590.3,329.7 652.6,352.3 649,395 580.4,367.4 	"/>
	<path class="st9" d="M670.3,254.9c0,0,8.1,8.4,12.8,23.5s27,79.1,26.5,99.4c-0.6,21-14.8,36.1-45.9,27.8c-18.6-5-40.7-13-40.7-13
		l15.7-51.7L651,344l-19.9-37.3L670.3,254.9z"/>
	<path class="st3" d="M656,279.4c0.1,0.1-8.5,12.4-19.2,27.4s-19.5,27.2-19.7,27.1s8.5-12.4,19.2-27.4S655.9,279.3,656,279.4z"/>
	<path class="st3" d="M679.8,351c0,0-0.5-0.3-1.5-0.7c-1.4-0.6-2.8-1.1-4.3-1.5c-1.8-0.5-4.1-1-6.6-1.5l-8.1-1.8
		c-5.7-1.3-10.9-2.5-14.7-3.4l-4.4-1.1c-0.5-0.1-1.1-0.3-1.6-0.5c0.6,0,1.1,0.1,1.7,0.3l4.5,0.9c3.8,0.8,9,1.9,14.7,3.2l8.1,1.8
		c2.5,0.6,4.7,1.1,6.6,1.6c1.5,0.4,2.9,1,4.3,1.7c0.4,0.2,0.7,0.4,1.1,0.6C679.6,350.8,679.7,350.9,679.8,351z"/>
	<g class="st5">
		<path d="M695.8,353.3c-0.4-2.5-2-4.6-4.3-5.7c-2.3-1.1-4.7-1.7-7.2-1.9c-11.2-1.5-22.5-2-33.8-2.4l1,0.5
			c13.9,2.6,27.6,6.6,40.8,11.9c0.7,0.4,1.6,0.5,2.4,0.3C695.5,355.3,696,354.3,695.8,353.3z"/>
	</g>
	<g class="st5">
		<path d="M439.1,154.9c-10.5-1.8-23.1,1.3-33.6-0.5c-1.6-0.3-3.3-0.5-4.7,0.3c-1.7,0.9-2.2,3.1-2.3,5c-0.1,5.4,2.1,10.5,6,14.2
			c3.9,3.6,8.8,5.9,14.1,6.7c4.2,0.7,8.7,0.6,12.4-1.4C437.7,175.6,440.9,162.1,439.1,154.9z"/>
	</g>
	<path class="st7" d="M398.4,174.1c0,0-6.4-7.5-7.3-10.9c-0.6-2.3-0.3-8.7,0-12.7c0.1-2.8,1.9-5.2,4.5-6.2c0.8-0.4,1.7-0.3,2.4,0.2
		c0.9-1.2,1.8-2.3,2.9-3.3c2.5-2.6,3.7-4.3,9.2-2.7c0,0,4-4.3,6.4-3.9c1.6,0.2,3.1,0.6,4.6,1c0,0,8.9-0.4,10.7,2.4
		c1,1.3,2.4,2.2,4,2.7c2.8,1,5.1,3.1,6.3,5.8c1,2.5,1.6,5.1,1.8,7.7l-9,0.4c0,0,0.6,20.7-1.6,22.4s-3.1,1.1-3.1,1.1
		s-1.7,4.9-8.5,1.3c0,0-5.6,1.7-8-0.6s-11.2-24.5-11.2-24.5l0.2,11c0,0,4.6,7.1,2.4,8.8S398.4,174.1,398.4,174.1z"/>
	<path class="st8" d="M409.6,146.1c0.2,0.4,0.4,0.9,0.5,1.3l1.2,3.6c1,3,2.4,7.3,3.8,11.9s2.7,9,4.1,11.8c0.5,1.1,1.1,2.2,1.8,3.3
		c0.5,0.8,0.8,1.1,0.8,1.2s-0.1-0.1-0.3-0.2c-0.2-0.3-0.5-0.5-0.7-0.8c-0.8-1-1.4-2.1-2-3.3c-1.5-2.9-2.7-7.2-4.2-11.8
		s-2.8-8.9-3.7-12c-0.4-1.5-0.8-2.7-1.1-3.6C409.8,147,409.7,146.5,409.6,146.1z"/>
	<path class="st8" d="M420.7,143.5c0.2,0.4,0.4,0.9,0.5,1.3l1.1,3.7c0.9,3.1,2,7.5,3.3,12.3s2.4,9.2,3.2,12.3
		c0.4,1.5,0.7,2.8,0.9,3.7c0.1,0.5,0.2,0.9,0.3,1.4c-0.2-0.4-0.3-0.9-0.5-1.3c-0.3-1-0.6-2.2-1.1-3.7c-0.9-3.1-2.1-7.5-3.3-12.3
		s-2.4-9.2-3.2-12.3c-0.4-1.5-0.7-2.8-0.9-3.8C420.8,144.4,420.7,144,420.7,143.5z"/>
</g>
</svg>
